<svg xmlns="http://www.w3.org/2000/svg" xmlns:xlink="http://www.w3.org/1999/xlink" fill="none" version="1.1" width="14.299407958984375" height="18" viewBox="0 0 14.299407958984375 18"><g transform="matrix(0,1,-1,0,14.626266479492188,-11.626266479492188)"><g transform="matrix(-1,0,0,-1,56.252655029296875,26.90625)"><path d="M27.191591514648437,20.602835L34.69250751464844,26.579425L36.56197751464844,24.233125L30.533427514648437,19.429685L36.56197751464844,14.626265L34.69250751464844,12.279985L27.191591514648437,18.256545Q27.05890751464844,18.362265,26.953187514648437,18.494955Q26.861117514648438,18.610495,26.793367514648438,18.741785Q26.725617514648437,18.873065,26.684777514648438,19.015045Q26.64393751464844,19.157025,26.631577514648438,19.304245Q26.619227514648436,19.451465,26.635827514648437,19.598264999999998Q26.652437514648437,19.745065,26.697357514648438,19.885815Q26.74228751464844,20.026555000000002,26.81379751464844,20.155825Q26.885317514648438,20.285095,26.980687514648437,20.397935Q27.076047514648437,20.510765,27.191591514648437,20.602835Z" fill-rule="evenodd" fill="#232323" fill-opacity="1" style="mix-blend-mode:passthrough"/></g><g><line x1="13.126266479492188" y1="7.476951599121094" x2="28.126266479492188" y2="7.476951599121094" fill-opacity="0" stroke-opacity="1" stroke="#232323" fill="none" stroke-width="3" stroke-linecap="ROUND" style="mix-blend-mode:passthrough"/></g></g></svg>