<svg xmlns="http://www.w3.org/2000/svg" xmlns:xlink="http://www.w3.org/1999/xlink" fill="none" version="1.1" width="92.56494140625" height="102.2965087890625" viewBox="0 0 92.56494140625 102.2965087890625"><g><g transform="matrix(0.9848077297210693,-0.1736481785774231,0.1736481785774231,0.9848077297210693,-2.355167941081163,0.20604013058982673)"><g><g><path d="M39.18453896484375,13.5628662109375C40.89173896484375,13.5628662109375,42.37273896484375,13.7075352109375,43.71193896484375,14.0051342109375C45.22563896484375,14.3415372109375,46.53173896484375,14.8218262109375,47.70473896484375,15.4734462109375C47.88043896484375,15.5710662109375,48.05283896484375,15.6712462109375,48.22203896484375,15.773896210937501C49.68233896484375,15.6540262109375,51.19803896484375,15.7204862109375,52.69403896484375,15.982226210937501C53.47513896484375,16.1189562109375,54.17753896484375,16.2673362109375,54.80223896484375,16.4234962109375C55.54193896484375,16.6084062109375,56.14103896484375,16.7883762109375,56.60333896484375,16.9501562109375C56.60333896484375,16.9501562109375,56.60263896484375,16.9523862109375,56.60263896484375,16.9523862109375C58.31373896484375,17.4172062109375,59.81103896484375,18.3758462109375,60.94193896484375,19.7327362109375C60.94193896484375,19.7327362109375,62.04043896484375,21.0507362109375,62.04043896484375,21.0507362109375C62.04043896484375,21.0507362109375,62.76423896484375,23.3304862109375,62.76423896484375,23.3304862109375C63.01243896484375,24.4409662109375,63.07613896484375,25.0106662109375,63.07613896484375,25.6331662109375C63.07613896484375,25.6331662109375,63.07613896484375,29.0828662109375,63.07613896484375,29.0828662109375C63.07613896484375,29.0828662109375,61.22823896484375,30.9440662109375,61.22823896484375,30.9440662109375C61.22823896484375,30.9440662109375,58.28503896484375,35.5954662109375,58.28503896484375,35.5954662109375C58.51293896484375,35.742966210937496,58.73893896484375,35.893066210937505,58.96333896484375,36.045866210937504C61.44163896484375,37.733966210937496,63.72783896484375,39.7015662109375,65.75863896484375,41.8941662109375C67.75873896484374,44.053566210937504,69.55843896484375,46.4607662109375,71.10783896484375,49.0489662109375C72.61973896484375,51.5745662109375,73.90963896484375,54.2419662109375,74.94173896484375,56.9769662109375C75.97363896484374,59.7114662109375,76.76693896484375,62.5618662109375,77.29973896484375,65.4489662109375C77.83433896484375,68.3462662109375,78.10543896484376,71.2584662109375,78.10543896484376,74.1048662109375C78.10543896484376,77.8334662109375,77.59733896484374,81.2383662109375,76.59523896484374,84.2249662109375C75.54803896484376,87.3459662109375,74.00943896484375,90.1182662109375,72.02223896484375,92.4649662109375C70.08603896484375,94.7511662109375,67.75083896484375,96.6853662109375,65.08133896484375,98.2136662109375C62.63783896484375,99.6126662109375,59.91603896484375,100.7390662109375,56.99143896484375,101.5615662109375C54.24863896484375,102.3329662109375,51.29033896484375,102.8868662109375,48.19873896484375,103.2078662109375C45.27003896484375,103.5118662109375,42.22143896484375,103.6653662109375,39.05263896484375,103.6653662109375C35.85333896484375,103.6653662109375,32.79003896484375,103.5117662109375,29.86263896484375,103.2077662109375C26.77103896484375,102.8868662109375,23.81283896484375,102.3329662109375,21.06993896484375,101.5615662109375C18.14533896484375,100.7389662109375,15.42353896484375,99.6126662109375,12.98003896484375,98.2136662109375C10.29883896484375,96.6786662109375,7.96242896484375,94.7343662109375,6.03571896484375,92.4346662109375C4.07554896484375,90.0951662109375,2.55293896484375,87.3329662109375,1.51009896484375,84.2249662109375C0.50802596484375,81.2383662109375,-0.00006103515625,77.8334662109375,-0.00006103515625,74.1048662109375C-0.00006103515625,71.25836621093751,0.27101096484375,68.3460662109375,0.80559496484375,65.4489662109375C1.33835896484375,62.5618662109375,2.13169896484375,59.7114662109375,3.16358896484375,56.9769662109375C4.19124896484375,54.2536662109375,5.46728896484375,51.5971662109375,6.95624896484375,49.0813662109375C8.49531896484375,46.4808662109375,10.29413896484375,44.0627662109375,12.30273896484375,41.8941662109375C14.33353896484375,39.7015662109375,16.61983896484375,37.733966210937496,19.09803896484375,36.045866210937504C19.34323896484375,35.8788662109375,19.59063896484375,35.7150662109375,19.84023896484375,35.5544662109375C19.84023896484375,35.5544662109375,15.33683896484375,28.5354662109375,15.33683896484375,28.5354662109375C15.33683896484375,28.5354662109375,15.11713896484375,25.6771662109375,15.11713896484375,25.6771662109375C15.11713896484375,24.7141662109375,15.27533896484375,23.7734662109375,15.58853896484375,22.868276210937502C15.58853896484375,22.868276210937502,15.88903896484375,21.6663762109375,15.88903896484375,21.6663762109375C15.88903896484375,21.6663762109375,17.29473896484375,19.7333362109375,17.29473896484375,19.7333362109375C18.40663896484375,18.3991162109375,19.86903896484375,17.4441562109375,21.52403896484375,16.9714062109375C21.52403896484375,16.9714062109375,21.54413896484375,16.9656562109375,21.54413896484375,16.9656562109375C22.10753896484375,16.7721562109375,22.65493896484375,16.6075162109375,23.31393896484375,16.4374862109375C23.94383896484375,16.2749362109375,24.67463896484375,16.1192062109375,25.50763896484375,15.9769762109375C26.99153896484375,15.7236662109375,28.54613896484375,15.6527762109375,29.99803896484375,15.7730862109375C30.39213896484375,15.5428662109375,30.80313896484375,15.3289062109375,31.22953896484375,15.1320762109375C32.31503896484375,14.6311062109375,33.53983896484375,14.2371212109375,34.86993896484375,13.9610592109375C36.16073896484375,13.6931152109375,37.57213896484375,13.5628662109375,39.18453896484375,13.5628662109375C39.18453896484375,13.5628662109375,39.18453896484375,13.5628662109375,39.18453896484375,13.5628662109375ZM40.54063896484375,28.7679662109375C40.54063896484375,28.7679662109375,40.49893896484375,28.7124662109375,40.49893896484375,28.7124662109375C40.41863896484375,28.6392662109375,40.05003896484375,28.5628662109375,39.18453896484375,28.5628662109375C38.39033896484375,28.5628662109375,38.01453896484375,28.6280662109375,37.91823896484375,28.6480662109375C37.91823896484375,28.6480662109375,37.80753896484375,28.7679662109375,37.80753896484375,28.7679662109375C37.80753896484375,28.7679662109375,40.54063896484375,28.7679662109375,40.54063896484375,28.7679662109375C40.54063896484375,28.7679662109375,40.54063896484375,28.7679662109375,40.54063896484375,28.7679662109375ZM48.09073896484375,88.1143662109375C49.78973896484375,87.8803662109375,51.40323896484375,87.5512662109375,52.93033896484375,87.1217662109375C54.67123896484375,86.6321662109375,56.25203896484375,85.9842662109375,57.62853896484375,85.1961662109375C58.79513896484375,84.5282662109375,59.75903896484375,83.7350662109375,60.57533896484375,82.7711662109375C61.33963896484375,81.8685662109375,61.92813896484375,80.7833662109375,62.37433896484375,79.4534662109375C62.85943896484375,78.0077662109375,63.10543896484375,76.2082662109375,63.10543896484375,74.1048662109375C63.10543896484375,72.1505662109375,62.91813896484375,70.17276621093751,62.54873896484375,68.1708662109375C62.17603896484375,66.15076621093749,61.62923896484375,64.1847662109375,60.90773896484375,62.2728662109375C60.18623896484375,60.3607662109375,59.29593896484375,58.5211662109375,58.23773896484375,56.7534662109375C57.22543896484375,55.0625662109375,56.05903896484375,53.4987662109375,54.77043896484375,52.1049662109375C54.77043896484375,52.1049662109375,54.77043896484375,65.4742662109375,54.77043896484375,65.4742662109375C54.99183896484375,65.81256621093749,55.20453896484375,66.16016621093749,55.40823896484375,66.5166662109375C56.14243896484375,68.0213662109375,56.50283896484375,69.0680662109375,56.75363896484375,70.1552662109375C57.01233896484375,71.2760662109375,57.14343896484375,72.4275662109375,57.14343896484375,73.5775662109375C57.14343896484375,75.9748662109375,56.65863896484375,78.2188662109375,55.70233896484375,80.2473662109375C54.80133896484375,82.1586662109375,53.55413896484375,83.8487662109375,51.99563896484375,85.2705662109375C50.83343896484375,86.3307662109375,49.52383896484375,87.2317662109375,48.09073896484375,87.9580662109375C48.09073896484375,87.9580662109375,48.09073896484375,88.1143662109375,48.09073896484375,88.1143662109375C48.09073896484375,88.1143662109375,48.09073896484375,88.1143662109375,48.09073896484375,88.1143662109375ZM22.11893896484375,63.4277662109375C21.55403896484375,61.7459662109375,21.26943896484375,59.9389662109375,21.26943896484375,58.0208662109375C21.26943896484375,56.5744662109375,21.46363896484375,55.1637662109375,21.84843896484375,53.8054662109375C21.13323896484375,54.7243662109375,20.46953896484375,55.6994662109375,19.86493896484375,56.7211662109375C18.81263896484375,58.4991662109375,17.92333896484375,60.3496662109375,17.19763896484375,62.2727662109375C16.47613896484375,64.1847662109375,15.92933896484375,66.15076621093749,15.55653896484375,68.1708662109375C15.18713896484375,70.17276621093751,14.99993896484375,72.1506662109375,14.99993896484375,74.1048662109375C14.99993896484375,76.2082662109375,15.24583896484375,78.0077662109375,15.73093896484375,79.4534662109375C16.18153896484375,80.7963662109375,16.77113896484375,81.8915662109375,17.53353896484375,82.8014662109375C18.32973896484375,83.7517662109375,19.27813896484375,84.5350662109375,20.43283896484375,85.1961662109375C21.80933896484375,85.9842662109375,23.39003896484375,86.6321662109375,25.13113896484375,87.1217662109375C25.26583896484375,87.1596662109375,25.40113896484375,87.1967662109375,25.53723896484375,87.2330662109375C25.53723896484375,87.2330662109375,21.40133896484375,85.3950662109375,21.40133896484375,85.3950662109375C21.40133896484375,85.3950662109375,21.40133896484375,63.0689662109375,21.40133896484375,63.0689662109375C21.40133896484375,63.0689662109375,22.11893896484375,63.4277662109375,22.11893896484375,63.4277662109375C22.11893896484375,63.4277662109375,22.11893896484375,63.4277662109375,22.11893896484375,63.4277662109375Z" fill="#232323" fill-opacity="1" style="mix-blend-mode:passthrough"/></g></g><g><g><path d="M22.83683133544922,26.3363062109375C22.69033133544922,26.1312262109375,22.61713133544922,25.9114962109375,22.61713133544922,25.6771262109375C22.61713133544922,25.5013462109375,22.661031335449216,25.3255662109375,22.74893133544922,25.1497762109375C22.80753133544922,24.9154162109375,22.91013133544922,24.7103362109375,23.05653133544922,24.5345462109375C23.203031335449218,24.3587662109375,23.37883133544922,24.2415762109375,23.58393133544922,24.1829862109375C23.613231335449218,24.1829862109375,23.77433133544922,24.1317262109375,24.067331335449218,24.0291762109375C24.360231335449217,23.9266462109375,24.733831335449217,23.8167762109375,25.187931335449218,23.6995862109375C25.642031335449218,23.5824062109375,26.16933133544922,23.4725462109375,26.76993133544922,23.3699962109375C27.37053133544922,23.2674662109375,27.97843133544922,23.2161962109375,28.59373133544922,23.2161862109375C29.94133133544922,23.2161862109375,31.01063133544922,23.4652062109375,31.80173133544922,23.9632562109375C32.15323133544922,23.5824062109375,32.52683133544922,23.2161962109375,32.922331335449215,22.8646262109375C33.31783133544922,22.5130662109375,33.801231335449216,22.2054562109375,34.37253133544922,21.9417722109375C34.943731335449215,21.6781082109375,35.61763133544922,21.4657062109375,36.39393133544922,21.3045652109375C37.17033133544922,21.1434326109375,38.10053133544922,21.0628662109375,39.18453133544922,21.0628662109375C40.32703133544922,21.0628662109375,41.29383133544922,21.1507568109375,42.08493133544922,21.3265382109375C42.875931335449216,21.5023192109375,43.53513133544922,21.7366942109375,44.06243133544922,22.0296632109375C44.589731335449216,22.3226362109375,45.02923133544922,22.6375762109375,45.380831335449216,22.9744862109375C45.73233133544922,23.3114062109375,46.03993133544922,23.6409962109375,46.30363133544922,23.9632562109375C46.74313133544922,23.6995862109375,47.24843133544922,23.5091562109375,47.81973133544922,23.3919662109375C48.39103133544922,23.2747762109375,48.99893133544922,23.2161862109375,49.64353133544922,23.2161862109375C50.22943133544922,23.2161862109375,50.815331335449216,23.2674562109375,51.40133133544922,23.3699962109375C51.987231335449216,23.4725462109375,52.51453133544922,23.5824062109375,52.98333133544922,23.6995862109375C53.45203133544922,23.8167762109375,53.83293133544922,23.9266462109375,54.125931335449216,24.0291762109375C54.41883133544922,24.1317262109375,54.58003133544922,24.1829862109375,54.60933133544922,24.1829862109375C54.84363133544922,24.2415762109375,55.03413133544922,24.3587662109375,55.18063133544922,24.5345462109375C55.32703133544922,24.7103262109375,55.429631335449216,24.9154062109375,55.48823133544922,25.1497762109375C55.51753133544922,25.2376662109375,55.53953133544922,25.3182362109375,55.55413133544922,25.3914762109375C55.56873133544922,25.4647262109375,55.57613133544922,25.5452962109375,55.57613133544922,25.6331762109375C55.57613133544922,25.9261562109375,55.473531335449216,26.1605262109375,55.26853133544922,26.3363062109375C55.26853133544922,26.3363062109375,48.98433133544922,36.2679662109375,48.98433133544922,36.2679662109375C48.98433133544922,36.2679662109375,29.20893133544922,36.2679662109375,29.20893133544922,36.2679662109375C29.20893133544922,36.2679662109375,22.83683133544922,26.3363062109375,22.83683133544922,26.3363062109375C22.83683133544922,26.3363062109375,22.83683133544922,26.3363062109375,22.83683133544922,26.3363062109375ZM48.237231335449216,38.9925662109375C50.55173133544922,39.7835662109375,52.71963133544922,40.8675662109375,54.74113133544922,42.2444662109375C56.76263133544922,43.6214662109375,58.60103133544922,45.2034662109375,60.25623133544922,46.9905662109375C61.91153133544922,48.7776662109375,63.38373133544922,50.7479662109375,64.67283133544922,52.9012662109375C65.96183133544922,55.0545662109375,67.04583133544922,57.2957662109375,67.92473133544922,59.6248662109375C68.80363133544921,61.9539662109375,69.47013133544922,64.3489662109375,69.92423133544922,66.8099662109375C70.37833133544922,69.2708662109375,70.60543133544923,71.7024662109375,70.60543133544923,74.1048662109375C70.60543133544923,77.0345662109375,70.23183133544921,79.6126662109375,69.48483133544923,81.8392662109375C68.73773133544921,84.0657662109375,67.67573133544923,85.9920662109375,66.29873133544922,87.6180662109375C64.92183133544921,89.2440662109375,63.273831335449216,90.6063662109375,61.354931335449216,91.7049662109375C59.43593133544922,92.8035662109375,57.304631335449216,93.6824662109375,54.96083133544922,94.3416662109375C52.617131335449216,95.0008662109375,50.104931335449216,95.4695662109375,47.42423133544922,95.7479662109375C44.743631335449216,96.0262662109375,41.95303133544922,96.1653662109375,39.05263133544922,96.1653662109375C36.12293133544922,96.1653662109375,33.31783133544922,96.0262662109375,30.63713133544922,95.7479662109375C27.956431335449217,95.4695662109375,25.444231335449217,95.0008662109375,23.10053133544922,94.3416662109375C20.756731335449217,93.6824662109375,18.62543133544922,92.8035662109375,16.70647133544922,91.7049662109375C14.78753133544922,90.6063662109375,13.146901335449218,89.2440662109375,11.784601335449219,87.6180662109375C10.422291335449218,85.9920662109375,9.367611335449219,84.0657662109375,8.620541335449218,81.8392662109375C7.873466335449219,79.6126662109375,7.499931335449219,77.0345662109375,7.499931335449219,74.1048662109375C7.499931335449219,71.7024662109375,7.726982335449219,69.2708662109375,8.18108333544922,66.8099662109375C8.635181335449218,64.3489662109375,9.301691335449219,61.9539662109375,10.180591335449218,59.6248662109375C11.05950133544922,57.2957662109375,12.13616133544922,55.0545662109375,13.41057133544922,52.9012662109375C14.684991335449219,50.7479662109375,16.14983133544922,48.7776662109375,17.805131335449218,46.9905662109375C19.46033133544922,45.2034662109375,21.29873133544922,43.6214662109375,23.32023133544922,42.2444662109375C25.341731335449218,40.8675662109375,27.52433133544922,39.7835662109375,29.86813133544922,38.9925662109375C29.86813133544922,38.9925662109375,48.237231335449216,38.9925662109375,48.237231335449216,38.9925662109375C48.237231335449216,38.9925662109375,48.237231335449216,38.9925662109375,48.237231335449216,38.9925662109375ZM40.59073133544922,82.4544662109375C41.79193133544922,82.3372662109375,42.941831335449216,82.04426621093751,44.04043133544922,81.5755662109375C45.13913133544922,81.10676621093751,46.10593133544922,80.49156621093749,46.94083133544922,79.7298662109375C47.77583133544922,78.9681662109375,48.43503133544922,78.07456621093749,48.91843133544922,77.0491662109375C49.40183133544922,76.02376621093751,49.64353133544922,74.86656621093749,49.64353133544922,73.5774662109375C49.64353133544922,72.99156621093749,49.577531335449216,72.4129662109375,49.44573133544922,71.84166621093749C49.31393133544922,71.27036621093751,49.130831335449216,70.7357662109375,48.89643133544922,70.2376662109375C48.310431335449216,69.2122662109375,47.629331335449216,68.3333662109375,46.85293133544922,67.6009662109375C46.07663133544922,66.8685662109375,45.13173133544922,66.1946662109375,44.01853133544922,65.5794662109375C42.905231335449216,64.9642662109375,41.76263133544922,64.3929662109375,40.59073133544922,63.8655662109375C40.59073133544922,63.8655662109375,40.59073133544922,53.2747662109375,40.59073133544922,53.2747662109375C41.704031335449216,53.2747662109375,42.88323133544922,53.4871662109375,44.12833133544922,53.9119662109375C45.37343133544922,54.3367662109375,46.42083133544922,54.8714662109375,47.27043133544922,55.5159662109375C47.27043133544922,55.5159662109375,47.27043133544922,50.3304662109375,47.27043133544922,50.3304662109375C45.74703133544922,49.7444662109375,44.450631335449216,49.348966210937505,43.38123133544922,49.1439662109375C42.311931335449216,48.938866210937505,41.38173133544922,48.836266210937495,40.59073133544922,48.836266210937495C40.59073133544922,48.836266210937495,40.59073133544922,44.7054662109375,40.59073133544922,44.7054662109375C40.59073133544922,44.7054662109375,37.42673133544922,44.7054662109375,37.42673133544922,44.7054662109375C37.42673133544922,44.7054662109375,37.42673133544922,48.9241662109375,37.42673133544922,48.9241662109375C36.89933133544922,49.0413662109375,36.350031335449216,49.1878662109375,35.77873133544922,49.363666210937495C35.207431335449215,49.539466210937505,34.64353133544922,49.7591662109375,34.08683133544922,50.0228662109375C33.50093133544922,50.286466210937505,32.98093133544922,50.5794662109375,32.52683133544922,50.901766210937495C32.07273133544922,51.223966210937505,31.65523133544922,51.575566210937495,31.27433133544922,51.9564662109375C30.512631335449218,52.8353662109375,29.90473133544922,53.7801662109375,29.45063133544922,54.7908662109375C28.99653133544922,55.8016662109375,28.76943133544922,56.8782662109375,28.76943133544922,58.0208662109375C28.76943133544922,59.9544662109375,29.25283133544922,61.6170662109375,30.21963133544922,63.0086662109375C31.186431335449218,64.4002662109375,32.50483133544922,65.5062662109375,34.17473133544922,66.3265662109375C34.73133133544922,66.6194662109375,35.28073133544922,66.89786621093751,35.82273133544922,67.1614662109375C36.36463133544922,67.4251662109375,36.89933133544922,67.6888662109375,37.42673133544922,67.9524662109375C37.42673133544922,67.9524662109375,37.42673133544922,78.2357662109375,37.42673133544922,78.2357662109375C36.78213133544922,78.2357662109375,36.04973133544922,78.1331662109375,35.22943133544922,77.9280662109375C34.40913133544922,77.7230662109375,33.70603133544922,77.5325662109375,33.12003133544922,77.35676621093751C32.88563133544922,77.26896621093749,32.60733133544922,77.1517662109375,32.28513133544922,77.00526621093749C31.96283133544922,76.8587662109375,31.62593133544922,76.6902662109375,31.27433133544922,76.4998662109375C30.922831335449217,76.3094662109375,30.55653133544922,76.1116662109375,30.175731335449218,75.9066662109375C29.794831335449217,75.7015662109375,29.457931335449217,75.5110662109375,29.164931335449218,75.33536621093751C29.164931335449218,75.33536621093751,28.901331335449218,75.2034662109375,28.901331335449218,75.2034662109375C28.901331335449218,75.2034662109375,28.901331335449218,80.5208662109375,28.901331335449218,80.5208662109375C29.428631335449218,80.75526621093749,29.985331335449217,80.9969662109375,30.57123133544922,81.2459662109375C31.15713133544922,81.49496621093749,31.787031335449218,81.7220662109375,32.460831335449214,81.9271662109375C33.22263133544922,82.1614662109375,34.05023133544922,82.3372662109375,34.943731335449215,82.4544662109375C35.83733133544922,82.57166621093751,36.66493133544922,82.6448662109375,37.42673133544922,82.6741662109375C37.42673133544922,82.6741662109375,37.42673133544922,87.5521662109375,37.42673133544922,87.5521662109375C37.42673133544922,87.5521662109375,40.59073133544922,87.5521662109375,40.59073133544922,87.5521662109375C40.59073133544922,87.5521662109375,40.59073133544922,82.4544662109375,40.59073133544922,82.4544662109375C40.59073133544922,82.4544662109375,40.59073133544922,82.4544662109375,40.59073133544922,82.4544662109375ZM40.59073133544922,69.2708662109375C41.704031335449216,69.85676621093751,42.62683133544922,70.4866662109375,43.35933133544922,71.1605662109375C44.09173133544922,71.8343662109375,44.45793133544922,72.7864662109375,44.45793133544922,74.0169662109375C44.45793133544922,75.07166621093751,44.08443133544922,75.9651662109375,43.33733133544922,76.6976662109375C42.59023133544922,77.4300662109375,41.674731335449216,77.8694662109375,40.59073133544922,78.0159662109375C40.59073133544922,78.0159662109375,40.59073133544922,69.2708662109375,40.59073133544922,69.2708662109375C40.59073133544922,69.2708662109375,40.59073133544922,69.2708662109375,40.59073133544922,69.2708662109375ZM37.42673133544922,53.3626662109375C37.42673133544922,53.3626662109375,37.42673133544922,62.5472662109375,37.42673133544922,62.5472662109375C37.22163133544922,62.4593662109375,36.92863133544922,62.3055662109375,36.54783133544922,62.0857662109375C36.16693133544922,61.8660662109375,35.78603133544922,61.5584662109375,35.405231335449216,61.1629662109375C35.02433133544922,60.7674662109375,34.69473133544922,60.2767662109375,34.41643133544922,59.6907662109375C34.138131335449216,59.1048662109375,33.998931335449214,58.3724662109375,33.998931335449214,57.4935662109375C33.998931335449214,56.3802662109375,34.35053133544922,55.4647662109375,35.05363133544922,54.7469662109375C35.75673133544922,54.0291662109375,36.547731335449214,53.5677662109375,37.42673133544922,53.3626662109375C37.42673133544922,53.3626662109375,37.42673133544922,53.3626662109375,37.42673133544922,53.3626662109375Z" fill="#68FE7F" fill-opacity="1" style="mix-blend-mode:passthrough"/></g></g></g></g></svg>