<svg xmlns="http://www.w3.org/2000/svg" xmlns:xlink="http://www.w3.org/1999/xlink" fill="none" version="1.1" width="129.00634765625" height="129.0068359375" viewBox="0 0 129.00634765625 129.0068359375"><defs><filter id="master_svg0_0_13576" filterUnits="objectBoundingBox" color-interpolation-filters="sRGB" x="-0.10810181473485721" y="-0.08107636105114291" width="1.2162036294697145" height="1.2162036294697145"><feFlood flood-opacity="0" result="BackgroundImageFix"/><feColorMatrix in="SourceAlpha" type="matrix" values="0 0 0 0 0 0 0 0 0 0 0 0 0 0 0 0 0 0 127 0"/><feOffset dy="3" dx="0"/><feGaussianBlur stdDeviation="3"/><feColorMatrix type="matrix" values="0 0 0 0 0 0 0 0 0 0 0 0 0 0 0 0 0 0 0.16078431904315948 0"/><feBlend mode="normal" in2="BackgroundImageFix" result="effect1_dropShadow"/><feBlend mode="normal" in="SourceGraphic" in2="effect1_dropShadow" result="shape"/></filter></defs><g><g filter="url(#master_svg0_0_13576)"><ellipse cx="64.50323104858398" cy="61.503231048583984" rx="55.503231048583984" ry="55.503231048583984" fill="#232323" fill-opacity="1" style="mix-blend-mode:passthrough"/></g><g><g><g><path d="M79.79808515625001,79.9393640625C79.92978515625,80.54736406250001,79.99918515625001,81.17836406250001,79.99918515625001,81.8251640625C79.99918515625001,84.1087640625,79.13458515625,86.1941640625,77.71548515625,87.7712640625C76.38088515625,92.7234640625,71.85038515625,96.3787640625,66.48228515625,96.3787640625L62.52348515625,96.3787640625C57.155485156249995,96.3787640625,52.62508515625,92.7236640625,51.29038515625,87.7715640625C49.871085156250004,86.1944640625,49.006385156250005,84.1088640625,49.006385156250005,81.8251640625C49.006385156250005,81.17836406250001,49.07568515625,80.54736406250001,49.20738515625,79.9393640625C49.07568515625,79.3314640625,49.006385156250005,78.7004640625,49.006385156250005,78.05366406249999C49.006385156250005,76.2178640625,49.565185156249996,74.51006406249999,50.52158515625,73.0915640625C47.88348515625,71.31016406250001,45.67028515625,69.1059640625,43.940185156249996,66.6082640625L40.209285156250004,67.96466406249999L38.816285156250004,68.0222640625C35.87321515625,68.0221640625,33.22346515625,66.16236406249999,32.22271515625,63.3943640625C31.58711515625,61.6617640625,31.66621515625,59.7567640625,32.45507515625,58.0567640625C32.588715156250004,57.7687640625,32.739995156250004,57.492464062500005,32.90766515625,57.229164062500004C31.23506515625,55.9461640625,30.15478515625,53.9276640625,30.15478515625,51.6616640625C30.15478515625,49.3956640625,31.23499515625,47.377264062500004,32.90750515625,46.0943640625C32.73960515625,45.830764062499995,32.58817515625,45.554264062499996,32.45442515625,45.2660640625C31.66546515625,43.5658640625,31.58644515625,41.6603640625,32.23191515625,39.9005640625C33.22290515625,37.1593040625,35.87243515625,35.2998040625,38.81531515625,35.2998040625L39.87901515625,35.2998040625L41.20188515625,35.7182940625L44.98948515625,37.0959240625C45.18908515625,36.8446440625,45.393785156250004,36.5968540625,45.60368515625,36.3527140625C46.38248515625,35.4440940625,47.37188515625,34.7616140625,48.47048515625,34.3526440625C49.01828515625,33.3121940625,49.82428515625,32.4226140625,50.83548515625,31.7615840625C54.89598515625,29.0944040625,59.62658515625,27.6806640625,64.50458515625,27.6806640625C72.39168515624999,27.6806640625,79.43468515625,31.3633140625,84.00468515624999,37.0994040625L88.79828515625,35.3566340625L90.18938515625,35.2998040625C93.12318515625,35.2998140625,95.77088515625,37.1515240625,96.77788515625,39.9075640625C97.42058515625,41.659564062499996,97.34148515625,43.5645640625,96.55258515625,45.2645640625C96.41858515625,45.5534640625,96.26668515625,45.8305640625,96.09838515625,46.0946640625C97.77068515625,47.3776640625,98.85068515625,49.3959640625,98.85068515625,51.6616640625C98.85068515625,53.9275640625,97.77058515625,55.945964062499996,96.09808515625,57.2288640625C96.26828515625,57.4959640625,96.42158515625,57.776264062500005,96.55668515625,58.0687640625C97.34408515625,59.7733640625,97.41848515625,61.6816640625,96.76598515625,63.4421640625C95.78188515625,66.1644640625,93.13278515625001,68.0241640625,90.19068515625,68.0241640625L89.11638515625,68.0241640625L87.78388515625,67.5979640625L85.10518515625,66.6240640625C83.37338515625001,69.16246406249999,81.16128515625,71.3938640625,78.54288515625001,73.1801640625C79.46328515625001,74.5809640625,79.99918515625001,76.2559640625,79.99918515625001,78.05366406249999C79.99918515625001,78.7004640625,79.92978515625,79.3314640625,79.79808515625001,79.9393640625Z" fill-rule="evenodd" fill="#68FE7F" fill-opacity="1" style="mix-blend-mode:passthrough"/></g></g><g><g><path d="M70.44687152252197,83.65628242492676C70.44687152252197,83.65628242492676,70.44687152252197,84.45747042492675,70.44687152252197,84.45747042492675C70.44687152252197,86.48400242492676,68.79737152252197,88.13351242492676,66.77078152252197,88.13351242492676C66.77078152252197,88.13351242492676,62.81197152252197,88.13351242492676,62.81197152252197,88.13351242492676C60.785431522521975,88.13351242492676,59.135921522521976,86.48400242492676,59.135921522521976,84.45747042492675C59.135921522521976,84.45747042492675,59.135921522521976,83.65628242492676,59.135921522521976,83.65628242492676C59.135921522521976,83.65628242492676,57.25077152252197,83.65628242492676,57.25077152252197,83.65628242492676C57.25077152252197,83.65628242492676,57.25077152252197,84.45747042492675,57.25077152252197,84.45747042492675C57.25077152252197,87.52461242492676,59.74483152252197,90.01866242492676,62.81197152252197,90.01866242492676C62.81197152252197,90.01866242492676,66.77078152252197,90.01866242492676,66.77078152252197,90.01866242492676C69.83797152252197,90.01866242492676,72.33197152252197,87.52461242492676,72.33197152252197,84.45747042492675C72.33197152252197,84.45747042492675,72.33197152252197,83.65628242492676,72.33197152252197,83.65628242492676C72.33197152252197,83.65628242492676,70.44687152252197,83.65628242492676,70.44687152252197,83.65628242492676C70.44687152252197,83.65628242492676,70.44687152252197,83.65628242492676,70.44687152252197,83.65628242492676Z" fill="#232323" fill-opacity="1" style="mix-blend-mode:passthrough"/></g><g><path d="M58.15946511230469,73.12584826889038C57.68996511230469,73.12584826889038,57.28466511230469,72.77704826889038,57.22436511230469,72.30014826889038C57.03586511230469,70.79014826889038,55.82182511230469,68.97664826889039,54.33821511230469,67.98694826889039C49.080525112304684,64.47864826889038,45.93986511230469,58.619548268890384,45.93986511230469,52.31374826889038C45.93986511230469,47.80447826889038,47.55732511230469,43.44034826889038,50.49627511230469,40.02068626889038C50.83560511230469,39.62480496889038,51.429425112304685,39.58521626889038,51.82530511230469,39.92077326889038C52.21930511230469,40.26010026889038,52.26454511230469,40.85391826889038,51.92522511230469,41.24980826889038C49.28035511230469,44.32825826889038,47.82501511230469,48.256908268890385,47.82501511230469,52.31374826889038C47.82501511230469,57.98804826889038,50.65085511230469,63.260848268890385,55.384475112304685,66.41844826889039C57.01696511230469,67.50614826889039,58.79656511230469,69.67594826889038,59.09636511230469,72.06444826889037C59.160465112304685,72.58104826889038,58.794665112304685,73.05234826889038,58.27816511230469,73.11824826889038C58.236665112304685,73.12394826889039,58.19716511230469,73.12584826889038,58.15946511230469,73.12584826889038C58.15946511230469,73.12584826889038,58.15946511230469,73.12584826889038,58.15946511230469,73.12584826889038Z" fill="#232323" fill-opacity="1" style="mix-blend-mode:passthrough"/></g><g><path d="M71.38939296417236,75.97424403381348C70.86909296417237,75.97424403381348,70.44679296417236,75.55204403381347,70.44679296417236,75.03174403381348C70.44679296417236,75.03174403381348,70.44679296417236,72.72244403381347,70.44679296417236,72.72244403381347C70.44679296417236,70.22834403381347,72.33389296417236,67.66264403381348,74.19829296417237,66.41844403381347C78.93189296417236,63.25894403381348,81.75769296417236,57.986144033813474,81.75769296417236,52.31374403381348C81.75769296417236,42.95775403381347,74.14549296417236,35.34739403381348,64.79139296417236,35.34739403381348C61.465972964172366,35.34739403381348,58.24613296417236,36.30882403381348,55.478732964172366,38.12987403381348C55.04514296417236,38.41830403381348,54.458860964172366,38.29765403381348,54.174202964172366,37.858414033813474C53.88954596417236,37.424834033813475,54.01019552417236,36.83855403381348,54.445664964172366,36.55389403381348C57.52223296417236,34.53301403381348,61.10024296417237,33.46224403381348,64.79329296417237,33.46224403381348C75.18799296417237,33.46224403381348,83.64479296417237,41.919034033813475,83.64479296417237,52.31374403381348C83.64479296417237,58.619544033813476,80.50409296417237,64.47864403381348,75.24639296417236,67.98694403381347C73.83449296417237,68.92944403381347,72.33389296417236,70.90884403381347,72.33389296417236,72.72244403381347C72.33389296417236,72.72244403381347,72.33389296417236,75.03174403381348,72.33389296417236,75.03174403381348C72.33199296417237,75.55204403381347,71.90969296417236,75.97424403381348,71.38939296417236,75.97424403381348C71.38939296417236,75.97424403381348,71.38939296417236,75.97424403381348,71.38939296417236,75.97424403381348Z" fill="#232323" fill-opacity="1" style="mix-blend-mode:passthrough"/></g><g><g><g><g><g><g><g><path d="M71.38942061309814,84.36320890350342C71.38942061309814,84.36320890350342,58.193340613098144,84.36320890350342,58.193340613098144,84.36320890350342C56.63433061309814,84.36320890350342,55.365620613098145,83.09450890350342,55.365620613098145,81.53548890350342C55.365620613098145,79.97646890350342,56.63433061309814,78.70775890350342,58.193340613098144,78.70775890350342C58.193340613098144,78.70775890350342,71.38942061309814,78.70775890350342,71.38942061309814,78.70775890350342C72.94842061309814,78.70775890350342,74.21712061309815,79.97646890350342,74.21712061309815,81.53548890350342C74.21712061309815,83.09450890350342,72.94842061309814,84.36320890350342,71.38942061309814,84.36320890350342C71.38942061309814,84.36320890350342,71.38942061309814,84.36320890350342,71.38942061309814,84.36320890350342ZM58.193340613098144,80.59290890350341C57.67493061309814,80.59290890350341,57.25077061309815,81.01706890350341,57.25077061309815,81.53548890350342C57.25077061309815,82.05390890350341,57.67493061309814,82.47805890350342,58.193340613098144,82.47805890350342C58.193340613098144,82.47805890350342,71.38942061309814,82.47805890350342,71.38942061309814,82.47805890350342C71.90782061309815,82.47805890350342,72.33202061309814,82.05390890350341,72.33202061309814,81.53548890350342C72.33202061309814,81.01706890350341,71.90782061309815,80.59290890350341,71.38942061309814,80.59290890350341C71.38942061309814,80.59290890350341,58.193340613098144,80.59290890350341,58.193340613098144,80.59290890350341C58.193340613098144,80.59290890350341,58.193340613098144,80.59290890350341,58.193340613098144,80.59290890350341Z" fill="#232323" fill-opacity="1" style="mix-blend-mode:passthrough"/></g></g></g></g></g></g><g><path d="M62.90622395629883,68.33946427230835C62.52165395629883,68.33946427230835,62.15970395629883,68.10186427230835,62.02020395629883,67.71916427230835C62.02020395629883,67.71916427230835,58.24990285629883,57.35087427230835,58.24990285629883,57.35087427230835C58.07081095629883,56.86074027230835,58.32530895629883,56.31970127230835,58.81356295629883,56.14249937230835C59.303703956298826,55.96529327230835,59.84474395629883,56.21601927230835,60.02194395629883,56.70615927230835C60.02194395629883,56.70615927230835,63.792243956298826,67.07446427230835,63.792243956298826,67.07446427230835C63.97133395629883,67.56466427230835,63.71684395629883,68.10566427230835,63.22858395629883,68.28286427230834C63.12113395629883,68.32056427230835,63.01367395629883,68.33946427230835,62.90622395629883,68.33946427230835C62.90622395629883,68.33946427230835,62.90622395629883,68.33946427230835,62.90622395629883,68.33946427230835Z" fill="#232323" fill-opacity="1" style="mix-blend-mode:passthrough"/></g><g><path d="M65.7339511138916,73.05233564682007C65.2136521138916,73.05233564682007,64.7913761138916,72.63003564682006,64.7913761138916,72.10973564682007C64.7913761138916,72.10973564682007,64.7913761138916,68.33943564682006,64.7913761138916,68.33943564682006C64.7913761138916,68.21503564682007,64.8158836138916,68.09063564682006,64.8648968138916,67.97743564682007C64.8648968138916,67.97743564682007,69.5777761138916,56.66657364682007,69.5777761138916,56.66657364682007C69.77760611389161,56.18585954682007,70.3337161138916,55.96717964682007,70.8106561138916,56.15758024682007C71.2913761138916,56.35740564682007,71.5175961138916,56.90975664682007,71.31776611389161,57.39047564682007C71.31776611389161,57.39047564682007,66.6765261138916,68.52793564682007,66.6765261138916,68.52793564682007C66.6765261138916,68.52793564682007,66.6765261138916,72.10973564682007,66.6765261138916,72.10973564682007C66.6765261138916,72.63003564682006,66.2542561138916,73.05233564682007,65.7339511138916,73.05233564682007C65.7339511138916,73.05233564682007,65.7339511138916,73.05233564682007,65.7339511138916,73.05233564682007Z" fill="#232323" fill-opacity="1" style="mix-blend-mode:passthrough"/></g><g><path d="M73.27452061309815,55.143370538024904C72.75422061309814,55.143370538024904,72.33202061309814,54.7210905380249,72.33202061309814,54.200790538024904C72.33202061309814,53.1601905380249,71.48552061309815,52.3156405380249,70.44682061309814,52.3156405380249C69.93222061309814,52.3156405380249,69.44962061309815,52.523010538024906,69.08952061309814,52.9019205380249C68.85392061309814,53.1469905380249,68.50892061309814,53.248790538024906,68.17902061309815,53.165850538024905C67.85102061309814,53.0829005380249,67.59082061309815,52.830290538024904,67.50032061309814,52.504160538024905C67.15912061309814,51.2825805380249,66.04502061309815,50.430490538024905,64.79137061309814,50.430490538024905C63.53775061309814,50.430490538024905,62.423620613098144,51.2825805380249,62.08241061309815,52.504160538024905C61.991920613098145,52.830290538024904,61.731780613098145,53.0829005380249,61.40376061309814,53.165850538024905C61.077630613098144,53.246910538024906,60.728870613098145,53.1451105380249,60.49323061309814,52.9019205380249C60.133170613098144,52.523010538024906,59.65057061309815,52.3156405380249,59.13592061309814,52.3156405380249C58.097200613098146,52.3156405380249,57.25077061309815,53.1601905380249,57.25077061309815,54.200790538024904C57.25077061309815,54.7210905380249,56.82850061309814,55.143370538024904,56.30819561309814,55.143370538024904C55.787894613098146,55.143370538024904,55.365620613098145,54.7210905380249,55.365620613098145,54.200790538024904C55.365620613098145,52.1214705380249,57.05660061309815,50.430490538024905,59.13592061309814,50.430490538024905C59.71655061309814,50.430490538024905,60.276440613098146,50.560570538024905,60.78354061309815,50.8094105380249C61.62244061309814,49.4332465380249,63.13244061309815,48.5453405380249,64.79137061309814,48.5453405380249C66.45032061309814,48.5453405380249,67.96032061309815,49.4332465380249,68.79922061309814,50.8094105380249C69.30632061309814,50.560570538024905,69.86622061309815,50.430490538024905,70.44682061309814,50.430490538024905C72.52612061309814,50.430490538024905,74.21712061309815,52.1214705380249,74.21712061309815,54.200790538024904C74.21712061309815,54.7210905380249,73.79482061309815,55.143370538024904,73.27452061309815,55.143370538024904C73.27452061309815,55.143370538024904,73.27452061309815,55.143370538024904,73.27452061309815,55.143370538024904Z" fill="#232323" fill-opacity="1" style="mix-blend-mode:passthrough"/></g></g><g><g><g><path d="M38.78194680036926,42.91062753189087C38.78194680036926,42.91062753189087,43.213932800369264,44.52054753189087,43.213932800369264,44.52054753189087C43.700302800369265,44.69962753189087,44.23946280036926,44.44701753189087,44.41666280036927,43.95687753189087C44.597642800369265,43.47051753189087,44.343142800369264,42.92758753189087,43.85300280036926,42.74849753189087C43.85300280036926,42.74849753189087,39.42667280036926,41.13858123189087,39.42667280036926,41.13858123189087C38.93652880036926,40.96137853189087,38.39737580036926,41.21210253189087,38.220171300369266,41.70224053189087C38.04108180036926,42.19049753189087,38.291806800369265,42.73153753189087,38.78194680036926,42.91062753189087C38.78194680036926,42.91062753189087,38.78194680036926,42.91062753189087,38.78194680036926,42.91062753189087Z" fill="#232323" fill-opacity="1" style="mix-blend-mode:passthrough"/></g><g><path d="M86.36881094856263,58.22559185911255C85.88244794856263,58.04650155911255,85.34329194856262,58.29911255911255,85.16420534856262,58.78925155911255C84.98322694856262,59.275623559112546,85.23772394856262,59.81854355911255,85.72786494856263,59.99763355911255C85.72786494856263,59.99763355911255,90.15608094856262,61.607553559112546,90.15608094856262,61.607553559112546C90.64622094856261,61.78664355911255,91.18537094856262,61.53403355911255,91.36258094856262,61.04389355911255C91.54356094856263,60.555643559112546,91.29094094856262,60.01460355911255,90.80080094856262,59.83551355911255C90.80080094856262,59.83551355911255,86.36881094856263,58.22559185911255,86.36881094856263,58.22559185911255C86.36881094856263,58.22559185911255,86.36881094856263,58.22559185911255,86.36881094856263,58.22559185911255Z" fill="#232323" fill-opacity="1" style="mix-blend-mode:passthrough"/></g></g><g><g><path d="M90.156084112854,41.13858123189087C90.156084112854,41.13858123189087,85.72786311285401,42.74849753189087,85.72786311285401,42.74849753189087C85.237720112854,42.92758753189087,84.985111112854,43.46674753189087,85.16420361285401,43.95687753189087C85.341408112854,44.44701753189087,85.882446112854,44.69962753189087,86.372584112854,44.52053753189087C86.372584112854,44.52053753189087,90.80080411285401,42.91062753189087,90.80080411285401,42.91062753189087C91.290944112854,42.73153753189087,91.543554112854,42.19049753189087,91.36446411285401,41.70224053189087C91.185374112854,41.21210253189087,90.644344112854,40.96137853189087,90.156084112854,41.13858123189087C90.156084112854,41.13858123189087,90.156084112854,41.13858123189087,90.156084112854,41.13858123189087Z" fill="#232323" fill-opacity="1" style="mix-blend-mode:passthrough"/></g><g><path d="M43.85677335113525,59.99574909866333C44.34691335113526,59.81665909866333,44.599523351135254,59.27750909866333,44.42043335113525,58.78736609866333C44.24323335113525,58.29722709866333,43.70219335113525,58.04461809866333,43.21205335113525,58.22370669866333C43.21205335113525,58.22370669866333,38.783831351135255,59.83362909866333,38.783831351135255,59.83362909866333C38.293692351135256,60.01271909866333,38.041081351135254,60.55374909866333,38.220171151135254,61.04200909866333C38.39737535113525,61.53214909866333,38.93841335113525,61.78475909866333,39.42855335113526,61.60566909866333C39.42855335113526,61.60566909866333,43.85677335113525,59.99574909866333,43.85677335113525,59.99574909866333C43.85677335113525,59.99574909866333,43.85677335113525,59.99574909866333,43.85677335113525,59.99574909866333Z" fill="#232323" fill-opacity="1" style="mix-blend-mode:passthrough"/></g></g><g><g><path d="M92.12606443328858,50.43049192428589C92.12606443328858,50.43049192428589,87.41318843328857,50.43049192428589,87.41318843328857,50.43049192428589C86.89289043328857,50.43049192428589,86.47061443328857,50.85276592428589,86.47061443328857,51.37306692428589C86.47061443328857,51.89337192428589,86.89289043328857,52.31564192428589,87.41318843328857,52.31564192428589C87.41318843328857,52.31564192428589,92.12606443328858,52.31564192428589,92.12606443328858,52.31564192428589C92.64636443328857,52.31564192428589,93.06864443328857,51.89337192428589,93.06864443328857,51.37306692428589C93.06864443328857,50.85276592428589,92.64636443328857,50.43049192428589,92.12606443328858,50.43049192428589C92.12606443328858,50.43049192428589,92.12606443328858,50.43049192428589,92.12606443328858,50.43049192428589Z" fill="#232323" fill-opacity="1" style="mix-blend-mode:passthrough"/></g><g><path d="M42.16955961151123,52.31564192428589C42.68985961151123,52.31564192428589,43.11213961151123,51.89337192428589,43.11213961151123,51.37306692428589C43.11213961151123,50.85276592428589,42.68985961151123,50.43049192428589,42.16955961151123,50.43049192428589C42.16955961151123,50.43049192428589,37.45668461151123,50.43049192428589,37.45668461151123,50.43049192428589C36.93638361151123,50.43049192428589,36.51410961151123,50.85276592428589,36.51410961151123,51.37306692428589C36.51410961151123,51.89337192428589,36.93638361151123,52.31564192428589,37.45668461151123,52.31564192428589C37.45668461151123,52.31564192428589,42.16955961151123,52.31564192428589,42.16955961151123,52.31564192428589C42.16955961151123,52.31564192428589,42.16955961151123,52.31564192428589,42.16955961151123,52.31564192428589Z" fill="#232323" fill-opacity="1" style="mix-blend-mode:passthrough"/></g></g></g><g><path d="M61.963650613098146,74.93745613098145C61.44335061309815,74.93745613098145,61.021070613098146,75.35973213098144,61.021070613098146,75.88003013098144C61.021070613098146,75.88003013098144,61.021070613098146,75.88003013098144,61.021070613098146,75.88003013098144C61.021070613098146,76.40032613098144,61.44335061309815,76.82260613098144,61.963650613098146,76.82260613098144C61.963650613098146,76.82260613098144,71.38942061309814,76.82260613098144,71.38942061309814,76.82260613098144C71.90782061309815,76.82260613098144,72.33202061309814,77.24676613098144,72.33202061309814,77.76517613098144C72.33202061309814,78.28359613098145,71.90782061309815,78.70775613098145,71.38942061309814,78.70775613098145C71.38942061309814,78.70775613098145,58.193340613098144,78.70775613098145,58.193340613098144,78.70775613098145C57.67493061309814,78.70775613098145,57.25077061309815,78.28359613098145,57.25077061309815,77.76517613098144C57.25077061309815,77.24676613098144,57.67493061309814,76.82260613098144,58.193340613098144,76.82260613098144C58.193340613098144,76.82260613098144,58.193340613098144,76.82260613098144,58.193340613098144,76.82260613098144C58.713650613098146,76.82260613098144,59.13592061309814,76.40032613098144,59.13592061309814,75.88003013098144C59.13592061309814,75.88003013098144,59.13592061309814,75.88003013098144,59.13592061309814,75.88003013098144C59.13592061309814,75.35973213098144,58.713650613098146,74.93745613098145,58.193340613098144,74.93745613098145C58.193340613098144,74.93745613098145,58.193340613098144,74.93745613098145,58.193340613098144,74.93745613098145C56.63433061309814,74.93745613098145,55.365620613098145,76.20616613098144,55.365620613098145,77.76517613098144C55.365620613098145,79.32420613098145,56.63433061309814,80.59290613098145,58.193340613098144,80.59290613098145C58.193340613098144,80.59290613098145,71.38942061309814,80.59290613098145,71.38942061309814,80.59290613098145C72.94842061309814,80.59290613098145,74.21712061309815,79.32420613098145,74.21712061309815,77.76517613098144C74.21712061309815,76.20616613098144,72.94842061309814,74.93745613098145,71.38942061309814,74.93745613098145C71.38942061309814,74.93745613098145,61.963650613098146,74.93745613098145,61.963650613098146,74.93745613098145C61.963650613098146,74.93745613098145,61.963650613098146,74.93745613098145,61.963650613098146,74.93745613098145Z" fill="#232323" fill-opacity="1" style="mix-blend-mode:passthrough"/></g></g></g></g></svg>