<svg xmlns="http://www.w3.org/2000/svg" xmlns:xlink="http://www.w3.org/1999/xlink" fill="none" version="1.1" width="192" height="192" viewBox="0 0 192 192"><g><g><ellipse cx="96" cy="96" rx="96" ry="96" fill="#232323" fill-opacity="1" style="mix-blend-mode:passthrough"/></g><g><g><g><path d="M129.7313203125,53.7901234375C121.8270203125,43.8687334375,109.6450203125,37.4990234375,96.0033203125,37.4990234375C87.5661203125,37.4990234375,79.38392031250001,39.9442634375,72.36082031250001,44.5575034375C70.61162031250001,45.700863437500004,69.2175203125,47.2395534375,68.2701203125,49.0392234375C66.3698203125,49.7465234375,64.6584203125,50.9270234375,63.3112203125,52.498723437500004C62.9483203125,52.9209234375,62.5943203125,53.3495234375,62.2491203125,53.7841234375L55.698420312500005,51.4015234375L53.4104203125,50.6777234375L51.5706203125,50.6777234375C46.4805403125,50.6777234375,41.8978303125,53.8939234375,40.1837903125,58.6352234375C39.0673503125,61.679123437499996,39.2040303125,64.9749234375,40.5686403125,67.91572343749999C40.7999803125,68.4142234375,41.0619003125,68.8924234375,41.3523203125,69.3483234375C38.4593103125,71.5673234375,36.5908203125,75.0585234375,36.5908203125,78.97792343750001C36.5908203125,82.8973234375,38.4592803125,86.3885234375,41.3522403125,88.60752343749999C41.0620603125,89.0632234375,40.800270312500004,89.5413234375,40.5690203125,90.0396234375C39.2045803125,92.9800234375,39.0677703125,96.27502343750001,40.1671203125,99.27182343749999C41.8980403125,104.0594234375,46.4811303125,107.2762234375,51.5715203125,107.2763234375L53.9810203125,107.1767234375L60.434720312500005,104.8304234375C63.4272203125,109.1503234375,67.2551203125,112.9627234375,71.8181203125,116.0437234375C70.16382031250001,118.4972234375,69.19722031250001,121.4510234375,69.19722031250001,124.6262234375C69.19722031250001,125.7443234375,69.31712031250001,126.8349234375,69.5446203125,127.8859234375C69.3168203125,128.9375234375,69.1968203125,130.0289234375,69.1968203125,131.14772343750002C69.1968203125,135.0975234375,70.6923203125,138.70502343750002,73.1469203125,141.4320234375C75.45492031250001,149.9980234375,83.2912203125,156.3210234375,92.5763203125,156.3210234375L99.42362031249999,156.3210234375C108.7089203125,156.3210234375,116.5452203125,149.9980234375,118.8532203125,141.4320234375C121.3075203125,138.70402343749998,122.8029203125,135.0973234375,122.8029203125,131.14772343750002C122.8029203125,130.0297234375,122.6830203125,128.9391234375,122.4555203125,127.8881234375C122.6834203125,126.8365234375,122.8034203125,125.7451234375,122.8034203125,124.6262234375C122.8034203125,121.5166234375,121.8764203125,118.6194234375,120.2842203125,116.1964234375C124.8129203125,113.1068234375,128.6389203125,109.2474234375,131.6343203125,104.8572234375L136.2682203125,106.5419234375L138.5728203125,107.2792234375L140.4308203125,107.2792234375C145.5198203125,107.2792234375,150.1018203125,104.0625234375,151.8038203125,99.3539234375C152.93282031249998,96.3089234375,152.8038203125,93.00822343749999,151.4418203125,90.0599234375C151.20782031250002,89.5540234375,150.9428203125,89.0690234375,150.6488203125,88.6069234375C153.5408203125,86.3878234375,155.40882031249998,82.89692343749999,155.40882031249998,78.97792343750001C155.40882031249998,75.0588234375,153.5408203125,71.56782343750001,150.6488203125,69.3488234375C150.9398203125,68.8920234375,151.2018203125,68.4127234375,151.43382031250002,67.9130234375C152.7988203125,64.9726234375,152.9348203125,61.6777234375,151.8238203125,58.647423437499995C150.08182031249999,53.8805234375,145.5018203125,50.6777234375,140.4278203125,50.6777234375L138.02182031249998,50.7760234375L129.7313203125,53.7901234375Z" fill-rule="evenodd" fill="#68FE7F" fill-opacity="1" style="mix-blend-mode:passthrough"/></g></g><g><g><path d="M106.28112144165038,134.3160743713379C106.28112144165038,134.3160743713379,106.28112144165038,135.7018343713379,106.28112144165038,135.7018343713379C106.28112144165038,139.20698437133788,103.42802144165039,142.0600243713379,99.92292144165039,142.0600243713379C99.92292144165039,142.0600243713379,93.07562144165038,142.0600243713379,93.07562144165038,142.0600243713379C89.5704714416504,142.0600243713379,86.71743144165039,139.20698437133788,86.71743144165039,135.7018343713379C86.71743144165039,135.7018343713379,86.71743144165039,134.3160743713379,86.71743144165039,134.3160743713379C86.71743144165039,134.3160743713379,83.45682144165039,134.3160743713379,83.45682144165039,134.3160743713379C83.45682144165039,134.3160743713379,83.45682144165039,135.7018343713379,83.45682144165039,135.7018343713379C83.45682144165039,141.00684437133788,87.77061144165039,145.3206743713379,93.07562144165038,145.3206743713379C93.07562144165038,145.3206743713379,99.92292144165039,145.3206743713379,99.92292144165039,145.3206743713379C105.2279214416504,145.3206743713379,109.5417214416504,141.00684437133788,109.5417214416504,135.7018343713379C109.5417214416504,135.7018343713379,109.5417214416504,134.3160743713379,109.5417214416504,134.3160743713379C109.5417214416504,134.3160743713379,106.28112144165038,134.3160743713379,106.28112144165038,134.3160743713379C106.28112144165038,134.3160743713379,106.28112144165038,134.3160743713379,106.28112144165038,134.3160743713379Z" fill="#232323" fill-opacity="1" style="mix-blend-mode:passthrough"/></g><g><path d="M85.02845032958984,116.10224878997803C84.21655032958984,116.10224878997803,83.51555032958984,115.49904878997802,83.41115032958984,114.67414878997803C83.08515032958985,112.06234878997802,80.98525032958985,108.92564878997803,78.41915032958984,107.21384878997803C69.32533032958985,101.14584878997803,63.893150329589844,91.01184878997802,63.893150329589844,80.10514878997803C63.893150329589844,72.30574878997803,66.69076032958985,64.75743878997802,71.77405032958984,58.84268478997803C72.36096032958984,58.157955789978026,73.38805032958984,58.089483789978026,74.07275032958984,58.66987278997803C74.75425032958984,59.25678178997803,74.83255032958985,60.283878789978026,74.24555032958985,60.968598789978024C69.67096032958985,66.29318878997803,67.15376032958984,73.08834878997803,67.15376032958984,80.10514878997803C67.15376032958984,89.91954878997802,72.04142032958984,99.03954878997803,80.22885032958985,104.50104878997803C83.05255032958985,106.38244878997803,86.13055032958985,110.13534878997802,86.64895032958984,114.26654878997803C86.75985032958985,115.15994878997802,86.12725032958984,115.97514878997802,85.23385032958984,116.08924878997803C85.16215032958985,116.09904878997803,85.09365032958985,116.10224878997803,85.02845032958984,116.10224878997803C85.02845032958984,116.10224878997803,85.02845032958984,116.10224878997803,85.02845032958984,116.10224878997803Z" fill="#232323" fill-opacity="1" style="mix-blend-mode:passthrough"/></g><g><path d="M107.91144607543946,121.02911199340821C107.01144607543945,121.02911199340821,106.28114607543945,120.2987119934082,106.28114607543945,119.3988119934082C106.28114607543945,119.3988119934082,106.28114607543945,115.4045119934082,106.28114607543945,115.4045119934082C106.28114607543945,111.0907119934082,109.54494607543946,106.6530119934082,112.76974607543946,104.50101199340821C120.95714607543945,99.0362119934082,125.84474607543945,89.9163119934082,125.84474607543945,80.1051119934082C125.84474607543945,63.9227119934082,112.67844607543945,50.7596219934082,96.49924607543946,50.7596219934082C90.74754607543946,50.7596219934082,85.17842607543945,52.4225319934082,80.39184607543945,55.572281993408204C79.64190607543945,56.071161993408204,78.62785107543945,55.8624819934082,78.13550007543945,55.1027619934082C77.64314807543946,54.352821993408206,77.85182727543945,53.3387719934082,78.60502807543945,52.8464119934082C83.92634607543945,49.3510419934082,90.11494607543945,47.4990119934082,96.50254607543945,47.4990119934082C114.48154607543945,47.4990119934082,129.10864607543945,62.1261119934082,129.10864607543945,80.1051119934082C129.10864607543945,91.0119119934082,123.67644607543946,101.1459119934082,114.58264607543946,107.2139119934082C112.14044607543946,108.84421199340821,109.54494607543946,112.2678119934082,109.54494607543946,115.4045119934082C109.54494607543946,115.4045119934082,109.54494607543946,119.3988119934082,109.54494607543946,119.3988119934082C109.54174607543945,120.2987119934082,108.81134607543945,121.02911199340821,107.91144607543946,121.02911199340821C107.91144607543946,121.02911199340821,107.91144607543946,121.02911199340821,107.91144607543946,121.02911199340821Z" fill="#232323" fill-opacity="1" style="mix-blend-mode:passthrough"/></g><g><g><g><g><g><g><g><path d="M107.91141276855468,135.53880563720702C107.91141276855468,135.53880563720702,85.08712276855469,135.53880563720702,85.08712276855469,135.53880563720702C82.39060276855469,135.53880563720702,80.19621276855469,133.34441563720702,80.19621276855469,130.64788563720703C80.19621276855469,127.95136563720703,82.39060276855469,125.75696563720703,85.08712276855469,125.75696563720703C85.08712276855469,125.75696563720703,107.91141276855468,125.75696563720703,107.91141276855468,125.75696563720703C110.60791276855468,125.75696563720703,112.80231276855469,127.95136563720703,112.80231276855469,130.64788563720703C112.80231276855469,133.34441563720702,110.60791276855468,135.53880563720702,107.91141276855468,135.53880563720702C107.91141276855468,135.53880563720702,107.91141276855468,135.53880563720702,107.91141276855468,135.53880563720702ZM85.08712276855469,129.01757563720702C84.19046276855468,129.01757563720702,83.45682276855469,129.75122563720703,83.45682276855469,130.64788563720703C83.45682276855469,131.54455563720703,84.19046276855468,132.27818563720703,85.08712276855469,132.27818563720703C85.08712276855469,132.27818563720703,107.91141276855468,132.27818563720703,107.91141276855468,132.27818563720703C108.80811276855468,132.27818563720703,109.54171276855469,131.54455563720703,109.54171276855469,130.64788563720703C109.54171276855469,129.75122563720703,108.80811276855468,129.01757563720702,107.91141276855468,129.01757563720702C107.91141276855468,129.01757563720702,85.08712276855469,129.01757563720702,85.08712276855469,129.01757563720702C85.08712276855469,129.01757563720702,85.08712276855469,129.01757563720702,85.08712276855469,129.01757563720702Z" fill="#232323" fill-opacity="1" style="mix-blend-mode:passthrough"/></g></g></g></g></g></g><g><path d="M93.23866671081544,107.82363608551026C92.57349671081543,107.82363608551026,91.94745671081543,107.41273608551026,91.70617671081543,106.75083608551026C91.70617671081543,106.75083608551026,85.18495061081543,88.81748608551025,85.18495061081543,88.81748608551025C84.87518971081543,87.96972608551026,85.31537471081543,87.03393508551025,86.15987671081542,86.72743908551026C87.00763671081543,86.42093908551026,87.94342671081543,86.85460208551025,88.24992671081543,87.70236608551025C88.24992671081543,87.70236608551025,94.77114671081543,105.63573608551025,94.77114671081543,105.63573608551025C95.08090671081543,106.48343608551025,94.64072671081543,107.41923608551025,93.79622671081543,107.72573608551025C93.61037671081543,107.79103608551026,93.42451671081542,107.82363608551026,93.23866671081544,107.82363608551026C93.23866671081544,107.82363608551026,93.23866671081544,107.82363608551026,93.23866671081544,107.82363608551026Z" fill="#232323" fill-opacity="1" style="mix-blend-mode:passthrough"/></g><g><path d="M98.12958330017089,115.97514041900635C97.22965430017089,115.97514041900635,96.4992733001709,115.24474041900635,96.4992733001709,114.34484041900635C96.4992733001709,114.34484041900635,96.4992733001709,107.82364041900635,96.4992733001709,107.82364041900635C96.4992733001709,107.60844041900634,96.5416622001709,107.39324041900635,96.6264363001709,107.19754041900634C96.6264363001709,107.19754041900634,104.7779633001709,87.63389241900634,104.7779633001709,87.63389241900634C105.1235933001709,86.80243641900634,106.0854633001709,86.42420241900635,106.9103733001709,86.75352441900635C107.7418733001709,87.09914741900634,108.1331733001709,88.05451041900635,107.7874733001709,88.88597041900634C107.7874733001709,88.88597041900634,99.7598833001709,108.14964041900635,99.7598833001709,108.14964041900635C99.7598833001709,108.14964041900635,99.7598833001709,114.34484041900635,99.7598833001709,114.34484041900635C99.7598833001709,115.24474041900635,99.0295033001709,115.97514041900635,98.12958330017089,115.97514041900635C98.12958330017089,115.97514041900635,98.12958330017089,115.97514041900635,98.12958330017089,115.97514041900635Z" fill="#232323" fill-opacity="1" style="mix-blend-mode:passthrough"/></g><g><path d="M111.17201276855468,84.99927346191406C110.27211276855469,84.99927346191406,109.54171276855469,84.26897346191406,109.54171276855469,83.36900346191406C109.54171276855469,81.56915346191406,108.07771276855469,80.10839346191406,106.28111276855469,80.10839346191406C105.39091276855468,80.10839346191406,104.55621276855469,80.46706346191407,103.93351276855469,81.12244346191406C103.52591276855469,81.54632346191406,102.92921276855469,81.72240346191407,102.35861276855469,81.57893346191406C101.79121276855469,81.43546346191407,101.34131276855469,80.99854346191407,101.18481276855469,80.43446346191406C100.59461276855468,78.32158346191406,98.66761276855469,76.84778346191406,96.49931276855469,76.84778346191406C94.33101276855469,76.84778346191406,92.40391276855469,78.32158346191406,91.81381276855468,80.43446346191406C91.65721276855469,80.99854346191407,91.20731276855469,81.43546346191407,90.6399127685547,81.57893346191406C90.07586276855469,81.71914346191406,89.47265276855468,81.54306346191406,89.06508276855469,81.12244346191406C88.44230276855468,80.46706346191407,87.60758276855469,80.10839346191406,86.71743276855469,80.10839346191406C84.92084276855469,80.10839346191406,83.45682276855469,81.56915346191406,83.45682276855469,83.36900346191406C83.45682276855469,84.26897346191406,82.7264527685547,84.99927346191406,81.82652276855468,84.99927346191406C80.92658976855469,84.99927346191406,80.19621276855469,84.26897346191406,80.19621276855469,83.36900346191406C80.19621276855469,79.77255346191406,83.12098276855468,76.84778346191406,86.71743276855469,76.84778346191406C87.72170276855469,76.84778346191406,88.69010276855468,77.07277346191407,89.5672027685547,77.50317346191406C91.01821276855469,75.12292346191406,93.62991276855469,73.58717346191406,96.49931276855469,73.58717346191406C99.36861276855468,73.58717346191406,101.98031276855468,75.12292346191406,103.43131276855469,77.50317346191406C104.30841276855469,77.07277346191407,105.27681276855469,76.84778346191406,106.28111276855469,76.84778346191406C109.87761276855468,76.84778346191406,112.80231276855469,79.77255346191406,112.80231276855469,83.36900346191406C112.80231276855469,84.26897346191406,112.07191276855468,84.99927346191406,111.17201276855468,84.99927346191406C111.17201276855468,84.99927346191406,111.17201276855468,84.99927346191406,111.17201276855468,84.99927346191406Z" fill="#232323" fill-opacity="1" style="mix-blend-mode:passthrough"/></g></g><g><g><g><path d="M51.51261085693359,63.841206540374756C51.51261085693359,63.841206540374756,59.178300856933596,66.62576654037476,59.178300856933596,66.62576654037476C60.019540856933595,66.93552654037475,60.95204085693359,66.49860654037475,61.25854085693359,65.65084654037476C61.57164085693359,64.80960654037476,61.131440856933594,63.870546540374754,60.28365085693359,63.56078654037476C60.28365085693359,63.56078654037476,52.62774085693359,60.77622774037476,52.62774085693359,60.77622774037476C51.77998085693359,60.46973254037476,50.8474428569336,60.90339254037475,50.5409458569336,61.751146540374755C50.231187856933595,62.59564654037476,50.664848856933595,63.53144654037476,51.51261085693359,63.841206540374756C51.51261085693359,63.841206540374756,51.51261085693359,63.841206540374756,51.51261085693359,63.841206540374756Z" fill="#232323" fill-opacity="1" style="mix-blend-mode:passthrough"/></g><g><path d="M133.82022796386718,90.33041658856811C132.9789979638672,90.02065568856811,132.04645596386717,90.45757968856812,131.73670196386718,91.30533968856811C131.4236759638672,92.14657968856811,131.86386196386718,93.08562968856812,132.7116279638672,93.39538968856812C132.7116279638672,93.39538968856812,140.37079796386718,96.17994968856812,140.37079796386718,96.17994968856812C141.2185579638672,96.48970968856811,142.15108796386718,96.05278968856811,142.45758796386718,95.20502968856812C142.7705879638672,94.36052968856812,142.3336879638672,93.42473968856811,141.4859279638672,93.11497968856811C141.4859279638672,93.11497968856811,133.82022796386718,90.33041658856811,133.82022796386718,90.33041658856811C133.82022796386718,90.33041658856811,133.82022796386718,90.33041658856811,133.82022796386718,90.33041658856811Z" fill="#232323" fill-opacity="1" style="mix-blend-mode:passthrough"/></g></g><g><g><path d="M140.37080497451782,60.7762272635376C140.37080497451782,60.7762272635376,132.71162497451783,63.5607860635376,132.71162497451783,63.5607860635376C131.86386097451782,63.870546063537596,131.42694097451783,64.80308606353759,131.73670227451782,65.6508460635376C132.04319797451782,66.4986060635376,132.97899497451783,66.9355260635376,133.82675497451783,66.6257660635376C133.82675497451783,66.6257660635376,141.48593497451782,63.8412060635376,141.48593497451782,63.8412060635376C142.3336949745178,63.5314460635376,142.77059497451782,62.5956460635376,142.46089497451783,61.7511460635376C142.15109497451783,60.903392063537595,141.21530497451784,60.4697320635376,140.37080497451782,60.7762272635376C140.37080497451782,60.7762272635376,140.37080497451782,60.7762272635376,140.37080497451782,60.7762272635376Z" fill="#232323" fill-opacity="1" style="mix-blend-mode:passthrough"/></g><g><path d="M60.290179969635005,93.39213146026611C61.13793996963501,93.08237146026612,61.57483996963501,92.14984146026612,61.26513996963501,91.30208146026611C60.95863996963501,90.45431946026612,60.022809969635006,90.01739946026612,59.17504996963501,90.3271567602661C59.17504996963501,90.3271567602661,51.51586996963501,93.11172146026611,51.51586996963501,93.11172146026611C50.66810896963501,93.42148146026611,50.23118696963501,94.35727146026612,50.54094556963501,95.20177146026612C50.84744296963501,96.04953146026611,51.78323996963501,96.48645146026611,52.63099996963501,96.17669146026611C52.63099996963501,96.17669146026611,60.290179969635005,93.39213146026611,60.290179969635005,93.39213146026611C60.290179969635005,93.39213146026611,60.290179969635005,93.39213146026611,60.290179969635005,93.39213146026611Z" fill="#232323" fill-opacity="1" style="mix-blend-mode:passthrough"/></g></g><g><g><path d="M143.77815118774413,76.84778499603271C143.77815118774413,76.84778499603271,135.62661118774415,76.84778499603271,135.62661118774415,76.84778499603271C134.72668818774414,76.84778499603271,133.99631118774414,77.57816199603272,133.99631118774414,78.47809499603271C133.99631118774414,79.37802499603272,134.72668818774414,80.10839499603271,135.62661118774415,80.10839499603271C135.62661118774415,80.10839499603271,143.77815118774413,80.10839499603271,143.77815118774413,80.10839499603271C144.67811118774415,80.10839499603271,145.40841118774415,79.37802499603272,145.40841118774415,78.47809499603271C145.40841118774415,77.57816199603272,144.67811118774415,76.84778499603271,143.77815118774413,76.84778499603271C143.77815118774413,76.84778499603271,143.77815118774413,76.84778499603271,143.77815118774413,76.84778499603271Z" fill="#232323" fill-opacity="1" style="mix-blend-mode:passthrough"/></g><g><path d="M57.37193170532227,80.10839499603271C58.27189170532227,80.10839499603271,59.00219170532227,79.37802499603272,59.00219170532227,78.47809499603271C59.00219170532227,77.57816199603272,58.27189170532227,76.84778499603271,57.37193170532227,76.84778499603271C57.37193170532227,76.84778499603271,49.22040170532227,76.84778499603271,49.22040170532227,76.84778499603271C48.32046870532226,76.84778499603271,47.590091705322266,77.57816199603272,47.590091705322266,78.47809499603271C47.590091705322266,79.37802499603272,48.32046870532226,80.10839499603271,49.22040170532227,80.10839499603271C49.22040170532227,80.10839499603271,57.37193170532227,80.10839499603271,57.37193170532227,80.10839499603271C57.37193170532227,80.10839499603271,57.37193170532227,80.10839499603271,57.37193170532227,80.10839499603271Z" fill="#232323" fill-opacity="1" style="mix-blend-mode:passthrough"/></g></g></g><g><path d="M91.60830895385742,119.23574447631836C90.70840895385743,119.23574447631836,89.97803895385742,119.96612147631836,89.97803895385742,120.86604447631836C89.97803895385742,120.86604447631836,89.97803895385742,120.86604447631836,89.97803895385742,120.86604447631836C89.97803895385742,121.76597447631836,90.70840895385743,122.49634447631836,91.60830895385742,122.49634447631836C91.60830895385742,122.49634447631836,107.91140895385742,122.49634447631836,107.91140895385742,122.49634447631836C108.80810895385741,122.49634447631836,109.54170895385742,123.22999447631835,109.54170895385742,124.12665447631836C109.54170895385742,125.02332447631836,108.80810895385741,125.75696447631836,107.91140895385742,125.75696447631836C107.91140895385742,125.75696447631836,85.08711895385743,125.75696447631836,85.08711895385743,125.75696447631836C84.19045895385742,125.75696447631836,83.45681895385742,125.02332447631836,83.45681895385742,124.12665447631836C83.45681895385742,123.22999447631835,84.19045895385742,122.49634447631836,85.08711895385743,122.49634447631836C85.08711895385743,122.49634447631836,85.08711895385743,122.49634447631836,85.08711895385743,122.49634447631836C85.98704895385742,122.49634447631836,86.71742895385742,121.76597447631836,86.71742895385742,120.86604447631836C86.71742895385742,120.86604447631836,86.71742895385742,120.86604447631836,86.71742895385742,120.86604447631836C86.71742895385742,119.96612147631836,85.98704895385742,119.23574447631836,85.08711895385743,119.23574447631836C85.08711895385743,119.23574447631836,85.08711895385743,119.23574447631836,85.08711895385743,119.23574447631836C82.39059895385742,119.23574447631836,80.19620895385742,121.43013447631836,80.19620895385742,124.12665447631836C80.19620895385742,126.82318447631836,82.39059895385742,129.01757447631837,85.08711895385743,129.01757447631837C85.08711895385743,129.01757447631837,107.91140895385742,129.01757447631837,107.91140895385742,129.01757447631837C110.60790895385742,129.01757447631837,112.80230895385742,126.82318447631836,112.80230895385742,124.12665447631836C112.80230895385742,121.43013447631836,110.60790895385742,119.23574447631836,107.91140895385742,119.23574447631836C107.91140895385742,119.23574447631836,91.60830895385742,119.23574447631836,91.60830895385742,119.23574447631836C91.60830895385742,119.23574447631836,91.60830895385742,119.23574447631836,91.60830895385742,119.23574447631836Z" fill="#232323" fill-opacity="1" style="mix-blend-mode:passthrough"/></g></g></g></g></svg>