<svg xmlns="http://www.w3.org/2000/svg" xmlns:xlink="http://www.w3.org/1999/xlink" fill="none" version="1.1" width="320.75" height="122.203125" viewBox="0 0 320.75 122.203125"><g><g><path d="M233.5969145019531,21.474246669921875L230.70251450195312,50.88238666992187Q230.69911450195312,50.91648666992187,230.68961450195312,50.949486669921875Q230.68011450195314,50.982486669921876,230.66481450195312,51.01318666992188Q230.64951450195312,51.043886669921875,230.62881450195312,51.071286669921875Q230.6082145019531,51.098686669921875,230.58291450195313,51.12188666992188Q230.55761450195314,51.145086669921874,230.5285145019531,51.163286669921874Q230.49951450195312,51.181486669921874,230.4676145019531,51.194186669921876Q230.43571450195313,51.20688666992187,230.40201450195312,51.21348666992188Q230.3684145019531,51.22018666992187,230.33401450195313,51.22058666992187L174.26711450195313,51.929386669921875L272.9001145019531,107.13908666992188L233.5969145019531,21.474246669921875ZM233.98071450195312,20.512266669921875L272.3272145019531,25.254566669921875L272.4192145019531,24.510236669921873L233.40561450195312,19.685421669921876Q233.40091450195314,19.684847669921876,233.39631450195313,19.684389669921874Q233.35951450195313,19.680772669921875,233.32281450195313,19.684394669921875Q233.28601450195313,19.688017669921877,233.25071450195313,19.698741669921876Q233.21531450195312,19.709465669921876,233.18271450195311,19.726878669921874Q233.15021450195312,19.744290669921874,233.12161450195313,19.767723669921875Q233.09311450195312,19.791156669921875,233.06961450195314,19.819708669921877Q233.04621450195313,19.848260669921874,233.02881450195312,19.880835669921876Q233.01141450195314,19.913409669921876,233.00071450195313,19.948754669921875Q232.9900145019531,19.984098969921874,232.98631450195313,20.020855569921874L229.98901450195314,50.47488666992187L172.85637399195312,51.19718666992188Q172.75583450195313,51.19848666992188,172.66941750195312,51.24988666992188Q172.58300050195314,51.30128666992188,172.53388950195313,51.38898666992188Q172.49745650195314,51.45408666992188,172.48870450195312,51.52818666992188Q172.47995250195314,51.60218666992188,172.50021550195314,51.673986669921874Q172.52047850195314,51.74578666992187,172.56666950195313,51.804386669921875Q172.61286150195312,51.86288666992188,172.67795050195312,51.899386669921874L273.5371145019531,108.35528666992188Q273.6161145019531,108.39918666992187,273.70611450195315,108.40278666992188Q273.7951145019531,108.40638666992187,273.87711450195314,108.36898666992188Q273.9451145019531,108.33778666992187,273.99511450195314,108.28318666992188Q274.0461145019531,108.22848666992188,274.07211450195314,108.15858666992187Q274.0981145019531,108.08858666992188,274.0951145019531,108.01408666992188Q274.0921145019531,107.93948666992188,274.0611145019531,107.87168666992187L233.98071450195312,20.512266669921875Z" fill-rule="evenodd" fill="#3D3E40" fill-opacity="1" style="mix-blend-mode:passthrough"/></g><g transform="matrix(-0.5235787034034729,0.8519773483276367,-0.8519773483276367,-0.5235787034034729,511.38866981411775,-140.77620491699054)"><line x1="295.05499267578125" y1="72.2198486328125" x2="336.41303634643555" y2="72.2198486328125" fill-opacity="0" stroke-opacity="1" stroke="#3D3E40" fill="none" stroke-width="0.75" stroke-linecap="ROUND" stroke-linejoin="round" style="mix-blend-mode:passthrough"/></g><g><path d="M295.7136119140625,72.62963649902343L272.8620119140625,24.84126149902344L272.1854119140625,25.164811499023436L294.6540119140625,72.15223649902345L230.4495969140625,50.48963649902343L230.2098269140625,51.200336499023436L295.2554119140625,73.14673649902343Q295.3248119140625,73.17013649902344,295.3979119140625,73.16573649902344Q295.4710119140625,73.16123649902343,295.5371119140625,73.12963649902343Q295.5704119140625,73.11373649902345,295.5999119140625,73.09163649902344Q295.6295119140625,73.06943649902344,295.6542119140625,73.04203649902344Q295.6789119140625,73.01453649902344,295.6977119140625,72.98273649902345Q295.71661191406247,72.95103649902345,295.7289119140625,72.91623649902344Q295.7412119140625,72.88133649902343,295.74651191406247,72.84483649902344Q295.7517119140625,72.80823649902344,295.7498119140625,72.77133649902345Q295.7478119140625,72.73443649902345,295.7387119140625,72.69873649902344Q295.7295119140625,72.66293649902343,295.7136119140625,72.62963649902343Z" fill-rule="evenodd" fill="#3D3E40" fill-opacity="1" style="mix-blend-mode:passthrough"/></g><g><path d="M145.38901904296876,36.921638330078125L133.16201904296875,32.682338330078124L67.35411904296875,9.862388330078126L96.63821904296876,34.221938330078125L96.65041904296875,34.23213833007813L96.77701904296875,34.33743833007813L145.38901904296876,36.921638330078125ZM95.59891904296875,34.333038330078125L65.29041904296875,9.121333330078125Q65.23311904296875,9.073631330078126,65.19831904296875,9.007615330078124Q65.16361904296875,8.941599330078125,65.15681904296875,8.867319330078125Q65.15001904296875,8.793039630078125,65.17211904296875,8.721804330078125Q65.19421904296874,8.650569330078126,65.24191904296876,8.593224330078124Q65.27851904296875,8.549257330078126,65.32651904296876,8.518190330078125Q65.37451904296876,8.487123330078125,65.42961904296875,8.471782330078124Q65.48471904296875,8.456441330078125,65.54191904296874,8.458219330078125Q65.59911904296875,8.459998330078125,65.65311904296874,8.478735330078125L133.40801904296876,31.973738330078124L148.14301904296875,37.08273833007813Q148.21301904296874,37.107238330078125,148.26901904296875,37.15673833007813Q148.32501904296876,37.20623833007812,148.35701904296874,37.27343833007812Q148.39001904296876,37.340538330078125,148.39401904296875,37.41493833007813Q148.39901904296875,37.48943833007813,148.37401904296874,37.559938330078126Q148.36501904296875,37.586038330078125,148.35201904296875,37.610438330078125L121.48701904296875,89.11903833007813L295.33901904296874,72.41803833007813L295.41001904296877,73.16453833007813L120.87101904296875,89.93163833007813Q120.81201904296876,89.93733833007812,120.75501904296875,89.92463833007812Q120.69701904296875,89.91193833007813,120.64601904296875,89.88213833007812Q120.59501904296874,89.85243833007813,120.55601904296876,89.80843833007812Q120.51601904296875,89.76443833007812,120.49201904296875,89.71053833007812L104.51151904296874,53.70493833007812L15.88895240296875,55.34383833007813Q15.81437284296875,55.34513833007812,15.74494304296875,55.31793833007813Q15.67551204296875,55.290638330078124,15.62180104296875,55.238838330078124Q15.56809104296875,55.18713833007813,15.53827704296875,55.11873833007812Q15.50846204296875,55.05033833007813,15.50708304296875,54.975838330078126Q15.50591004296875,54.91233833007813,15.52566204296875,54.85213833007813Q15.54541304296875,54.79183833007812,15.58389204296875,54.74133833007812Q15.62237004296875,54.690938330078126,15.67529304296875,54.65593833007812Q15.72821704296875,54.62103833007812,15.78969704296875,54.60543833007812L95.59891904296875,34.333038330078125ZM104.99521904296876,52.94593833007813L97.07631904296875,35.104438330078125L146.41901904296876,37.727538330078126L111.89411904296875,52.81833833007813L104.99521904296876,52.94593833007813ZM105.32541904296875,53.68993833007813L120.86201904296875,88.69533833007813L147.19601904296874,38.20663833007812L112.12601904296875,53.53543833007812Q112.05751904296875,53.56543833007812,111.98271904296875,53.56683833007813L105.32541904296875,53.68993833007813ZM104.18131904296875,52.96093833007812L19.11731904296875,54.53393833007812L96.19021904296875,34.95663833007812L104.18131904296875,52.96093833007812Z" fill-rule="evenodd" fill="#3D3E40" fill-opacity="1" style="mix-blend-mode:passthrough"/></g><g><path d="M135.40594482421875,44.619532861328125C135.40594482421875,44.619532861328125,147.54464482421875,37.181182861328125,147.54464482421875,37.181182861328125C147.54464482421875,37.181182861328125,164.02104482421876,46.10916286132812,164.02104482421876,46.10916286132812C164.02104482421876,46.10916286132812,151.45934482421876,53.14838286132812,151.45934482421876,53.14838286132812C151.45934482421876,53.14838286132812,135.40594482421875,44.619532861328125,135.40594482421875,44.619532861328125C135.40594482421875,44.619532861328125,135.40594482421875,44.619532861328125,135.40594482421875,44.619532861328125Z" fill="#68FE7F" fill-opacity="1" style="mix-blend-mode:passthrough"/><path d="" fill="#000000" fill-opacity="0" style="mix-blend-mode:passthrough"/></g><g><path d="M135.23000382421876,44.950702861328125L151.28344482421875,53.479582861328126Q151.36794482421874,53.524482861328124,151.46354482421876,53.52338286132812Q151.55924482421875,53.52228286132812,151.64264482421873,53.47558286132812L164.20434482421877,46.43630286132812Q164.29904482421875,46.38324286132813,164.35074482421874,46.28781286132812Q164.38624482421875,46.22223286132812,164.39404482421875,46.14804286132812Q164.40174482421875,46.07385286132813,164.38054482421876,46.00235286132813Q164.35924482421876,45.93085286132813,164.31224482421874,45.87292286132812Q164.26524482421874,45.81499286132812,164.19974482421875,45.779452861328124L147.72324482421874,36.851475861328126Q147.63494482421873,36.80364586132813,147.53464482421876,36.80631586132812Q147.43424482421875,36.80898486132813,147.34864482421875,36.86143986132812L135.21001182421875,44.29979286132813Q135.12278082421875,44.35325286132812,135.07478082421875,44.44359286132813Q135.03978382421874,44.50947286132813,135.03265882421874,44.58372286132813Q135.02553482421874,44.657972861328126,135.04736682421876,44.729292861328126Q135.06919982421874,44.80062286132812,135.11666582421876,44.858162861328125Q135.16413082421874,44.91570286132813,135.23000382421876,44.950702861328125ZM151.45454482421874,52.721182861328124L136.16153682421876,44.59633286132812L147.55614482421876,37.613934861328126L163.24414482421875,46.114672861328124L151.45454482421874,52.721182861328124Z" fill-rule="evenodd" fill="#3D3E40" fill-opacity="1" style="mix-blend-mode:passthrough"/></g><g><path d="M135.40594482421875,44.619543359375C135.40594482421875,44.619543359375,138.32283482421875,27.561893359375,138.32283482421875,27.561893359375C138.32283482421875,27.561893359375,150.58444482421874,19.741943359375,150.58444482421874,19.741943359375C150.58444482421874,19.741943359375,147.54464482421875,37.181143359375,147.54464482421875,37.181143359375C147.54464482421875,37.181143359375,135.40594482421875,44.619543359375,135.40594482421875,44.619543359375C135.40594482421875,44.619543359375,135.40594482421875,44.619543359375,135.40594482421875,44.619543359375Z" fill="#68FE7F" fill-opacity="1" style="mix-blend-mode:passthrough"/><path d="" fill="#000000" fill-opacity="0" style="mix-blend-mode:passthrough"/></g><g><path d="M135.60187782421875,44.939243359375L147.74054482421874,37.500843359375Q147.80934482421875,37.458643359375,147.85474482421876,37.391843359375Q147.90014482421876,37.325043359375,147.91404482421876,37.245543359375L150.95384482421875,19.806338659375Q150.97884482421875,19.662987259375,150.90064482421874,19.540301359375Q150.88074482421874,19.509160359375,150.85514482421874,19.482493359375Q150.82964482421875,19.455825359375,150.79934482421874,19.434656359375Q150.76914482421876,19.413486359375,150.73524482421874,19.398627359375Q150.70144482421875,19.383769359375002,150.66544482421875,19.375792359375Q150.62934482421875,19.367816359375,150.59244482421875,19.367028359375Q150.55554482421874,19.366241359375,150.51914482421876,19.372672359375Q150.48274482421874,19.379103359375,150.44834482421874,19.392507359375Q150.41394482421876,19.405910359375,150.38274482421875,19.425770359375L138.12118482421874,27.245713359375Q138.05431482421875,27.288363359375,138.01044482421875,27.354433359375Q137.96656482421875,27.420503359375,137.95319482421874,27.498683359375L135.03630982421876,44.556343359375Q135.01254982421875,44.695243359375,135.08620282421876,44.815443359374996Q135.12517582421876,44.879043359375004,135.18552182421874,44.922843359375Q135.24586782421875,44.966743359375,135.31839942421874,44.984143359375Q135.39093012421876,45.001543359375,135.46460382421876,44.989843359375Q135.53827782421874,44.978243359375,135.60187782421875,44.939243359375ZM147.20424482421876,36.949843359374995L135.91493182421874,43.867843359375L138.66447482421876,27.788773359375L150.06894482421876,20.515473359375L147.20424482421876,36.949843359374995Z" fill-rule="evenodd" fill="#3D3E40" fill-opacity="1" style="mix-blend-mode:passthrough"/></g><g><path d="M147.54391479492188,37.180722924804684C147.54391479492188,37.180722924804684,150.58374479492187,19.741622924804688,150.58374479492187,19.741622924804688C150.58374479492187,19.741622924804688,166.62121479492188,28.76381292480469,166.62121479492188,28.76381292480469C166.62121479492188,28.76381292480469,164.0220147949219,46.108822924804684,164.0220147949219,46.108822924804684C164.0220147949219,46.108822924804684,147.54391479492188,37.180722924804684,147.54391479492188,37.180722924804684C147.54391479492188,37.180722924804684,147.54391479492188,37.180722924804684,147.54391479492188,37.180722924804684Z" fill="#68FE7F" fill-opacity="1" style="mix-blend-mode:passthrough"/><path d="" fill="#000000" fill-opacity="0" style="mix-blend-mode:passthrough"/></g><g><path d="M147.36527079492188,37.51052292480469L163.84341479492187,46.43852292480469Q163.90131479492186,46.46992292480469,163.9664147949219,46.47972292480469Q164.00301479492188,46.485122924804685,164.03981479492188,46.483422924804685Q164.07671479492188,46.48162292480468,164.11261479492188,46.472722924804685Q164.14841479492188,46.46382292480469,164.18181479492188,46.44802292480469Q164.21521479492188,46.43232292480469,164.24491479492187,46.41032292480469Q164.2746147949219,46.388422924804686,164.2995147949219,46.36112292480469Q164.32431479492186,46.33372292480469,164.34341479492187,46.30212292480469Q164.36241479492188,46.27042292480469,164.37491479492186,46.23572292480469Q164.38741479492188,46.200922924804686,164.39291479492186,46.16442292480468L166.99211479492186,28.819382924804685Q167.00051479492188,28.762992924804685,166.99181479492188,28.70664292480469Q166.98311479492187,28.65029292480469,166.95811479492187,28.599072924804688Q166.93311479492186,28.547852924804687,166.89391479492187,28.506392924804686Q166.85481479492188,28.464932924804685,166.80511479492188,28.43698292480469L150.76760479492188,19.41479192480469Q150.71152479492187,19.383242924804687,150.64813479492187,19.372192924804686Q150.61175479492186,19.365850924804686,150.57482479492188,19.366728924804686Q150.53790479492187,19.367606924804686,150.50185479492188,19.37567192480469Q150.46581479492187,19.383735924804686,150.43203479492186,19.398676924804686Q150.3982647949219,19.413618924804688,150.36804479492187,19.434861924804686Q150.3378347949219,19.45610592480469,150.31234479492187,19.482835924804686Q150.28685479492188,19.509565924804686,150.26707479492188,19.540754924804688Q150.24729479492188,19.57194392480469,150.23397479492186,19.606392924804688Q150.22065479492187,19.640841924804686,150.21431479492188,19.67722752480469L147.17448479492188,37.11642292480469Q147.16436679492188,37.17442292480469,147.17253879492188,37.23282292480469Q147.18070979492188,37.29112292480468,147.2063847949219,37.34412292480469Q147.23205879492187,37.39722292480469,147.27276079492188,37.43982292480469Q147.3134637949219,37.48242292480469,147.36527079492188,37.51052292480469ZM163.73041479492187,45.524322924804686L147.9596497949219,36.979522924804684L150.8620947949219,20.32848592480469L166.21201479492188,28.96389292480469L163.73041479492187,45.524322924804686Z" fill-rule="evenodd" fill="#3D3E40" fill-opacity="1" style="mix-blend-mode:passthrough"/></g><g><path d="M179.46300029296876,70.69685166015626C179.46300029296876,70.69685166015626,166.18280029296875,52.88560166015625,166.18280029296875,52.88560166015625C166.18280029296875,52.88560166015625,180.74340029296874,45.08795166015625,180.74340029296874,45.08795166015625C180.74340029296874,45.08795166015625,194.27910029296874,63.51065166015625,194.27910029296874,63.51065166015625C194.27910029296874,63.51065166015625,179.46300029296876,70.69685166015626,179.46300029296876,70.69685166015626C179.46300029296876,70.69685166015626,179.46300029296876,70.69685166015626,179.46300029296876,70.69685166015626Z" fill="#68FE7F" fill-opacity="1" style="mix-blend-mode:passthrough"/><path d="" fill="#000000" fill-opacity="0" style="mix-blend-mode:passthrough"/></g><g><path d="M179.62670029296874,71.03425166015626L194.44280029296874,63.84805166015625Q194.47360029296874,63.83315166015625,194.50110029296874,63.812851660156255Q194.53090029296874,63.79095166015625,194.55580029296874,63.763751660156245Q194.58080029296875,63.73645166015625,194.59990029296875,63.70485166015625Q194.61900029296874,63.673251660156254,194.63160029296876,63.63855166015625Q194.64420029296875,63.60385166015625,194.64980029296873,63.56735166015625Q194.65540029296875,63.53085166015625,194.65370029296875,63.49395166015625Q194.65210029296875,63.45705166015625,194.64330029296875,63.421151660156255Q194.63450029296874,63.38525166015625,194.61880029296876,63.35185166015625Q194.60320029296875,63.31835166015625,194.58130029296876,63.28855166015625L181.04560029296874,44.86591566015625Q181.00550029296875,44.81136166015625,180.94890029296874,44.77426566015625Q180.89230029296874,44.73716966015625,180.82620029296874,44.72221566015625Q180.76020029296876,44.70726166015625,180.69310029296875,44.71633666015625Q180.62610029296874,44.72541166015625,180.56640029296875,44.75737166015625L166.00576429296876,52.55502166015625Q165.98108729296874,52.56824166015625,165.95864629296875,52.58497166015625Q165.92903629296876,52.60705166015625,165.90430229296874,52.63448166015625Q165.87956929296874,52.66191166015625,165.86066129296876,52.69364166015625Q165.84175429296874,52.72536166015625,165.82940029296876,52.76017166015625Q165.81704629296874,52.79498166015625,165.81172029296874,52.83153166015625Q165.80639429296875,52.86807166015625,165.80830029296874,52.904961660156246Q165.81020629296876,52.94184166015625,165.81927229296875,52.97765166015625Q165.82833729296874,53.01345166015625,165.84421429296876,53.04680166015625Q165.86009029296875,53.08015166015625,165.88216829296874,53.10976166015625L179.16240029296875,70.92105166015625Q179.20150029296875,70.97345166015626,179.25610029296874,71.00955166015625Q179.31060029296876,71.04565166015625,179.37420029296874,71.06115166015624Q179.43770029296874,71.07665166015624,179.50280029296874,71.06975166015624Q179.56780029296874,71.06285166015626,179.62670029296874,71.03425166015626ZM193.71030029296875,63.369751660156254L180.63380029296874,45.57205966015625L166.74375129296874,53.01058166015625L179.57830029296875,70.22415166015625L193.71030029296875,63.369751660156254Z" fill-rule="evenodd" fill="#3D3E40" fill-opacity="1" style="mix-blend-mode:passthrough"/></g><g><path d="M166.18215942382812,52.88612878417969C166.18215942382812,52.88612878417969,176.77215942382813,40.846468784179685,176.77215942382813,40.846468784179685C176.77215942382813,40.846468784179685,191.2177594238281,33.21012878417969,191.2177594238281,33.21012878417969C191.2177594238281,33.21012878417969,180.74275942382812,45.08852878417969,180.74275942382812,45.08852878417969C180.74275942382812,45.08852878417969,166.18215942382812,52.88612878417969,166.18215942382812,52.88612878417969C166.18215942382812,52.88612878417969,166.18215942382812,52.88612878417969,166.18215942382812,52.88612878417969Z" fill="#68FE7F" fill-opacity="1" style="mix-blend-mode:passthrough"/><path d="" fill="#000000" fill-opacity="0" style="mix-blend-mode:passthrough"/></g><g><path d="M166.35919442382811,53.216728784179686L180.9197594238281,45.41912878417969Q180.97935942382813,45.38722878417968,181.02395942382813,45.33652878417969L191.49905942382813,33.45815878417969Q191.53685942382813,33.41532778417969,191.5601594238281,33.36319478417969Q191.58345942382812,33.311061784179685,191.59015942382814,33.254353784179685Q191.59695942382814,33.19764568417969,191.58645942382813,33.14150348417969Q191.57605942382813,33.08536178417969,191.54935942382812,33.034874784179685Q191.51445942382813,32.968929784179686,191.45705942382813,32.92134478417969Q191.39955942382812,32.87376078417969,191.32825942382811,32.85177978417969Q191.25705942382814,32.82979878417969,191.18275942382812,32.83676978417969Q191.10845942382812,32.84373978417969,191.04255942382812,32.87860078417969L176.59685942382814,40.51493878417969Q176.53605942382814,40.547108784179684,176.49055942382813,40.598798784179685L165.90058442382812,52.63842878417969Q165.86273842382812,52.68152878417969,165.83946942382812,52.73382878417969Q165.81619942382812,52.786228784179684,165.80963142382814,52.84312878417968Q165.80306242382812,52.90002878417969,165.8137944238281,52.95632878417969Q165.82452642382813,53.01262878417968,165.85157842382813,53.06312878417969Q165.88679342382812,53.12892878417969,165.9444914238281,53.176228784179685Q166.00218942382813,53.22342878417969,166.07358642382812,53.24502878417969Q166.14498392382814,53.26662878417969,166.21921092382811,53.25932878417969Q166.29343742382812,53.25192878417968,166.35919442382811,53.216728784179686ZM180.50615942382814,44.78982878417969L167.83369942382814,51.57632878417969L177.00825942382812,41.14581878417969L189.58045942382813,34.49981878417969L180.50615942382814,44.78982878417969Z" fill-rule="evenodd" fill="#3D3E40" fill-opacity="1" style="mix-blend-mode:passthrough"/></g><g><path d="M180.74295043945312,45.088781372070315C180.74295043945312,45.088781372070315,194.27865043945312,63.511481372070314,194.27865043945312,63.511481372070314C194.27865043945312,63.511481372070314,204.60835043945312,51.02478137207031,204.60835043945312,51.02478137207031C204.60835043945312,51.02478137207031,191.21795043945312,33.21028137207031,191.21795043945312,33.21028137207031C191.21795043945312,33.21028137207031,180.74295043945312,45.088781372070315,180.74295043945312,45.088781372070315C180.74295043945312,45.088781372070315,180.74295043945312,45.088781372070315,180.74295043945312,45.088781372070315Z" fill="#68FE7F" fill-opacity="1" style="mix-blend-mode:passthrough"/><path d="" fill="#000000" fill-opacity="0" style="mix-blend-mode:passthrough"/></g><g><path d="M190.99265043945312,32.910520372070316Q190.96205043945312,32.933530372070315,190.93675043945314,32.96225237207031L180.46169143945312,44.840681372070314Q180.4192314394531,44.888881372070315,180.39520543945312,44.948381372070315Q180.37117943945313,45.007881372070315,180.36832243945312,45.072081372070315Q180.36546443945312,45.13618137207031,180.38410243945313,45.19758137207031Q180.40273943945311,45.25908137207031,180.44074943945313,45.31078137207031L193.97645043945312,63.733481372070315Q194.02055043945313,63.793581372070314,194.08435043945312,63.83228137207031Q194.14825043945314,63.870881372070315,194.2219504394531,63.88218137207031Q194.2956504394531,63.89348137207031,194.36815043945313,63.87568137207032Q194.44055043945312,63.85788137207031,194.50065043945312,63.81368137207031Q194.53805043945312,63.78618137207032,194.56755043945313,63.75048137207031L204.89735043945313,51.26378137207031Q204.93765043945314,51.215081372070316,204.95975043945313,51.15588137207031Q204.98185043945313,51.09668137207031,204.98325043945312,51.03348137207031Q204.98475043945314,50.97028137207032,204.96545043945312,50.91018137207031Q204.94615043945313,50.84998137207032,204.90815043945312,50.79948137207032L191.51775043945312,32.98496337207031Q191.47295043945311,32.92533737207031,191.40875043945312,32.887401372070315Q191.3444504394531,32.849464372070315,191.27065043945314,32.83899437207031Q191.19675043945313,32.828523372070315,191.12455043945312,32.84711237207031Q191.05225043945313,32.86570137207031,190.99265043945312,32.910520372070316ZM191.19475043945312,33.80354837207031L181.22403343945314,45.110181372070315L194.29615043945313,62.90198137207031L204.13095043945313,51.01368137207031L191.19475043945312,33.80354837207031Z" fill-rule="evenodd" fill="#3D3E40" fill-opacity="1" style="mix-blend-mode:passthrough"/></g><g><path d="M90.90300959472657,46.972174267578126C90.90300959472657,46.972174267578126,74.61170959472656,43.36717426757812,74.61170959472656,43.36717426757812C74.61170959472656,43.36717426757812,79.69037959472656,31.027374267578125,79.69037959472656,31.027374267578125C79.69037959472656,31.027374267578125,96.52450959472657,34.958134267578124,96.52450959472657,34.958134267578124C96.52450959472657,34.958134267578124,90.90300959472657,46.972174267578126,90.90300959472657,46.972174267578126C90.90300959472657,46.972174267578126,90.90300959472657,46.972174267578126,90.90300959472657,46.972174267578126Z" fill="#68FE7F" fill-opacity="1" style="mix-blend-mode:passthrough"/><path d="" fill="#000000" fill-opacity="0" style="mix-blend-mode:passthrough"/></g><g><path d="M91.24270959472656,47.131174267578125L96.86420959472656,35.117054267578126Q96.88080959472657,35.08156426757812,96.88970959472655,35.04339426757812Q96.90670959472656,34.970764267578126,96.89460959472656,34.89716426757813Q96.88240959472657,34.82356426757813,96.84310959472657,34.760204267578125Q96.80370959472657,34.69684426757812,96.74310959472656,34.653384267578126Q96.68240959472656,34.60991426757813,96.60980959472656,34.59295426757812L79.77564959472656,30.662197267578126Q79.71062959472656,30.647014267578125,79.64435959472657,30.655209267578126Q79.57808959472656,30.663405267578124,79.51871959472656,30.693972267578125Q79.45934959472656,30.724540267578124,79.41418959472657,30.773721267578125Q79.36901959472657,30.822902267578126,79.34360959472656,30.884651267578125L74.26493159472656,43.224474267578124Q74.25257859472656,43.254474267578125,74.24556659472657,43.286174267578126Q74.23758659472657,43.32227426757812,74.23679559472656,43.359174267578126Q74.23600459472657,43.39607426757813,74.24243259472657,43.43247426757812Q74.24885959472657,43.46887426757812,74.26225959472656,43.50327426757812Q74.27565959472656,43.537674267578126,74.29551659472656,43.56877426757812Q74.31537359472657,43.599974267578126,74.34092459472656,43.626674267578124Q74.36647559472657,43.65327426757813,74.39673859472656,43.67447426757813Q74.42700159472656,43.69567426757813,74.46081359472656,43.71047426757812Q74.49462659472657,43.725374267578125,74.53068799472656,43.73337426757813L90.82200959472657,47.338374267578125Q90.88440959472656,47.35217426757812,90.94790959472657,47.34447426757812Q91.01140959472656,47.336874267578125,91.06870959472656,47.30857426757812Q91.12610959472656,47.280374267578125,91.17080959472656,47.23467426757813Q91.21560959472656,47.18907426757812,91.24270959472656,47.131174267578125ZM95.98890959472656,35.21813426757812L90.69070959472657,46.54117426757813L75.12825559472657,43.09747426757812L79.91575959472657,31.465085267578125L95.98890959472656,35.21813426757812Z" fill-rule="evenodd" fill="#3D3E40" fill-opacity="1" style="mix-blend-mode:passthrough"/></g><g><path d="M74.6124267578125,43.36740197753906C74.6124267578125,43.36740197753906,74.8550717578125,32.24260197753906,74.8550717578125,32.24260197753906C74.8550717578125,32.24260197753906,79.5569467578125,20.483901977539062,79.5569467578125,20.483901977539062C79.5569467578125,20.483901977539062,79.6894967578125,31.027601977539064,79.6894967578125,31.027601977539064C79.6894967578125,31.027601977539064,74.6124267578125,43.36740197753906,74.6124267578125,43.36740197753906C74.6124267578125,43.36740197753906,74.6124267578125,43.36740197753906,74.6124267578125,43.36740197753906Z" fill="#68FE7F" fill-opacity="1" style="mix-blend-mode:passthrough"/><path d="" fill="#000000" fill-opacity="0" style="mix-blend-mode:passthrough"/></g><g><path d="M74.9592207578125,43.510101977539065L80.0362967578125,31.17030197753906Q80.0654267578125,31.099501977539063,80.0644667578125,31.022901977539064L79.9319167578125,20.479187937539063Q79.9312167578125,20.423578777539063,79.9144067578125,20.370565977539062Q79.8975967578125,20.317552977539062,79.8661267578125,20.27169997753906Q79.8346567578125,20.225846977539064,79.7912367578125,20.19110097753906Q79.7478167578125,20.156354977539063,79.6961767578125,20.135706977539062Q79.6618867578125,20.121993977539063,79.62556675781249,20.115234977539064Q79.5892567578125,20.10847597753906,79.5523267578125,20.108929977539063Q79.5153967578125,20.10938497753906,79.4792667578125,20.11703597753906Q79.44312675781251,20.124686977539064,79.4091867578125,20.139239977539063Q79.3752367578125,20.153792977539062,79.3447867578125,20.174688977539063Q79.3143267578125,20.195584977539063,79.2885367578125,20.222020977539064Q79.2627467578125,20.248456977539064,79.2426067578125,20.279416977539064Q79.2224667578125,20.31037697753906,79.2087467578125,20.34467197753906L74.5068767578125,32.103401977539065Q74.4816427578125,32.16650197753906,74.4801607578125,32.234401977539065L74.2375157578125,43.35920197753906Q74.2362777578125,43.41600197753906,74.2519027578125,43.47060197753906Q74.2675277578125,43.52520197753906,74.2986157578125,43.57270197753906Q74.3297037578125,43.62020197753906,74.3734657578125,43.65640197753906Q74.4172287578125,43.69260197753906,74.4697427578125,43.71420197753906Q74.5387240578125,43.74260197753907,74.6133160118125,43.74240197753906Q74.6879079578125,43.74220197753906,74.7567547578125,43.71350197753907Q74.8256007578125,43.68480197753907,74.8782197578125,43.63190197753906Q74.9308387578125,43.57910197753906,74.9592207578125,43.510101977539065ZM79.3135667578125,30.955701977539064L75.0312127578125,41.36400197753906L75.2285007578125,32.318701977539064L79.2056567578125,22.37244197753906L79.3135667578125,30.955701977539064Z" fill-rule="evenodd" fill="#3D3E40" fill-opacity="1" style="mix-blend-mode:passthrough"/></g><g><path d="M79.68994156445312,31.027601977539064C79.68994156445312,31.027601977539064,96.52560356445312,34.958301977539065,96.52560356445312,34.958301977539065C96.52560356445312,34.958301977539065,95.72100356445313,23.943651977539062,95.72100356445313,23.943651977539062C95.72100356445313,23.943651977539062,79.55740356445312,20.483901977539062,79.55740356445312,20.483901977539062C79.55740356445312,20.483901977539062,79.68994156445312,31.027601977539064,79.68994156445312,31.027601977539064C79.68994156445312,31.027601977539064,79.68994156445312,31.027601977539064,79.68994156445312,31.027601977539064Z" fill="#68FE7F" fill-opacity="1" style="mix-blend-mode:passthrough"/><path d="" fill="#000000" fill-opacity="0" style="mix-blend-mode:passthrough"/></g><g><path d="M79.19070956445313,20.40541267753906Q79.18190456445312,20.446549877539063,79.18243356445312,20.48861549753906L79.31497056445312,31.032301977539063Q79.31576156445313,31.095101977539063,79.33701056445312,31.154301977539063Q79.35826056445312,31.21350197753906,79.39764556445313,31.262501977539063Q79.43703056445312,31.311501977539063,79.49024406445312,31.345001977539063Q79.54345776445312,31.378501977539063,79.60468076445312,31.392701977539062L96.44040356445312,35.32350197753907Q96.51300356445313,35.34040197753906,96.58660356445313,35.32830197753906Q96.66020356445313,35.316201977539066,96.72360356445313,35.276801977539066Q96.78690356445313,35.237401977539065,96.83040356445312,35.176801977539064Q96.87390356445313,35.11620197753906,96.89080356445312,35.04360197753906Q96.90380356445313,34.988001977539064,96.89970356445312,34.93100197753906L96.09500356445312,23.916321977539063Q96.09050356445313,23.855631977539062,96.06710356445312,23.799461977539064Q96.04370356445312,23.743281977539063,96.00380356445312,23.697391977539063Q95.96380356445313,23.651491977539063,95.91140356445312,23.620591977539064Q95.85900356445313,23.58969197753906,95.79950356445312,23.57695197753906L79.63589286445313,20.117207977539064Q79.59977666445313,20.10947797753906,79.56284632445312,20.10894197753906Q79.52591596445312,20.108404977539063,79.48959056445312,20.11508397753906Q79.45326556445312,20.121762977539063,79.41894056445312,20.135400977539064Q79.38461656445313,20.149037977539063,79.35361256445313,20.169109977539062Q79.32260756445312,20.18918197753906,79.29611556445313,20.21491597753906Q79.26962256445313,20.24065097753906,79.24865956445312,20.271059977539064Q79.22769556445313,20.301467977539062,79.21306856445312,20.33538197753906Q79.19844056445312,20.369295977539064,79.19070956445313,20.40541267753906ZM79.93827856445313,20.948920977539064L80.06121956445313,30.729201977539063L96.11450356445312,34.47720197753906L95.36750356445313,24.25147197753906L79.93827856445313,20.948920977539064Z" fill-rule="evenodd" fill="#3D3E40" fill-opacity="1" style="mix-blend-mode:passthrough"/></g><g><path d="M217.41128540039062,59.7736539453125C217.41128540039062,59.7736539453125,227.15026540039062,69.5030939453125,227.15026540039062,69.5030939453125C227.15026540039062,69.5030939453125,237.35388540039062,63.4569439453125,237.35388540039062,63.4569439453125C237.35388540039062,63.4569439453125,227.61008540039063,53.8887939453125,227.61008540039063,53.8887939453125C227.61008540039063,53.8887939453125,217.41128540039062,59.7736539453125,217.41128540039062,59.7736539453125C217.41128540039062,59.7736539453125,217.41128540039062,59.7736539453125,217.41128540039062,59.7736539453125Z" fill="#68FE7F" fill-opacity="1" style="mix-blend-mode:passthrough"/><path d="" fill="#000000" fill-opacity="0" style="mix-blend-mode:passthrough"/></g><g><path d="M227.87278540039063,53.6212279453125Q227.82898540039062,53.5781639453125,227.77368540039063,53.5513529453125Q227.71838540039062,53.5245419453125,227.65738540039064,53.5167889453125Q227.59638540039063,53.5090359453125,227.53618540039062,53.5211529453125Q227.47588540039064,53.5332689453125,227.42268540039063,53.5639869453125L217.22386740039062,59.448843945312504Q217.15925940039062,59.4861239453125,217.11383540039063,59.5452939453125Q217.06841140039063,59.6044539453125,217.04908740039062,59.6765039453125Q217.02976340039064,59.7485539453125,217.03948140039063,59.8225039453125Q217.04919940039062,59.8964639453125,217.08647840039063,59.9610739453125Q217.11122340039063,60.0039539453125,217.1462504003906,60.0389439453125L226.88523540039063,69.7683939453125Q226.92940540039064,69.8124939453125,226.98548540039062,69.8398939453125Q227.04157540039063,69.8673939453125,227.10351540039062,69.8751939453125Q227.16546540039062,69.8828939453125,227.22659540039064,69.87019394531251Q227.28772540039063,69.8574939453125,227.34143540039062,69.8256939453125L237.54508540039063,63.7795539453125Q237.57688540039064,63.7607239453125,237.60438540039064,63.7360639453125Q237.63178540039064,63.7113939453125,237.65398540039064,63.6818439453125Q237.67608540039063,63.6522839453125,237.69208540039062,63.618973945312504Q237.70808540039062,63.5856739453125,237.71718540039063,63.5498939453125Q237.72638540039063,63.5141039453125,237.72838540039064,63.4772239453125Q237.73038540039062,63.4403439453125,237.72508540039064,63.4037839453125Q237.71988540039064,63.3672239453125,237.70758540039063,63.3323839453125Q237.69538540039062,63.2975539453125,237.67648540039062,63.2657739453125Q237.65158540039062,63.2236639453125,237.61668540039062,63.1893739453125L227.87278540039063,53.6212279453125ZM227.55068540039062,54.3560249453125L218.02232540039063,59.8540239453125L227.20944540039062,69.0320939453125L236.74328540039062,63.3828839453125L227.55068540039062,54.3560249453125Z" fill-rule="evenodd" fill="#3D3E40" fill-opacity="1" style="mix-blend-mode:passthrough"/></g><g><path d="M227.60955810546875,53.88935650390625C227.60955810546875,53.88935650390625,237.35335810546874,63.45751650390625,237.35335810546874,63.45751650390625C237.35335810546874,63.45751650390625,240.62945810546876,54.31724650390625,240.62945810546876,54.31724650390625C240.62945810546876,54.31724650390625,230.94314810546874,44.58941650390625,230.94314810546874,44.58941650390625C230.94314810546874,44.58941650390625,227.60955810546875,53.88935650390625,227.60955810546875,53.88935650390625C227.60955810546875,53.88935650390625,227.60955810546875,53.88935650390625,227.60955810546875,53.88935650390625Z" fill="#68FE7F" fill-opacity="1" style="mix-blend-mode:passthrough"/><path d="" fill="#000000" fill-opacity="0" style="mix-blend-mode:passthrough"/></g><g><path d="M230.67854810546876,44.32368550390625Q230.61865810546874,44.38332050390625,230.59013810546875,44.46288050390625L227.25655110546876,53.762826503906254Q227.23841810546875,53.81340650390625,227.23522210546875,53.86705650390625Q227.23202610546875,53.92069650390625,227.24402310546876,53.97307650390625Q227.25602110546876,54.02545650390625,227.28224610546874,54.07236650390625Q227.30847210546875,54.119266503906246,227.34681510546875,54.15692650390625L237.09061810546876,63.72511650390625Q237.14383810546875,63.77741650390625,237.21301810546876,63.805316503906255Q237.28218810546875,63.83321650390625,237.35677810546875,63.83251650390625Q237.43135810546875,63.83191650390625,237.50000810546874,63.802716503906254Q237.56866810546876,63.77351650390625,237.62095810546876,63.72031650390625Q237.67855810546874,63.661616503906245,237.70635810546875,63.58411650390625L240.98245810546874,54.44377650390625Q241.00045810546874,54.39369650390625,241.00375810546876,54.34059650390625Q241.00705810546876,54.28749650390625,240.99545810546874,54.23557650390625Q240.98385810546876,54.183646503906246,240.95835810546876,54.136996503906246Q240.93275810546874,54.09034650390625,240.89525810546874,54.052646503906246L231.20887810546876,44.32481850390625Q231.15624810546876,44.27196150390625,231.08738810546876,44.24326950390625Q231.01853810546876,44.21457650390625,230.94394810546876,44.21441750390625Q230.86935810546876,44.21425750390625,230.80037810546875,44.24265550390625Q230.73140810546874,44.27105350390625,230.67854810546876,44.32368550390625ZM231.09598810546876,45.27437650390625L228.04355210546876,53.789956503906254L237.19804810546876,62.77951650390625L240.19645810546876,54.41386650390625L231.09598810546876,45.27437650390625Z" fill-rule="evenodd" fill="#3D3E40" fill-opacity="1" style="mix-blend-mode:passthrough"/></g><g><path d="M217.41128540039062,59.7739982421875C217.41128540039062,59.7739982421875,220.7816754003906,51.0152582421875,220.7816754003906,51.0152582421875C220.7816754003906,51.0152582421875,230.94368540039062,44.5906982421875,230.94368540039062,44.5906982421875C230.94368540039062,44.5906982421875,227.61008540039063,53.8890982421875,227.61008540039063,53.8890982421875C227.61008540039063,53.8890982421875,217.41128540039062,59.7739982421875,217.41128540039062,59.7739982421875C217.41128540039062,59.7739982421875,217.41128540039062,59.7739982421875,217.41128540039062,59.7739982421875Z" fill="#68FE7F" fill-opacity="1" style="mix-blend-mode:passthrough"/><path d="" fill="#000000" fill-opacity="0" style="mix-blend-mode:passthrough"/></g><g><path d="M217.59870340039063,60.0987982421875L227.79748540039063,54.2139082421875Q227.91668540039063,54.1451482421875,227.96308540039064,54.0156582421875L231.29668540039063,44.7172552421875Q231.32598540039064,44.6357177421875,231.31648540039063,44.5496199421875Q231.30698540039063,44.4635222421875,231.26068540039063,44.3903072421875Q231.24098540039063,44.3590892421875,231.21548540039063,44.3323202421875Q231.19008540039061,44.3055522421875,231.15988540039064,44.2842632421875Q231.12968540039063,44.2629742421875,231.09598540039062,44.2479812421875Q231.06218540039063,44.2329892421875,231.02618540039063,44.2248702421875Q230.99008540039063,44.2167512421875,230.95318540039062,44.2158182421875Q230.91628540039062,44.2148842421875,230.87988540039063,44.2211722421875Q230.84348540039062,44.2274592421875,230.8089854003906,44.2407262421875Q230.77458540039063,44.2539932421875,230.74328540039062,44.2737302421875L220.5812854003906,50.6982882421875Q220.47630540039063,50.7646682421875,220.43169540039062,50.8805882421875L217.0613034003906,59.6392982421875Q217.03080940039064,59.7184982421875,217.03742540039062,59.8031982421875Q217.04404240039062,59.8877982421875,217.08647840039063,59.9613982421875Q217.1237584003906,60.0259982421875,217.18292440039062,60.0713982421875Q217.24209140039062,60.1167982421875,217.3141366003906,60.136198242187504Q217.38618240039062,60.1554982421875,217.46013900039063,60.145798242187496Q217.5340954003906,60.1359982421875,217.59870340039063,60.0987982421875ZM227.30350540039063,53.6330482421875L218.14192240039063,58.9193982421875L221.08705540039062,51.2658582421875L230.22288540039062,45.4900592421875L227.30350540039063,53.6330482421875Z" fill-rule="evenodd" fill="#3D3E40" fill-opacity="1" style="mix-blend-mode:passthrough"/></g><g><path d="M128.20676875,46.194809179687496C128.20676875,46.194809179687496,119.06959875,39.1444091796875,119.06959875,39.1444091796875C119.06959875,39.1444091796875,111.23046875,45.2608191796875,111.23046875,45.2608191796875C111.23046875,45.2608191796875,120.35483875,52.1772091796875,120.35483875,52.1772091796875C120.35483875,52.1772091796875,128.20676875,46.194809179687496,128.20676875,46.194809179687496C128.20676875,46.194809179687496,128.20676875,46.194809179687496,128.20676875,46.194809179687496Z" fill="#68FE7F" fill-opacity="1" style="mix-blend-mode:passthrough"/><path d="" fill="#000000" fill-opacity="0" style="mix-blend-mode:passthrough"/></g><g><path d="M120.12831875,52.4760091796875Q120.17729875,52.5132091796875,120.23556875,52.5327091796875Q120.29383875,52.5523091796875,120.35530875,52.5522091796875Q120.41676875,52.5521091796875,120.47498875,52.5324091796875Q120.53321875,52.5127091796875,120.58210875,52.4755091796875L128.43406875,46.4930991796875Q128.46336875,46.4707091796875,128.48786875,46.4430291796875Q128.51226875,46.4153391796875,128.53086875,46.3834191796875Q128.54946875,46.3514991796875,128.56146875,46.3165591796875Q128.57346875,46.2816291796875,128.57836875,46.2450291796875Q128.58336875,46.2084291796875,128.58106875,46.1715591796875Q128.57876875,46.1346991796875,128.56926875,46.0989891796875Q128.55986875,46.0632791796875,128.54366875,46.0300991796875Q128.52746875,45.9969191796875,128.50506875,45.9675391796875Q128.47506875,45.9281591796875,128.43586875,45.8979191796875L119.29867875,38.8475181796875Q119.24925875,38.8093791796875,119.19013875,38.7893101796875Q119.13101875,38.7692421796875,119.06858875,38.7694101796875Q119.00615875,38.7695781796875,118.94714875,38.7899641796875Q118.88813875,38.8103501796875,118.83891875,38.8487551796875L110.99978775,44.9651691796875Q110.97066775,44.9878891796875,110.94654075,45.0158491796875Q110.92241375,45.0438091796875,110.90420475,45.0759491796875Q110.88599675,45.1080791796875,110.87440775,45.1431491796875Q110.86281875,45.1782191796875,110.85829375,45.2148791796875Q110.85376875,45.2515291796875,110.85648175,45.2883691796875Q110.85919475,45.3251991796875,110.86904275,45.3607991796875Q110.87888975,45.3963991796875,110.89549175,45.4293891796875Q110.91209475,45.4623791796875,110.93481475,45.4914991796875Q110.96492775,45.5300891796875,111.00393975,45.5596691796875L120.12831875,52.4760091796875ZM120.35425875,51.7062091796875L127.59046875,46.1929191796875L119.07086875,39.6190531796875L111.84558175,45.2565191796875L120.35425875,51.7062091796875Z" fill-rule="evenodd" fill="#3D3E40" fill-opacity="1" style="mix-blend-mode:passthrough"/></g><g><path d="M120.35438100585938,52.177398398437504C120.35438100585938,52.177398398437504,111.23004100585938,45.2611083984375,111.23004100585938,45.2611083984375C111.23004100585938,45.2611083984375,109.48178100585938,53.2119783984375,109.48178100585938,53.2119783984375C109.48178100585938,53.2119783984375,118.57580100585938,60.2656083984375,118.57580100585938,60.2656083984375C118.57580100585938,60.2656083984375,120.35438100585938,52.177398398437504,120.35438100585938,52.177398398437504C120.35438100585938,52.177398398437504,120.35438100585938,52.177398398437504,120.35438100585938,52.177398398437504Z" fill="#68FE7F" fill-opacity="1" style="mix-blend-mode:passthrough"/><path d="" fill="#000000" fill-opacity="0" style="mix-blend-mode:passthrough"/></g><g><path d="M118.87212100585937,60.4954083984375Q118.92391100585938,60.4287083984375,118.94205100585937,60.3462083984375L120.72058100585937,52.2579383984375Q120.73218100585937,52.2054483984375,120.72848100585938,52.1518383984375Q120.72478100585937,52.0982283984375,120.70628100585938,52.0477983984375Q120.68768100585937,51.9973783984375,120.65568100585938,51.9541983984375Q120.62368100585937,51.9110083984375,120.58088100585937,51.8785483984375L111.45657100585937,44.9622603984375Q111.42713100585938,44.9399493984375,111.39391100585938,44.9238093984375Q111.36069100585938,44.9076693984375,111.32496100585938,44.8983203984375Q111.28923100585938,44.8889713984375,111.25236100585937,44.8867733984375Q111.21549100585938,44.8845743984375,111.17890100585937,44.8896113984375Q111.14231100585937,44.894648398437496,111.10741100585938,44.9067263984375Q111.07251100585937,44.9188043984375,111.04063100585938,44.9374593984375Q111.00875100585938,44.9561143984375,110.98113100585938,44.9806303984375Q110.95350100585938,45.0051463984375,110.93119100585938,45.0345803984375Q110.88147100585938,45.1001803984375,110.86379100585937,45.1805760984375L109.11553000585937,53.1314383984375Q109.10410400585937,53.1834083984375,109.10758400585938,53.2364983984375Q109.11106300585938,53.2895883984375,109.12917400585937,53.3396183984375Q109.14728400585938,53.3896483984375,109.17859600585938,53.4326683984375Q109.20990700585938,53.4756783984375,109.25194900585937,53.5082883984375L118.34597100585938,60.5619083984375Q118.40491100585938,60.6076083984375,118.47686100585938,60.6273083984375Q118.54881100585938,60.6470083984375,118.62281100585938,60.637708398437496Q118.69682100585938,60.6283083984375,118.76161100585938,60.5913083984375Q118.82640100585938,60.5544083984375,118.87212100585937,60.4954083984375ZM118.33694100585937,59.6058083984375L119.93658100585938,52.3312683984375L111.47046100585938,45.9139053984375L109.89894500585937,53.0609583984375L118.33694100585937,59.6058083984375Z" fill-rule="evenodd" fill="#3D3E40" fill-opacity="1" style="mix-blend-mode:passthrough"/></g><g><path d="M128.20632978515624,46.1949462890625C128.20632978515624,46.1949462890625,126.33994978515625,53.8393562890625,126.33994978515625,53.8393562890625C126.33994978515625,53.8393562890625,118.57427978515625,60.2671462890625,118.57427978515625,60.2671462890625C118.57427978515625,60.2671462890625,120.35442978515626,52.1773362890625,120.35442978515626,52.1773362890625C120.35442978515626,52.1773362890625,128.20632978515624,46.1949462890625,128.20632978515624,46.1949462890625C128.20632978515624,46.1949462890625,128.20632978515624,46.1949462890625,128.20632978515624,46.1949462890625Z" fill="#68FE7F" fill-opacity="1" style="mix-blend-mode:passthrough"/><path d="" fill="#000000" fill-opacity="0" style="mix-blend-mode:passthrough"/></g><g><path d="M127.97905978515625,45.8966592890625L120.12716978515625,51.8790462890625Q120.01774978515625,51.9624162890625,119.98818978515625,52.0967462890625L118.20804178515625,60.1865462890625Q118.18942678515624,60.2711462890625,118.20979778515625,60.355346289062496Q118.23016978515625,60.4395462890625,118.28539978515624,60.5062462890625Q118.33296178515624,60.563646289062504,118.39889378515625,60.5985462890625Q118.46482478515625,60.6334462890625,118.53908798515624,60.640446289062496Q118.61335078515626,60.6474462890625,118.68463978515625,60.6255462890625Q118.75592778515625,60.6035462890625,118.81338978515625,60.5560462890625L126.57905978515625,54.1282362890625Q126.67477978515625,54.0490062890625,126.70424978515625,53.9282962890625L128.57062978515626,46.2838897890625Q128.59077978515626,46.2014167690625,128.57341978515626,46.1183127890625Q128.55606978515624,46.0352092890625,128.50461978515625,45.9676802890625Q128.48222978515625,45.9383012890625,128.45454978515625,45.9138542890625Q128.42685978515624,45.8894072890625,128.39493978515625,45.8708302890625Q128.36301978515624,45.8522542890625,128.32807978515626,45.8402622890625Q128.29314978515626,45.8282702890625,128.25654978515624,45.8233242890625Q128.21994978515625,45.8183782890625,128.18307978515625,45.8206672890625Q128.14621978515626,45.8229572890625,128.11050978515624,45.8323942890625Q128.07479978515624,45.8418312890625,128.04161978515626,45.8580532890625Q128.00843978515624,45.8742752890625,127.97905978515625,45.8966592890625ZM120.69110978515624,52.3922662890625L119.17473678515626,59.2833462890625L126.00511978515625,53.6297062890625L127.59068978515626,47.1354442890625L120.69110978515624,52.3922662890625Z" fill-rule="evenodd" fill="#3D3E40" fill-opacity="1" style="mix-blend-mode:passthrough"/></g><g><path d="M245.65278364257813,21.523712216796874C245.65278364257813,21.523712216796874,231.82168364257814,34.264272216796876,231.82168364257814,34.264272216796876C231.82168364257814,34.264272216796876,216.68948364257812,29.062672216796877,216.68948364257812,29.062672216796877C216.68948364257812,29.062672216796877,230.79838364257813,16.060272216796875,230.79838364257813,16.060272216796875C230.79838364257813,16.060272216796875,245.65278364257813,21.523712216796874,245.65278364257813,21.523712216796874C245.65278364257813,21.523712216796874,245.65278364257813,21.523712216796874,245.65278364257813,21.523712216796874Z" fill="#68FE7F" fill-opacity="1" style="mix-blend-mode:passthrough"/><path d="" fill="#000000" fill-opacity="0" style="mix-blend-mode:passthrough"/></g><g><path d="M245.78218364257813,21.171762216796875L230.92778364257813,15.708322216796875Q230.8791836425781,15.690459216796874,230.82758364257813,15.686417216796874Q230.77608364257813,15.682376216796875,230.72528364257812,15.692458216796876Q230.67448364257814,15.702540216796875,230.62838364257811,15.725993216796875Q230.58228364257812,15.749445216796875,230.54418364257813,15.784515216796875L216.43535164257813,28.786872216796873Q216.36565964257812,28.851172216796876,216.33485064257812,28.940772216796873Q216.32284364257814,28.975672216796873,216.31788264257813,29.012272216796873Q216.31292064257812,29.048872216796873,216.31519464257812,29.085772216796876Q216.31746864257812,29.122572216796875,216.32689164257812,29.158372216796877Q216.33631364257812,29.194072216796876,216.35252164257813,29.227272216796877Q216.36872964257813,29.260372216796874,216.39110164257812,29.289772216796877Q216.4134726425781,29.319172216796876,216.44114764257813,29.343672216796875Q216.46882264257812,29.368072216796875,216.50073764257812,29.386672216796875Q216.5326526425781,29.405272216796874,216.56758064257812,29.417272216796874L231.69978364257813,34.61887221679687Q231.74778364257813,34.635372216796874,231.79838364257813,34.638572216796874Q231.84898364257813,34.64167221679688,231.89868364257813,34.63127221679687Q231.94828364257813,34.620872216796876,231.99338364257812,34.59767221679688Q232.03848364257811,34.57447221679688,232.07578364257813,34.54007221679687L245.90688364257812,21.799522216796873Q245.97348364257812,21.738162216796873,246.00468364257813,21.653162216796876Q246.01748364257813,21.618492216796874,246.02318364257812,21.582012216796876Q246.0289836425781,21.545522216796876,246.02748364257812,21.508622216796873Q246.02598364257813,21.471712216796874,246.01728364257812,21.435812216796876Q246.00868364257812,21.399902216796875,245.99318364257812,21.366382216796875Q245.9776836425781,21.332852216796873,245.95588364257813,21.302992216796873Q245.93418364257812,21.273132216796874,245.90708364257813,21.248092216796877Q245.87988364257814,21.223042216796877,245.8483836425781,21.203782216796874Q245.81688364257812,21.184512216796875,245.78218364257813,21.171762216796875ZM230.88398364257813,16.491324216796876L217.40589964257813,28.912372216796875L231.73208364257812,33.83697221679688L244.94718364257812,21.663772216796875L230.88398364257813,16.491324216796876Z" fill-rule="evenodd" fill="#3D3E40" fill-opacity="1" style="mix-blend-mode:passthrough"/></g><g><path d="M224.175182421875,0.3753204345703125C224.175182421875,0.3753204345703125,230.799282421875,16.059920434570312,230.799282421875,16.059920434570312C230.799282421875,16.059920434570312,216.688782421875,29.062320434570314,216.688782421875,29.062320434570314C216.688782421875,29.062320434570314,210.656982421875,13.505420434570313,210.656982421875,13.505420434570313C210.656982421875,13.505420434570313,224.175182421875,0.3753204345703125,224.175182421875,0.3753204345703125C224.175182421875,0.3753204345703125,224.175182421875,0.3753204345703125,224.175182421875,0.3753204345703125Z" fill="#68FE7F" fill-opacity="1" style="mix-blend-mode:passthrough"/><path d="" fill="#000000" fill-opacity="0" style="mix-blend-mode:passthrough"/></g><g><path d="M223.913882421875,0.10632243457031249L210.395706421875,13.236420434570313Q210.356088421875,13.274920434570312,210.329246421875,13.323120434570313Q210.302404421875,13.371420434570313,210.290619421875,13.425420434570313Q210.278834421875,13.479320434570312,210.283105421875,13.534420434570313Q210.287377421875,13.589520434570312,210.307343421875,13.641020434570313L216.339142421875,29.197820434570314Q216.364842421875,29.264120434570312,216.413012421875,29.31642043457031Q216.463552421875,29.37132043457031,216.531242421875,29.402620434570313Q216.598932421875,29.43392043457031,216.673462421875,29.43702043457031Q216.747992421875,29.44002043457031,216.818022421875,29.414320434570314Q216.888042421875,29.388620434570313,216.942892421875,29.338120434570314L231.053382421875,16.335720434570312Q231.095982421875,16.29642043457031,231.124782421875,16.24622043457031Q231.153482421875,16.19592043457031,231.165782421875,16.139320434570312Q231.178082421875,16.082720434570312,231.172682421875,16.025020434570312Q231.167282421875,15.967420434570313,231.144782421875,15.914020434570313L224.520582421875,0.2294234345703125Q224.493182421875,0.1645554345703125,224.444182421875,0.11404443457031249Q224.418382421875,0.08755043457031247,224.387982421875,0.06658643457031249Q224.357582421875,0.04562143457031248,224.323682421875,0.030992434570312477Q224.289782421875,0.0163624345703125,224.253682421875,0.008630434570312484Q224.217482421875,0.0008984345703125229,224.180582421875,0.0003604345703124845Q224.143682421875,-0.00017756542968749844,224.107382421875,0.00649943457031249Q224.070982421875,0.013177434570312507,224.036682421875,0.026812434570312516Q224.002382421875,0.0404484345703125,223.971382421875,0.060518434570312474Q223.940382421875,0.08058943457031248,223.913882421875,0.10632243457031249ZM211.096395421875,13.601420434570313L216.839442421875,28.413520434570312L230.351182421875,15.962920434570313L224.043082421875,1.0264014345703125L211.096395421875,13.601420434570313Z" fill-rule="evenodd" fill="#3D3E40" fill-opacity="1" style="mix-blend-mode:passthrough"/></g><g><path d="M238.6933943359375,6.20723C238.6933943359375,6.20723,245.6526943359375,21.523,245.6526943359375,21.523C245.6526943359375,21.523,230.7983043359375,16.0612,230.7983043359375,16.0612C230.7983043359375,16.0612,224.1741943359375,0.375,224.1741943359375,0.375C224.1741943359375,0.375,238.6933943359375,6.20723,238.6933943359375,6.20723C238.6933943359375,6.20723,238.6933943359375,6.20723,238.6933943359375,6.20723Z" fill="#68FE7F" fill-opacity="1" style="mix-blend-mode:passthrough"/><path d="" fill="#000000" fill-opacity="0" style="mix-blend-mode:passthrough"/></g><g><path d="M238.8331943359375,5.85925L224.3139733359375,0.02702500000000002Q224.2451056359375,-0.0006390000000000007,224.1708927359375,0.000014000000000014001Q224.0966798359375,0.0006680000000000019,224.0283103359375,0.02954000000000001Q223.9942853359375,0.043908,223.9637173359375,0.06463799999999997Q223.9331493359375,0.085368,223.9072133359375,0.11166399999999999Q223.8812763359375,0.137959,223.8609683359375,0.168809Q223.8406603359375,0.199659,223.8267613359375,0.233878Q223.8128623359375,0.26809700000000003,223.8059053359375,0.3043707Q223.7989493359375,0.3406439,223.7992033359375,0.37757733Q223.7994573359375,0.4145107,223.8069113359375,0.4506849Q223.8143653359375,0.486859,223.8287343359375,0.520884L230.4528443359375,16.2071Q230.4831343359375,16.2788,230.5394743359375,16.3326Q230.5958143359375,16.3863,230.6688943359375,16.4132L245.5232943359375,21.875Q245.5926943359375,21.9005,245.6665943359375,21.8978Q245.7404943359375,21.895,245.8077943359375,21.8644Q245.8413943359375,21.8492,245.8713943359375,21.8276Q245.9013943359375,21.8061,245.9266943359375,21.7791Q245.9518943359375,21.7521,245.9712943359375,21.7207Q245.9907943359375,21.6893,246.0037943359375,21.6548Q246.0167943359375,21.6202,246.0226943359375,21.5837Q246.0286943359375,21.5473,246.0274943359375,21.5104Q246.0261943359375,21.4735,246.0177943359375,21.4375Q246.0093943359375,21.4015,245.9940943359375,21.3679L239.0347943359375,6.0521Q239.0048943359375,5.98623,238.9525943359375,5.93623Q238.9002943359375,5.88622,238.8331943359375,5.85925ZM224.8699353359375,1.058596L231.0804643359375,15.7654L244.9401943359375,20.8615L238.4141943359375,6.49919L224.8699353359375,1.058596Z" fill-rule="evenodd" fill="#3D3E40" fill-opacity="1" style="mix-blend-mode:passthrough"/></g><g><path d="M24.4479,38.427566923828124C24.4479,38.427566923828124,15.8824,54.96792192382813,15.8824,54.96792192382813C15.8824,54.96792192382813,0.375,53.51672192382813,0.375,53.51672192382813C0.375,53.51672192382813,9.13054,37.471221923828125,9.13054,37.471221923828125C9.13054,37.471221923828125,24.4479,38.427566923828124,24.4479,38.427566923828124C24.4479,38.427566923828124,24.4479,38.427566923828124,24.4479,38.427566923828124Z" fill="#68FE7F" fill-opacity="1" style="mix-blend-mode:passthrough"/><path d="" fill="#000000" fill-opacity="0" style="mix-blend-mode:passthrough"/></g><g><path d="M24.4713,38.053294923828126L9.15391,37.096950923828125Q9.10051,37.09361692382812,9.04832,37.10534692382812Q8.99612,37.11707692382812,8.94929,37.14293492382812Q8.90245,37.168791923828124,8.86472,37.206713923828126Q8.82698,37.244636923828125,8.80136,37.29159792382813L0.045819,53.33712192382812Q0.008826999999999974,53.40492192382813,0.0016309999999999936,53.481721923828125Q-0.0018099999999999783,53.518521923828125,0.0019890000000000185,53.555321923828124Q0.005788000000000015,53.59202192382813,0.016681,53.62732192382812Q0.027573999999999987,53.66262192382813,0.04514299999999999,53.695121923828125Q0.06271199999999999,53.727621923828124,0.086281,53.75602192382813Q0.10985099999999998,53.78442192382812,0.138515,53.807721923828126Q0.167179,53.831021923828125,0.199837,53.848321923828124Q0.232494,53.865521923828126,0.26789,53.87612192382812Q0.3032853,53.88662192382813,0.3400588,53.890121923828126L15.8474,55.341321923828126Q15.9032,55.34652192382812,15.9581,55.33522192382813Q16.012900000000002,55.323921923828124,16.0621,55.297021923828126Q16.1112,55.270221923828124,16.150399999999998,55.230221923828125Q16.1896,55.19012192382813,16.215400000000002,55.14042192382813L24.7809,38.60001192382813Q24.8173,38.52982192382812,24.8222,38.450933923828124Q24.8245,38.414071923828125,24.8196,38.377468923828125Q24.8146,38.34086492382813,24.8026,38.30592792382812Q24.7907,38.27099092382812,24.7721,38.239061923828125Q24.7535,38.20713292382813,24.7291,38.17943992382813Q24.7047,38.15174692382813,24.6753,38.12935392382813Q24.6459,38.10695992382813,24.6127,38.09072692382812Q24.5796,38.07449392382812,24.5439,38.06504592382812Q24.5082,38.055596923828126,24.4713,38.053294923828126ZM9.34539,37.860366923828124L0.976977,53.196421923828126L15.6656,54.57102192382813L23.8504,38.765991923828125L9.34539,37.860366923828124Z" fill-rule="evenodd" fill="#3D3E40" fill-opacity="1" style="mix-blend-mode:passthrough"/></g><g><path d="M34.90732722167969,50.231683691406246C34.90732722167969,50.231683691406246,26.471027221679687,66.53088369140625,26.471027221679687,66.53088369140625C26.471027221679687,66.53088369140625,15.881027221679688,54.968683691406255,15.881027221679688,54.968683691406255C15.881027221679688,54.968683691406255,24.44816722167969,38.42828369140625,24.44816722167969,38.42828369140625C24.44816722167969,38.42828369140625,34.90732722167969,50.231683691406246,34.90732722167969,50.231683691406246C34.90732722167969,50.231683691406246,34.90732722167969,50.231683691406246,34.90732722167969,50.231683691406246Z" fill="#68FE7F" fill-opacity="1" style="mix-blend-mode:passthrough"/><path d="" fill="#000000" fill-opacity="0" style="mix-blend-mode:passthrough"/></g><g><path d="M35.187927221679686,49.98298369140625L24.728827221679687,38.17958269140625Q24.682577221679686,38.12737869140625,24.620637221679686,38.09529869140625Q24.554397221679686,38.06099269140625,24.480077221679686,38.05464469140625Q24.405757221679686,38.04829569140625,24.334667221679688,38.07087269140625Q24.263567221679686,38.09344969140625,24.206527221679686,38.14151369140625Q24.149487221679685,38.18957869140625,24.115177221679687,38.25581369140625L15.548042221679687,54.79618369140625Q15.521547221679688,54.84738369140625,15.511628221679688,54.90408369140625Q15.501708221679687,54.96088369140625,15.509280221679688,55.01798369140625Q15.516852221679688,55.07508369140625,15.541216221679688,55.12728369140625Q15.565580221679687,55.17948369140625,15.604490221679688,55.22198369140625L26.194527221679685,66.78418369140624Q26.239527221679687,66.83338369140625,26.298627221679688,66.86398369140625Q26.364927221679686,66.89828369140625,26.439227221679687,66.90458369140624Q26.513527221679688,66.91088369140626,26.58462722167969,66.88828369140626Q26.655727221679687,66.86568369140625,26.712727221679685,66.81758369140624Q26.769727221679688,66.76958369140625,26.80402722167969,66.70328369140626L35.24032722167969,50.40398369140625Q35.26642722167969,50.35358369140625,35.27642722167968,50.29768369140625Q35.28642722167969,50.24168369140625,35.27942722167968,50.18538369140625Q35.27242722167969,50.12898369140625,35.24902722167968,50.07718369140625Q35.22562722167969,50.02548369140625,35.187927221679686,49.98298369140625ZM24.529857221679688,39.08591469140625L16.334483221679687,54.90858369140625L26.384827221679686,65.88158369140625L34.45602722167969,50.28778369140625L24.529857221679688,39.08591469140625Z" fill-rule="evenodd" fill="#3D3E40" fill-opacity="1" style="mix-blend-mode:passthrough"/></g><g><path d="M15.88159345703125,54.96810622070313C15.88159345703125,54.96810622070313,26.47159345703125,66.53037622070312,26.47159345703125,66.53037622070312C26.47159345703125,66.53037622070312,11.30109345703125,64.80457622070313,11.30109345703125,64.80457622070313C11.30109345703125,64.80457622070313,0.37579345703125,53.516876220703125,0.37579345703125,53.516876220703125C0.37579345703125,53.516876220703125,15.88159345703125,54.96810622070313,15.88159345703125,54.96810622070313C15.88159345703125,54.96810622070313,15.88159345703125,54.96810622070313,15.88159345703125,54.96810622070313Z" fill="#68FE7F" fill-opacity="1" style="mix-blend-mode:passthrough"/><path d="" fill="#000000" fill-opacity="0" style="mix-blend-mode:passthrough"/></g><g><path d="M15.91659345703125,54.594736220703126L0.41073805703125,53.143508220703126Q0.32896835703125,53.13585522070313,0.25148445703125,53.163079220703125Q0.17400145703125,53.19030322070312,0.11498945703125002,53.247421220703124Q0.061391457031249985,53.29929822070312,0.031725457031250015,53.36773722070313Q0.002060457031250018,53.436176920703126,0.0008434570312499945,53.510759080703124Q-0.0003735429687499736,53.58534132070312,0.027043457031249996,53.654712220703125Q0.054461457031249993,53.724082220703124,0.10633845703125,53.777680220703125L11.03159345703125,65.06537622070313Q11.12509345703125,65.16197622070312,11.25869345703125,65.17717622070313L26.42919345703125,66.90297622070312Q26.50999345703125,66.91217622070313,26.58739345703125,66.88707622070312Q26.66479345703125,66.86197622070313,26.72479345703125,66.80697622070312Q26.75209345703125,66.78197622070313,26.77389345703125,66.75227622070312Q26.79579345703125,66.72247622070313,26.81139345703125,66.68897622070313Q26.82699345703125,66.65547622070312,26.83579345703125,66.61967622070313Q26.84459345703125,66.58377622070313,26.84619345703125,66.54687622070313Q26.84779345703125,66.50997622070312,26.84219345703125,66.47347622070312Q26.83659345703125,66.43697622070313,26.82399345703125,66.40227622070313Q26.81139345703125,66.36757622070313,26.79219345703125,66.33597622070313Q26.77299345703125,66.30437622070312,26.74809345703125,66.27717622070313L16.158193457031253,54.714826220703124Q16.06049345703125,54.60821622070313,15.91659345703125,54.594736220703126ZM1.35052545703125,53.98474322070312L11.47699345703125,64.44717622070313L25.51799345703125,66.04447622070313L15.70269345703125,55.328006220703124L1.35052545703125,53.98474322070312Z" fill-rule="evenodd" fill="#3D3E40" fill-opacity="1" style="mix-blend-mode:passthrough"/></g><g><path d="M284.65168056640624,35.687193798828126C284.65168056640624,35.687193798828126,271.05858056640625,44.846643798828126,271.05858056640625,44.846643798828126C271.05858056640625,44.846643798828126,259.14508056640625,35.59459379882813,259.14508056640625,35.59459379882813C259.14508056640625,35.59459379882813,272.79088056640626,26.203643798828125,272.79088056640626,26.203643798828125C272.79088056640626,26.203643798828125,284.65168056640624,35.687193798828126,284.65168056640624,35.687193798828126C284.65168056640624,35.687193798828126,284.65168056640624,35.687193798828126,284.65168056640624,35.687193798828126Z" fill="#68FE7F" fill-opacity="1" style="mix-blend-mode:passthrough"/><path d="" fill="#000000" fill-opacity="0" style="mix-blend-mode:passthrough"/></g><g><path d="M284.88588056640623,35.394303798828126L273.02508056640625,25.910756798828125Q272.97788056640627,25.873046798828124,272.92128056640627,25.852048798828125Q272.86468056640626,25.831049798828126,272.8043805664062,25.828884798828124Q272.74398056640626,25.826719798828126,272.6859805664063,25.843607798828124Q272.62808056640625,25.860494798828125,272.57828056640625,25.894727798828125L258.9324865664062,35.28567379882813Q258.8845765664062,35.31864379882813,258.84890456640625,35.36458379882812Q258.80315256640625,35.423493798828126,258.78342856640626,35.495433798828124Q258.76370456640626,35.567363798828126,258.77301056640624,35.64137379882813Q258.7823165664062,35.71538379882813,258.81923756640623,35.780203798828126Q258.85615756640624,35.84501379882813,258.91507056640626,35.890763798828125L270.82858056640623,45.142843798828125Q270.87538056640625,45.17914379882812,270.93108056640625,45.199343798828124Q270.98678056640625,45.219443798828124,271.04598056640623,45.221443798828126Q271.10518056640626,45.22344379882813,271.16208056640625,45.207043798828124Q271.21908056640626,45.19074379882812,271.2681805664063,45.157643798828126L284.86128056640626,35.99818379882812Q284.9087805664062,35.966153798828124,284.9445805664063,35.921383798828124Q284.99118056640623,35.86312379882813,285.01188056640626,35.79147379882812Q285.03268056640627,35.71982379882812,285.02438056640625,35.645683798828124Q285.01618056640626,35.57155379882813,284.98018056640626,35.506223798828124Q284.94418056640626,35.44089379882813,284.88588056640623,35.394303798828126ZM272.77418056640624,26.670388798828125L259.7799985664063,35.61286379882812L271.07418056640626,44.38394379882813L284.01898056640624,35.661383798828126L272.77418056640624,26.670388798828125Z" fill-rule="evenodd" fill="#3D3E40" fill-opacity="1" style="mix-blend-mode:passthrough"/></g><g><path d="M270.6318728515625,13.865707397460938C270.6318728515625,13.865707397460938,272.7919728515625,26.203907397460938,272.7919728515625,26.203907397460938C272.7919728515625,26.203907397460938,259.1446228515625,35.59480739746094,259.1446228515625,35.59480739746094C259.1446228515625,35.59480739746094,257.2271728515625,22.986847397460938,257.2271728515625,22.986847397460938C257.2271728515625,22.986847397460938,270.6318728515625,13.865707397460938,270.6318728515625,13.865707397460938C270.6318728515625,13.865707397460938,270.6318728515625,13.865707397460938,270.6318728515625,13.865707397460938Z" fill="#68FE7F" fill-opacity="1" style="mix-blend-mode:passthrough"/><path d="" fill="#000000" fill-opacity="0" style="mix-blend-mode:passthrough"/></g><g><path d="M270.4208728515625,13.555674397460937L257.0162128515625,22.676817397460937Q256.9723548515625,22.706657397460937,256.9384948515625,22.74749739746094Q256.9046348515625,22.78832739746094,256.8834318515625,22.836957397460935Q256.8622278515625,22.885587397460938,256.8553438515625,22.938187397460936Q256.8484598515625,22.990787397460938,256.8564358515625,23.04322739746094L258.7738828515625,35.65120739746094Q258.7868428515625,35.73640739746094,258.8356928515625,35.807407397460935Q258.8566328515625,35.837807397460935,258.8831028515625,35.86360739746094Q258.9095728515625,35.88940739746094,258.9405628515625,35.90950739746094Q258.9715428515625,35.92960739746094,259.0058628515625,35.94320739746094Q259.0401728515625,35.95690739746094,259.0764928515625,35.96360739746093Q259.1128128515625,35.97030739746094,259.1497428515625,35.96980739746094Q259.1866728515625,35.96930739746094,259.2227928515625,35.96160739746094Q259.2589228515625,35.95390739746094,259.2928428515625,35.93930739746094Q259.3267728515625,35.924707397460935,259.3572028515625,35.90380739746094L273.0045728515625,26.512907397460935Q273.0489728515625,26.482307397460936,273.0829728515625,26.440507397460937Q273.1169728515625,26.39870739746094,273.1377728515625,26.349107397460937Q273.1586728515625,26.29940739746094,273.1646728515625,26.24590739746094Q273.1706728515625,26.192307397460937,273.1613728515625,26.13930739746094L271.0012728515625,13.801036797460938Q270.9873728515625,13.721502397460938,270.9418728515625,13.654747397460937Q270.8999728515625,13.593077397460938,270.8375728515625,13.552160397460938Q270.7751728515625,13.511243397460937,270.7018728515625,13.497309397460938Q270.6286728515625,13.483374397460938,270.5555728515625,13.498543397460937Q270.4825728515625,13.513711397460938,270.4208728515625,13.555674397460937ZM257.6334258515625,23.16399739746094L259.4253328515625,34.946507397460934L272.3811728515625,26.03150739746094L270.3626728515625,14.502476397460937L257.6334258515625,23.16399739746094Z" fill-rule="evenodd" fill="#3D3E40" fill-opacity="1" style="mix-blend-mode:passthrough"/></g><g><path d="M282.0806833496094,23.102903857421875C282.0806833496094,23.102903857421875,284.6526833496094,35.68700385742187,284.6526833496094,35.68700385742187C284.6526833496094,35.68700385742187,272.7918433496094,26.203403857421876,272.7918433496094,26.203403857421876C272.7918433496094,26.203403857421876,270.6316833496094,13.865203857421875,270.6316833496094,13.865203857421875C270.6316833496094,13.865203857421875,282.0806833496094,23.102903857421875,282.0806833496094,23.102903857421875C282.0806833496094,23.102903857421875,282.0806833496094,23.102903857421875,282.0806833496094,23.102903857421875Z" fill="#68FE7F" fill-opacity="1" style="mix-blend-mode:passthrough"/><path d="" fill="#000000" fill-opacity="0" style="mix-blend-mode:passthrough"/></g><g><path d="M282.3161833496094,22.811053857421875L270.8671623496094,13.573356857421874Q270.8040243496094,13.522412857421875,270.7254745496094,13.502121857421875Q270.6469251496094,13.481831857421875,270.5670127496094,13.495821857421875Q270.5306313496094,13.502191857421876,270.4961923496094,13.515536857421875Q270.46175334960935,13.528880857421875,270.4305793496094,13.548687857421875Q270.39940534960937,13.568494857421875,270.3726943496094,13.594003857421875Q270.34598334960936,13.619511857421875,270.3247623496094,13.649740857421875Q270.30354134960936,13.679969857421876,270.2886243496094,13.713757857421875Q270.27370834960936,13.747546857421876,270.26567134960936,13.783595557421876Q270.25763334960936,13.819644657421875,270.25678234960935,13.856569097421875Q270.2559323496094,13.893493557421875,270.2623013496094,13.929874457421874L272.4224533496094,26.268103857421877Q272.44691334960936,26.407803857421875,272.5576533496094,26.496303857421875L284.41848334960935,35.979903857421874Q284.48368334960935,36.03200385742187,284.5648833496094,36.05150385742188Q284.64598334960937,36.071103857421875,284.72778334960935,36.054403857421875Q284.80088334960936,36.039403857421874,284.86268334960937,35.997703857421875Q284.9244833496094,35.95590385742187,284.96558334960935,35.893703857421876Q285.0066833496094,35.831403857421876,285.0208833496094,35.758203857421876Q285.03508334960935,35.685003857421876,285.02008334960937,35.61190385742188L282.44808334960936,23.027813857421876Q282.4210833496094,22.895723857421874,282.3161833496094,22.811053857421875ZM271.17325134960936,14.784017857421874L273.1367633496094,25.999103857421876L284.07788334960935,34.74720385742188L281.7402833496094,23.310093857421876L271.17325134960936,14.784017857421874Z" fill-rule="evenodd" fill="#3D3E40" fill-opacity="1" style="mix-blend-mode:passthrough"/></g><g><path d="M320.3748743652344,71.66403198242188C320.3748743652344,71.66403198242188,317.8778743652344,90.42363198242188,317.8778743652344,90.42363198242188C317.8778743652344,90.42363198242188,300.2549743652344,92.84403198242188,300.2549743652344,92.84403198242188C300.2549743652344,92.84403198242188,302.6291543652344,73.72204198242187,302.6291543652344,73.72204198242187C302.6291543652344,73.72204198242187,320.3748743652344,71.66403198242188,320.3748743652344,71.66403198242188C320.3748743652344,71.66403198242188,320.3748743652344,71.66403198242188,320.3748743652344,71.66403198242188Z" fill="#68FE7F" fill-opacity="1" style="mix-blend-mode:passthrough"/><path d="" fill="#000000" fill-opacity="0" style="mix-blend-mode:passthrough"/></g><g><path d="M320.3316743652344,71.29152898242188L302.5859543652344,73.34954198242187Q302.52335436523435,73.35680198242187,302.46657436523435,73.38412198242187Q302.40979436523435,73.41144198242188,302.36505436523436,73.45581198242188Q302.3203243652344,73.50019198242188,302.2925443652344,73.55675198242187Q302.26477436523436,73.61331198242188,302.25700436523437,73.67584198242187L299.8828313652344,92.79783198242188Q299.8767903652344,92.84653198242188,299.8834623652344,92.89503198242187Q299.88848736523437,92.93163198242188,299.90055436523437,92.96653198242187Q299.91262236523437,93.00153198242188,299.93126836523436,93.03333198242187Q299.94991336523435,93.06523198242188,299.9744203652344,93.09283198242187Q299.99892836523435,93.12053198242188,300.02835536523435,93.14283198242188Q300.0577823652344,93.16513198242188,300.0909983652344,93.18133198242188Q300.12421436523437,93.19743198242188,300.15994326523435,93.20683198242187Q300.1956719652344,93.21613198242187,300.2325400652344,93.21843198242188Q300.2694081652344,93.22063198242188,300.3059989652344,93.21553198242188L317.9288743652344,90.79523198242188Q317.98987436523436,90.78683198242187,318.0449743652344,90.75933198242188Q318.10017436523435,90.73193198242188,318.1435743652344,90.68833198242187Q318.18707436523437,90.64463198242187,318.21427436523436,90.58943198242187Q318.24147436523435,90.53423198242187,318.24957436523437,90.47313198242188L320.7465743652344,71.71351008242188Q320.75277436523436,71.66721968242187,320.74737436523435,71.62083188242187Q320.73877436523435,71.54673598242188,320.70247436523437,71.48156898242188Q320.6661743652344,71.41640298242187,320.6077743652344,71.37008498242187Q320.5492743652344,71.32376798242187,320.4774743652344,71.30335198242187Q320.4057743652344,71.28293598242188,320.3316743652344,71.29152898242188ZM302.96499436523436,74.06061198242188L300.6872213652344,92.40613198242187L317.5438743652344,90.09103198242187L319.93957436523436,72.09202498242188L302.96499436523436,74.06061198242188Z" fill-rule="evenodd" fill="#3D3E40" fill-opacity="1" style="mix-blend-mode:passthrough"/></g><g><path d="M302.62954501953124,73.72125288085937C302.62954501953124,73.72125288085937,300.25534501953126,92.84325288085938,300.25534501953126,92.84325288085938C300.25534501953126,92.84325288085938,289.17364501953125,82.81205288085937,289.17364501953125,82.81205288085937C289.17364501953125,82.81205288085937,291.25872501953125,64.30795288085938,291.25872501953125,64.30795288085938C291.25872501953125,64.30795288085938,302.62954501953124,73.72125288085937,302.62954501953124,73.72125288085937C302.62954501953124,73.72125288085937,302.62954501953124,73.72125288085937,302.62954501953124,73.72125288085937Z" fill="#68FE7F" fill-opacity="1" style="mix-blend-mode:passthrough"/><path d="" fill="#000000" fill-opacity="0" style="mix-blend-mode:passthrough"/></g><g><path d="M302.86864501953124,73.43239288085937L291.4978650195313,64.01909288085938Q291.41177501953126,63.94782488085937,291.30071501953125,63.935310880859376Q291.22659501953126,63.926958880859374,291.15491501953124,63.94760788085937Q291.08324501953126,63.96825688085937,291.0249250195312,64.01476388085938Q290.96660501953124,64.06127088085937,290.9305250195313,64.12655488085937Q290.8944350195313,64.19183988085938,290.88608501953127,64.26596268085937L288.80100301953127,82.77005288085937Q288.79086901953127,82.85995288085937,288.82287601953124,82.94465288085938Q288.85488301953126,83.02925288085937,288.92198401953124,83.09005288085937L300.00364501953123,93.12125288085937Q300.0915450195312,93.20085288085937,300.20914501953126,93.21545288085937Q300.2457450195312,93.21995288085938,300.28254501953126,93.21725288085938Q300.31944501953126,93.21455288085937,300.35504501953125,93.20475288085937Q300.39064501953123,93.19495288085938,300.42364501953125,93.17835288085938Q300.45664501953127,93.16175288085938,300.48574501953124,93.13905288085937Q300.51494501953124,93.11635288085938,300.5390450195313,93.08845288085938Q300.5632450195312,93.06045288085937,300.58144501953126,93.02835288085937Q300.59964501953124,92.99625288085937,300.6112450195312,92.96115288085937Q300.62294501953124,92.92615288085938,300.62744501953125,92.88945288085938L303.0016450195312,73.76746288085937Q303.0134450195313,73.67215288085937,302.97804501953124,73.58289288085938Q302.94264501953126,73.49363288085938,302.86864501953124,73.43239288085937ZM291.55372501953127,65.03899288085937L289.56781001953124,82.66295288085938L299.97204501953127,92.08105288085937L302.23204501953126,73.87903288085937L291.55372501953127,65.03899288085937Z" fill-rule="evenodd" fill="#3D3E40" fill-opacity="1" style="mix-blend-mode:passthrough"/></g><g><path d="M308.6402533691406,62.417388916015625C308.6402533691406,62.417388916015625,320.3749533691406,71.66466891601563,320.3749533691406,71.66466891601563C320.3749533691406,71.66466891601563,302.6291533691406,73.72108891601562,302.6291533691406,73.72108891601562C302.6291533691406,73.72108891601562,291.2584533691406,64.30779891601563,291.2584533691406,64.30779891601563C291.2584533691406,64.30779891601563,308.6402533691406,62.417388916015625,308.6402533691406,62.417388916015625C308.6402533691406,62.417388916015625,308.6402533691406,62.417388916015625,308.6402533691406,62.417388916015625Z" fill="#68FE7F" fill-opacity="1" style="mix-blend-mode:passthrough"/><path d="" fill="#000000" fill-opacity="0" style="mix-blend-mode:passthrough"/></g><g><path d="M308.59965336914064,62.044586916015625L291.2179080691406,63.93499891601562Q291.14515036914065,63.942908916015625,291.0807073691406,63.97759891601562Q291.01626436914063,64.01228891601562,290.9695933691406,64.06866891601562Q290.94604036914063,64.09711891601563,290.9284913691406,64.12961891601563Q290.91094136914063,64.16210891601563,290.9000693691406,64.19740891601562Q290.8891963691406,64.23270891601562,290.8854193691406,64.26944891601562Q290.88164236914065,64.30618891601563,290.8851053691406,64.34295891601562Q290.8885683691406,64.37972891601562,290.89913936914064,64.41511891601563Q290.9097093691406,64.45050891601562,290.9269803691406,64.48315891601563Q290.9442523691406,64.51580891601563,290.96756036914064,64.54445891601563Q290.9908693691406,64.57310891601563,291.01931936914065,64.59665891601563L302.3900533691406,74.00998891601563Q302.4491533691406,74.05888891601563,302.52265336914064,74.08068891601562Q302.5961533691406,74.10238891601563,302.67235336914064,74.09358891601562L320.4181533691406,72.03717891601562Q320.4924533691406,72.02856891601563,320.5578533691406,71.99206891601563Q320.6231533691406,71.95556891601562,320.6695533691406,71.89677891601562Q320.6923533691406,71.86776891601562,320.7091533691406,71.83485891601562Q320.7258533691406,71.80193891601563,320.73595336914065,71.76638891601563Q320.74595336914064,71.73083891601563,320.74885336914065,71.69401891601562Q320.7517533691406,71.65719891601563,320.7473533691406,71.62052891601563Q320.7430533691406,71.58384891601563,320.7315533691406,71.54871891601563Q320.72015336914063,71.51359891601562,320.7021533691406,71.48137891601563Q320.6840533691406,71.44914891601563,320.6600533691406,71.42106891601563Q320.63605336914065,71.39299891601563,320.6070533691406,71.37013891601562L308.8723533691406,62.12285091601562Q308.8144533691406,62.07726491601562,308.74365336914065,62.056944916015624Q308.6728533691406,62.03662391601563,308.59965336914064,62.044586916015625ZM292.1809683691406,64.58467891601562L302.74505336914063,73.33018891601563L319.42915336914064,71.39676891601563L308.5284533691406,62.806755916015625L292.1809683691406,64.58467891601562Z" fill-rule="evenodd" fill="#3D3E40" fill-opacity="1" style="mix-blend-mode:passthrough"/></g><g><path d="M283.2101262207031,92.37530517578125C283.2101262207031,92.37530517578125,284.6709262207031,116.06020517578125,284.6709262207031,116.06020517578125C284.6709262207031,116.06020517578125,267.49987622070313,121.82700517578125,267.49987622070313,121.82700517578125C267.49987622070313,121.82700517578125,266.1731262207031,97.18896517578125,266.1731262207031,97.18896517578125C266.1731262207031,97.18896517578125,283.2101262207031,92.37530517578125,283.2101262207031,92.37530517578125C283.2101262207031,92.37530517578125,283.2101262207031,92.37530517578125,283.2101262207031,92.37530517578125Z" fill="#68FE7F" fill-opacity="1" style="mix-blend-mode:passthrough"/><path d="" fill="#000000" fill-opacity="0" style="mix-blend-mode:passthrough"/></g><g><path d="M283.1081262207031,92.01443317578125L266.0711642207031,96.82809517578124Q266.0097182207031,96.84545517578125,265.95748022070313,96.88217517578126Q265.90524222070314,96.91888517578126,265.8681002207031,96.97082517578124Q265.8309572207031,97.02276517578125,265.81309622070313,97.08406517578125Q265.79523522070315,97.14536517578125,265.7986692207031,97.20912517578125L267.1254202207031,121.84720517578126Q267.12816122070313,121.89810517578125,267.14439022070314,121.94640517578125Q267.1681382207031,122.01710517578125,267.21713622070314,122.07330517578126Q267.2661362207031,122.12960517578125,267.33292622070314,122.16280517578124Q267.39972622070314,122.19600517578125,267.47413622070314,122.20110517578125Q267.5485562207031,122.20620517578125,267.61926622070314,122.18250517578124L284.79032622070315,116.41570517578126Q284.8489262207031,116.39600517578126,284.89812622070315,116.35850517578125Q284.9474262207031,116.32100517578125,284.98192622070314,116.26970517578125Q285.0165262207031,116.21830517578125,285.0327262207031,116.15860517578125Q285.0490262207031,116.09890517578125,285.0452262207031,116.03720517578125L283.58432622070313,92.35222017578126Q283.5819262207031,92.31206207578126,283.57092622070314,92.27334317578125Q283.5506262207031,92.20156117578125,283.5044262207031,92.14300517578125Q283.4582262207031,92.08444817578125,283.39312622070315,92.04803217578124Q283.3280262207031,92.01161617578126,283.2540262207031,92.00288317578125Q283.1799262207031,91.99415117578125,283.1081262207031,92.01443317578125ZM266.5637112207031,97.46828517578125L267.8478262207031,121.31460517578125L284.2789262207031,115.79630517578124L282.86442622070314,92.86264817578125L266.5637112207031,97.46828517578125Z" fill-rule="evenodd" fill="#3D3E40" fill-opacity="1" style="mix-blend-mode:passthrough"/></g><g><path d="M266.1730004882813,97.18792529296876C266.1730004882813,97.18792529296876,267.49980048828127,121.82762529296875,267.49980048828127,121.82762529296875C267.49980048828127,121.82762529296875,252.06900048828126,119.11832529296875,252.06900048828126,119.11832529296875C252.06900048828126,119.11832529296875,250.76300048828125,95.26092529296875,250.76300048828125,95.26092529296875C250.76300048828125,95.26092529296875,266.1730004882813,97.18792529296876,266.1730004882813,97.18792529296876C266.1730004882813,97.18792529296876,266.1730004882813,97.18792529296876,266.1730004882813,97.18792529296876Z" fill="#68FE7F" fill-opacity="1" style="mix-blend-mode:passthrough"/><path d="" fill="#000000" fill-opacity="0" style="mix-blend-mode:passthrough"/></g><g><path d="M266.21960048828123,96.81582529296875L250.80953128828125,94.88882329296875Q250.77612198828126,94.88464529296876,250.74250288828125,94.88648629296875Q250.70562388828125,94.88850429296875,250.66984728828126,94.89767929296875Q250.63407048828125,94.90685429296875,250.60077148828125,94.92283229296875Q250.56747248828125,94.93881029296875,250.53793048828126,94.96097829296875Q250.50838748828124,94.98314529296874,250.48373748828126,95.01065029296875Q250.45908848828125,95.03815529296875,250.44027748828125,95.06994129296875Q250.42146748828125,95.10172629296875,250.40921948828125,95.13657129296875Q250.39697148828125,95.17141519296875,250.39175748828126,95.20797949296875Q250.38654248828124,95.24454379296876,250.38856148828125,95.28142289296875L251.69456048828124,119.13882529296875Q251.69803248828126,119.20222529296875,251.72219648828124,119.26092529296875Q251.74636048828125,119.31972529296876,251.78852048828125,119.36722529296875Q251.83068048828125,119.41472529296875,251.88613048828125,119.44572529296875Q251.94159048828126,119.47662529296875,252.00415048828125,119.48762529296874L267.4350004882813,122.19702529296875Q267.47720048828126,122.20442529296875,267.52000048828126,122.20212529296874Q267.55690048828126,122.20012529296875,267.5926004882813,122.19102529296875Q267.6284004882813,122.18182529296875,267.66170048828127,122.16592529296875Q267.69510048828124,122.14992529296875,267.7246004882812,122.12782529296875Q267.75420048828124,122.10562529296875,267.77890048828124,122.07822529296875Q267.80350048828126,122.05072529296875,267.82240048828123,122.01892529296875Q267.84120048828123,121.98712529296876,267.85350048828127,121.95232529296875Q267.86580048828125,121.91752529296875,267.87100048828125,121.88092529296875Q267.87630048828123,121.84442529296875,267.8743004882813,121.80752529296875L266.54750048828123,97.16776529296875Q266.5439004882812,97.10191529296876,266.5181004882813,97.04122529296875Q266.4923004882813,96.98053529296875,266.44740048828123,96.93228529296874Q266.4024004882813,96.88403529296875,266.34370048828123,96.85402529296876Q266.28500048828124,96.82400529296875,266.21960048828123,96.81582529296875ZM251.16198148828124,95.68873829296875L252.42716048828126,118.80042529296875L267.10000048828124,121.37672529296876L265.8154004882812,97.52113529296875L251.16198148828124,95.68873829296875Z" fill-rule="evenodd" fill="#3D3E40" fill-opacity="1" style="mix-blend-mode:passthrough"/></g><g><path d="M283.209939453125,92.37524202148437C283.209939453125,92.37524202148437,266.172939453125,97.18890202148438,266.172939453125,97.18890202148438C266.172939453125,97.18890202148438,250.762939453125,95.26022202148438,250.762939453125,95.26022202148438C250.762939453125,95.26022202148438,266.366139453125,91.13632202148438,266.366139453125,91.13632202148438C266.366139453125,91.13632202148438,283.209939453125,92.37524202148437,283.209939453125,92.37524202148437C283.209939453125,92.37524202148437,283.209939453125,92.37524202148437,283.209939453125,92.37524202148437Z" fill="#68FE7F" fill-opacity="1" style="mix-blend-mode:passthrough"/><path d="" fill="#000000" fill-opacity="0" style="mix-blend-mode:passthrough"/></g><g><path d="M283.237439453125,92.00125402148437L266.393639453125,90.76233202148437Q266.331039453125,90.75772602148437,266.270339453125,90.77377102148438L250.667117853125,94.89767202148437Q250.612884453125,94.91200202148437,250.565219453125,94.94158202148438Q250.517554453125,94.97116202148437,250.480631453125,95.01339202148438Q250.443708453125,95.05562202148437,250.420758453125,95.10680202148437Q250.397808453125,95.15799202148438,250.390842453125,95.21365202148438Q250.386255453125,95.25030202148437,250.388906453125,95.28714202148437Q250.391557453125,95.32398202148437,250.401344453125,95.35959202148437Q250.411131453125,95.39520202148438,250.427678453125,95.42823202148438Q250.444225453125,95.46125202148437,250.466896453125,95.49040202148437Q250.489567453125,95.51956202148438,250.517491453125,95.54374202148438Q250.545415453125,95.56791202148437,250.577518453125,95.58617202148437Q250.609621453125,95.60443202148437,250.644671453125,95.61608202148437Q250.679720353125,95.62773202148438,250.716368653125,95.63232202148437L266.126339453125,97.56100202148437Q266.201739453125,97.57044202148438,266.274939453125,97.54977202148437L283.311839453125,92.73611202148437Q283.36743945312503,92.72042202148438,283.415639453125,92.68874202148437Q283.463939453125,92.65706202148438,283.500439453125,92.61233202148438Q283.536939453125,92.56760202148438,283.558339453125,92.51396202148437Q283.57963945312497,92.46033202148438,283.583839453125,92.40275202148437Q283.589339453125,92.32836202148438,283.565939453125,92.25754202148437Q283.542539453125,92.18672202148437,283.493839453125,92.13024702148438Q283.445039453125,92.07377402148437,283.378439453125,92.04025002148437Q283.311839453125,92.00672602148437,283.237439453125,92.00125402148437ZM266.401239453125,91.51491802148438L252.729279453125,95.12840202148438L266.144139453125,96.80737202148437L281.059639453125,92.59310202148437L266.401239453125,91.51491802148438Z" fill-rule="evenodd" fill="#3D3E40" fill-opacity="1" style="mix-blend-mode:passthrough"/></g><g><path d="M133.37351318359376,65.77896118164062C133.37351318359376,65.77896118164062,143.16041318359376,78.31836118164063,143.16041318359376,78.31836118164063C143.16041318359376,78.31836118164063,122.98787318359375,85.80156118164062,122.98787318359375,85.80156118164062C122.98787318359375,85.80156118164062,113.35101318359375,72.79596118164062,113.35101318359375,72.79596118164062C113.35101318359375,72.79596118164062,133.37351318359376,65.77896118164062,133.37351318359376,65.77896118164062C133.37351318359376,65.77896118164062,133.37351318359376,65.77896118164062,133.37351318359376,65.77896118164062Z" fill="#68FE7F" fill-opacity="1" style="mix-blend-mode:passthrough"/><path d="" fill="#000000" fill-opacity="0" style="mix-blend-mode:passthrough"/></g><g><path d="M133.24941318359376,65.42506518164062L113.22698818359375,72.44206118164063Q113.17338918359376,72.46085118164062,113.12775618359375,72.49466118164062Q113.09808118359375,72.51665118164063,113.07326518359375,72.54400118164062Q113.04845018359374,72.57136118164063,113.02944818359374,72.60303118164063Q113.01044718359375,72.63470118164062,112.99798918359375,72.66947118164063Q112.98553118359375,72.70424118164063,112.98009618359374,72.74077118164062Q112.97466118359375,72.77731118164063,112.97645718359375,72.81420118164063Q112.97825318359375,72.85109118164063,112.98721218359375,72.88692118164063Q112.99617118359375,72.92275118164062,113.01194818359374,72.95614118164062Q113.02772518359374,72.98954118164062,113.04971418359375,73.01922118164063L122.68657318359375,86.02476118164063Q122.72283318359375,86.07376118164062,122.77273318359374,86.10866118164063Q122.82262318359375,86.14366118164062,122.88102318359375,86.16096118164063Q122.93941318359376,86.17836118164062,123.00029318359375,86.17626118164063Q123.06118318359376,86.17426118164062,123.11829318359375,86.15306118164062L143.29081318359374,78.66996118164063Q143.34531318359376,78.64976118164063,143.39111318359375,78.61396118164063Q143.44991318359376,78.56806118164063,143.48671318359374,78.50316118164062Q143.52351318359376,78.43826118164063,143.53261318359375,78.36426118164063Q143.54171318359374,78.29016118164063,143.52181318359374,78.21836118164063Q143.50191318359376,78.14646118164063,143.45601318359374,78.08766118164063L133.66911318359377,65.54823318164063Q133.63291318359376,65.50184718164063,133.58421318359376,65.46877918164063Q133.53551318359376,65.43571118164063,133.47911318359374,65.41914018164063Q133.42261318359374,65.40256818164063,133.36381318359375,65.40408618164062Q133.30501318359376,65.40560318164063,133.24941318359376,65.42506518164062ZM113.95526618359375,72.98156118164063L123.12149318359374,85.35196118164063L142.54941318359374,78.14506118164063L133.24351318359373,66.22188318164062L113.95526618359375,72.98156118164063Z" fill-rule="evenodd" fill="#3D3E40" fill-opacity="1" style="mix-blend-mode:passthrough"/></g><g><path d="M113.35150146484375,72.7957763671875C113.35150146484375,72.7957763671875,122.98831146484375,85.8028763671875,122.98831146484375,85.8028763671875C122.98831146484375,85.8028763671875,123.50560146484375,103.8616763671875,123.50560146484375,103.8616763671875C123.50560146484375,103.8616763671875,114.04924046484375,90.45697636718751,114.04924046484375,90.45697636718751C114.04924046484375,90.45697636718751,113.35150146484375,72.7957763671875,113.35150146484375,72.7957763671875C113.35150146484375,72.7957763671875,113.35150146484375,72.7957763671875,113.35150146484375,72.7957763671875Z" fill="#68FE7F" fill-opacity="1" style="mix-blend-mode:passthrough"/><path d="" fill="#000000" fill-opacity="0" style="mix-blend-mode:passthrough"/></g><g><path d="M112.97679346484375,72.8105798671875L113.67453246484375,90.4717763671875Q113.67890846484374,90.5825763671875,113.74281446484375,90.6731763671875L123.19919146484375,104.0778763671875Q123.25353146484375,104.1548763671875,123.33783146484375,104.19707636718749Q123.42210146484375,104.2392763671875,123.51640146484375,104.2365763671875Q123.55330146484376,104.2354763671875,123.58930146484374,104.2272763671875Q123.62530146484374,104.21897636718751,123.65900146484375,104.2038763671875Q123.69270146484375,104.1887763671875,123.72280146484376,104.1673763671875Q123.75290146484375,104.1459763671875,123.77830146484375,104.11917636718749Q123.80360146484375,104.09227636718751,123.82330146484375,104.0609763671875Q123.84290146484375,104.02977636718751,123.85600146484376,103.9951763671875Q123.86920146484375,103.9606763671875,123.87540146484375,103.9242763671875Q123.88150146484375,103.8878763671875,123.88050146484375,103.8509763671875L123.36320146484375,85.7921763671875Q123.35980146484376,85.6743763671875,123.28962146484375,85.5796763671875L113.65281446484374,72.5725373671875Q113.59743646484375,72.4977913671875,113.51354346484375,72.4575943671875Q113.42965116484375,72.4173963671875,113.33669796484375,72.4210683671875Q113.29979246484375,72.4225263671875,113.26388056484375,72.4311563671875Q113.22796846484376,72.4397863671875,113.19443046484375,72.4552563671875Q113.16089246484376,72.4707273671875,113.13101646484375,72.4924423671875Q113.10114046484375,72.5141583671875,113.07607546484375,72.5412853671875Q113.05101046484376,72.5684123671875,113.03171946484375,72.5999083671875Q113.01242746484375,72.6314043671875,112.99965146484375,72.6660583671875Q112.98687546484375,72.7007128671875,112.98110546484375,72.7371936671875Q112.97533546484375,72.7736744671875,112.97679346484375,72.8105798671875ZM114.41957146484376,90.3313763671875L113.77422146484375,73.9962663671875L122.61684146484374,85.9314763671875L123.09516146484376,102.6292763671875L114.41957146484376,90.3313763671875Z" fill-rule="evenodd" fill="#3D3E40" fill-opacity="1" style="mix-blend-mode:passthrough"/></g><g><path d="M143.1605150390625,78.31900024414062C143.1605150390625,78.31900024414062,143.5820150390625,96.24040024414063,143.5820150390625,96.24040024414063C143.5820150390625,96.24040024414063,123.5052800390625,103.86080024414062,123.5052800390625,103.86080024414062C123.5052800390625,103.86080024414062,122.9879150390625,85.80212024414062,122.9879150390625,85.80212024414062C122.9879150390625,85.80212024414062,143.1605150390625,78.31900024414062,143.1605150390625,78.31900024414062C143.1605150390625,78.31900024414062,143.1605150390625,78.31900024414062,143.1605150390625,78.31900024414062Z" fill="#68FE7F" fill-opacity="1" style="mix-blend-mode:passthrough"/><path d="" fill="#000000" fill-opacity="0" style="mix-blend-mode:passthrough"/></g><g><path d="M143.0301150390625,77.96741124414062L122.8574920390625,85.45054024414063Q122.8023650390625,85.47098024414062,122.7561420390625,85.50732024414063Q122.7099200390625,85.54366024414063,122.6770380390625,85.59241024414062Q122.6441560390625,85.64115024414062,122.6277700390625,85.69762024414062Q122.6113850390625,85.75409024414063,122.6130690390625,85.81286024414062L123.1304330390625,103.87160024414062Q123.1322440390625,103.93480024414063,123.1546850390625,103.99390024414063Q123.1677920390625,104.02840024414063,123.1873830390625,104.05980024414063Q123.2069750390625,104.09110024414062,123.2322980390625,104.11790024414063Q123.2576210390625,104.14480024414063,123.2877030390625,104.16630024414063Q123.3177850390625,104.18770024414063,123.3514700390625,104.20280024414063Q123.3851540390625,104.21800024414063,123.4211470390625,104.22630024414062Q123.4571400390625,104.23460024414062,123.4940570390625,104.23570024414062Q123.5309750390625,104.23680024414062,123.5673990390625,104.23070024414062Q123.6038230390625,104.22450024414063,123.6383540390625,104.21140024414062L143.7150150390625,96.59100024414062Q143.7694150390625,96.57030024414063,143.8150150390625,96.53420024414062Q143.8606150390625,96.49800024414063,143.8931150390625,96.44970024414063Q143.9256150390625,96.40140024414063,143.9419150390625,96.34560024414063Q143.9582150390625,96.28970024414062,143.9569150390625,96.23160024414062L143.5354150390625,78.31018464414062Q143.5340150390625,78.24743004414063,143.5121150390625,78.18857724414063Q143.4993150390625,78.15394824414062,143.4799150390625,78.12249124414062Q143.4606150390625,78.09103424414063,143.4354150390625,78.06395724414062Q143.4103150390625,78.03688124414063,143.38041503906248,78.01522524414062Q143.3505150390625,77.99356924414063,143.3169150390625,77.97816624414062Q143.2834150390625,77.96276324414063,143.2474150390625,77.95420524414062Q143.2115150390625,77.94564724414063,143.1746150390625,77.94426324414063Q143.1377150390625,77.94287924414063,143.1012150390625,77.94872224414063Q143.0647150390625,77.95456624414062,143.0301150390625,77.96741124414062ZM123.3704620390625,86.06019024414063L123.8650300390625,103.32320024414062L143.2008150390625,95.98390024414063L142.7980150390625,78.85345424414062L123.3704620390625,86.06019024414063Z" fill-rule="evenodd" fill="#3D3E40" fill-opacity="1" style="mix-blend-mode:passthrough"/></g></g></svg>