<svg xmlns="http://www.w3.org/2000/svg" xmlns:xlink="http://www.w3.org/1999/xlink" width="360" height="140" viewBox="0 0 360 140">
  <defs>
    <clipPath id="clip-path">
      <rect id="Ret칙ngulo_123531" data-name="Ret칙ngulo 123531" width="360" height="140" transform="translate(686 6218)" fill="#fff" stroke="#707070" stroke-width="1"/>
    </clipPath>
  </defs>
  <g id="Grupo_de_m치scara_15" data-name="Grupo de m치scara 15" transform="translate(-686 -6218)" clip-path="url(#clip-path)">
    <g id="Grupo_229056" data-name="Grupo 229056" transform="translate(-162 48.331)">
      <path id="Caminho_506678" data-name="Caminho 506678" d="M71.016,241.151C206.991,182.379,335.084,261.682,388,255.724c46.7-5.258,64.421-37.2,96.1-36.626,32.045.579,76.591,46.817,112.55,39.9,30.993-5.958,27.03-60.536,86.788-59.764,35.881.457,53.5,25.7,82.02,23.849,37.712-2.453,47.7-53.861,99.382-59.726,82.081-9.3,122.2,73.593,258.722,73.6,94.631,0,137.695-97.09,227.415-80.621" transform="translate(-70.988 6015.215)" fill="none" stroke="#3d3e40" stroke-linecap="round" stroke-width="1" stroke-dasharray="0.01 2"/>
      <path id="Caminho_506679" data-name="Caminho 506679" d="M71.012,232.706c110.505-48.713,209.485-1.036,279.727,13.383,15.885,3.257,29.168,5.1,39.7,3.787,40.809-5.087,59.345-30.034,87.141-35.413a49.044,49.044,0,0,1,9.927-.92c33.236.2,78.708,43.565,114.534,37.524,32.172-5.429,32.062-54.925,88.635-55.553,34.983-.391,53,21.088,80.477,18.387,16.469-1.62,27.647-11.856,39.751-22.455,15.885-13.9,32.04-28.353,59.736-30.116,27.4-1.731,50.295,6.6,75.015,17.3,35.893,15.532,71.57,36.268,130.221,45.417a368.331,368.331,0,0,0,50.78,4.591c90.586,1.846,135.749-80.726,224.35-69.845" transform="translate(-71.006 6030.328)" fill="none" stroke="#3d3e40" stroke-linecap="round" stroke-width="1" stroke-dasharray="0.01 2"/>
      <path id="Caminho_506680" data-name="Caminho 506680" d="M71.011,225.784c111.922-50.317,205.423,3.357,281.888,16.861,16.034,2.828,29.306,4.349,39.96,2.894,39.993-5.468,58.469-29.433,88.056-35.083a53.489,53.489,0,0,1,9.976-.959c34.415-.1,80.852,40.363,116.507,35.154,33.368-4.878,37.116-49.369,90.486-51.342,34.112-1.268,52.5,16.442,78.939,12.925,16.375-2.183,27.575-12.1,39.966-21.342,16.839-12.556,33.2-23.833,59.621-24.07,26.148-.22,48.371,8.461,73.494,18.062,36.086,13.791,70.154,29.653,129.791,38.075,15.406,2.177,31.946,4.123,50.041,4.883,86.551,3.627,133.71-64.708,221.236-58.9" transform="translate(-71.011 6043.927)" fill="none" stroke="#3d3e40" stroke-linecap="round" stroke-width="1" stroke-dasharray="0.01 2"/>
      <path id="Caminho_506681" data-name="Caminho 506681" d="M71.012,221.872c113.487-52.053,201.229,7.854,284.037,20.316,16.171,2.436,29.449,3.61,40.219,2.012,39.183-5.831,57.592-28.876,88.971-34.763a58.341,58.341,0,0,1,10.042-.992c35.589-.447,83,37.194,118.475,32.779,34.586-4.3,42.176-43.868,92.339-47.131,33.241-2.161,52.009,11.762,77.4,7.468,16.287-2.761,27.592-12.335,40.175-20.223,17.9-11.211,34.377-19.319,59.5-18.034,24.9,1.3,46.448,10.324,71.995,18.828,36.256,12.071,68.687,23.155,129.344,30.734,15.328,1.918,31.621,4.024,49.3,5.17,82.583,5.357,131.654-49.088,218.2-47.771" transform="translate(-71.006 6054.536)" fill="none" stroke="#3d3e40" stroke-linecap="round" stroke-width="1" stroke-dasharray="0.01 2"/>
      <path id="Caminho_506682" data-name="Caminho 506682" d="M71.012,218.4C186.23,164.489,267.941,230.867,357.2,242.161c16.3,2.061,29.6,2.872,40.484,1.119,38.378-6.173,56.716-28.314,89.9-34.432a63.053,63.053,0,0,1,10.087-1.031c36.774-.81,85.156,34.046,120.454,30.4,35.8-3.693,47.252-38.434,94.2-42.92,32.387-3.092,51.518,7.044,75.853,2.006,16.2-3.357,27.669-12.534,40.385-19.1,19.038-9.844,35.534-14.8,59.389-12,23.64,2.817,44.485,12.214,70.473,19.605,36.411,10.357,67.232,16.662,128.914,23.387,15.234,1.665,31.268,3.913,48.548,5.457,78.647,7.017,129.521-33.815,215.124-36.482" transform="translate(-71.006 6064.721)" fill="none" stroke="#3d3e40" stroke-linecap="round" stroke-width="1" stroke-dasharray="0.01 2"/>
      <path id="Caminho_506683" data-name="Caminho 506683" d="M71.012,215.625c117.114-55.889,192.542,17.2,288.347,27.184,16.425,1.709,29.741,2.138,40.743.231,37.568-6.509,55.829-27.768,90.812-34.107a67.939,67.939,0,0,1,10.136-1.058c37.965-1.185,87.334,30.927,122.427,28.022,37.033-3.065,52.334-33.071,96.048-38.709,31.544-4.068,51.022,2.287,74.32-3.461,16.111-3.969,27.818-12.688,40.6-17.985,20.267-8.416,36.686-10.279,59.257-5.958,22.394,4.332,42.534,14.11,68.958,20.372,36.554,8.67,65.772,10.2,128.479,16.045,15.146,1.411,30.932,3.8,47.809,5.743,74.756,8.637,127.321-18.906,212.048-25.046" transform="translate(-71.006 6074.226)" fill="none" stroke="#3d3e40" stroke-linecap="round" stroke-width="1" stroke-dasharray="0.01 2"/>
      <path id="Caminho_506684" data-name="Caminho 506684" d="M71.011,213.778C190.2,155.773,259.1,235.8,361.519,244.363c16.541,1.383,29.885,1.411,41.008-.656,36.769-6.824,54.936-27.223,91.721-33.782a75.368,75.368,0,0,1,10.191-1.1c39.139-1.571,89.511,27.84,124.406,25.652,38.263-2.409,57.41-27.785,97.905-34.5,30.684-5.087,50.5-2.5,72.772-8.918,16.012-4.619,28.022-12.787,40.814-16.877,21.59-6.9,37.855-5.76,59.141.088,21.143,5.842,40.578,16.012,67.447,21.138,36.692,7,64.305,3.754,128.044,8.7,15.058,1.168,30.6,3.671,47.065,6.03,70.92,10.164,125.078-4.365,208.973-13.482" transform="translate(-71.011 6082.824)" fill="none" stroke="#3d3e40" stroke-linecap="round" stroke-width="1" stroke-dasharray="0.01 2"/>
      <path id="Caminho_506685" data-name="Caminho 506685" d="M71.011,212.852c121.418-60.233,183.563,27,292.663,33.975,16.662,1.064,30.028.683,41.266-1.543,35.975-7.127,54.037-26.738,92.636-33.462a82.3,82.3,0,0,1,10.246-1.124c40.324-1.973,91.683,24.775,126.385,23.271,39.5-1.714,62.454-22.571,99.752-30.282,29.818-6.173,49.975-7.314,71.239-14.386,15.891-5.28,28.242-12.82,41.019-15.753,22.946-5.28,39.023-1.24,59.031,6.124,19.881,7.358,38.6,17.935,65.937,21.9,36.818,5.352,62.817-2.657,127.6,1.361,14.964.926,30.254,3.533,46.315,6.322,67.139,11.63,122.785,9.805,205.9-1.808" transform="translate(-71.011 6090.518)" fill="none" stroke="#3d3e40" stroke-linecap="round" stroke-width="1" stroke-dasharray="0.01 2"/>
      <path id="Caminho_506686" data-name="Caminho 506686" d="M71.011,212.68c123.821-62.592,178.994,32.073,294.818,37.342,16.783.766,30.182-.038,41.531-2.436,35.181-7.419,53.144-26.186,93.556-33.131a89.977,89.977,0,0,1,10.3-1.163c41.492-2.365,93.843,21.738,128.352,20.9,40.726-.992,67.464-17.434,101.609-26.071,28.9-7.32,49.418-12.159,69.7-19.848,15.747-5.969,28.452-12.793,41.222-14.639,24.312-3.522,40.192,3.274,58.915,12.164,18.624,8.874,36.642,19.881,64.416,22.681,36.951,3.72,61.362-9.067,127.173-5.991,14.876.694,29.923,3.39,45.577,6.609,63.429,13.041,120.432,23.618,202.822,9.976" transform="translate(-71.011 6097.475)" fill="none" stroke="#3d3e40" stroke-linecap="round" stroke-width="1" stroke-dasharray="0.01 2"/>
      <path id="Caminho_506687" data-name="Caminho 506687" d="M71.012,213.1c126.39-65.072,174.381,37.254,296.973,40.688,16.9.474,30.326-.755,41.785-3.324,34.4-7.705,52.268-25.635,94.471-32.806a98.22,98.22,0,0,1,10.362-1.2c42.661-2.822,96.015,18.718,130.32,18.52,41.955-.237,72.413-12.363,103.461-21.854a637.025,637.025,0,0,0,68.164-25.3c15.587-6.68,28.634-12.721,41.437-13.531,25.624-1.631,41.36,7.8,58.794,18.205,17.379,10.39,34.674,21.843,62.906,23.447,37.089,2.117,59.885-15.339,126.732-13.327,14.794.485,29.6,3.224,44.838,6.89,59.781,14.386,118.045,37.072,199.746,21.849" transform="translate(-71.006 6103.866)" fill="none" stroke="#3d3e40" stroke-linecap="round" stroke-width="1" stroke-dasharray="0.01 2"/>
      <path id="Caminho_506688" data-name="Caminho 506688" d="M71.012,214c129.129-67.663,169.751,42.562,299.123,44.023,66.56.75,78.289-26.76,137.441-36.692,45.345-7.612,105.837,14.452,142.7,14.915,119.214,1.5,169.216-61.445,213.592-60.828,53.646.755,62.663,47.649,120.068,48.465,37.237.524,58.419-21.788,126.3-20.675,70.562,1.152,138.373,61.649,240.765,40.975" transform="translate(-71.006 6109.78)" fill="none" stroke="#3d3e40" stroke-linecap="round" stroke-width="1" stroke-dasharray="0.01 2"/>
      <path id="Caminho_506697" data-name="Caminho 506697" d="M71.012,209.017c110.511-42.1,161.037,19.28,262.078,20.311,56.8.551,67.806-13.906,120.333-19.429,44.948-4.718,102.4,3.346,141.591,5.583,100.5,5.738,140.61-30.789,189.428-28.259C841.8,190.074,873,204.735,930.867,205.81c45.516.943,65.529,1.626,144.959,3.666,82.979,2.127,152.042,24.053,275.174,7.816" transform="translate(-71.006 6162.495)" fill="none" stroke="#3d3e40" stroke-linecap="round" stroke-width="1" stroke-dasharray="0.01 2"/>
      <path id="Caminho_506698" data-name="Caminho 506698" d="M71.012,210.407c116.54-49.959,164.013,27.289,274.43,28.463,60.051.617,71.267-18.239,126.032-25.183,45.064-5.716,103.555,7.072,141.961,8.692,106.752,4.5,150.146-41.008,197.481-39.111,56.115,2.149,79.937,27.553,137.64,28.54,42.76.8,63.159-6.179,138.747-4.448,78.84,1.8,147.517,36.742,263.7,18.834" transform="translate(-71.006 6144.949)" fill="none" stroke="#3d3e40" stroke-linecap="round" stroke-width="1" stroke-dasharray="0.01 2"/>
      <path id="Caminho_506699" data-name="Caminho 506699" d="M71.012,212.076c122.752-58.5,166.912,35.044,286.776,36.367,63.3.678,74.767-22.527,131.742-30.943,45.191-6.675,104.7,10.775,142.33,11.806,112.985,3.092,159.681-51.227,205.533-49.97,54.886,1.45,71.294,37.6,128.859,38.5,39.993.661,60.789-13.978,132.519-12.561,74.69,1.483,142.964,49.281,252.229,29.885" transform="translate(-71.006 6127.375)" fill="none" stroke="#3d3e40" stroke-linecap="round" stroke-width="1" stroke-dasharray="0.01 2"/>
      <path id="Caminho_506689" data-name="Caminho 506689" d="M1351,205.318c-179.512-1.317-250.912,84.049-366.928,79.3-110.268-4.5-127.117-66.516-194.752-68.561-59.086-1.792-149.457,69.515-216.678,61.07-60.7-7.623-73.885-47.881-125.017-58.59-45.1-9.447-94.372,24.313-138.615,19.308-34.393-3.886-43.923-26.594-74.7-26.594-30.6,0-92.7,43.2-163.3,53.574" transform="translate(-71.006 6244.632)" fill="none" stroke="#3d3e40" stroke-linecap="round" stroke-width="1" stroke-dasharray="0.01 2"/>
      <path id="Caminho_506690" data-name="Caminho 506690" d="M71.013,254.18c74.684-10.924,136.868-43.83,175.643-43.708,34.03.066,43.8,17.935,80.405,20.846,44.386,3.522,94.477-24.362,138.984-16.2,57.129,10.478,73.863,40.754,133.07,47.738,65.987,7.744,148.961-52.814,207.9-51.116,64.862,1.907,82.108,56.259,188.524,60.453C1107.426,276.6,1178.578,204.866,1351,203.7" transform="translate(-71.002 6237.412)" fill="none" stroke="#3d3e40" stroke-linecap="round" stroke-width="1" stroke-dasharray="0.01 2"/>
      <path id="Caminho_506691" data-name="Caminho 506691" d="M71.012,243.617c79.038-12.49,140.809-34.173,187.995-33.931,37.281.138,47.241,13.217,86.11,15.086,44.5,2.144,95.524-20.124,139.354-13.085,63.214,10.153,83.4,30.53,141.117,36.879,64.752,7.05,140.346-42.771,199.129-41.156,62.1,1.769,79.733,48.448,182.3,52.34,107.755,4.084,178.658-54.071,343.983-57.648" transform="translate(-71.006 6230.188)" fill="none" stroke="#3d3e40" stroke-linecap="round" stroke-width="1" stroke-dasharray="0.01 2"/>
      <path id="Caminho_506692" data-name="Caminho 506692" d="M71.012,233.2c83.657-15.075,144.551-24.676,200.347-24.312,40.528.2,50.669,8.56,91.809,9.337,44.579.849,96.615-16.023,139.723-9.976,69.36,9.734,92.939,20.316,149.176,26.027,63.523,6.344,131.7-32.724,190.337-31.2,59.334,1.631,77.363,40.644,176.078,44.227,103.632,3.754,174.265-40.87,332.519-46.795" transform="translate(-71.006 6222.975)" fill="none" stroke="#3d3e40" stroke-linecap="round" stroke-width="1" stroke-dasharray="0.01 2"/>
      <path id="Caminho_506693" data-name="Caminho 506693" d="M71.012,223.159c88.546-18.657,148.117-15.378,212.693-14.887,43.785.275,54.114,2.414,97.514,3.588,44.618,1.2,97.751-12.021,140.092-6.868,75.544,9.194,102.474,10.092,157.234,15.163,62.283,5.65,123.072-22.67,181.552-21.237,56.573,1.488,75,32.839,169.856,36.113,99.5,3.428,169.861-27.724,321.049-35.92" transform="translate(-71.006 6215.588)" fill="none" stroke="#3d3e40" stroke-linecap="round" stroke-width="1" stroke-dasharray="0.01 2"/>
      <path id="Caminho_506694" data-name="Caminho 506694" d="M71.012,215.442c93.689-23.21,151.529-6.328,225.039-5.7,47.043.342,57.5-.6,103.218-2.166,44.711-1.538,98.9-8.1,140.467-3.754,81.761,8.538,112.01-.132,165.281,4.3,61.054,4.95,114.44-12.633,172.771-11.282,53.811,1.35,72.628,25.04,163.633,28,95.381,3.1,165.435-14.65,309.578-25.023" transform="translate(-71.006 6206.113)" fill="none" stroke="#3d3e40" stroke-linecap="round" stroke-width="1" stroke-dasharray="0.01 2"/>
      <path id="Caminho_506695" data-name="Caminho 506695" d="M71.012,208.024c99.068-28.672,154.809,2.464,237.386,3.224,50.295.413,60.921-5.087,108.923-7.92,44.777-2.64,100.066-4.239,140.842-.645,87.995,7.75,121.54-10.346,173.333-6.542,59.819,4.25,105.809-2.585,163.98-1.328,51.05,1.218,70.269,17.235,157.41,19.892,91.242,2.772,161-1.659,298.114-14.11" transform="translate(-71.006 6196.591)" fill="none" stroke="#3d3e40" stroke-linecap="round" stroke-width="1" stroke-dasharray="0.01 2"/>
      <path id="Caminho_506696" data-name="Caminho 506696" d="M71.012,207.937C175.7,172.96,228.984,218.95,320.744,219.843c53.552.48,64.355-9.524,114.628-13.675,44.855-3.7,101.234-.424,141.211,2.464,94.245,6.824,131.086-20.564,181.381-17.4,58.584,3.55,97.183,7.463,155.211,8.632,48.283,1.08,67.888,9.43,151.187,11.779,87.108,2.447,156.528,11.255,286.639-3.164" transform="translate(-71.006 6179.989)" fill="none" stroke="#3d3e40" stroke-linecap="round" stroke-width="1" stroke-dasharray="0.01 2"/>
    </g>
  </g>
</svg>
