<svg xmlns="http://www.w3.org/2000/svg" width="1281.034" height="485.753" viewBox="0 0 1281.034 485.753">
  <path id="Interseção_2" data-name="Interseção 2" d="M-1433.191,535.645l15.608-23.326-36.708-21.984-28.49,43.806-.09,0,28.515-43.844-30.973-22.762-36.707,41.992,22.836,23.756-.116-.007-22.782-23.7-39.944,17.58.92,1.191-.107-.011-.894-1.158-38.22-3.39-1.21-.159-.6-.079,39.956,3.543-30.675-34.957-42.96-2.406,28.48,33.119-.117-.016-28.473-33.11-49.487-5.517,27.119,30.422-.126-.023-27.1-30.4L-1719.4,501.51l-.116-.028,33.9-17.327-31.816-14.353-34.586,23.224-.1-.027,34.538-23.19-30.721,2.374L-1770.32,487.8l-.1-.028,21.931-15.56-28.973,5.565-8.035,5.439-.1-.03,7.967-5.393-19.308,1.813-.188-.061,19.632-1.843,50.7-24.416-27.461-.42-46.757,25.421-.1-.034,46.71-25.393-26.147-1.2-40.811,19.781-.1-.036,40.788-19.77-26.14-6.1-41.161,16.3-.108-.041,41.151-16.3-26.83-8.408-41.361,14.166-.109-.044,41.4-14.178-24.158-24.791-51.562,17.7,15.936,13.64-.24-.1-15.783-13.509-8.456,2.853-.1-.046,8.509-2.871-28.3-48.178-41.665,20.875-.083-.044,41.7-20.893-32.759-38.092-19.2-18.215a.038.038,0,0,1,0-.054.042.042,0,0,1,.058,0l19.184,18.2,54.327-9.787-32.506-19.87-41.034-1.073a.04.04,0,0,1-.04-.04.04.04,0,0,1,.04-.038h0l40.939,1.07-31.365-28.594-9.569,1.263h-.006a.041.041,0,0,1-.04-.033V286.4a.039.039,0,0,1,.034-.031l9.468-1.251-9.482-5.059a.039.039,0,0,1-.015-.052.041.041,0,0,1,.055-.015l9.576,5.109,54.028-3.872-29.161-20.735-34.456,6.1a.04.04,0,0,1-.046-.032.037.037,0,0,1,.031-.044l34.288-6.068-26.329-6.17-7.943,1.935a.041.041,0,0,1-.048-.028s0,0,0-.005v-.008a.04.04,0,0,1,.03-.033l7.669-1.868-7.66-.174a.039.039,0,0,1-.039-.04.038.038,0,0,1,.04-.038h0l7.942.182h0l52.075-10.973-24.02-.257-35.994,7.41a.04.04,0,0,1-.047-.03.039.039,0,0,1,.031-.046l35.523-7.312-22.783,1.05h0l-12.725,2a.039.039,0,0,1-.046-.032V246a.039.039,0,0,1,.033-.032l12.577-1.977-12.584-4.362a.039.039,0,0,1-.026-.031v-.011a.022.022,0,0,1,0-.007.042.042,0,0,1,.051-.023l12.714,4.408,25.759-7.41-38.487-.374a.039.039,0,0,1-.04-.039.039.039,0,0,1,.04-.038l38.747.376,1.655-.476-40.407-5.155a.04.04,0,0,1-.034-.034V230.8a.04.04,0,0,1,.04-.033h.005l40.586,5.177,22.764-6.548-30.247-10.326-33.111-2.518a.039.039,0,0,1-.037-.036v-.005a.038.038,0,0,1,.04-.036h0l33.053,2.515-7.876-17.491-25.182-.8a.039.039,0,0,1-.039-.04.039.039,0,0,1,.04-.037h0l25.15.8-6.659-19.156-18.5-2.376a.039.039,0,0,1-.034-.034v-.009a.04.04,0,0,1,.04-.033h.005l18.471,2.372-3.361-29.306-15.116-.907a.04.04,0,0,1-.037-.041.038.038,0,0,1,.038-.036h0l15.1.905-5.511-29.424-9.594-.728a.039.039,0,0,1-.037-.036v-.005a.038.038,0,0,1,.04-.035h0l9.564.727-9.6-26.992a.039.039,0,0,1,.023-.049.04.04,0,0,1,.051.025l9.617,27.027,39.419,11.356-10.656-27.32-38.432-14.688a.038.038,0,0,1-.025-.033V92.62a.027.027,0,0,1,0-.012.044.044,0,0,1,.052-.022l38.339,14.652-15.69-25.418-22.679-8.341a.038.038,0,0,1-.025-.031v-.013a.022.022,0,0,1,0-.007.043.043,0,0,1,.052-.022l22.6,8.311L-1981.409,54.6l-8.568-3.634a.038.038,0,0,1-.02-.05.038.038,0,0,1,.032-.023h.008a.025.025,0,0,1,.012,0l8.581,3.64a.02.02,0,0,1,.009.005l39.559,23.478,0,0h0a.016.016,0,0,1,.006,0l19.305,20.13,28.8,9.59a.034.034,0,0,1,.02.009l.005,0,25.645,19.12.008,0,.014.011,21.617,14.28a.052.052,0,0,1,.014.009l5,3.111,21.583,5.433h.006l21.355,6.115a.059.059,0,0,1,.015,0l.041.021,15.581,7.665,22.657,7.239h.005l12.983,6.808,14.618,9.954,1.741,1.188,1.22.747.683.276,11.115,6,.051.027.005,0,11.614,6.682,0,0,13.5,6.959,15.451,9.868,12.9,7.916,13.434,8.728,12.677,8.21,12.86,7.754,11.591,7.285,2.29,1.2,14.06,3.91,16.712,3.134,12.816,5.493,17.667,1.463a.03.03,0,0,1,.018,0l17.113,6.592,13.378-.557h.011l.008,0,17.461,5.513,13.484-.932h.01a.039.039,0,0,1,.019,0l0,0,12.063,7.906,1.078.431h0l16.633,4.164a.042.042,0,0,1,.021.009l13.5,11.179,15.852,7.719,13.424,5.932a.04.04,0,0,1,.02.052.041.041,0,0,1-.036.022.036.036,0,0,1-.017,0l-13.425-5.932-15.861-7.725-1.677-.816,10.972,12.242,11.477,2.006a.039.039,0,0,1,.032.045.04.04,0,0,1-.04.031h-.007L-1435.9,320.3l2.565,1.61a.037.037,0,0,1,.013.052l10.345.519,2.4.119,15.965.268h0l17.262-2.119,16.163-.257h0l18.688-.6,17.022-3.793h0a.03.03,0,0,1,.02,0l20.67,4.873,18.417-5.65h0a.029.029,0,0,1,.015,0l.008,0,0,0,20.792,5.508,16.274,2.978.059,0h.007l4.342.607,19.412,1.489,4.082,1.054,14.814.017h0l19.271,1.786a.032.032,0,0,1,.016,0l19.389,2.9,20.9,2.536,19.889,2.758h0l20.966.8h.01l6.291,1.819,18.758-3.159h.005l26.094-1.879a.035.035,0,0,1,.025,0l27.447,4.836a.033.033,0,0,1,.016,0l26.927,8.419.015.005,4.253,1.913,23.091,4.711,13.05,4.757h.006l16.948,3.212h.008l18.78,5.98,5.764,1.833.4.128,10.215,1.877h0l15.881.441,10.42-4.041h0l1.855-.806h0a.032.032,0,0,1,.02-.006l.92-.271,0,0,20.966-8.126,39.246-14.035,23.228-3.552,15.682-8.667,43.261-12.551.013,0a.031.031,0,0,1,.013,0l10.541-1.223h0l.01,0,13.087-3.448h0a.033.033,0,0,1,.016,0l12.8-.525h0a.04.04,0,0,1,.04.031v.015a.038.038,0,0,1-.038.031l-12.8.526-20.613,9.247,33.4-6.2a.039.039,0,0,1,.048.031v.015a.037.037,0,0,1-.031.03l-33.71,6.26-23.718,16.388,43.316-10.224,14.082-8.8a.039.039,0,0,1,.055.011.04.04,0,0,1,.006.017v.009a.041.041,0,0,1-.018.028l-13.925,8.7,13.9-2.327c.017-.007.041.011.045.031a.038.038,0,0,1-.031.045l-14.079,2.357-24.606,18.515,38.672-5.432a.039.039,0,0,1,.044.033.038.038,0,0,1-.033.044l-38.808,5.449-23.689,22.337,47.138-4.992,15.323-15.512a.04.04,0,0,1,.057,0,.032.032,0,0,1,.013.022v.01a.039.039,0,0,1-.012.022l-15.272,15.458,15.245.231a.04.04,0,0,1,.039.04.038.038,0,0,1-.04.038h0l-15.315-.233-23.654,29.532,38.971,1.092a.038.038,0,0,1,.039.039.039.039,0,0,1-.04.038h0l-39.029-1.093-15.83,20-.131.04,15.854-20.03-46.31,4.518L-817.6,422l1.948.964,23.966,2.454-.192.058-23.574-2.414L-803.457,429l-.109.033-12.106-5.989a.031.031,0,0,1-.018-.009l-1.968-.974-.148.135a.04.04,0,0,1-.027.011.037.037,0,0,1-.029-.013.037.037,0,0,1,0-.054l.127-.116-24.581-12.16-23.982,6.992,46.9,12.335.008,0,10.188,1.547-.173.052-8.534-1.3,7.643,1.565-.154.047-8.972-1.838h-.009l-24.174,9.913,5.125.357-.21.063-5.07-.354-3.715,2.973-.2.059,3.785-3.029-45.442,1.224L-912.047,458.3l9.661-.037-.27.077-9.487.036-4.405,3.909-.172.049,4.463-3.961L-954,457.143-975.73,470.5l17.154,3.389-.167.045-17.087-3.375-22,8.045,8.465,3.32-.128.032-8.452-3.315-22.458.821,12.979,6.913-.113.027-13.021-6.935s0,0-.007,0l-23.068-7.182,29.836,15.617-.115.027-30.13-15.771-27.141-5.539,41.63,15.982,14.314,5.642-.133.031-14.187-5.592-11.122,11.388-.141.031,11.183-11.45-41.981-16.118-37.81,30.743,14.888,7.881-.122.023-14.833-7.852-19.661,14.062-.175.03,19.762-14.134-41.208-25.164-35.989,26.213,31.21,17.341-.123.019-31.165-17.314-30.976,9.684,23.182,13.211-.127.017-23.154-13.2-35,13.8,8.4,5.221-.128.013-8.36-5.193-9.957,6.97-.155.014,10.042-7.029-41.03-26.361-38.448,19.671,21.647,17.406-.116.007-21.608-17.375-41.447,20.107-.187,0,41.57-20.166-40.217-34.615-44.544,31.731,42.746,23.06-.158,0-42.648-23.008-15.583,23.288Zm-159.6-43.535,30.694,34.979,39.937-17.577-30.754-32.89ZM-1294,495.5l41,26.343,34.988-13.8-41.7-20.423Zm-78.838-14.975,40.224,34.621,38.453-19.674-35.977-39.713Zm-81.4,9.748,36.709,21.986,44.555-31.74-38.227-28.088Zm-98.6-13.694,30.75,32.884,36.7-41.979-29.024-18.25Zm293.239,11.012,41.69,20.415,30.969-9.681-40-19.8Zm32.758-9.106,40,19.8,35.968-26.2-41.792-7.4Zm76.137-6.419,41.206,25.162,37.8-30.74-40.589-20.326Zm-143.379,23.376,34.286-7.88-36.219-28.535-34.015-3.268Zm-328.81-29.916,30.05,26.522,39.866-15.485-29.148-22.787Zm-43.417.694,30.406,23.422,42.943,2.406-30.026-26.5Zm181.041,1.255,30.965,22.757,43.034-37.839-34.208-16.987Zm-232.011,2.309,31.766,14.33,49.459,5.513-30.38-23.4ZM-1259.7,487.54l32.651-9.066-38.6-17.556-30.226-1.881Zm-151.426-35.151,38.226,28.087,42.7-24.766-38.944-25.154Zm352.391,9.372,38.2,17.625,22.39-.817-38.12-12.8-22.359-4.147a.038.038,0,0,1-.031-.045.038.038,0,0,1,.047-.031l21.479,3.983-19.622-5.429-.264-.024a.038.038,0,0,1-.031-.013.038.038,0,0,1-.01-.025h0v-.005a.039.039,0,0,1,.005-.014l-3.268-.9-6.823-2.044Zm14.73,10.318,22.909,7.133-37.678-17.384-21.693-12.111Zm7.937-6.327,38.135,12.807,21.956-8.03-38.782-6.681Zm-229.468-4.866,38.6,17.555,34.161-13.79-38.618-15.292Zm-511.649,16.764,28.862-5.543,50.742-15.734-29.032-3.079Zm195.144-23.906,29.145,22.784,38.4-27.33-27.834-12.738Zm-165.322,18.147-.608.188,30.528-2.359a.031.031,0,0,1,.013,0l50.8-3.557-30.765-9.767Zm675.755-5.443,27.378,5.586-37.9-23.242-.006,0-29.956-2.612Zm-120.951-1.818,41.774,7.4,38.387-25.88-41.717-3.675Zm177.951-.833,38.77,6.679,21.7-13.333-39.617-.677Zm-499.732-14.6,29.006,18.238,39.766-32.049-29.82-7.259Zm-182.878,7.175,30.807,9.779,43.288-.672-29.245-15.635Zm660.963,9.322h0l21.064-1.88-41.129-3.673Zm-616-15.876,29.286,15.655,40.747-11.744L-1610.1,439.5Zm420.981-.492,38.6,15.286,38.428-22.146-40.421-4.258Zm174.69,10.715,41.817,3.733,20.751-7.3-37.725,1.353h0l-18.063,1.886h0a.039.039,0,0,1-.04-.034.039.039,0,0,1,.036-.043l13.075-1.365Zm-245.406-16,36.35,16.806,34.129-11.523-36.2-13.306Zm6.007,14.921,30.137,1.876-36.283-16.775-25.87-12.73a.053.053,0,0,1-.009-.005l-2.22-1.091Zm250.034-1.807-13.421,2.148,2.459.68,8.843-1.819a.038.038,0,0,1,.025-.016l1.187-.233.039-.008,17.923-3.89Zm5.981-.364-6.834,1.192-.081.016-9.472,1.949,24.592-2.188,20.1-6.011Zm-35.911-5.7,8.482,5.827,7.1,2.126.842.233h0a.039.039,0,0,1,.033-.045l13.449-2.153,6.209-6.022-30.909-4.612-5.516,4.354a.047.047,0,0,1-.026.008.04.04,0,0,1-.031-.013.039.039,0,0,1,.005-.055l5.462-4.312-17.846-3.276Zm-293.139-20.537,38.9,25.127,33.994,3.267-32.163-26.983-2.227-1.867Zm437.036,13.027-21.9,13.5,41.705,1.23,22.735-17.818ZM-1011,451.622l-20.449,6.117,37.676-1.351,20.921-10.35Zm-3-1.035a.042.042,0,0,1-.015,0l-12.482,2.976,0,0-18.475,4.009,4.994-.872,28.955-5.157,20.531-6.566ZM-972.6,446l-21,10.387,39.584.677,21.875-13.483Zm-67.059,5.055-6.172,5.988,19.317-3.553,12.483-2.977,5.939-6.49Zm-79.715-20.869,37.278,18.527,14.086,7.865-7.908-5.433-12.912-8.043-.188-.034a.039.039,0,0,1-.032-.045.043.043,0,0,1,.042-.031l-4.444-2.768-1.2-.461-4.623-1.815-.521-.2-18.628-7.28-.739-.289-4.786-.123-35.386-1.617-35.13,9.709,40.334,4.25,34.722-12.208.013,0A.069.069,0,0,1-1119.379,430.189Zm-607.025,23.05,29,3.076,44.848-6.528-28.059-7.757Zm116.416-13.768,27.869,14.222,39.681-17.272-26.778-9.247ZM-1754.02,452.8l27.389.419L-1680.817,442l-26.844-3.721Zm-26.335-1.2,26.09,1.192,46.415-14.534-25.94-3.051Zm334.974-16.231,34.177,16.971,41.942-21.815-36.109-7.772Zm-361.3,10.122,26.118,6.1,46.632-16.417-25.6-6.617Zm817.187-.751,0,0-21.066,6.737,37.934-5.553,21.778-9.272,6.071-3.021,23.036-11.6.323-.278-37.2,13.93h0l-5.989,3.409,15.493-4.268a.038.038,0,0,1,.049.028.038.038,0,0,1-.028.047l-15.792,4.351-1.829.5-1.772.388h-.005l-14.273,3.126,28.107-5.825a.036.036,0,0,1,.047.03.038.038,0,0,1-.031.046l-33.832,7.011h-.008a.05.05,0,0,1-.022-.006Zm-62.048-12.107-19.047,13.738,30.887,4.609,18.192-20.821Zm30.147-2.488-18.184,20.813,31.567-7.033,17.821-24.222Zm13.432,13.844-5.939,6.492,24.382-5.815,1.023-.224,12.618-17.467Zm-672.5-2,28.1,7.768,42.133-10.3-26.759-9.085Zm412.884-6.016,36.186,13.3,36.589-11.114-36.622-11.842Zm-274.645.448,27.8,12.723,38.905-21.046-27.7-4.153Zm388.275,5.989,41.664,3.669h0l29.962,2.613-37.077-18.428Zm74.227-6.892-14.775,4.208,1.069.426.01.005,4.613,2.874,18.107,3.323,19-13.705Zm158.808-13.958a.041.041,0,0,1-.028.049l-.266.065-.49.419L-944.742,433.7l-6.073,3.023-21.578,9.187,40.378-2.413,18.243-23.781,1.79-2.335-9.708,4.837a.04.04,0,0,1-.054-.016.038.038,0,0,1,.017-.051l9.86-4.914.007,0,22.992-10.285a.031.031,0,0,1,.019,0l11.5.7,17.249-16.287-41.234,7.868-19.78,22.344.153-.039h.008A.041.041,0,0,1-920.913,421.562Zm-912.74,15.487,26.837,8.41,47.186-16.95-25.864-13.756Zm857.934-10.156-12.659,17.525,19.872-4.351,9.845-4.45,18.156-25.264Zm-352.147,4.41,25.759,12.675,34.243-8.013-33.876-9.488Zm337.811-11.646-17.8,24.189,32.081-17.014,18.544-23.973Zm78.228-2.345-20.082,26.18,42.575-3.093,22.8-23.5Zm-795.667,20.912,26.88,3.727,43.48-11.622-25.7-7.092Zm818.275,2.17,45.469-1.226,24.227-9.933L-866.429,416.9Zm-78.922-.407,1.409-.309,1.82-.5.005,0,5.523-3.146Zm-131.475-2.257,5,1.95,14.431-4.109Zm-537.24-7.4,26.764,9.085,40.747-12.288-25.712-8.142Zm-96.792,4.812,25.979,3.053,44.7-15-24.793-7.556Zm538.975,2.975,35.085-9.7-38.5-1.614h0l-33.079-.491Zm106.662-5.436h0l-13.688,4.229,1.969.769a.041.041,0,0,1,.032-.024l19.96-2.218,18.8-7.619Zm-769.9-20.468,24.16,24.79,48.185-22.306-25.44-20.784Zm756.132,24.668a.041.041,0,0,1,.029-.037l12.948-4-15.209,3.165h0Zm-467.29-9.743,26.736,9.232,38.953-12.456-26.472-4.588Zm448.708,2.308,1.215.651h0l10.4,4.061,4.617,1.806.077.03a.031.031,0,0,1-.006-.013.039.039,0,0,1,.031-.046l15.988-3.326,17.936-10.429-26.931,4.3-11.6,7.681a.041.041,0,0,1-.022.006.04.04,0,0,1-.033-.017.037.037,0,0,1,.011-.053l11.475-7.6Zm-181.23-3.011,33.881,9.489,36.132-9.648-34.674-8.846Zm361.229-16.152-18.166,25.279,37.273-13.957,19.778-22.342Zm-120.208,17.47-18.893,7.658,27.9-2.857,19.454-9.762Zm-414.644.327,29.724,7.238,39.9-12.582-31.482-1.845Zm-284.209.421,25.621,6.622,45.942-19.525-24.226-10.358Zm689.531-6.353-17.927,10.422,27.221-4.89,18.609-10.162Zm38.047.6-19.516,9.792,29.926-2.463,19.634-14.743Zm-324,2.4,25.352,4.86.011,0,2.5,1.229,26.033-4.81-31.315-5.861Zm-13.3,5.317,38.265-.454-25.159-4.825a.042.042,0,0,1-.022,0l-12.28-2.353-32.6-.075h-.008l-4.061-.009ZM-1662.7,423.2l25.709,7.095,41.806-11.344-24.514-8.938Zm504.077,5.2,34.672,1.584,4.628.119-1.18-.632-2.178-.867-5.178-2.06Zm157.014-13.106L-1021.2,430l31.1-10.406,20.26-16.484Zm-936.305-33.581,28.3,48.181,51.577-17.7-22.763-47.721Zm831.146,28.953-15.833,17.887,2.116.842,23.416-2.979,17.6-16.973Zm-26.641,1.534-10.777,12.136,16.339,2.13.01,0,5.158,2.053,15.8-17.85Zm-652,2.519,25.874,13.762,47.37-23.277-24.14-15.978Zm587.753,12.041,38.313,1.606,31.086-1.876-34.972-4.56Zm-305.211-2.831,27.47,4.119,37.885-7.142-14.746.179h-.012l-13.446.163h0Zm461.11-6.438-18.6,10.158,28.487-4.965,19.659-10.356Zm-553.135,1.479,25.678,8.132,39.195-7.807-25.271-6.806Zm637.826-16.186-18.55,23.982,35.2-16.536,20.145-19.935Zm-275.458,15.5,34.446,8.461,34.69-4.868-2.819-1.064a.043.043,0,0,1-.021-.008l-12.988-4.9-.011,0-15.054-5.683a.045.045,0,0,1-.018-.007l-.084-.031Zm1.1,7.967,33,.49-34.28-8.42h0l-33.212-.868Zm-101.66-5.709,31.338,5.867,35.3-9-32.3-5.119Zm253.737-11.1-17.59,16.957,27.009-4.308,18.35-14.556Zm-312.572,13.275,23.585.055,12.288,2.355,22.554-4.573-29.047-4.347Zm232.661-8.635-6.876,6.678,2.9,1.1,18.952,2.471,10.756-12.116Zm-370.209,5.25,26.247,4.548,37.056-2.672-26.505-2.732h-.017ZM-1687.64,415.6l24.8,7.558,43.035-13.2-23.215-11.245Zm264.165,2.128,22.526,4.958,8.675.02h0l29.541-6.545-27.155-5.026Zm-13.6,3.091h.01l31.694,1.858,4.066.009-22.359-4.92-33.666,2.416,5.075.822,15.178-.184Zm425.118-8.542-19.6,10.324,29.92-7.384,20.248-11.53Zm-39.477-4.762-18.328,14.54,27.978-4.642,18.7-13.238Zm233.765,14.452,22.053-20.174-43.7,4.626-2.484,3.406a.05.05,0,0,1-.035.017l-.394-.022Zm-648.05-.8,13.008-.158-4.957-.8-33.553-1.667Zm286.687-5.287,12.822,4.841,6.833-6.637Zm-183.277.274,29.043,4.347,34.285-8.236-29.764-2.815Zm-120.773-3.466,25.421,7.44,33.8-2.425-25.439-8.1Zm-9.589,5.7h0L-1458,420.11l-25.3-7.406-34.6-.515Zm523.058-15.363-20.157,16.4,32.661-16.715,0,0,21.934-12.208Zm-585.391,9.454,25.159,6.775,36.877-.859-25.274-6.21Zm-64.539-2.5,24.494,8.931,39.615-6.484-23.9-9.049Zm353.985,3.327,32.864,4.924,38.164-8.113-3.494-1.064a.05.05,0,0,1-.016-.005l-27.345-8.328Zm-.688,4.047h0l32.93.861-32.415-4.856h-.006l-32.386-1.058Zm-182.889-7.786,25.474,8.114,33.609-6.6-25.628-7.221Zm426.218-5.419-18.688,13.228L-1012,412.2l16.642-16.472Zm111.259,13.082,45.209-.414,24.052-7.012-16.7-.969-29.749-1.814Zm-477.984-6.132,27.108,5.016,33.532-6.7-27.721-2.816Zm223.179-9.575-15.68,13.177,2.944,1.112,19.91-1.818,17.339-17.167Zm-545.526,3.674,24.233,10.361,44.66-16.9-22.1-14.721Zm730.911-1.6-20.083,11.435,31.516-12.08h0l18.2-7.561,3.328-1.381Zm-208.709,3.842-4.4,2.716,11.956,4.514,15.591-13.1Zm-621.141-13.559,25.441,20.784,49.117-25.5-25.033-22.1Zm669.116,2.923-17.356,17.183,25.726-1.87,17.34-18.1Zm-153.7,12.681,29.778,3.8,40.125-12.572-31.884-1.414Zm-3.227,2.721h0l32.191,1.051-29.166-3.72-32.207-.09Zm-208.463-8.984,23.918,9.4,33.827-3.091-23.952-9.971Zm-34.81.048,23.783,8.837,34.727.517-23.867-9.383Zm-37.1.108,23.835,9.026,36.835-.3-23.789-8.839Zm583.92-7.691-16.643,16.474,30.727-8.633,20.84-9.3Zm-862.763,16.468,46.894-18.3-23.755-27.962-45.891-1.442Zm741.975-18.148-17.344,18.1,26.526-1.526,17.9-16.943Zm-299.482,9.842,25.581,7.207,32.932-4.5-26.031-5.441Zm326.68-10.21-17.9,16.94,27.3-1.224,17.441-17.067Zm168.688-3.407-20.154,19.944,38.874-11.017,21.7-18.254Zm-277.764,18.793,3.487,1.062a.025.025,0,0,1,.016.005l.08.03,4.273-2.638Zm-445.028-10.336,23.2,11.238,40.245-6.607-22.234-12.015Zm784.232,10.1,16.807.977,2.429-3.332Zm-614.607-9.245,23.972,9.978,33.476-5.706-23.906-10.025Zm116.9,7.023,27.624,2.806,32.725.091-26.278-6.723Zm34.276-3.853,26.381,6.749,37.96-10.173-7.59-.291h-.007l-21.568-.827Zm260.274-10.43-17.439,17.067,27.783-1.907,15.753-19.756ZM-1205.486,406.7l7.467,2.274,8.2-1.607,17.463-15.117-22.133,6.183h0Zm345.53-15.369-17.285,16.322,18.148,1.106,19.736-2.417,22.062-24.489Zm-175.65-3.668-15.759,19.763,28.407-3.348,16.347-17.556Zm-136.578,4.537-17.473,15.125,23.154-5.872,17.455-16.484Zm-44.437,8.1-2.933,2.12,13.976,4.256,10.934-8.223Zm-166.172.779,26.066,5.449,34.272-3.849-23.845-9.264Zm565.631-19.252-22.077,24.505,43.716-4.627,22.786-29.035Zm-919.063,7.353,24.143,15.979,46.82-21.27-21.5-19.462Zm754.752-14.09-2.6,1.186-.1.047-22.319,10.192-16.318,17.524,27.576-8.422,18.874-22.859Zm-458.076,18.688,23.875,10.012,32.516-2.735-24.081-9.085Zm458.985,9.592,29.62-8.617,3.479-1.011h0l20.975-9.983-33.566,10.462h0Zm-598.755-.067h0l36.929-.109-21.986-11.449-37.143-.44Zm37.1-.109,34.7-.03-22.142-11.21-34.537-.207Zm12.694-11.256,22.172,11.224,33.822-3.66-22.142-11.83Zm207.234,10.723,35.083-4.53-4.233-.58h0l-22.225-3.048h0l-32.406-1.082Zm387.579-12.325L-956.7,402.571l36.563-12.407h0l23.486-11.313Zm-305.54,9.65,14.863.66h.015l5.728,1.744,2.9-2.1-21.933-1.476Zm292.812-6.169h0l-20.589,8.552,33.287-12.1,21.779-8.667Zm174.82-21.168-22.794,29.046,46.3-4.519,23.648-29.522Zm-376.255,12.271-17.483,16.509,24.505-4.694,17.618-17Zm-258.231,7.016,24.126,9.1,36.573-7.681-21.293-11.921Zm168.494,6.809,21.958,1.477,17.886-20.664-21.6-1.1Zm39.947-19.184-17.879,20.655,22.01-1.851,17.7-20.543Zm-58.814,19.661,17.1.758,1.587-1.179-21.488-3.7-4.956,3.823,7.732.3.011,0A.029.029,0,0,1-1257.479,399.221Zm-238.074-11.573,22.157,11.837,33.568-5.757-21.575-12.844Zm616.043-6.782-21.707,18.262L-860,391.262l22.657-21.947Zm-411.834,16.618,4.426.608h.016l21.546.826,4.982-3.843-20.933-5.784Zm31.132-2.451,21.5,3.7,18.246-20.288-21.454-3.331Zm-404.882-11.117,22.09,14.715,41.24-7.388L-1622.2,375.4Zm488.376-6.108-17.68,20.52,22.172-6.2,17.839-19.484Zm-139.8,15.983-.012.007,2.871.625.01,0,22.2,3.045,10.056-8.208-20.352-7.392Zm192.425-14.083-17.631,17.009,25.7-2.785,18.15-16.312Zm128.966,15.9,35.039-1.46L-942.25,374.5l-11.831-.63h-.007l-22.118-1.178Zm-286.117-6.376,20.941,5.786,18.3-19.918-21.154-5.068Zm-65.044,4.106,29.03.966,3.169.108-24.458-5.308-28.863-7.591Zm386.345.769L-926,383.524l14-6.084-4.959-.483h-.005a.042.042,0,0,1-.015,0l-21.489-2.092h-.01l-3.666-.357Zm-155.956-.175,27.084-.365,18.635-13.957-27.564-1.994Zm-718.835-28.052,23.745,27.95,49.521-26.813-24.126-18.967Zm467.058,15.484,29.151,7.666,21.921,4.757.032.007,0,0a.039.039,0,0,1,.005-.054l14.744-11.9-19.679-8.874-17.459,11.793,11.115,6.237a.038.038,0,0,1,.014.053.041.041,0,0,1-.034.019.044.044,0,0,1-.021-.005l-11.152-6.259-5.919,2.125-.014,0a.044.044,0,0,1-.038-.024.04.04,0,0,1,.024-.05l5.866-2.105-18.571-12.769-11.459,4.345,7.366,6.466a.036.036,0,0,1,0,.054.037.037,0,0,1-.03.013.038.038,0,0,1-.026-.011l-7.412-6.506-.007-.005-2.677-2.349,2.469,2.387.009.008,4.731,4.2,2.149,1.981.092.055a.038.038,0,0,1,.013.053.038.038,0,0,1-.033.018.034.034,0,0,1-.021-.006l-.094-.056-.007,0-.46-.275a.046.046,0,0,1-.014-.008l0,0-5.425-3.234-.006,0-17.914-10.677Zm-93.6-.491,21.567,12.839,32.362-1.811-20.362-14.6Zm391.219-1.259-18.622,13.947,26.823-1.35,17.8-16.778Zm158.224-2.157-.005,0-14.127,6.139,0,0-20.793,9.9,35.653-12.634,20.794-12.758Zm-149.884,14.732,26.072-4.591,22.044-10.234-30.317-1.949Zm-92.535-19.567-17.825,19.469,23.157-7.236,18.126-18.089Zm-273.353,4.661,20.379,14.609,39.439-10.508-19.676-13.556Zm-136.744,14.389,34.573.208-19.877-14.456-34.556-.723Zm14.81-14.262,19.894,14.469,33.88-4.271-19.4-15.4Zm-52.12,13.821,37.176.439-19.86-14.971-37.724-1.3Zm764.474-21.954-22.667,21.956,42.645-9.473,23.315-23.2ZM-896.17,378.7l-23.62,11.377,40.241-9.286,24.376-16.674Zm-14.9,2.221,0,0L-933.88,390l37.677-11.369,23.582-15.052Zm-390.608.885,20.354,7.393,18.084-19.2-20.674-6.137Zm-459.647-14.783,25.033,22.1,49.479-24.761-22.2-23.788Zm246.266,5.161,19.406,15.4,34.172-6.768-19.085-15.157Zm501.627,5.179-22,10.215,28.909-1.14,21.587-10.18Zm-117.21-10.643-18.128,18.093,24.645-5.181,18.54-16.513Zm-226.958,5.216,18.568,12.769,17.45-11.786-18.22-8.469Zm-329.065-7.54,21.488,19.454,42.922-8.525-18.651-20.877Zm685.877,19.424,16.461-7.516-.414-.051Zm-364.1-3.2,1.845,1.656.146.086-1.877-1.729-2.189-1.945Zm-3.594-1.588,5.086,3.032-1.548-1.387-4.559-4.246h0l-6.222-5.406Zm47.049-6.132,19.677,8.873L-1284,363.841l-20.108-6.953Zm527.694-14.381-23.32,23.2,44.4-9.152,23.677-22.324Zm-1176.941-14.945,32.729,38.061,57.1-17.242-35.473-30.611Zm490.219,22.069,19.082,15.155,33.6-3.572-18.022-16.852Zm625.579-1.628-24.431,16.712,42.1-11.53,25.376-17.175Zm-33.993,3.586-.933.274,0,0-20.74,12.727,38.386-17.313h0l.008,0,18.7-6.1ZM-1124,379.624l26.224-2.088,19.162-13.554-26.84-.877Zm45.518-15.64-19.17,13.559,27.558,1.993,17.816-18.866Zm8.512,15.535,26.022-4.185,21.11-11-29.321-3.678Zm-150.318-1.131,21.586,1.1,19.932-16.937-21.4-.89Zm41.637-15.838-19.919,16.925,21.811-1.738,19.56-16.985Zm-208.783,5.2,18.713,11.153-7.324-8.1-.227-.25,0,0-17.993-7.108Zm515.3-4.387h0l-23.743,15.155,40.953-14.566,24.377-11.931ZM-1241.84,375.05l21.44,3.33,20.122-16.736-21.27-2.944Zm84.776-14.31L-1176.6,377.7l22.3-5.152,19.386-15.573Zm254.758,12.071-.749.291-13.7,3.8,4.9.477,18.355-7.98-8.427,3.267.1,0a.04.04,0,0,1,.039.04.04.04,0,0,1-.041.038h0Zm-682,3.807,34.583.723-17.478-19.641-34.755-.535Zm17.2-18.928,17.486,19.65,34.39-5.2-17.382-19.24Zm523.317,17.651,30.343,1.95,19.03-3.655-28.284-9.28Zm30.854,1.931,28.187-1.094.655.022,2.46-1.124-12.63-1.392Zm-432.768-16.906,18.022,16.852,40.131-9.454-7.106-4.481-12.741-8.04-.3-.175Zm503.985,13.585,3.251.834,21.5,2.094,13.887-3.852.435-.169-14.018,1.97h-.013l-20.526-2.92h-.006l-18.6-1.578Zm-680.447,1.366,37.75,1.3-17.65-19.453-38.734-2.705Zm238.027-10.588,7.906,5.748a.032.032,0,0,1,.011.007l.538.481,2.606,1.908,3.863,3.39,11.436-4.337-17.183-9.077Zm13.574,10.685-2.567-2.484-1.852-1.355Zm107.483-5.447,21.142,5.065,20.294-16.352-21-4.229Zm269.042,3.664,12.544,1.382,5.251-2.394a.039.039,0,0,1,.034-.006l21.671,1.154-20.68-4.649Zm77.373,1.12,14.341-2.015.014-.005-15.7-.436-18.538-.373Zm-25.482-.324,3.191.311-17.3-4.445h-.005l-.01,0-18.47-1.145,20.661,4.645,11.909.634h.008Zm-80.424-10.111,28.31,9.29,18.91-4.538-27.319-10.575Zm-317.156.091,18.215,8.465,17.318-16.007-18.173-4.469Zm204.983-7.459-19.364,15.555,23.428-5.849,19.2-14.4Zm195.209,14.3,2.339.579h.008l18.7.376-9.743-1.79h-.009l-17.8-3.275-18.59-2.1Zm-592.979-18.363,17.377,19.235,34.49-6.523-19.01-15.661Zm157.66,9.93,17.174,9.072,17.775-7.477-17.114-6.92Zm418.606,7.4,18.564,1.575-27.539-6.811-17.987-4.952ZM-1407.664,355l.305.182,12.736,8.036,9.87,3.9,8.231,3.253-7.728-5.62a.04.04,0,0,1-.019-.013l-9.507-6.912-1.428-.789a.033.033,0,0,1-.024-.014l-8.115-4.482-.015-.005a.055.055,0,0,1-.016-.012l-4.784-2.643a.037.037,0,0,1-.025-.013l-5.4-2.983a.038.038,0,0,1-.018-.009l0,0-4.541-2.507Zm461.634,12.067.007,0,17.2,3.165-24.361-7.757-22.519-.538Zm-29.187,1.975,18.7,1.162L-984,359.813l-18.419-1.3Zm-308.637-5.232,20.672,6.136,20.449-15.522-21.62-8.468Zm472.244-11.844L-837,369.148l43.222-10.695,25.917-16.516Zm-56.3,7.515-20.1,7.792,37.071-10.9.008,0h0l9.909-3.038L-829,345.562Zm-917.607-11.471,24.125,18.967,52.313-26.449-24.568-21.947Zm820.26,16.883.051.014,17.878,2.014-27.742-4.8ZM-1111.3,352.217l-19.217,14.412,25.035-3.6,18.96-15.279Zm-804.923-18.448,35.469,30.608,45.886,1.441-25.609-42.6Zm55.834-10.555,25.609,42.6,49.123-17.824-28-26.141Zm360.828,26.7,19.016,15.664,34.683-5.271-15.155-20.037-.225-.02Zm104.49,7.1,1.342.741,9.506,6.912,9.127-1.87-16.966-6.183Zm38.137.429,17.124,6.925,17.352-12.006-17.16-6.833Zm-352-16.891,22.2,23.783,45.775-9.952-18.2-25.579Zm656.923,20.043,29.3,3.677,19.883-5.818-27.965-6.246Zm-34.349-12.873-19,15.308,26.848.876,18.087-19.123Zm7.97,16.171,26.216-3.317,21.257-8.4-29.39-7.4Zm248.264-11.99-.016.006-24.365,11.924,42.871-11.945,25.342-13.976Zm-473.9,4.927,20.094,6.949,19.492-17.847-19.847-3.018Zm453.124-.39-.019.005-19.725,6.431,40.475-11.039,21.222-8.254-32.027,9.815-.024.015a.049.049,0,0,1-.023.005l-.013,0Zm-541.045.13,17,6.2,17.832-5.324-16.935-8.424Zm191.879,5.01,21.4.889,18.7-14.8-20.722-.924Zm40.221-13.908-18.685,14.787,21.441-1.8,19.051-15.546Zm172.1,10.366,3.01,1.354,8.709,2.456,22.385.534-16.5-3.127h0l-8.3-1.573Zm3.77,1.7h0l6.933,1.908-7.215-2.035Zm-237.471-1.1,21.257,2.942,19.379-14.837-20.426-1.752Zm99.177-16.657h-.009L-1137.9,345.1l-19.043,15.539,22.163-3.767,19.529-16.3Zm-323.5,18.32,37.971-5.294L-1427.5,343.26l-33.418-2.977Zm415.162-8.129,27.941,6.243h0l18.466,1.309-.562-.252-.006,0a.049.049,0,0,1-.015-.008l-3.138-1.411-.3.012h0a.04.04,0,0,1-.04-.038.04.04,0,0,1,.039-.04l.139-.005-1.517-.682-.221-.008a.04.04,0,0,1-.039-.04.039.039,0,0,1,.04-.037h.034l-16.51-7.422-1.132-.231a.039.039,0,0,1-.031-.046.039.039,0,0,1,.048-.03l.794.162-.661-.3-3.267-1.471Zm41.03,5.049,11.128.389h.02l7.837,1.486-12.6-4.595-22.747-4.639Zm-252.961-2.824,20.977,4.225,20.2-13.643-20.178-2.245Zm474.909-12.509-25.941,16.53,44.7-8.264,24.581-18.5Zm-220.276,16.086,8.41-.323-9.9-.346Zm-614.116-.886,34.764.537-16.754-24.026-34.544-.954Zm18.1-23.491,16.755,24.026,34.492-4.79-18-20.633Zm209.944,15.381,16.955,8.433,17.316-11.912-16.576-6.976Zm-266.9,5.4,38.747,2.706-16.531-24.44-40.4-3.83Zm245.686,2.579,2.965-.394-10.66-3.856Zm285.39-17.3-.016,0-5.279.888-19.53,16.3,23.286-4.7,20.148-15.627Zm-212.473,12.688,18.145,4.461,19.713-13.9-17.936-1.337Zm-85.8-2.506,4.755,2.626,11.256,4.073,17.918-7.563-15.926-9.833Zm-19.4-6.649h0l.005,0,19.529,11.648-10.452-10.607-29.531-8.806Zm163.236,2.731,21.575,8.452,20.983-11.654-19.872-2.242Zm435.56-.47-12.073,7.8,29.935-9.174,2.825-.864.011,0,2.312-1.278Zm-703.908,7.371,32.842-2.949-19.074-17.469-31.757-.2Zm193.046-7.335,17.152,6.828,19.922-10.772-18.139-5.656Zm279.373-.747,29.37,7.393,20.1-4.3-26.787-8.375Zm-30.865-8.245-20.146,15.624,24.775-4.465,21.3-13.026Zm305.11,1.3-25.448,14.033,43.694-10.013,23.693-16.369Zm-22.03,5.483h0l-21.029,8.179,43.031-13.735,20.358-10.383-42.356,15.937h0Zm-710.772-10.9,19.082,17.477,38.316-9.663-15.609-19.13-.652-.8Zm94.882,6.223,7.853,6.267,2.425,1.937,5.407,2.986,18-10.691-16.3-6.455Zm33.855.5,15.922,9.832,17.681-10.448-16.348-5.869Zm-423.591-17.276,27.991,26.129,51.855-29.42-28.256-13.088Zm727.362,25.8,25.875-2.931h0l22.657-5.279-27.26-4.8Zm-94.3-.948,20.632.921,23.5-7.63-8.46-.641h0l-12.295-.931Zm21.026.875,21.563-2.528,15.411-3.082-13.667-1.958Zm-18.844-7.964-22.679,5.34,20.291,1.741,17.238-6.111,6.066-2.147Zm-272.108-5.343,1.548.8,29.768,8.879.765.226.01,0,.011.006,4.372,2.415-9.858-7.867-.12-.1,0,0-15.7-7.861Zm166.374,8.625,19.7,3,22.578-5.418-19.054-1.69Zm-72.124-4.4,16.56,6.97,18.925-9.594-17.216-5.479Zm134.887,4.2,20.046,2.231,22.66-5.335-20.57-1.444Zm-239.928-2.5,27.2,2.425,6.268.556-21.155-8.033a.037.037,0,0,1-.01-.006l-12.394-6.431a.044.044,0,0,1-.014-.007l-14.942-7.753a.046.046,0,0,1-.014-.008l-1.126-.583Zm656.194,1.576a.04.04,0,0,1,.042.032.039.039,0,0,1-.033.044l-.415.064-2.033,1.123,37.562-14.134,4.941-1.858.014-.007,17.049-5.934-41.843,12.138-15.494,8.563.207-.031Zm-497.178-.251,17.907,1.335,23.318-4.129-20.209-7.6Zm60.88-1.085,19.783,2.233,22.175-4.555-19.951-3.33Zm96.5-1.165,8.657.656h0l13.892,1.992,7.168-1.431,5.131-.864-6.132-1.774-20.967-.8h0l-20.228-1.123Zm-175.652-3.418,18.128,5.654,21.047-10.406-18.584-4.391Zm-413.076-17.29L-1709,340.49l49.787-11.75-21.993-27.1Zm472.853,20.149,19.161,1.7,22.09-5.673-20.364-7.314Zm61.755-.626,20.615,1.446,20.461-3.668-19.989-4.109h0Zm21.251,1.411,20.555-1.158h0a.019.019,0,0,1,.01,0l11.886.9-12.431-3.332Zm-228.613-6.862,16.25,6.435,17.2-6.466-16.394-3.2Zm125.237-1.544,20.235,7.607,20.9-11.3-19.255-3.5Zm-142.831,7.473,17.28-5.92-16.329-1.657h0l-16.51-.213Zm51.3-5.972,16.324,5.86,18.25-8.095-16.8-4.381Zm153.464,2.145,19.979,3.334,21.119-6.341-19.218-2.873Zm483.224-15.273-.006,0-29,7.645-.006,0L-785.544,337.6l41.766-12.3,20.484-9.189Zm-421.754,16.365h.007l19.651,1.09-18.954-2.628-19.963-2.422Zm-180.129-5.485,17.206,5.475,20.581-9.139-17.833-4.5Zm107.329-3.064-4.13.065-5.009.073,20.289,7.289,21.843-5.871-19.059-1.766Zm-230.676,1.427,10.621,5.51,10.722-3.469-15.637-2.157h-.011Zm-487.659-14.856,32.511,19.873,55.749-10.548-33.419-23.8Zm364.84,19.687,33.233-1.395-19.885-20.545-32.049-2.744Zm-34.638-.954,34.538.953-18.707-24.692-34.2-4.081Zm195.807-1.66,16.352,1.66,17.055-3.233-15.206-6.387Zm-236.315-2.179,40.409,3.831-18.367-27.824-44.026-3.1Zm269.976.6,16.413,3.2,17.776-6.616-16.223-5.35Zm-181.387-17.768,19.894,20.557,31.782.2-13.6-29.965Zm51.76,20.751,41.089-12.1-22.06-9.241-12.238-3.227-.191.079a.033.033,0,0,1-.016,0,.04.04,0,0,1-.037-.022.038.038,0,0,1,.022-.051l.1-.041-17.062-4.5-.009,0-3.186-.838Zm241.1-9.1-22.032,3.444,18.5,4.371,21.783-7.154-18.249-.662Zm-177.621,5.3,15.656,2.158,16.546.213-13.568-9.015Zm32.338,2.368,18.167-7.946-15.8-.265-12.682-.638-3.251-.16Zm68.221-4.98,16.807,4.384,19.958-8.169-17.491-5.946Zm-32.612-5.083-17.112,2.1,15.188,6.381,17.915-8.737Zm-88.811.084,14.856,7.708,5.73-.115-12.709-9.445Zm20.709,7.584,18.548-6.613-16.205.508h-.01l-14.985-3.3Zm215.617-1.165,18.517-.279-10.054-.012-5.385-.007-18.112-2.535-2.483-.347Zm3.083-.374,5.076.006-3.785-.978-18.176-1.392Zm490.263-6.279-.02.006-17.5,6.09,27.526-7.257Zm-557.7-2.873-10.578,3.245-2.962,1.066,17.822,4.5,22.084-3.453-18.534-7.763Zm-48.3,2.165-18.484.595,16.124,5.318,12.506-6.313,6.584-3.326Zm74.816,3.173,17.874.651-15.764-2.884-20.255-5.367Zm-616.213-23.813,33.434,23.816,46.724-1.368-27.509-39.2Zm427.23,9.741,8.754,12.189,4.794,1.055,5.785-.181,11.149-1.928-11.055-12.334Zm19.885,13.045,10.109-.317h.005l3.244.163-2.691-1.689Zm128.906-.032,2.947-1.061-19.775-4.662Zm-523.282-39.518,27.508,39.2,51.567-16.371-31.367-23.221Zm343.349,19.277,7.8,13.136,7.494,3.138,14.221.862h.014l10.249,2.255-8.727-12.15-17.391,7.487a.04.04,0,0,1-.053-.02.039.039,0,0,1,.021-.051l17.378-7.482-10.041-15.913Zm20.239,18.346.007,0,1.282.665,7.724-1.816-13.739-.833Zm-284.326-14.772,28.239,13.08,52.345-16.9-30.073-15.095Zm250.013,2.285,12.148,3.2,9.608,4.024-7.756-13.055Zm-468.411-22.521,31.374,28.6,54.833-14.477-32.165-18Zm409.686,26.323,38.082-9.205-17.662-17.674-2.409-2.267-.549-.517-36.506-1.3Zm-53.7-27.868,21.548,25.124,32.055,2.744-19.044-30.959Zm147.537,9.44,10.048,15.92,19.4-1.2-11.562-10.209-16.642-4.166-1.062-.426Zm-160.287,11.591,34.184,4.08-21.532-25.106-38.838-6.1Zm189.856,3.133,1.563.76-11.345-9.4Zm-84.281-6.719.872.772,1.452,1.294,17.15,4.522,14.079-5.864-9.976-14.636-.324-.184Zm-261.862-18.922,31.351,23.209,50.506-18.916-32-14.042Zm82.079,4.312,30.066,15.09,44.024,3.1-26.192-27.131Zm178.834,15.814,3.1.818-1.339-1.193-.907-.8a.012.012,0,0,1-.006-.005l-17.644-15.621Zm24.624-15.114,9.952,14.6,20.944-8.723-11.714-7.935-.042-.027Zm-30.681-5.442,6.96,19.288,23.222-14.077-11.326-6.435h-.006Zm-90.959-18.823,12.974,4.05.006,0,.01,0,26.745,13.5,36.583,1.3h0a.043.043,0,0,1,.025.011l2.97,2.794,18.493,16.374-6.953-19.269-11.556-7.205L-1567.8,273l-.013,0-12.813-5.493-16.707-3.132-13.845-3.85,8.236,4.413.006,0,14.252,7.044.915.454,3.052,1.2.538.105a.039.039,0,0,1,.031.046.04.04,0,0,1-.04.031h-.014l-.106-.018.352.139,15.764-.968a.053.053,0,0,1,.022,0l15.2,8.5a.037.037,0,0,1,.014.053.04.04,0,0,1-.034.019.045.045,0,0,1-.02,0l-15.189-8.5-15.761.968a.037.037,0,0,1-.017,0l-.7-.277-9.457-1.6-.014,0-8.753-4.863-15.359-3.271-6.487-1.379-.789-.169-14.109-2.859Zm-296.695,18.374,32.161,18,52.641-16.754-31.208-14.845Zm449.318,11.734.154-.064-7.688-5.039Zm-31.35-6.107a.032.032,0,0,1,.005.022l.3.171,17.247-1.878-11.53.8a.056.056,0,0,1-.014,0l-17.119-5.4,11.055,6.28a.041.041,0,0,1,.021-.005A.042.042,0,0,1-1508.156,286.9Zm-235.178-14.522,31.973,14.029,47.889-8.944-33.386-13.645Zm118.979,11.178,34.51-3.085-26.627-13.445-37.913-7.9ZM-1696.7,263.8l33.376,13.639,38.819,6.1-30.04-24.442Zm-175.725,3.833,31.217,14.849,47.7-.388-27.932-32.581Zm51.081-18.13,27.937,32.586,49.852-9.748-31.057-25.43Zm282.791,31.995.042.117.046.029,15.54-1.008-10.073.418a.056.056,0,0,1-.016,0l-16.744-6.449,11.137,6.944-.008-.023a.037.037,0,0,1,.023-.049l.014,0A.039.039,0,0,1-1538.551,281.5Zm-416.832-21.018,29.164,20.738,53.578-13.6-29.542-13.556Zm362.517,11.561,7.731,1.515-2.665-1.053-14.729-7.282Zm-69.346-17.445.829,1.46,18.212,2.558h0l1.293.342,1.583.419,14.772,2.993,22.642,4.821.011,0,8.753,4.862,6.936,1.177-5.714-1.12a.039.039,0,0,1-.015-.006L-1602.98,265l-16.916-2.757a.045.045,0,0,1-.019-.009l-9.465-7.853-16.155-1.6,4.886,6.133.235.3a.036.036,0,0,1-.008.054.039.039,0,0,1-.023.008.04.04,0,0,1-.032-.014l-5.162-6.485Zm-81.241,17.725,46.46-8.556-31.672-12.41-45.806-4.432Zm-158.586-18.28,29.516,13.545,50.921-18.1-29.594-2.6h0Zm247.512,4.973h.005l37.288,7.772-12.22-3.815-10.859-3.522-2.869-.76-39.444-4.491Zm34.656,3.154,16.682,2.718-8.329-4.464a.035.035,0,0,1-.02-.038l-2.155-1.127-.009,0-15.49-4.817Zm-76.976,1.57,42.043-4.694-29.174-5h0l-44.437-2.677Zm-284.986-9.5,26.348,6.176,53.151-6.412-27.254-10.77Zm352.489.072,15.391,4.785-11.339-7.126-13.877-6.164Zm-54.62-.341,37.887,4.315-15.33-2.152h0l-.012,0-4.325-.608a.042.042,0,0,1-.022,0l-5.044-.709a.026.026,0,0,1-.013,0l-22.518-10.848a.05.05,0,0,1-.015-.008l-16.367-7.885-.008,0-.239-.115Zm18.415,1.5,4.068.572-.814-1.433Zm-21.771-12.6,2.026,4.877,14.5,6.987,5.045.708,3.411-.9-7.9-13.662Zm25.067,11.652,16.556-1.822-8.834-10.9-15.611-.923Zm16.652-1.829,16.121,1.6-9.932-8.6-14.994-3.865Zm-283.82-9.482,27.251,10.769,50.8-7.147-26.326-8.83Zm200.773,8.065,44.535,2.682-25.557-17.708-.744-.518-41.361-1.551-4.324-.164Zm89.275-5.649,0,0,13.541,6.015-12.329-7.435-12.174-7.884Zm-163.075-9.613,27.862,10.818,45.769,4.428-27.437-17.246Zm-48.5,10.817,29.531,2.6,46.643-2.587-27.861-10.816Zm157.748-2.894,7.8,3.757-2-4.812Zm-184.317-5.957,26.319,8.829,48.379-10.822-24.51-4.849Zm223.03,3.749,14.941,3.852L-1650.838,236l-13.6-5.98Zm-265.5-13.414-6.172,1.034-.288.083a.06.06,0,0,1-.018.005l-22.886,6.583h0l-27.55,7.925,22.934-1.057,50.2-17.3Zm207.275-1.581,3.041,9.267,16.353,7.878,5.89-1.071-7.5-17.162Zm-241.026,16.159,24.155.257,51.758-5.211-25.485-12.422Zm266.391-.1,17.07-1.992-8.857-14.341-15.706-.816Zm17.159-2,15.591.923-10-11.772-14.433-3.463Zm-232.958-15.286,25.467,12.413,50.153-6.838-23.457-6.263-.661-.176-14.717.247h-.009l-16.532.277h-.013Zm122.431,2.98h0l.006,0,28.942,5.611,41.369,1.552a.037.037,0,0,1,.014,0l.008,0h0l.6.29-3.024-9.214-19.473,1.33,1.447,5.531a.038.038,0,0,1-.029.046l-.01,0a.04.04,0,0,1-.04-.03l-1.45-5.544-21.06.793.709,2.5a.037.037,0,0,1-.028.047l-.011,0a.039.039,0,0,1-.038-.029l-.716-2.526-20.319-2.558,1.139,3.027a.037.037,0,0,1-.024.049l-.013,0a.038.038,0,0,1-.037-.025l-1.157-3.073-17.981-8.339,4.161,10.93,6.99-.387h.018Zm-46.3,2.629,24.392,4.826,46.1-2-24.172-5.377-.027-.005-7.006.386h0l-.014,0h-.009l-16.9.932-.01,0h-.007l-7.213.4-.012,0h0Zm162.468-1.238,13.32,5.858-13.035-8.468-12.452-7.64Zm-91.686,4.055,3.968.148-25.662-4.975Zm-71.088-2.877,15.033-.828-10-1.42h-.007a.037.037,0,0,1-.017,0l-24.632-3.5h0l-.013,0-4.034-.572Zm5.059-2.321,10.366,1.471,7.181-.4-.336-1.121-20.191-17.062Zm143.178-2.347,14.364,3.447-12.441-10.48,0,0h0l-13.236-5.8Zm-125.55,3.418,1.735-.1-2.054-.972Zm-.348-1.167,2.247,1.063,14.932-.823-4.181-10.984-19.4-11.378Zm-159.7-27.142,7.882,17.5,30.336,10.355.29-.085,6.145-1.031.133-26.877Zm211.257,27.291,21.059-.794-5.986-21.281-20.955-.544Zm-20.412-2.565,20.328,2.56-5.881-22.618-22.161-1.6Zm-77.578-2.731,4.482,1.741,24.589,3.491-2.991-17.171-29.668-13.832Zm26.149-11.99,20.177,17.051-6.392-22.1-22.142-15.877Zm-94.683,16.724,16.634-2.791h.012l17.365-.292-2.638-3.559-31.239-20.187Zm187.665-.237,19.467-1.328L-1720,207.438l-18.276-.718Zm19.551-1.334,17.773-1.086-9.257-16.2-15.687-1.928Zm17.861-1.09,15.677.814-11.375-12.9-13.541-4.082Zm-97.048-7.726,17.985,8.343-7.7-21.634-19.406-7.628Zm-59.05,6.82,3.7.525-4.114-1.6Zm-34.871.48,2.807-.047-5.357-3.393Zm-2.678-3.614,5.628,3.564,14.768-.247-1.339-2.47-28.85-17.363Zm20.484,3.315,1.569-.026-2.838-2.314Zm-1.365-2.518,3.054,2.49,14.714-.247h.012l.006,0,.554.078-.422-1.1-25.16-21.279Zm-7.3-20.206,25.192,21.306-3.586-25.744-29.4-18.085Zm-21.7,2.755,28.885,17.383-7.257-20.091-28.981-18.525Zm-21.426-3.571,26,16.8,5.15,3.326-9.788-16.507-27.415-25.826Zm229.283,12.108h0l.014.007,12.938,5.668-15.028-9.6-13-6.7Zm-120.877-7,19.378,11.364-9.117-20.9-17.613-13.326Zm107.243,2.89,13.4,4.039-15.343-10.811-11.364-6.539Zm-150.845-11.669,29.642,13.819-8.368-20.953-25.394-19.894Zm135.077,9.731,15.639,1.922-13.437-13.443-.018-.01-11.641-6.093Zm-18.354-.723,18.262.717-9.49-17.686-.247-.168-15.672-3.535Zm-21.035-.548,20.95.545-7.153-20.687-20.279-2.594Zm-74.347-15.643,22.153,15.888-7.357-22.875-19.727-19.031Zm52.1,14.035,22.167,1.6-6.484-22.741-23.418-2.792Zm-144.337-25.535,26.114,24.6,1.284,1.211-7.339-21.191-28.637-23.518Zm124.825,17.872,19.418,7.633-7.73-23.916-22.019-6.466Zm-104.7-13.3,28.98,18.523-7.8-22.519-28.493-20.423Zm-65.588-1.263,6.66,19.16,44.807-.133-6.07-22.275Zm86.839-2.782,29.43,18.1-4.121-27.042-33.712-15.782Zm65.726,3.937,17.589,13.309-10.3-22.69-17.109-14.261Zm89.348,6.2,6.233,3.262-5.668-3.058-.58-.234Zm-129.7-19.127,25.387,19.887-4.933-26.034-28.868-17.334Zm113.678,15.391,15.536,3.5-17.223-11.733-12.766-6.7Zm-20.363-2.605,20.235,2.588-14.54-15.017-18.446-4.982Zm-168.723-23.382,28.667,23.545-7.307-24.411-27.538-24.19Zm95.929,4.4,19.681,18.985-9.813-23.615,0,0-18.116-16.683-1.79-1.648Zm49.289,16.178,23.4,2.789-12.767-17.43-23.76-5.08Zm-182.048,1.714,45.386-3.249-8.617-18.987-40.128-7.062Zm159.925-8.208,22.007,6.463-13.124-19.715-23.837-7.087Zm-101.663-14.994,28.486,20.417-8.392-24.7-29.049-22.667Zm84.431.633,16.984,14.155-14.836-20.175-14.832-9.23,0,0-4.742-2.95Zm-64.267-4.959,33.709,15.78-8.42-23.5-28.43-23.656Zm114.3,11.1,16.921,4.57-21.047-6.725-7.483-3.681Zm-23.872-5.1,23.567,5.038-19.449-9.775-21.1-6.043Zm-65.066-13.765,28.859,17.329-9.435-21.581-.63-1.439-28.136-19.433Zm41.1,6.639,23.69,7.045-16.973-10.773-21.344-5.373Zm-148.259-.726,40.114,7.061-6.193-25.114-39.431-11.361Zm33.989-18.105,27.526,24.18-8.95-26.932-29.207-24.507Zm92.017,6.445.005.005,19.129,17.615-14.441-15.079-2.337-2.443-20.441-13.506Zm-73.375-9.243,29.082,22.693-3.143-31.378-38.855-16.483Zm26-8.741h0l28.4,23.632-9.332-25.1-36.97-14.765Zm19.123-1.527h0l26.323,18.179-17.358-12.867-.006-.005-24.493-18.259Zm-74.459-14.346,29.177,24.483-12.874-25.088-31.945-24.734Zm16.367-.659,34.992,14.845,3.755,1.592-17.892-16.223,0,0-8.27-8.624-19.212-20.032Zm20.9.151,36.954,14.76-16.454-13.721h0l-28.652-9.542Zm-53.027-25.019,32.026,24.8-6.64-28.481-39.432-23.4Z" transform="translate(1990.532 -50.397)" fill="none" stroke="#fff" stroke-width="1" opacity="0.1"/>
</svg>
