<svg xmlns="http://www.w3.org/2000/svg" xmlns:xlink="http://www.w3.org/1999/xlink" fill="none" version="1.1" width="86" height="86" viewBox="0 0 86 86"><defs><filter id="master_svg0_0_11800" filterUnits="objectBoundingBox" color-interpolation-filters="sRGB" x="-0.17647058823529413" y="-0.1323529411764706" width="1.3529411764705883" height="1.3529411764705883"><feFlood flood-opacity="0" result="BackgroundImageFix"/><feColorMatrix in="SourceAlpha" type="matrix" values="0 0 0 0 0 0 0 0 0 0 0 0 0 0 0 0 0 0 127 0"/><feOffset dy="3" dx="0"/><feGaussianBlur stdDeviation="3"/><feColorMatrix type="matrix" values="0 0 0 0 0 0 0 0 0 0 0 0 0 0 0 0 0 0 0.16078431904315948 0"/><feBlend mode="normal" in2="BackgroundImageFix" result="effect1_dropShadow"/><feBlend mode="normal" in="SourceGraphic" in2="effect1_dropShadow" result="shape"/></filter></defs><g><g filter="url(#master_svg0_0_11800)"><ellipse cx="43" cy="40" rx="34" ry="34" fill="#FFFFFF" fill-opacity="1" style="mix-blend-mode:passthrough"/></g><g><g><g><path d="M24.44616134765625,21.630670625Q16.68463134765625,29.392240625,16.68463134765625,40.369140625Q16.68463134765625,51.346040625,24.44616134765625,59.107640625Q32.207631347656246,66.869140625,43.18463134765625,66.869140625Q54.16163134765625,66.869140625,61.92313134765625,59.107640625Q69.68463134765625,51.346140625,69.68463134765625,40.369140625Q69.68463134765625,29.392140625,61.92313134765625,21.630670625Q54.16153134765625,13.869140625,43.18463134765625,13.869140625Q32.20773134765625,13.869140625,24.44616134765625,21.630670625ZM26.567481347656248,56.986340625Q19.68463134765625,50.103440625,19.68463134765625,40.369140625Q19.68463134765625,30.634840625000002,26.567481347656248,23.751990624999998Q33.45033134765625,16.869140625,43.18463134765625,16.869140625Q52.91893134765625,16.869140625,59.80183134765625,23.751990624999998Q66.68463134765625,30.634840625000002,66.68463134765625,40.369140625Q66.68463134765625,50.103440625,59.80183134765625,56.986340625Q52.91893134765625,63.869140625,43.18463134765625,63.869140625Q33.45033134765625,63.869140625,26.567481347656248,56.986340625Z" fill-rule="evenodd" fill="#3A3A3A" fill-opacity="1" style="mix-blend-mode:passthrough"/></g><g><path d="M40.495295162353514,48.92984443969726L55.49533516235351,33.929804439697264L53.37393516235352,31.808484439697267L39.434635162353516,45.74784443969727L32.995295162353514,39.30848443969727L30.873975162353517,41.42981443969727L38.37397516235352,48.92984443969726Q38.426085162353516,48.981944439697266,38.48304516235351,49.02864443969727Q38.54001516235351,49.075444439697264,38.60128516235351,49.116344439697265Q38.66255516235351,49.157244439697266,38.727545162353515,49.19204443969727Q38.792535162353516,49.22674443969727,38.86061516235352,49.25494443969727Q38.92869516235351,49.28314443969727,38.999215162353515,49.30454443969727Q39.06973516235352,49.32594443969727,39.14200516235351,49.34034443969726Q39.214275162353516,49.35474443969727,39.28761516235352,49.36194443969727Q39.36095516235351,49.369144439697266,39.43464516235352,49.369144439697266Q39.50833516235352,49.369144439697266,39.58166516235352,49.36194443969727Q39.65500516235352,49.35474443969727,39.727275162353514,49.34034443969726Q39.79954516235352,49.32594443969727,39.87006516235351,49.30454443969727Q39.940585162353514,49.28314443969727,40.008665162353516,49.25494443969727Q40.07674516235352,49.22674443969727,40.14173516235351,49.19204443969727Q40.206725162353514,49.157244439697266,40.267995162353515,49.116344439697265Q40.329265162353515,49.075444439697264,40.38622516235351,49.02864443969727Q40.44319516235352,48.981944439697266,40.495295162353514,48.92984443969726Z" fill-rule="evenodd" fill="#3A3A3A" fill-opacity="1" style="mix-blend-mode:passthrough"/></g></g></g></g></svg>