<svg xmlns="http://www.w3.org/2000/svg" xmlns:xlink="http://www.w3.org/1999/xlink" fill="none" version="1.1" width="86" height="86" viewBox="0 0 86 86"><defs><filter id="master_svg0_0_11817" filterUnits="objectBoundingBox" color-interpolation-filters="sRGB" x="-0.17647058823529413" y="-0.1323529411764706" width="1.3529411764705883" height="1.3529411764705883"><feFlood flood-opacity="0" result="BackgroundImageFix"/><feColorMatrix in="SourceAlpha" type="matrix" values="0 0 0 0 0 0 0 0 0 0 0 0 0 0 0 0 0 0 127 0"/><feOffset dy="3" dx="0"/><feGaussianBlur stdDeviation="3"/><feColorMatrix type="matrix" values="0 0 0 0 0 0 0 0 0 0 0 0 0 0 0 0 0 0 0.16078431904315948 0"/><feBlend mode="normal" in2="BackgroundImageFix" result="effect1_dropShadow"/><feBlend mode="normal" in="SourceGraphic" in2="effect1_dropShadow" result="shape"/></filter></defs><g><g filter="url(#master_svg0_0_11817)"><ellipse cx="43" cy="40" rx="34" ry="34" fill="#FFFFFF" fill-opacity="1" style="mix-blend-mode:passthrough"/></g><g><g><path d="M50.74849523773193,50.51767228851318C50.29709523773194,50.51767228851318,49.87349523773193,50.34147228851319,49.55369523773193,50.022672288513185C49.55369523773193,50.022672288513185,43.00048523773194,43.46907228851318,43.00048523773194,43.46907228851318C43.00048523773194,43.46907228851318,36.44775523773193,50.022672288513185,36.44775523773193,50.022672288513185C36.12792523773194,50.34147228851319,35.70312523773193,50.51767228851318,35.25073523773193,50.51767228851318C34.800045237731936,50.51767228851318,34.374999237731934,50.34147228851319,34.05517523773193,50.022672288513185C33.39672723773193,49.36287228851319,33.39672723773193,48.28987228851318,34.05517523773193,47.631172288513184C34.05517523773193,47.631172288513184,40.607665237731936,41.077632288513186,40.607665237731936,41.077632288513186C40.607665237731936,41.077632288513186,34.05419823773193,34.52514228851318,34.05419823773193,34.52514228851318C33.39672723773193,33.86645228851319,33.39672723773193,32.79339228851318,34.05419823773193,32.13366628851318C34.374022237731936,31.814757288513185,34.799075237731934,31.638670918513185,35.25073523773193,31.638670918513185C35.701905237731935,31.638670918513185,36.12670523773193,31.814757288513185,36.446535237731936,32.13366628851318C36.446535237731936,32.13366628851318,43.00048523773194,38.686152288513185,43.00048523773194,38.686152288513185C43.00048523773194,38.686152288513185,49.55369523773193,32.13262828851318,49.55369523773193,32.13262828851318C49.87349523773193,31.813780288513183,50.29709523773194,31.637572288513184,50.74849523773193,31.637572288513184C51.20039523773193,31.637572288513184,51.62519523773193,31.813780288513183,51.945095237731934,32.13366628851318C52.60399523773194,32.79242228851319,52.60399523773194,33.865412288513184,51.945095237731934,34.52411228851318C51.945095237731934,34.52411228851318,45.391595237731934,41.077632288513186,45.391595237731934,41.077632288513186C45.391595237731934,41.077632288513186,51.945095237731934,47.631172288513184,51.945095237731934,47.631172288513184C52.60399523773194,48.28987228851318,52.60399523773194,49.36287228851319,51.945095237731934,50.022672288513185C51.62519523773193,50.34147228851319,51.20039523773193,50.51767228851318,50.74849523773193,50.51767228851318C50.74849523773193,50.51767228851318,50.74849523773193,50.51767228851318,50.74849523773193,50.51767228851318Z" fill="#FA7052" fill-opacity="1" style="mix-blend-mode:passthrough"/><path d="" fill="#000000" fill-opacity="0" style="mix-blend-mode:passthrough"/></g><g><path d="M42.99996623382569,14.400389671325684C57.13786623382568,14.400389671325684,68.59866623382568,25.861189671325683,68.59866623382568,39.99898967132569C68.59866623382568,54.13688967132568,57.13786623382568,65.59768967132568,42.99996623382569,65.59768967132568C28.862166233825683,65.59768967132568,17.401366233825684,54.13688967132568,17.401366233825684,39.99898967132569C17.401366233825684,25.861189671325683,28.862166233825683,14.400389671325684,42.99996623382569,14.400389671325684C42.99996623382569,14.400389671325684,42.99996623382569,14.400389671325684,42.99996623382569,14.400389671325684ZM42.99996623382569,17.972299671325683C30.835066233825685,17.972299671325683,20.973276233825683,27.834089671325685,20.973276233825683,39.99898967132569C20.973276233825683,52.16398967132568,30.835066233825685,62.02578967132568,42.99996623382569,62.02578967132568C55.16496623382568,62.02578967132568,65.02676623382568,52.16398967132568,65.02676623382568,39.99898967132569C65.02676623382568,27.834089671325685,55.16496623382568,17.972299671325683,42.99996623382569,17.972299671325683C42.99996623382569,17.972299671325683,42.99996623382569,17.972299671325683,42.99996623382569,17.972299671325683Z" fill="#FA7052" fill-opacity="1" style="mix-blend-mode:passthrough"/></g></g></g></svg>