<svg xmlns="http://www.w3.org/2000/svg" xmlns:xlink="http://www.w3.org/1999/xlink" fill="none" version="1.1" width="86" height="86" viewBox="0 0 86 86"><defs><filter id="master_svg0_0_11833" filterUnits="objectBoundingBox" color-interpolation-filters="sRGB" x="-0.17647058823529413" y="-0.1323529411764706" width="1.3529411764705883" height="1.3529411764705883"><feFlood flood-opacity="0" result="BackgroundImageFix"/><feColorMatrix in="SourceAlpha" type="matrix" values="0 0 0 0 0 0 0 0 0 0 0 0 0 0 0 0 0 0 127 0"/><feOffset dy="3" dx="0"/><feGaussianBlur stdDeviation="3"/><feColorMatrix type="matrix" values="0 0 0 0 0 0 0 0 0 0 0 0 0 0 0 0 0 0 0.16078431904315948 0"/><feBlend mode="normal" in2="BackgroundImageFix" result="effect1_dropShadow"/><feBlend mode="normal" in="SourceGraphic" in2="effect1_dropShadow" result="shape"/></filter></defs><g><g filter="url(#master_svg0_0_11833)"><ellipse cx="43" cy="40" rx="34" ry="34" fill="#FFFFFF" fill-opacity="1" style="mix-blend-mode:passthrough"/></g><g><g><path d="M42.9998515625,16.673828125000004C55.8830515625,16.673828125000004,66.3267515625,27.117628125,66.3267515625,40.000828125C66.3267515625,52.884028125,55.8830515625,63.327728125,42.9998515625,63.327728125C30.1166515625,63.327728125,19.672851562500004,52.884028125,19.672851562500004,40.000828125C19.672851562500004,27.117628125,30.1166515625,16.673828125000004,42.9998515625,16.673828125000004C42.9998515625,16.673828125000004,42.9998515625,16.673828125000004,42.9998515625,16.673828125000004ZM42.9998515625,19.928758125C31.9144515625,19.928758125,22.9277815625,28.915428125,22.9277815625,40.000828125C22.9277815625,51.086228125,31.9144515625,60.072828125,42.9998515625,60.072828125C54.0852515625,60.072828125,63.0718515625,51.086228125,63.0718515625,40.000828125C63.0718515625,28.915428125,54.0852515625,19.928758125,42.9998515625,19.928758125C42.9998515625,19.928758125,42.9998515625,19.928758125,42.9998515625,19.928758125Z" fill="#3A3A3A" fill-opacity="1" style="mix-blend-mode:passthrough"/></g><g><path d="M53.16239179382325,41.32436101837158C53.149891793823244,41.15626101837158,53.09709179382324,40.99666101837158,53.00559179382324,40.84956101837158C52.83559179382324,40.56506101837158,52.54359179382324,40.345161018371584,52.24159179382325,40.27526101837158C52.132791793823245,40.250761018371584,52.023391793823244,40.238361018371585,51.91629179382324,40.238361018371585C51.68149179382324,40.238361018371585,51.461991793823245,40.29926101837158,51.280891793823244,40.41486101837158C51.12829179382324,40.51266101837158,50.76749179382324,40.785661018371584,50.70849179382324,41.206461018371584C50.60999179382324,41.89666101837158,50.429491793823246,42.57216101837158,50.17209179382324,43.214361018371584C49.89869179382325,43.84356101837158,49.551891793823245,44.43946101837158,49.14079179382324,44.98566101837158C48.741291793823244,45.48446101837158,48.288191793823245,45.93796101837158,47.79409179382324,46.33346101837158C47.24289179382324,46.74916101837158,46.64099179382324,47.100361018371586,46.00459179382324,47.377261018371584C45.37609179382324,47.62906101837159,44.721391793823244,47.80616101837158,44.05869179382324,47.90346101837159C43.725691793823245,47.942761018371584,43.38639179382324,47.96256101837158,43.05029179382324,47.96256101837158C42.713381793823245,47.96256101837158,42.372561793823245,47.94256101837158,42.037721793823245,47.90306101837158C41.36682179382324,47.80466101837158,40.70569179382324,47.62636101837158,40.07287179382324,47.37286101837158C39.438351793823244,47.09726101837158,38.83996179382324,46.74836101837158,38.29358179382324,46.33566101837158C37.80542179382324,45.94526101837158,37.35596179382324,45.49526101837158,36.95764179382324,44.99826101837158C36.540161793823245,44.44436101837158,36.189941793823245,43.84336101837158,35.91614179382324,43.21196101837158C35.66345179382324,42.58196101837158,35.48584179382324,41.92576101837158,35.38818179382324,41.261261018371584C35.30945179382324,40.59166101837158,35.30945179382324,39.91186101837158,35.38867179382324,39.24066101837158C35.487061793823244,38.56986101837158,35.66540179382324,37.90886101837158,35.918701793823246,37.27585101837158C36.194461793823244,36.64133101837158,36.54346179382324,36.04266101837158,36.956171793823245,35.49638101837158C37.346681793823244,35.008171018371584,37.796631793823245,34.55862101837158,38.293941793823244,34.16018101837158C38.84875179382324,33.74200101837158,39.44873179382324,33.39182101837158,40.07702179382324,33.119341018371586C40.70349179382324,32.86809101837158,41.35901179382324,32.69110101837158,42.025391793823246,32.59329101837158C42.35364179382324,32.554691018371585,42.68896179382324,32.53512101837158,43.02209179382324,32.53512101837158C43.359691793823245,32.53512101837158,43.701691793823244,32.55523101837158,44.038591793823244,32.59488101837158C44.716891793823244,32.69465101837158,45.38549179382324,32.87546101837158,46.025391793823246,33.13238101837158C46.650991793823245,33.40348101837158,47.24619179382324,33.750651018371585,47.794591793823244,34.164381018371586C47.98879179382324,34.31996101837158,48.177091793823244,34.484601018371585,48.35789179382324,34.65664101837158C48.16679179382324,34.656521018371585,47.97539179382324,34.65633101837158,47.783891793823244,34.65612101837158C47.32389179382324,34.655601018371584,46.86369179382324,34.65507101837158,46.40409179382324,34.65507101837158C46.40409179382324,34.65507101837158,45.771091793823246,34.65507101837158,45.771091793823246,34.65507101837158C45.43339179382324,34.65507101837158,45.09999179382324,34.80140101837158,44.856291793823246,35.056591018371584C44.62349179382324,35.30020101837158,44.50369179382324,35.60950101837158,44.51839179382324,35.927471018371584C44.533491793823245,36.25277101837158,44.664091793823246,36.55781101837158,44.88639179382324,36.78634101837158C45.119991793823246,37.02670101837158,45.43399179382324,37.15991101837158,45.771091793823246,37.161401018371585C46.33859179382324,37.161401018371585,46.92529179382324,37.161401018371585,47.50259179382324,37.163481018371584C47.96189179382324,37.163481018371584,48.421791793823246,37.16400101837158,48.88159179382325,37.164531018371584C49.34179179382324,37.165051018371585,49.801891793823245,37.16557101837158,50.26149179382324,37.16557101837158C50.26149179382324,37.16557101837158,50.89449179382324,37.16557101837158,50.89449179382324,37.16557101837158C50.99999179382324,37.16557101837158,51.10579179382324,37.15160101837158,51.20869179382324,37.12405101837158C51.32839179382324,37.09398101837158,51.43989179382324,37.045961018371585,51.53889179382324,36.98230101837158C51.54319179382324,36.97958101837158,51.54739179382324,36.97678101837158,51.55179179382324,36.97396101837158C51.55179179382324,36.97396101837158,51.55369179382324,36.97259101837158,51.55369179382324,36.97259101837158C51.92019179382324,36.74102101837158,52.14769179382324,36.335001018371585,52.14769179382324,35.912411018371586C52.14769179382324,35.34289101837158,52.14769179382324,34.75399101837158,52.14969179382324,34.17261101837158C52.14969179382324,33.714301018371586,52.15019179382324,33.25655101837158,52.15059179382324,32.79879101837158C52.15129179382324,32.34069101837158,52.15169179382325,31.88262101837158,52.15169179382325,31.424011018371584C52.15169179382325,31.424011018371584,52.15169179382325,30.789071018371583,52.15169179382325,30.789071018371583C52.15169179382325,30.469976018371582,52.01949179382324,30.150485018371583,51.78919179382324,29.912488018371583C51.556991793823244,29.67269501837158,51.244091793823245,29.535161018371582,50.93089179382324,29.535161018371582C50.91379179382324,29.535161018371582,50.89659179382324,29.53555774737158,50.879391793823245,29.53635120837158C50.18749179382324,29.568244018371583,49.64549179382324,30.118485018371583,49.64549179382324,30.789071018371583C49.64549179382324,31.333591018371582,49.64549179382324,31.89584101837158,49.64359179382324,32.45231101837158C49.16479179382324,32.04758101837158,48.65189179382324,31.689411018371583,48.113991793823246,31.384511018371583C46.55879179382325,30.501348018371583,44.799791793823246,30.034525018371582,43.02719179382324,30.034525018371582C42.991291793823244,30.034525018371582,42.95569179382324,30.034733018371583,42.92009179382325,30.035110018371583C41.98889179382324,30.044884018371583,41.05908179382324,30.184068018371583,40.156251793823245,30.44879901837158C39.251591793823245,30.714091018371583,38.39404179382324,31.099691018371583,37.60730179382324,31.594941018371582C36.82702179382324,32.087241018371586,36.11572179382324,32.681321018371584,35.49328179382324,33.36075101837158C34.86120179382324,34.05109101837158,34.33398179382324,34.81527101837158,33.92676179382324,35.63202101837158C33.09716779382324,37.29548101837158,32.72192399382324,39.11382101837158,32.84155289382324,40.89046101837158C32.97106979382324,42.81336101837158,33.610839793823246,44.628161018371586,34.69165179382324,46.13876101837158C35.795531793823244,47.68406101837158,37.248901793823244,48.87606101837159,38.894901793823244,49.585761018371585C39.79236179382324,49.97306101837158,40.63428179382324,50.22056101837158,41.46887179382324,50.342361018371584C42.043091793823244,50.42616101837158,42.57483179382324,50.46686101837158,43.09449179382324,50.46686101837158C43.47179179382324,50.46686101837158,43.845091793823244,50.44436101837158,44.20409179382324,50.399961018371584C45.203891793823246,50.27526101837158,46.08129179382324,50.05056101837158,46.88639179382324,49.71306101837158C47.43619179382324,49.48376101837158,47.88259179382324,49.263461018371586,48.292091793823246,49.01926101837158C48.739391793823245,48.75046101837158,49.19309179382324,48.42546101837158,49.64089179382324,48.053261018371586C51.152091793823246,46.79876101837158,52.29599179382324,45.03796101837158,52.861791793823244,43.09556101837158C52.98319179382324,42.68106101837158,53.07729179382324,42.246061018371584,53.14149179382324,41.80226101837158C53.18539179382324,41.64596101837158,53.19249179382324,41.485361018371584,53.16239179382325,41.32436101837158C53.16239179382325,41.32436101837158,53.16239179382325,41.32436101837158,53.16239179382325,41.32436101837158Z" fill="#3A3A3A" fill-opacity="1" style="mix-blend-mode:passthrough"/><path d="" fill="#000000" fill-opacity="0" style="mix-blend-mode:passthrough"/></g></g></g></svg>