<svg xmlns="http://www.w3.org/2000/svg" xmlns:xlink="http://www.w3.org/1999/xlink" fill="none" version="1.1" width="185.947265625" height="186.099609375" viewBox="0 0 185.947265625 186.099609375"><defs><filter id="master_svg0_0_13672" filterUnits="objectBoundingBox" color-interpolation-filters="sRGB" x="-0.07145101902142435" y="-0.05353958214138177" width="1.1429020380428487" height="1.1427722190436846"><feFlood flood-opacity="0" result="BackgroundImageFix"/><feColorMatrix in="SourceAlpha" type="matrix" values="0 0 0 0 0 0 0 0 0 0 0 0 0 0 0 0 0 0 127 0"/><feOffset dy="3" dx="0"/><feGaussianBlur stdDeviation="3"/><feColorMatrix type="matrix" values="0 0 0 0 0 0 0 0 0 0 0 0 0 0 0 0 0 0 0.16078431904315948 0"/><feBlend mode="normal" in2="BackgroundImageFix" result="effect1_dropShadow"/><feBlend mode="normal" in="SourceGraphic" in2="effect1_dropShadow" result="shape"/></filter></defs><g><g filter="url(#master_svg0_0_13672)"><path d="M60.681,174.1C46.9038,174.101,33.920100000000005,168.73,24.1677,158.977C4.54382,139.353,3.8794500000000003,107.972,22.655099999999997,87.5355C22.655099999999997,87.5355,23.484299999999998,86.675,23.484299999999998,86.675C23.484299999999998,86.675,50.8303,59.6263,50.8303,59.6263C56.3917,54.0328,63.0899,49.8685,70.4286,47.3563C71.4217,41.7499,73.9574,36.3684,78.0415,31.913C78.0415,31.913,79.0008,30.9227,79.0008,30.9227C79.0008,30.9227,89.2853,20.875999999999998,89.2853,20.875999999999998C98.8831,11.33654,111.824,6,125.57,6C139.317,6,152.257,11.33654,162.008,21.0265C182.07,41.4668,181.863,74.1585,161.768,94.1242C161.768,94.1242,134.777,121.116,134.777,121.116C129.125,126.776,122.384,130.961,115.023,133.475C114.031,139.084,111.494,144.469,107.409,148.926C107.409,148.926,106.4498,149.916,106.4498,149.916C106.4498,149.916,96.1654,159.963,96.1654,159.963C86.0564,169.266,73.651,174.1,60.681,174.1C60.681,174.1,60.681,174.1,60.681,174.1Z" fill="#232323" fill-opacity="1" style="mix-blend-mode:passthrough"/></g><g><path d="M80.83543359375,123.41241171875C80.83543359375,123.41241171875,70.31313359375,133.63751171875,70.31313359375,133.63751171875C64.56753359375,139.38351171875001,55.25203359375,139.38351171875001,49.50643359375,133.63751171875C43.76076359375,127.89181171875,43.76076359375,118.57631171875,49.50643359375,112.83071171875C49.50643359375,112.83071171875,76.49573359375,85.78191171875,76.49573359375,85.78191171875C81.99763359375001,80.26221171875,90.86153359375001,80.02681171875,96.64853359375,85.24691171875C96.64853359375,85.24691171875,97.36193359375,85.84141171875001,97.36193359375,85.84141171875001C99.70943359375,88.13961171874999,103.47553359375,88.09971171875,105.77373359375,85.75221171875C108.07203359375,83.40471171875001,108.03213359375,79.63861171875,105.68463359375,77.34031171875C105.34903359375,76.90651171875,104.99193359375,76.48991171875,104.61453359375,76.09201171875C94.08373359375,66.93001171875,78.25303359374999,67.50191171875,68.41083359375,77.39981171875C68.41083359375,77.39981171875,41.06480359375,104.44861171875,41.06480359375,104.44861171875C31.41025359375,114.95731171875,31.75431359375,131.20851171875,41.84498359375,141.29851171875C51.93563359375,151.38951171875,68.18653359375,151.73351171874998,78.69523359375,142.07951171874998C78.69523359375,142.07951171874998,88.97973359375,132.03251171875002,88.97973359375,132.03251171875002C91.08643359375,129.73411171875,91.05973359375,126.19881171875,88.91863359375,123.93271171875C86.77743359375,121.66651171875,83.24933359375001,121.43941171875,80.83543359375,123.41241171875C80.83543359375,123.41241171875,80.83543359375,123.41241171875,80.83543359375,123.41241171875ZM144.38543359375,38.75871171875C133.97483359375002,28.41311171875,117.16493359375,28.41311171875,106.75463359375,38.75871171875C106.75463359375,38.75871171875,96.47023359375001,48.80541171875,96.47023359375001,48.80541171875C94.36353359374999,51.10361171875,94.39023359375,54.638911718749995,96.53133359374999,56.90511171875C98.67253359375,59.17121171875,102.20053359375,59.39831171875,104.61453359375,57.425311718749995C104.61453359375,57.425311718749995,114.89903359375,47.20031171875,114.89903359375,47.20031171875C120.64463359375,41.45471171875,129.96013359375002,41.45471171875,135.70543359375,47.20031171875C141.45143359374998,52.94591171875,141.45143359374998,62.26141171875,135.70543359375,68.00701171875C135.70543359375,68.00701171875,108.71643359375,95.05581171875,108.71643359375,95.05581171875C103.21453359375,100.57561171875,94.35063359374999,100.81091171875,88.56363359375,95.59081171875C88.56363359375,95.59081171875,87.85023359375,94.99641171875,87.85023359375,94.99641171875C85.50273359375001,92.69811171875,81.73663359375,92.73801171875,79.43833359375,95.08551171875C77.14013359375,97.43301171875,77.18003359375,101.19911171875,79.52753359375001,103.49741171875C79.95933359375,103.93901171875,80.41583359375,104.35581171875,80.89483359375001,104.74581171875C91.43603359375,113.87821171875,107.24383359375,113.30711171875,117.09853359375,103.43791171875C117.09853359375,103.43791171875,144.14743359375,76.38921171875,144.14743359375,76.38921171875C154.55943359375,66.04441171875,154.66543359374998,49.23431171875,144.38543359375,38.75871171875C144.38543359375,38.75871171875,144.38543359375,38.75871171875,144.38543359375,38.75871171875Z" fill="#232323" fill-opacity="1" style="mix-blend-mode:passthrough"/></g><g><g><path d="M34.8051453125,148.36951171875C41.724445312499995,155.28951171875,50.9245453125,159.05251171875,60.7119453125,159.09951171875C69.9133453125,159.09951171875,78.7143453125,155.66951171875,85.7144453125,149.23251171875L96.3826453125,138.78951171875002C100.8363453125,133.93051171874998,101.7169453125,126.93351171875,99.0504453125,121.22751171875C108.5586453125,121.04251171875,117.4683453125,117.25141171875,124.2009453125,110.50901171875L151.2269453125,83.48301171874999C165.4909453125,69.31101171875,165.6369453125,46.10571171875,151.4649453125,31.66561171875C144.5439453125,24.78749171875,135.3589453125,20.99951171875,125.6009453125,20.99951171875C115.8435453125,20.99951171875,106.6581453125,24.78749171875,99.7980453125,31.60551171875L89.1298453125,42.04821171875C84.6813453125,46.90131171875,83.7973453125,53.88771171875,86.4525453125,59.58951171875C76.95554531249999,59.79061171875,68.0701453125,63.59171171875,61.4097453125,70.29021171875L33.7320553125,97.68311171875C20.4109753125,112.18281171875,20.8823553125,134.44751171874998,34.8051453125,148.36951171875Z" fill-rule="evenodd" fill="#68FE7F" fill-opacity="1" style="mix-blend-mode:passthrough"/></g><g><path d="M80.83497296905517,123.41241934814452C80.83497296905517,123.41241934814452,70.31267296905517,133.63751934814454,70.31267296905517,133.63751934814454C64.56707296905518,139.38351934814455,55.251572969055175,139.38351934814455,49.50597296905518,133.63751934814454C43.760302969055175,127.89181934814454,43.760302969055175,118.57631934814454,49.50597296905518,112.83071934814453C49.50597296905518,112.83071934814453,76.49527296905518,85.78191934814453,76.49527296905518,85.78191934814453C81.99717296905519,80.26221934814453,90.86107296905519,80.02681934814453,96.64807296905518,85.24691934814453C96.64807296905518,85.24691934814453,97.36147296905517,85.84141934814454,97.36147296905517,85.84141934814454C99.70897296905518,88.13961934814452,103.47507296905518,88.09971934814453,105.77327296905517,85.75221934814454C108.07157296905518,83.40471934814454,108.03167296905518,79.63861934814453,105.68417296905517,77.34031934814453C105.34857296905517,76.90651934814453,104.99147296905518,76.48991934814453,104.61407296905517,76.09201934814453C94.08327296905517,66.93001934814453,78.25257296905517,67.50191934814453,68.41037296905517,77.39981934814453C68.41037296905517,77.39981934814453,41.064342969055176,104.44861934814453,41.064342969055176,104.44861934814453C31.409792969055175,114.95731934814454,31.753852969055174,131.20851934814453,41.84452296905518,141.29851934814454C51.935172969055174,151.38951934814452,68.18607296905518,151.7335193481445,78.69477296905518,142.07951934814452C78.69477296905518,142.07951934814452,88.97927296905517,132.03251934814455,88.97927296905517,132.03251934814455C91.08597296905518,129.73411934814453,91.05927296905517,126.19881934814453,88.91817296905518,123.93271934814453C86.77697296905518,121.66651934814453,83.24887296905518,121.43941934814453,80.83497296905517,123.41241934814452C80.83497296905517,123.41241934814452,80.83497296905517,123.41241934814452,80.83497296905517,123.41241934814452ZM144.38497296905518,38.75871934814453C133.9743729690552,28.41311934814453,117.16447296905518,28.41311934814453,106.75417296905518,38.75871934814453C106.75417296905518,38.75871934814453,96.46977296905519,48.80541934814453,96.46977296905519,48.80541934814453C94.36307296905517,51.103619348144534,94.38977296905517,54.638919348144526,96.53087296905517,56.90511934814453C98.67207296905518,59.17121934814453,102.20007296905517,59.39831934814453,104.61407296905517,57.42531934814453C104.61407296905517,57.42531934814453,114.89857296905518,47.20031934814453,114.89857296905518,47.20031934814453C120.64417296905518,41.45471934814453,129.9596729690552,41.45471934814453,135.70497296905518,47.20031934814453C141.45097296905516,52.94591934814453,141.45097296905516,62.26141934814453,135.70497296905518,68.00701934814452C135.70497296905518,68.00701934814452,108.71597296905517,95.05581934814452,108.71597296905517,95.05581934814452C103.21407296905518,100.57561934814453,94.35017296905517,100.81091934814454,88.56317296905517,95.59081934814454C88.56317296905517,95.59081934814454,87.84977296905518,94.99641934814453,87.84977296905518,94.99641934814453C85.50227296905518,92.69811934814453,81.73617296905518,92.73801934814453,79.43787296905518,95.08551934814453C77.13967296905517,97.43301934814453,77.17957296905517,101.19911934814454,79.52707296905518,103.49741934814453C79.95887296905518,103.93901934814453,80.41537296905517,104.35581934814454,80.89437296905518,104.74581934814454C91.43557296905517,113.87821934814453,107.24337296905517,113.30711934814452,117.09807296905518,103.43791934814453C117.09807296905518,103.43791934814453,144.14697296905518,76.38921934814454,144.14697296905518,76.38921934814454C154.55897296905516,66.04441934814453,154.66497296905516,49.23431934814453,144.38497296905518,38.75871934814453C144.38497296905518,38.75871934814453,144.38497296905518,38.75871934814453,144.38497296905518,38.75871934814453Z" fill="#232323" fill-opacity="1" style="mix-blend-mode:passthrough"/></g></g></g></svg>