<svg xmlns="http://www.w3.org/2000/svg" xmlns:xlink="http://www.w3.org/1999/xlink" fill="none" version="1.1" width="121.74951171875" height="121.8359375" viewBox="0 0 121.74951171875 121.8359375"><g><g><path d="M52.00866484375,85.1651C52.00866484375,85.1651,44.361164843750004,92.5966,44.361164843750004,92.5966C40.18536484375,96.7725,33.41496484375,96.7725,29.23906484375,92.5966C25.06320484375,88.4208,25.06320484375,81.6503,29.23906484375,77.4744C29.23906484375,77.4744,48.85466484375,57.8155,48.85466484375,57.8155C52.85336484375,53.8038,59.29556484375,53.6328,63.50146484375,57.4267C63.50146484375,57.4267,64.01996484375,57.8587,64.01996484375,57.8587C65.72616484375,59.5291,68.46326484375,59.5001,70.13366484375,57.7939C71.80396484375001,56.0878,71.77496484375,53.3506,70.06886484374999,51.6802C69.82496484375,51.3649,69.56546484375,51.0621,69.29116484375001,50.7729C61.63746484375,44.1141,50.13186484375,44.5297,42.97856484375,51.7234C42.97856484375,51.7234,23.103794843750002,71.3823,23.103794843750002,71.3823C16.08696484375,79.02000000000001,16.33702484375,90.831,23.67083484375,98.1649C31.00466484375,105.4987,42.81566484375,105.7488,50.45326484375,98.7319C50.45326484375,98.7319,57.92796484375,91.4301,57.92796484375,91.4301C59.45906484375,89.7597,59.43966484375,87.1903,57.88346484375,85.5433C56.32736484375,83.8962,53.76316484375,83.7312,52.00866484375,85.1651C52.00866484375,85.1651,52.00866484375,85.1651,52.00866484375,85.1651ZM98.19596484375,23.63934C90.62986484375,16.12022,78.41266484375001,16.12022,70.84656484375,23.63934C70.84656484375,23.63934,63.37186484375,30.941200000000002,63.37186484375,30.941200000000002C61.84076484375,32.611599999999996,61.86016484375,35.181,63.41636484375,36.828C64.97246484375,38.475,67.53666484375,38.640100000000004,69.29116484375001,37.2061C69.29116484375001,37.2061,76.76576484374999,29.7746,76.76576484374999,29.7746C80.94166484375,25.59875,87.71206484375,25.59875,91.88786484375,29.7746C96.06376484375,33.9505,96.06376484375,40.721000000000004,91.88786484375,44.8969C91.88786484375,44.8969,72.27236484375,64.5557,72.27236484375,64.5557C68.27366484375,68.5675,61.83146484375,68.7385,57.62546484375,64.94460000000001C57.62546484375,64.94460000000001,57.10696484375,64.5125,57.10696484375,64.5125C55.40086484375,62.8422,52.66366484375,62.8712,50.99336484375,64.57730000000001C49.32296484375,66.2835,49.35206484375,69.0207,51.05816484375,70.691C51.37196484375,71.012,51.70376484375,71.3149,52.05186484375,71.5984C59.71316484375,78.23570000000001,71.20206484375001,77.8207,78.36436484375,70.64779999999999C78.36436484375,70.64779999999999,98.02316484375,50.9889,98.02316484375,50.9889C105.59026484375,43.4704,105.66746484375,31.2529,98.19596484375,23.63934C98.19596484375,23.63934,98.19596484375,23.63934,98.19596484375,23.63934Z" fill="#232323" fill-opacity="1" style="mix-blend-mode:passthrough"/><path d="M121.74846484375,37.463499999999996Q121.84646484375,22.040219999999998,111.04326484375,11.03186L104.76306484375,17.194857Q104.72286484375,17.154188,104.68186484375,17.112954L110.88426484375,10.87185Q99.94446484375,0,84.52126484375,0Q69.09806484375,0,58.26836484375,10.76346L50.43846484375,18.412342L50.10286484375,18.77841Q45.58836484375,23.70352,44.54786484375,29.9648Q36.56936484375,32.641,30.21486484375,39.0315L10.13965484375,58.8877L9.84853484375,59.2045Q-0.3079351562500001,70.2596,0.00986484375000174,85.2685Q0.32766484375000005,100.2775,10.94286484375,110.8928Q21.55816484375,121.508,36.56706484375,121.826Q51.57606484375,122.144,62.63106484375,111.9871L62.83416484375,111.8005L70.86136484375001,103.959L71.19686484375,103.593Q75.71126484375,98.668,76.75196484375,92.4069Q84.73266484375,89.7447,91.09236484375,83.3757L110.71006484375,63.7578Q121.65146484375,52.8868,121.74846484375,37.463499999999996Z" fill-rule="evenodd" fill="#232323" fill-opacity="1" style="mix-blend-mode:passthrough"/></g><g><g><path d="M18.55504671875,103.304521875C23.58388671875,108.333321875,30.27038671875,111.068421875,37.38388671875,111.102421875C44.07128671875,111.102421875,50.46778671875,108.609921875,55.55538671875,103.931221875L63.30898671875,96.341521875C66.54588671875,92.810221875,67.18588671875,87.724321875,65.24788671875001,83.577721875C72.15838671875,83.443321875,78.63388671875,80.687721875,83.52698671875,75.787421875L103.16918671875,56.145021875C113.53588671875,45.844921875,113.64288671875,28.979421875,103.34258671875,18.484501875C98.31238671875,13.485501875,91.63648671875,10.732421875,84.54468671875,10.732421875C77.45298671875,10.732421875,70.77708671875,13.485501875,65.79128671875,18.440761875L58.03768671875,26.030521874999998C54.80458671875,29.557621875,54.16208671875,34.635321875,56.09188671875,38.779421875C49.18948671875,38.925521875,42.73168671875,41.688121875,37.89098671875,46.556621875L17.77510671875,66.465621875C8.09348671875,77.003821875,8.43607671875,93.185421875,18.55504671875,103.304521875Z" fill-rule="evenodd" fill="#68FE7F" fill-opacity="1" style="mix-blend-mode:passthrough"/></g><g><path d="M52.00900864334106,85.16546525726318C52.00900864334106,85.16546525726318,44.36150864334107,92.59696525726318,44.36150864334107,92.59696525726318C40.185708643341066,96.77286525726318,33.41530864334106,96.77286525726318,29.239408643341065,92.59696525726318C25.063548643341065,88.42116525726318,25.063548643341065,81.65066525726319,29.239408643341065,77.47476525726319C29.239408643341065,77.47476525726319,48.855008643341066,57.815865257263184,48.855008643341066,57.815865257263184C52.853708643341065,53.804165257263186,59.295908643341065,53.63316525726319,63.501808643341064,57.42706525726318C63.501808643341064,57.42706525726318,64.02030864334107,57.85906525726318,64.02030864334107,57.85906525726318C65.72650864334106,59.52946525726318,68.46360864334106,59.50046525726319,70.13400864334106,57.794265257263184C71.80430864334107,56.088165257263185,71.77530864334106,53.350965257263184,70.06920864334106,51.68056525726318C69.82530864334106,51.36526525726318,69.56580864334106,51.062465257263185,69.29150864334107,50.77326525726318C61.63780864334107,44.114465257263184,50.132208643341066,44.53006525726318,42.978908643341065,51.72376525726318C42.978908643341065,51.72376525726318,23.104138643341066,71.38266525726318,23.104138643341066,71.38266525726318C16.087308643341064,79.0203652572632,16.337368643341065,90.83136525726319,23.671178643341065,98.16526525726319C31.005008643341064,105.49906525726318,42.816008643341064,105.74916525726319,50.45360864334106,98.73226525726318C50.45360864334106,98.73226525726318,57.92830864334106,91.43046525726318,57.92830864334106,91.43046525726318C59.459408643341064,89.76006525726318,59.440008643341066,87.19066525726318,57.88380864334106,85.54366525726319C56.32770864334106,83.89656525726318,53.76350864334106,83.73156525726318,52.00900864334106,85.16546525726318C52.00900864334106,85.16546525726318,52.00900864334106,85.16546525726318,52.00900864334106,85.16546525726318ZM98.19630864334107,23.639705257263184C90.63020864334106,16.120585257263183,78.41300864334107,16.120585257263183,70.84690864334107,23.639705257263184C70.84690864334107,23.639705257263184,63.37220864334106,30.941565257263186,63.37220864334106,30.941565257263186C61.841108643341066,32.61196525726318,61.86050864334106,35.18136525726318,63.41670864334107,36.82836525726319C64.97280864334107,38.475365257263185,67.53700864334107,38.64046525726319,69.29150864334107,37.20646525726318C69.29150864334107,37.20646525726318,76.76610864334106,29.774965257263183,76.76610864334106,29.774965257263183C80.94200864334107,25.599115257263183,87.71240864334106,25.599115257263183,91.88820864334106,29.774965257263183C96.06410864334106,33.95086525726318,96.06410864334106,40.72136525726319,91.88820864334106,44.897265257263186C91.88820864334106,44.897265257263186,72.27270864334106,64.55606525726319,72.27270864334106,64.55606525726319C68.27400864334106,68.56786525726318,61.83180864334106,68.73886525726319,57.62580864334107,64.94496525726319C57.62580864334107,64.94496525726319,57.107308643341064,64.51286525726319,57.107308643341064,64.51286525726319C55.401208643341064,62.84256525726318,52.66400864334106,62.871565257263185,50.993708643341066,64.57766525726319C49.323308643341065,66.28386525726319,49.352408643341064,69.02106525726319,51.058508643341064,70.69136525726319C51.372308643341064,71.01236525726318,51.704108643341065,71.31526525726318,52.05220864334107,71.59876525726318C59.713508643341065,78.23606525726319,71.20240864334107,77.82106525726319,78.36470864334106,70.64816525726317C78.36470864334106,70.64816525726317,98.02350864334106,50.989265257263185,98.02350864334106,50.989265257263185C105.59060864334107,43.47076525726318,105.66780864334106,31.253265257263184,98.19630864334107,23.639705257263184C98.19630864334107,23.639705257263184,98.19630864334107,23.639705257263184,98.19630864334107,23.639705257263184Z" fill="#232323" fill-opacity="1" style="mix-blend-mode:passthrough"/></g></g></g></svg>