<svg xmlns="http://www.w3.org/2000/svg" xmlns:xlink="http://www.w3.org/1999/xlink" fill="none" version="1.1" width="185.947265625" height="186.099609375" viewBox="0 0 185.947265625 186.099609375"><defs><filter id="master_svg0_0_13607" filterUnits="objectBoundingBox" color-interpolation-filters="sRGB" x="-0.07145101902142435" y="-0.05353958214138177" width="1.1429020380428487" height="1.1427722190436846"><feFlood flood-opacity="0" result="BackgroundImageFix"/><feColorMatrix in="SourceAlpha" type="matrix" values="0 0 0 0 0 0 0 0 0 0 0 0 0 0 0 0 0 0 127 0"/><feOffset dy="3" dx="0"/><feGaussianBlur stdDeviation="3"/><feColorMatrix type="matrix" values="0 0 0 0 0 0 0 0 0 0 0 0 0 0 0 0 0 0 0.16078431904315948 0"/><feBlend mode="normal" in2="BackgroundImageFix" result="effect1_dropShadow"/><feBlend mode="normal" in="SourceGraphic" in2="effect1_dropShadow" result="shape"/></filter></defs><g><g filter="url(#master_svg0_0_13607)"><path d="M60.681,174.1C46.9038,174.101,33.920100000000005,168.73,24.1677,158.977C4.54382,139.353,3.8794500000000003,107.972,22.655099999999997,87.5355C22.655099999999997,87.5355,23.484299999999998,86.675,23.484299999999998,86.675C23.484299999999998,86.675,50.8303,59.6263,50.8303,59.6263C56.3917,54.0328,63.0899,49.8685,70.4286,47.3563C71.4217,41.7499,73.9574,36.3684,78.0415,31.913C78.0415,31.913,79.0008,30.9227,79.0008,30.9227C79.0008,30.9227,89.2853,20.875999999999998,89.2853,20.875999999999998C98.8831,11.33654,111.824,6,125.57,6C139.317,6,152.257,11.33654,162.008,21.0265C182.07,41.4668,181.863,74.1585,161.768,94.1242C161.768,94.1242,134.777,121.116,134.777,121.116C129.125,126.776,122.384,130.961,115.023,133.475C114.031,139.084,111.494,144.469,107.409,148.926C107.409,148.926,106.4498,149.916,106.4498,149.916C106.4498,149.916,96.1654,159.963,96.1654,159.963C86.0564,169.266,73.651,174.1,60.681,174.1C60.681,174.1,60.681,174.1,60.681,174.1Z" fill="#232323" fill-opacity="1" style="mix-blend-mode:passthrough"/></g><g><g><path d="M34.8051453125,148.37C41.724445312499995,155.29,50.9245453125,159.053,60.7119453125,159.1C69.9133453125,159.1,78.7143453125,155.67,85.7144453125,149.233L96.3826453125,138.79000000000002C100.8363453125,133.93099999999998,101.7169453125,126.934,99.0504453125,121.228C108.5586453125,121.043,117.4683453125,117.2519,124.2009453125,110.5095L151.2269453125,83.48349999999999C165.4909453125,69.3115,165.6369453125,46.1062,151.4649453125,31.6661C144.5439453125,24.78798,135.3589453125,21,125.6009453125,21C115.8435453125,21,106.6581453125,24.78798,99.7980453125,31.606L89.1298453125,42.0487C84.6813453125,46.9018,83.7973453125,53.8882,86.4525453125,59.59C76.95554531249999,59.7911,68.0701453125,63.5922,61.4097453125,70.2907L33.7320553125,97.6836C20.4109753125,112.1833,20.8823553125,134.44799999999998,34.8051453125,148.37Z" fill-rule="evenodd" fill="#68FE7F" fill-opacity="1" style="mix-blend-mode:passthrough"/></g><g><path d="M80.83497296905517,123.41290762939452C80.83497296905517,123.41290762939452,70.31267296905517,133.63800762939454,70.31267296905517,133.63800762939454C64.56707296905518,139.38400762939455,55.251572969055175,139.38400762939455,49.50597296905518,133.63800762939454C43.760302969055175,127.89230762939454,43.760302969055175,118.57680762939454,49.50597296905518,112.83120762939453C49.50597296905518,112.83120762939453,76.49527296905518,85.78240762939453,76.49527296905518,85.78240762939453C81.99717296905519,80.26270762939453,90.86107296905519,80.02730762939453,96.64807296905518,85.24740762939453C96.64807296905518,85.24740762939453,97.36147296905517,85.84190762939454,97.36147296905517,85.84190762939454C99.70897296905518,88.14010762939452,103.47507296905518,88.10020762939453,105.77327296905517,85.75270762939454C108.07157296905518,83.40520762939454,108.03167296905518,79.63910762939453,105.68417296905517,77.34080762939453C105.34857296905517,76.90700762939453,104.99147296905518,76.49040762939453,104.61407296905517,76.09250762939453C94.08327296905517,66.93050762939453,78.25257296905517,67.50240762939453,68.41037296905517,77.40030762939453C68.41037296905517,77.40030762939453,41.064342969055176,104.44910762939453,41.064342969055176,104.44910762939453C31.409792969055175,114.95780762939454,31.753852969055174,131.20900762939453,41.84452296905518,141.29900762939454C51.935172969055174,151.39000762939452,68.18607296905518,151.7340076293945,78.69477296905518,142.08000762939452C78.69477296905518,142.08000762939452,88.97927296905517,132.03300762939455,88.97927296905517,132.03300762939455C91.08597296905518,129.73460762939453,91.05927296905517,126.19930762939453,88.91817296905518,123.93320762939453C86.77697296905518,121.66700762939453,83.24887296905518,121.43990762939453,80.83497296905517,123.41290762939452C80.83497296905517,123.41290762939452,80.83497296905517,123.41290762939452,80.83497296905517,123.41290762939452ZM144.38497296905518,38.75920762939453C133.9743729690552,28.41360762939453,117.16447296905518,28.41360762939453,106.75417296905518,38.75920762939453C106.75417296905518,38.75920762939453,96.46977296905519,48.80590762939453,96.46977296905519,48.80590762939453C94.36307296905517,51.104107629394534,94.38977296905517,54.639407629394526,96.53087296905517,56.90560762939453C98.67207296905518,59.17170762939453,102.20007296905517,59.39880762939453,104.61407296905517,57.42580762939453C104.61407296905517,57.42580762939453,114.89857296905518,47.20080762939453,114.89857296905518,47.20080762939453C120.64417296905518,41.45520762939453,129.9596729690552,41.45520762939453,135.70497296905518,47.20080762939453C141.45097296905516,52.94640762939453,141.45097296905516,62.26190762939453,135.70497296905518,68.00750762939452C135.70497296905518,68.00750762939452,108.71597296905517,95.05630762939452,108.71597296905517,95.05630762939452C103.21407296905518,100.57610762939453,94.35017296905517,100.81140762939454,88.56317296905517,95.59130762939454C88.56317296905517,95.59130762939454,87.84977296905518,94.99690762939453,87.84977296905518,94.99690762939453C85.50227296905518,92.69860762939453,81.73617296905518,92.73850762939453,79.43787296905518,95.08600762939453C77.13967296905517,97.43350762939453,77.17957296905517,101.19960762939454,79.52707296905518,103.49790762939453C79.95887296905518,103.93950762939453,80.41537296905517,104.35630762939454,80.89437296905518,104.74630762939454C91.43557296905517,113.87870762939453,107.24337296905517,113.30760762939452,117.09807296905518,103.43840762939453C117.09807296905518,103.43840762939453,144.14697296905518,76.38970762939454,144.14697296905518,76.38970762939454C154.55897296905516,66.04490762939453,154.66497296905516,49.23480762939453,144.38497296905518,38.75920762939453C144.38497296905518,38.75920762939453,144.38497296905518,38.75920762939453,144.38497296905518,38.75920762939453Z" fill="#232323" fill-opacity="1" style="mix-blend-mode:passthrough"/></g></g></g></svg>