<svg xmlns="http://www.w3.org/2000/svg" xmlns:xlink="http://www.w3.org/1999/xlink" fill="none" version="1.1" width="205.54931640625" height="205.689453125" viewBox="0 0 205.54931640625 205.689453125"><defs><mask id="master_svg0_0_11491" style="mask-type:alpha" maskUnits="objectBoundingBox"><g><rect x="2.5" y="2.5" width="200.54931640625" height="200.68917846679688" rx="0" fill="#FFFFFF" fill-opacity="1"/></g></mask></defs><g mask="url(#master_svg0_0_11491)"><g><path d="M179.67999050292968,200.64845923339843C179.67999050292968,200.64845923339843,144.70532050292968,200.64845923339843,144.70532050292968,200.64845923339843C143.1716705029297,200.64845923339843,141.9283905029297,199.40517923339843,141.9283905029297,197.87151923339843C141.9283905029297,196.33786923339844,143.1716705029297,195.09458923339844,144.70532050292968,195.09458923339844C144.70532050292968,195.09458923339844,179.67999050292968,195.09458923339844,179.67999050292968,195.09458923339844C181.2135905029297,195.09458923339844,182.4568905029297,196.33786923339844,182.4568905029297,197.87151923339843C182.4568905029297,199.40517923339843,181.2135905029297,200.64845923339843,179.67999050292968,200.64845923339843C179.67999050292968,200.64845923339843,179.67999050292968,200.64845923339843,179.67999050292968,200.64845923339843Z" fill="#68FE7F" fill-opacity="1" style="mix-blend-mode:passthrough"/></g><g><path d="M162.26076594238282,148.44170980834963C157.4359659423828,148.44170980834963,152.7646659423828,146.8247098083496,149.10498594238283,143.8896098083496C146.5984759423828,141.9358098083496,144.52715594238282,139.40980980834962,143.1137059423828,136.5829098083496C141.62784994238282,133.6112098083496,140.8744659423828,130.40550980834962,140.8744659423828,127.05500980834961C140.8744659423828,127.05500980834961,140.8744659423828,126.5077098083496,140.8744659423828,126.5077098083496C140.8744659423828,124.9740098083496,142.1177359423828,123.7308098083496,143.6513959423828,123.7308098083496C145.1850459423828,123.7308098083496,146.4283359423828,124.9740098083496,146.4283359423828,126.5077098083496C146.4283359423828,126.5077098083496,146.4283359423828,127.05500980834961,146.4283359423828,127.05500980834961C146.4283359423828,131.9591098083496,148.6531759423828,136.50220980834962,152.5324659423828,139.51940980834962C152.5324659423828,139.51940980834962,152.56746594238282,139.5471098083496,152.56746594238282,139.5471098083496C155.2468659423828,141.7012098083496,158.6893659423828,142.88740980834962,162.26076594238282,142.88740980834962C171.0276659423828,142.88740980834962,178.1600659423828,135.78500980834963,178.1600659423828,127.05500980834961C178.1600659423828,127.05500980834961,178.1600659423828,68.00980980834962,178.1600659423828,68.00980980834962C178.1600659423828,63.77100980834961,176.5051659423828,59.78160980834961,173.5000659423828,56.77660980834961C170.49016594238282,53.77215980834961,166.49806594238282,52.11657980834961,162.26076594238282,52.11657980834961C153.5307659423828,52.11657980834961,146.4283359423828,59.24620980834961,146.4283359423828,68.00980980834962C146.4283359423828,68.00980980834962,146.4283359423828,111.30390980834962,146.4283359423828,111.30390980834962C146.4283359423828,112.83760980834961,145.1850459423828,114.0809098083496,143.6513959423828,114.0809098083496C142.1177359423828,114.0809098083496,140.8744659423828,112.83760980834961,140.8744659423828,111.30390980834962C140.8744659423828,111.30390980834962,140.8744659423828,68.00980980834962,140.8744659423828,68.00980980834962C140.8744659423828,56.18383980834961,150.4683059423828,46.56270980834961,162.26076594238282,46.56270980834961C165.15466594238282,46.56270980834961,167.97066594238282,47.13588780834961,170.6303659423828,48.266339808349606C173.1790659423828,49.34959980834961,175.4652659423828,50.89098980834961,177.4254659423828,52.84760980834961C179.4035659423828,54.82565980834961,180.95416594238282,57.12840980834961,182.0361659423828,59.69370980834961C183.14946594238282,62.33330980834961,183.7139659423828,65.13130980834961,183.7139659423828,68.00980980834962C183.7139659423828,68.00980980834962,183.7139659423828,127.05500980834961,183.7139659423828,127.05500980834961C183.7139659423828,129.94220980834962,183.1472659423828,132.74380980834962,182.02966594238282,135.3819098083496C180.9501659423828,137.9301098083496,179.4048659423828,140.21730980834963,177.4367659423828,142.1801098083496C175.4682659423828,144.1432098083496,173.17426594238282,145.68450980834962,170.6184659423828,146.7607098083496C167.9717659423828,147.8757098083496,165.15986594238282,148.44170980834963,162.26076594238282,148.44170980834963C162.26076594238282,148.44170980834963,162.26076594238282,148.44170980834963,162.26076594238282,148.44170980834963Z" fill="#EAEAEA" fill-opacity="1" style="mix-blend-mode:passthrough"/></g><g><path d="M162.2607200439453,165.09848322753908C156.7490200439453,165.09848322753908,151.40092004394532,164.02088322753906,146.36502004394532,161.89548322753905C141.5137200439453,159.84808322753906,137.1398700439453,156.91268322753905,133.36483004394532,153.17078322753906C133.36483004394532,153.17078322753906,133.30861004394532,153.11498322753906,133.30861004394532,153.11498322753906C133.30861004394532,153.11498322753906,133.2556500439453,153.05618322753907,133.2556500439453,153.05618322753907C133.0754000439453,152.85588322753907,132.87172004394532,152.64788322753907,132.6560600439453,152.42768322753906C132.28955004394533,152.05348322753906,131.87414004394532,151.62928322753908,131.4677160439453,151.13248322753907C130.4965440439453,149.94558322753906,130.6714840439453,148.19598322753907,131.85847004394532,147.22488322753907C133.04546004394533,146.25368322753906,134.79498004394532,146.42858322753906,135.76616004394532,147.61558322753905C136.0155800439453,147.92048322753905,136.31113004394533,148.22218322753906,136.6240300439453,148.54178322753907C136.85239004394532,148.77488322753908,137.0879500439453,149.01548322753905,137.3270200439453,149.27808322753907C144.03352004394532,155.89888322753907,152.88562004394532,159.54458322753908,162.2607200439453,159.54458322753908C180.05522004394533,159.54458322753908,195.10892004394532,146.29368322753908,197.2768200439453,128.72187322753905C197.46462004394533,127.19974622753907,198.8508200439453,126.11807122753906,200.37292004394533,126.30586722753907C201.8950200439453,126.49364722753906,202.9767200439453,127.87980322753906,202.78892004394532,129.40193322753908C201.58232004394532,139.18178322753906,196.8277200439453,148.19898322753906,189.4011200439453,154.79248322753907C181.91532004394531,161.43838322753908,172.27672004394532,165.09848322753908,162.2607200439453,165.09848322753908C162.2607200439453,165.09848322753908,162.2607200439453,165.09848322753908,162.2607200439453,165.09848322753908Z" fill="#68FE7F" fill-opacity="1" style="mix-blend-mode:passthrough"/></g><g><path d="M162.28326239746093,198.39526877441406C160.74960239746093,198.39526877441406,159.50633239746094,197.15196877441406,159.50633239746094,195.61836877441408C159.50633239746094,195.61836877441408,159.50633239746094,145.68929877441406,159.50633239746094,145.68929877441406C159.50633239746094,144.15564877441406,160.74960239746093,142.91236877441406,162.28326239746093,142.91236877441406C163.81693239746093,142.91236877441406,165.06020239746093,144.15564877441406,165.06020239746093,145.68929877441406C165.06020239746093,145.68929877441406,165.06020239746093,195.61836877441408,165.06020239746093,195.61836877441408C165.06020239746093,197.15196877441406,163.81693239746093,198.39526877441406,162.28326239746093,198.39526877441406C162.28326239746093,198.39526877441406,162.28326239746093,198.39526877441406,162.28326239746093,198.39526877441406Z" fill="#EAEAEA" fill-opacity="1" style="mix-blend-mode:passthrough"/></g><g><path d="M180.9278786376953,85.41030005371094C180.9278786376953,85.41030005371094,166.3019086376953,85.41030005371094,166.3019086376953,85.41030005371094C164.7682586376953,85.41030005371094,163.5249786376953,84.16702005371094,163.5249786376953,82.63336005371093C163.5249786376953,81.09971005371094,164.7682586376953,79.85643005371094,166.3019086376953,79.85643005371094C166.3019086376953,79.85643005371094,180.9278786376953,79.85643005371094,180.9278786376953,79.85643005371094C182.4615786376953,79.85643005371094,183.7047786376953,81.09971005371094,183.7047786376953,82.63336005371093C183.7047786376953,84.16702005371094,182.4615786376953,85.41030005371094,180.9278786376953,85.41030005371094C180.9278786376953,85.41030005371094,180.9278786376953,85.41030005371094,180.9278786376953,85.41030005371094Z" fill="#EAEAEA" fill-opacity="1" style="mix-blend-mode:passthrough"/></g><g><path d="M180.9278786376953,114.6604602709961C180.9278786376953,114.6604602709961,166.3019086376953,114.6604602709961,166.3019086376953,114.6604602709961C164.7682586376953,114.6604602709961,163.5249786376953,113.4171802709961,163.5249786376953,111.88352027099609C163.5249786376953,110.34987027099609,164.7682586376953,109.1065902709961,166.3019086376953,109.1065902709961C166.3019086376953,109.1065902709961,180.9278786376953,109.1065902709961,180.9278786376953,109.1065902709961C182.4615786376953,109.1065902709961,183.7047786376953,110.34987027099609,183.7047786376953,111.88352027099609C183.7047786376953,113.4171802709961,182.4615786376953,114.6604602709961,180.9278786376953,114.6604602709961C180.9278786376953,114.6604602709961,180.9278786376953,114.6604602709961,180.9278786376953,114.6604602709961Z" fill="#EAEAEA" fill-opacity="1" style="mix-blend-mode:passthrough"/></g><g><path d="M158.261542578125,100.03567389404297C158.261542578125,100.03567389404297,143.635572578125,100.03567389404297,143.635572578125,100.03567389404297C142.101922578125,100.03567389404297,140.858642578125,98.79239389404297,140.858642578125,97.25873389404296C140.858642578125,95.72508389404297,142.101922578125,94.48180389404297,143.635572578125,94.48180389404297C143.635572578125,94.48180389404297,158.261542578125,94.48180389404297,158.261542578125,94.48180389404297C159.795242578125,94.48180389404297,161.038442578125,95.72508389404297,161.038442578125,97.25873389404296C161.038442578125,98.79239389404297,159.795242578125,100.03567389404297,158.261542578125,100.03567389404297C158.261542578125,100.03567389404297,158.261542578125,100.03567389404297,158.261542578125,100.03567389404297Z" fill="#EAEAEA" fill-opacity="1" style="mix-blend-mode:passthrough"/></g><g><path d="M158.26403168945313,129.2858341113281C158.26403168945313,129.2858341113281,136.82066168945312,129.2858341113281,136.82066168945312,129.2858341113281C135.28701168945312,129.2858341113281,134.04373168945312,128.04255411132812,134.04373168945312,126.50889411132812C134.04373168945312,124.97524411132812,135.28701168945312,123.73196411132812,136.82066168945312,123.73196411132812C136.82066168945312,123.73196411132812,158.26403168945313,123.73196411132812,158.26403168945313,123.73196411132812C159.7976316894531,123.73196411132812,161.04093168945312,124.97524411132812,161.04093168945312,126.50889411132812C161.04093168945312,128.04255411132812,159.7976316894531,129.2858341113281,158.26403168945313,129.2858341113281C158.26403168945313,129.2858341113281,158.26403168945313,129.2858341113281,158.26403168945313,129.2858341113281Z" fill="#68FE7F" fill-opacity="1" style="mix-blend-mode:passthrough"/></g><g><path d="M95.27877108383178,202.92611640625C93.01547108383178,202.92621640625,90.80177108383178,202.19571640625,89.02497108383179,200.85911640625C87.01627108383178,199.34791640625,85.6407710838318,197.15551640625,85.04727108383179,194.51861640625C85.04727108383179,194.51861640625,71.96607108383179,136.44081640625,71.96607108383179,136.44081640625C71.28007108383179,133.39214640625,68.98977108383178,132.33760640625,67.07477108383179,132.36740640625C65.15097108383179,132.39719640625,62.883671083831786,133.52774640625,62.28937108383179,136.61151640625C62.28937108383179,136.61151640625,56.47537108383179,166.75181640625,56.47537108383179,166.75181640625C56.00557108383179,169.18891640625,54.832671083831784,171.30181640625,53.08347108383179,172.86191640625C51.452171083831786,174.31681640624998,49.431371083831785,175.20911640625,47.23967108383179,175.44231640625C45.074571083831785,175.67261640625,42.94367108383179,175.23661640625,41.077171083831786,174.18131640625C39.072671083831786,173.04801640624999,37.506971083831786,171.25991640625,36.54937108383179,169.01021640625C35.33987108383179,166.17361640625,32.91897108383179,165.59811640625,31.056971083831787,166.00591640625C29.166171083831788,166.41991640625,26.991171083831787,168.07531640625,27.084071083831788,171.37791640625C27.084071083831788,171.37791640625,27.267271083831787,178.16341640625,27.267271083831787,178.16341640625C27.267271083831787,178.16341640625,27.228971083831787,178.41151640625,27.228971083831787,178.41151640625C26.762971083831786,181.42721640625,25.276371083831787,184.18421640625002,23.042871083831788,186.17481640625C20.779471083831787,188.19191640625002,17.887671083831787,189.30281640625,14.900171083831786,189.30281640625C14.900171083831786,189.30281640625,5.425201083831787,189.30281640625,5.425201083831787,189.30281640625C3.891551083831787,189.30281640625,2.648271083831787,188.05951640625,2.648271083831787,186.52591640625C2.648271083831787,184.99221640625,3.891551083831787,183.74901640625,5.425201083831787,183.74901640625C5.425201083831787,183.74901640625,14.900171083831786,183.74901640625,14.900171083831786,183.74901640625C18.236771083831787,183.74901640625,21.062871083831787,181.25811640625,21.701371083831788,177.79271640625C21.701371083831788,177.79271640625,21.532271083831787,171.53091640625001,21.532271083831787,171.53091640625001C21.45417108383179,168.75101640625002,22.282871083831786,166.21671640625,23.928971083831787,164.20501640625C25.422871083831787,162.37951640625,27.532271083831787,161.09231640625,29.868871083831788,160.58061640625C32.15267108383179,160.08041640625,34.53677108383179,160.35211640625,36.582271083831785,161.34551640625C38.839971083831784,162.44191640625002,40.59547108383179,164.33961640625,41.658871083831784,166.83341640625C42.74527108383179,169.38541640625,44.95027108383179,170.10071640625,46.65197108383179,169.91961640625C48.407371083831784,169.73281640625,50.47727108383179,168.52631640625,51.02197108383179,165.70031640625C51.02197108383179,165.70031640625,56.83597108383179,135.56001640624999,56.83597108383179,135.56001640624999C57.347071083831786,132.90775640625,58.65297108383179,130.67206640625,60.61237108383179,129.09516640625C62.395171083831784,127.66032640625,64.65977108383179,126.85024640625,66.9887710838318,126.81421640625C69.31377108383178,126.77821640625,71.59747108383179,127.51562640625,73.41917108383178,128.89052640625C75.42137108383179,130.40175640625,76.79247108383178,132.59078640625,77.38437108383178,135.22101640625C77.38437108383178,135.22101640625,90.46547108383179,193.29861640625,90.46547108383179,193.29861640625C91.15347108383179,196.35501640625,93.44967108383179,197.40681640625002,95.36917108383179,197.37141640625C97.29847108383179,197.33621640625,99.56637108383178,196.19571640625,100.14537108383179,193.10021640625C100.14537108383179,193.10021640625,108.58627108383179,147.96951640625,108.58627108383179,147.96951640625C109.23127108383179,144.52891640625,110.4322710838318,141.26851640625,112.15627108383178,138.27821640625C113.83727108383178,135.36171640625,115.96927108383179,132.78117640625,118.49127108383179,130.60831640625C121.02127108383179,128.42902640625,123.86427108383178,126.72951640625,126.93927108383178,125.55700640625C130.1072710838318,124.34922440625,133.43227108383178,123.73681640625,136.8222710838318,123.73681640625C138.35527108383178,123.73681640625,139.59927108383178,124.98009640625,139.59927108383178,126.51374640625C139.59927108383178,128.04740640625,138.35527108383178,129.29068640625,136.8222710838318,129.29068640625C125.76227108383179,129.29068640625,116.18427108383179,137.57601640625,114.04527108383179,148.99141640625C114.04527108383179,148.99141640625,105.60427108383179,194.12141640625,105.60427108383179,194.12141640625C105.10627108383179,196.78361640625002,103.80827108383178,199.03011640625,101.85107108383178,200.61821640624999C100.07037108383179,202.06281640625,97.80437108383178,202.88181640624998,95.47047108383178,202.92441640625C95.40667108383178,202.92551640624998,95.34257108383179,202.92611640625,95.27877108383178,202.92611640625C95.27877108383178,202.92611640625,95.27877108383178,202.92611640625,95.27877108383178,202.92611640625Z" fill="#68FE7F" fill-opacity="1" style="mix-blend-mode:passthrough"/></g><g><path d="M5.426648346390724,89.86511277871132C5.177388346390725,89.86511277871132,4.924238346390724,89.83131277871132,4.672488346390724,89.76041277871131C3.196230346390724,89.34471277871133,2.3365143463907243,87.81101277871132,2.7522323463907243,86.33471277871132C6.305418346390724,73.71691277871132,11.929688346390725,61.91031277871132,19.468758346390725,51.24291277871132C27.260258346390724,40.21831277871132,36.89275834639072,30.714212778711317,48.098758346390724,22.994412778711318C59.299958346390724,15.27801277871132,71.60415834639072,9.670452778711319,84.66975834639072,6.327562778711319C97.29825834639072,3.096497778711319,110.32655834639073,2.052635778711319,123.39255834639073,3.224946778711319C124.92055834639072,3.362016778711319,126.04755834639073,4.711402778711319,125.91055834639073,6.238942778711319C125.77355834639073,7.766462778711319,124.42355834639072,8.89364277871132,122.89655834639072,8.756592778711319C119.66155834639072,8.466362778711318,116.42055834639072,8.32234277871132,113.19055834639073,8.32234277871132C91.16105834639072,8.32234277871132,69.48045834639072,15.008912778711318,51.249458346390725,27.56811277871132C30.304858346390724,41.99671277871132,14.980058346390724,63.40181277871132,8.098158346390724,87.84021277871132C7.7533583463907245,89.06471277871132,6.6390583463907245,89.86511277871132,5.426648346390724,89.86511277871132C5.426648346390724,89.86511277871132,5.426648346390724,89.86511277871132,5.426648346390724,89.86511277871132Z" fill="#68FE7F" fill-opacity="1" style="mix-blend-mode:passthrough"/></g><g><path d="M35.42561099182129,94.48101927185058C35.13611099182129,94.48101927185058,34.84187099182129,94.43541927185058,34.55202099182129,94.33941927185059C33.09615199182129,93.85711927185059,32.30686999182129,92.28601927185059,32.78909999182129,90.83011927185058C35.64003099182129,82.22321927185058,39.80062099182129,74.19381927185059,45.15530099182129,66.9650192718506C50.69090099182129,59.49201927185059,57.40840099182129,53.00941927185059,65.1211009918213,47.69731927185059C72.8361009918213,42.38261927185059,81.28840099182129,38.41517927185058,90.24310099182128,35.905309271850584C98.90430099182129,33.47769127185059,107.8895009918213,32.450298271850585,116.94890099182129,32.851660971850585C118.48100099182129,32.919554271850586,119.66800099182129,34.216629271850586,119.60020099182128,35.74877927185059C119.53230099182129,37.28094927185059,118.23520099182129,38.46797927185059,116.70300099182128,38.40008927185059C99.31040099182128,37.62953927185059,82.56310099182129,42.42605927185058,68.27160099182129,52.27111927185059C53.981700991821285,62.11321927185058,43.53530099182129,76.05051927185059,38.06127099182129,92.57651927185059C37.67504099182129,93.74251927185058,36.59015099182129,94.48101927185058,35.42561099182129,94.48101927185058C35.42561099182129,94.48101927185058,35.42561099182129,94.48101927185058,35.42561099182129,94.48101927185058Z" fill="#EAEAEA" fill-opacity="1" style="mix-blend-mode:passthrough"/></g><g><path d="M63.200713338623046,105.99325123291015C62.94705333862305,105.99325123291015,62.68921333862305,105.95815123291015,62.43324333862304,105.88475123291016C60.95910533862305,105.46165123291016,60.10707233862305,103.92355123291016,60.53019333862305,102.44945123291015C62.25258333862305,96.44865123291015,64.94562333862305,90.84505123291015,68.53453333862305,85.79445123291015C72.24050333862304,80.57905123291016,76.82090333862305,76.07275123291015,82.14850333862304,72.40082123291016C87.47710333862304,68.73348123291015,93.33690333862305,66.06379123291016,99.56650333862305,64.46485123291015C105.58810333862306,62.91934523291015,111.78440333862304,62.41409523291016,117.98320333862304,62.96315123291016C119.51080333862305,63.09847023291016,120.63960333862305,64.44659123291015,120.50430333862305,65.97426123291015C120.36900333862305,67.50193123291015,119.02090333862304,68.63066123291016,117.49320333862305,68.49536123291016C106.13860333862306,67.48963123291016,94.70510333862305,70.50102123291016,85.29870333862304,76.97485123291015C75.77490333862305,83.53885123291016,69.05554333862304,92.87805123291015,65.86851333862305,103.98165123291015C65.51886333862305,105.19985123291016,64.40783333862305,105.99325123291015,63.200713338623046,105.99325123291015C63.200713338623046,105.99325123291015,63.200713338623046,105.99325123291015,63.200713338623046,105.99325123291015Z" fill="#68FE7F" fill-opacity="1" style="mix-blend-mode:passthrough"/></g><g><path d="M92.59863585449219,115.07895164794922C92.34532585449219,115.07895164794922,92.08778585449218,115.04405164794922,91.8321358544922,114.97075164794921C90.35785585449219,114.54815164794923,89.50525985449218,113.01045164794922,89.92783085449219,111.53615164794923C90.70761685449219,108.81565164794922,91.92850585449219,106.27405164794922,93.55660585449219,103.98215164794922C95.23774585449219,101.61562164794921,97.31474585449219,99.57153164794921,99.7299258544922,97.90669164794922C102.15192585449219,96.24285164794922,104.80972585449219,95.03279164794922,107.6332258544922,94.30759964794922C110.36672585449219,93.60550234794921,113.17812585449218,93.37621764794922,115.9893258544922,93.62609594794922C117.51692585449219,93.76188764794922,118.6452258544922,95.11035164794922,118.50942585449219,96.63799164794922C118.37362585449219,98.16562164794922,117.02512585449219,99.29392164794922,115.49752585449218,99.15814164794922C111.05472585449219,98.76322164794922,106.5732258544922,99.94364164794922,102.87842585449219,102.48191164794922C99.14735585449219,105.05375164794921,96.51402585449219,108.71475164794921,95.26671585449219,113.06645164794922C94.91741585449219,114.28505164794922,93.80617585449218,115.07895164794922,92.59863585449219,115.07895164794922C92.59863585449219,115.07895164794922,92.59863585449219,115.07895164794922,92.59863585449219,115.07895164794922Z" fill="#EAEAEA" fill-opacity="1" style="mix-blend-mode:passthrough"/></g></g></svg>