<svg xmlns="http://www.w3.org/2000/svg" xmlns:xlink="http://www.w3.org/1999/xlink" fill="none" version="1.1" width="181.2041015625" height="163.3583984375" viewBox="0 0 181.2041015625 163.3583984375"><g><g transform="matrix(0,-1,1,0,-128.1087646484375,198.1995849609375)"><g><path d="M53.52596945922851,298.5341748046875Q49.71537245922852,294.3571748046875,50.54549645922852,289.16717480468753Q50.90633145922852,286.9121748046875,53.19103945922851,285.3741748046875Q55.32030945922852,283.94117480468753,59.362559459228514,282.9761748046875Q62.833439459228515,282.1491748046875,68.47783945922852,281.5081748046875Q71.94033945922851,281.1151748046875,79.91063945922852,280.44117480468753Q87.99813945922853,279.7561748046875,92.34863945922851,279.3031748046875Q99.70583945922851,278.5361748046875,105.8057394592285,277.56617480468753Q121.59123945922852,275.0561748046875,133.71373945922852,270.4141748046875Q148.9547394592285,264.5781748046875,160.02303945922853,257.5304748046875Q160.28503945922853,263.3221748046875,159.4180394592285,268.7411748046875Q157.98203945922853,277.7191748046875,152.2720394592285,285.0921748046875Q147.01933945922852,291.8751748046875,138.4069394592285,296.99417480468753Q130.4597394592285,301.7191748046875,120.23983945922852,304.69617480468753Q110.69043945922851,307.4781748046875,100.21463945922852,308.44117480468753Q90.15893945922852,309.36417480468754,80.78253945922852,308.4811748046875Q71.43243945922852,307.6011748046875,64.39853945922852,305.0821748046875Q57.12221945922852,302.4761748046875,53.52596945922851,298.5341748046875ZM160.0000394592285,257.0703748046875Q148.9078394592285,264.1681748046875,133.57063945922852,270.04017480468747Q121.48753945922851,274.66717480468753,105.74293945922852,277.1711748046875Q99.65343945922851,278.1391748046875,92.30713945922852,278.9051748046875Q87.96053945922851,279.3581748046875,79.87693945922851,280.04217480468753Q71.90073945922852,280.7171748046875,68.43273945922851,281.1101748046875Q62.76423945922852,281.7541748046875,59.269749459228514,282.5871748046875Q55.15704945922852,283.5691748046875,52.96769945922851,285.04217480468753Q50.538810459228515,286.6771748046875,50.150516659228515,289.1041748046875Q49.28994545922851,294.48417480468754,53.23045945922851,298.8031748046875Q56.89373945922851,302.81917480468746,64.26373945922852,305.4581748046875Q71.34483945922852,307.99417480468753,80.74503945922851,308.8801748046875Q90.15823945922853,309.76617480468747,100.25123945922851,308.8391748046875Q110.76543945922852,307.8731748046875,120.35173945922851,305.0801748046875Q130.6201394592285,302.0891748046875,138.61133945922853,297.33817480468747Q147.28913945922852,292.1801748046875,152.58803945922853,285.3371748046875Q158.36003945922852,277.8831748046875,159.81303945922852,268.8041748046875Q160.70303945922853,263.23717480468747,160.4120394592285,257.28177480468753Q169.07603945922853,251.7109748046875,175.1490394592285,245.38727480468748Q187.3270394592285,232.7064748046875,188.4120394592285,217.8177748046875Q189.3510394592285,204.9213748046875,182.0060394592285,192.0633748046875Q178.7510394592285,186.3659748046875,174.12203945922852,181.2202748046875Q169.73203945922853,176.3407748046875,164.5490394592285,172.4388348046875Q158.74703945922852,168.0718348046875,152.8700394592285,165.5921548046875Q146.92343945922852,163.0829534046875,141.96713945922852,162.9602058046875Q136.73723945922853,162.8306808046875,133.42953945922852,165.3969848046875Q129.87023945922851,168.1585748046875,128.97843945922853,173.7345748046875Q128.14093945922852,178.9712748046875,131.74443945922852,187.5157748046875Q133.21913945922853,191.0123748046875,135.72703945922854,195.7978748046875Q137.2477394592285,198.69907480468748,140.67863945922852,204.8955748046875Q145.8782394592285,214.2861748046875,148.40033945922852,219.3103748046875Q152.6620394592285,227.8002748046875,155.24103945922852,234.95097480468752Q159.44903945922852,246.61627480468752,160.0000394592285,257.0703748046875ZM160.3870394592285,256.8215748046875Q168.88603945922853,251.3303748046875,174.86003945922852,245.1102748046875Q186.93903945922852,232.5333748046875,188.0130394592285,217.7886748046875Q188.94503945922852,205.0140748046875,181.65903945922852,192.2617748046875Q178.42503945922851,186.6016748046875,173.82403945922852,181.4877748046875Q169.4600394592285,176.6370748046875,164.3080394592285,172.7584248046875Q158.5460394592285,168.4211548046875,152.7140394592285,165.9606848046875Q146.83773945922852,163.4809548046875,141.9572394592285,163.3600828046875Q136.86973945922853,163.2340861046875,133.67473945922853,165.7130148046875Q130.24023945922852,168.3777448046875,129.3734394592285,173.7977748046875Q128.5539394592285,178.9214748046875,132.1130394592285,187.3602748046875Q133.58103945922852,190.8416748046875,136.0813394592285,195.6121748046875Q137.59983945922852,198.5093748046875,141.0285394592285,204.7018748046875Q146.2321394592285,214.0994748046875,148.75783945922853,219.1309748046875Q153.03003945922853,227.6419748046875,155.61703945922852,234.8152748046875Q159.7990394592285,246.4095748046875,160.3870394592285,256.8215748046875Z" fill-rule="evenodd" fill="#68FE7F" fill-opacity="1" style="mix-blend-mode:passthrough"/></g><g><path d="M48.005180768432616,289.2650410232544Q44.65573176843262,284.89204102325436,46.021661768432615,280.0200410232544Q46.61552076843262,277.9020410232544,49.04738076843262,276.6620410232544Q51.31596076843262,275.5050410232544,55.43799076843261,274.9890410232544Q58.97729076843262,274.54604102325436,64.65829076843262,274.5010410232544Q68.13439076843261,274.4730410232544,76.14069076843262,274.6290410232544Q84.26719076843261,274.7870410232544,88.62879076843262,274.79104102325437Q96.02479076843261,274.7970410232544,102.19279076843262,274.4820410232544Q118.15189076843262,273.6690410232544,130.69299076843262,270.4480410232544Q146.46099076843262,266.3996410232544,158.2069907684326,260.7715410232544Q157.8609907684326,266.3311410232544,156.43399076843264,271.42104102325436Q154.06799076843262,279.8590410232544,147.61999076843261,286.3340410232544Q141.68779076843262,292.2920410232544,132.5871907684326,296.3230410232544Q124.18759076843261,300.04304102325443,113.71329076843261,301.8620410232544Q103.92249076843262,303.5630410232544,93.40499076843261,303.4300410232544Q83.30919076843261,303.3030410232544,74.07359076843261,301.5160410232544Q64.86789076843262,299.7360410232544,58.13339076843262,296.61804102325436Q51.169260768432615,293.3950410232544,48.005180768432616,289.2650410232544ZM158.23299076843261,260.3155410232544Q146.45999076843262,265.9873410232544,130.59349076843262,270.0610410232544Q118.09149076843262,273.2710410232544,102.17239076843262,274.0830410232544Q96.01479076843262,274.39704102325436,88.62919076843261,274.3910410232544Q84.27099076843263,274.38704102325437,76.14849076843262,274.2290410232544Q68.13659076843263,274.0730410232544,64.65509076843261,274.1010410232544Q58.95059076843262,274.1460410232544,55.38831076843262,274.5920410232544Q51.19671076843262,275.1170410232544,48.86564076843262,276.3060410232544Q46.27769176843262,277.6260410232544,45.63656476843262,279.9120410232544L45.63654276843262,279.9120410232544Q44.21657076843262,284.9770410232544,47.687640768432615,289.5080410232544Q50.91170076843262,293.7170410232544,57.96539076843261,296.9810410232544Q64.74419076843262,300.11804102325436,73.99759076843262,301.9090410232544Q83.26819076843262,303.7020410232544,93.39999076843262,303.83004102325435Q103.95419076843262,303.96404102325437,113.78179076843261,302.2560410232544Q124.30449076843261,300.4280410232544,132.7491907684326,296.6880410232544Q141.91879076843261,292.6280410232544,147.9039907684326,286.6160410232544Q154.42499076843262,280.0670410232544,156.81899076843263,271.5290410232544Q158.2859907684326,266.2956410232544,158.6189907684326,260.5726410232544Q167.8159907684326,256.1170410232544,174.51599076843263,250.6813410232544Q187.95599076843263,239.7775410232544,190.59099076843262,225.6450410232544Q192.8739907684326,213.40284102325438,186.9109907684326,200.3647410232544Q184.26899076843262,194.58854102325438,180.2029907684326,189.2018410232544Q176.3459907684326,184.0934410232544,171.59999076843263,179.8417410232544Q166.2859907684326,175.0824110232544,160.70099076843263,172.1202910232544Q155.04999076843262,169.12349302325438,150.1349907684326,168.50816402325438Q144.94939076843264,167.8590140232544,141.3929907684326,169.9797410232544Q137.56309076843263,172.26352102325438,136.09159076843264,177.5096110232544Q134.70999076843262,182.4375410232544,137.40189076843262,190.9743410232544Q138.5031907684326,194.4667410232544,140.4974907684326,199.29574102325438Q141.70659076843262,202.2232410232544,144.47129076843262,208.49364102325438Q148.65999076843264,217.9931410232544,150.64399076843262,223.0537410232544Q153.9939907684326,231.5975410232544,155.81199076843262,238.69634102325438Q158.77599076843262,250.2681410232544,158.23299076843261,260.3155410232544ZM158.64399076843262,260.1164410232544Q167.67199076843264,255.7191410232544,174.26399076843262,250.3706410232544Q187.5889907684326,239.5598410232544,190.19799076843262,225.5717410232544Q192.4579907684326,213.4541410232544,186.5479907684326,200.5311410232544Q183.92399076843262,194.7945410232544,179.88299076843262,189.4428410232544Q176.04999076843262,184.3654410232544,171.33299076843264,180.1396410232544Q166.05599076843262,175.4129110232544,160.51299076843262,172.47367102325438Q154.92699076843263,169.5112750232544,150.08499076843262,168.9050660232544Q145.03629076843262,168.27300002325438,141.59789076843262,170.3233010232544Q137.90529076843262,172.5252810232544,136.47679076843264,177.6176010232544Q135.12709076843262,182.4307410232544,137.7833907684326,190.8540410232544Q138.87949076843262,194.3300410232544,140.86719076843264,199.1430410232544Q142.0742907684326,202.0660410232544,144.83729076843264,208.3322410232544Q149.0289907684326,217.8392410232544,151.01599076843263,222.9077410232544Q154.3749907684326,231.47464102325438,156.1999907684326,238.59714102325438Q159.14599076843263,250.1018410232544,158.64399076843262,260.1164410232544Z" fill-rule="evenodd" fill="#68FE7F" fill-opacity="1" style="mix-blend-mode:passthrough"/></g><g><path d="M43.483109433288575,279.8482497177124Q40.61281443328858,275.3352497177124,42.47807643328857,270.8204497177124L42.47809543328857,270.8204497177124Q43.28878943328857,268.8579497177124,45.83655943328857,267.9164497177124Q48.21444943328857,267.0378497177124,52.36923943328857,266.9583497177124Q55.93543943328857,266.89024971771244,61.59083943328858,267.4179497177124Q65.05173943328857,267.7407497177124,72.99713943328857,268.6946497177124Q81.05953943328858,269.66244971771243,85.39993943328858,270.1042497177124Q92.75593943328857,270.8532497177124,98.92153943328857,271.1721497177124Q114.87893943328858,271.99804971771243,127.68593943328858,270.1793497177124Q143.7907394332886,267.8927497177124,156.05973943328857,263.69124971771237Q155.1347394332886,268.9658497177124,153.18573943328857,273.68354971771237Q149.9517394332886,281.5122497177124,142.86373943328857,287.0562497177124Q136.33993943328858,292.1582497177124,126.86763943328857,295.09724971771243Q118.12403943328857,297.81124971771237,107.51633943328858,298.4982497177124Q97.60033943328858,299.1412497177124,87.15403943328857,297.9562497177124Q77.12383943328857,296.8202497177124,68.12743943328857,294.1832497177124Q59.15733943328857,291.5542497177124,52.78583943328857,287.8972497177124Q46.197249433288576,284.1152497177124,43.483109433288575,279.8482497177124ZM156.13673943328857,263.2419497177124Q143.83473943328858,267.4823497177124,127.62973943328858,269.7833497177124Q114.86073943328857,271.5965497177124,98.94223943328858,270.7726497177124Q92.78663943328857,270.4543497177124,85.44043943328857,269.7063497177124Q81.10353943328857,269.2647497177124,73.04483943328857,268.2974497177124Q65.09413943328857,267.34314971771244,61.62803943328858,267.0196497177124Q55.95023943328857,266.4897497177124,52.36153943328857,266.5584497177124Q48.139249433288576,266.63914971771237,45.69790943328857,267.5412497177124Q42.985929433288575,268.5434497177124,42.10839743328857,270.6677497177124L42.108379433288576,270.6677497177124Q40.163779433288575,275.3752497177124,43.145599433288574,280.06324971771244Q45.91262943328857,284.4132497177124,52.58673943328857,288.2442497177124Q58.999339433288576,291.9242497177124,68.01493943328857,294.5672497177124Q77.04453943328858,297.2132497177124,87.10893943328858,298.3542497177124Q97.59063943328857,299.5422497177124,107.54223943328857,298.8972497177124Q118.19713943328857,298.2072497177124,126.98623943328857,295.4792497177124Q136.52843943328855,292.5182497177124,143.10973943328858,287.37124971771243Q150.28073943328857,281.76324971771237,153.55573943328858,273.8362497177124Q155.56173943328858,268.9802497177124,156.49173943328856,263.5423497177124Q166.10273943328858,260.2061497177124,173.33273943328857,255.68174971771242Q187.83873943328857,246.6053497177124,191.93873943328856,233.3518497177124Q195.4917394332886,221.87074971771239,190.92173943328856,208.7979497177124Q188.8967394332886,203.0082497177124,185.4147394332886,197.4465497177124Q182.11373943328857,192.1746497177124,177.83673943328859,187.6298497177124Q173.04973943328858,182.5448297177124,167.80473943328857,179.15074971771242Q162.49873943328856,175.7174497177124,157.67573943328858,174.6352277177124Q152.5887394332886,173.4938737177124,148.83273943328857,175.1635727177124Q144.7837394332886,176.9629297177124,142.7717394332886,181.83448971771242Q140.88073943328857,186.4118497177124,142.66673943328857,194.8506497177124Q143.3967394332886,198.3007497177124,144.87573943328857,203.1202497177124Q145.7717394332886,206.0401497177124,147.86673943328856,212.3154497177124Q151.03873943328858,221.8206497177124,152.48273943328857,226.8586497177124Q154.92173943328856,235.3647497177124,155.98773943328857,242.3349497177124Q157.72473943328856,253.6929497177124,156.13673943328857,263.2419497177124ZM156.56573943328857,263.0928497177124Q166.0047394332886,259.79494971771237,173.12073943328858,255.3426497177124Q187.49973943328857,246.34524971771242,191.55673943328858,233.2336497177124Q195.06973943328856,221.87854971771242,190.54373943328858,208.92994971771242Q188.53473943328856,203.1825497177124,185.07573943328856,197.6587497177124Q181.7957394332886,192.4201497177124,177.54473943328858,187.9039497177124Q172.79173943328857,182.8542997177124,167.58673943328859,179.4865797177124Q162.34073943328858,176.0921097177124,157.58773943328856,175.0255217177124Q152.63073943328857,173.9131427177124,148.99473943328857,175.5290897177124Q145.09273943328856,177.2634797177124,143.14073943328856,181.9871997177124Q141.29773943328857,186.4501497177124,143.0577394332886,194.7678497177124Q143.78473943328856,198.2004497177124,145.25773943328858,203.0029497177124Q146.15273943328856,205.9181497177124,148.24573943328858,212.1888497177124Q151.4207394332886,221.7019497177124,152.8677394332886,226.7484497177124Q155.31273943328858,235.2785497177124,156.38273943328858,242.2744497177124Q158.1107394332886,253.5683497177124,156.56573943328857,263.0928497177124Z" fill-rule="evenodd" fill="#68FE7F" fill-opacity="1" style="mix-blend-mode:passthrough"/></g><g><path d="M39.97213919364929,270.3880000640869Q37.59270619364929,265.7908000640869,39.916209193649294,261.6666000640869Q40.92649919364929,259.87290006408693,43.55916919364929,259.2285000640869Q46.01670919364929,258.62700006408693,50.15811919364929,258.96890006408694Q53.71201919364929,259.2623000640869,59.281319193649296,260.3355000640869Q62.69241919364929,260.99290006408694,70.4912191936493,262.7029000640869Q86.8243191936493,266.2845000640869,96.01481919364929,267.6783000640869Q111.7980191936493,270.0723000640869,124.7244191936493,269.6198000640869Q140.9790191936493,269.0515000640869,153.6190191936493,266.2674000640869Q152.1480191936493,271.2102000640869,149.72101919364928,275.5189000640869Q145.6870191936493,282.6788000640869,138.0586191936493,287.26780006408694Q131.0370191936493,291.4908000640869,121.3083191936493,293.34980006408693Q112.32741919364929,295.06580006408694,101.70581919364929,294.6568000640869Q91.77581919364928,294.2748000640869,81.51041919364928,292.0918000640869Q71.6555191936493,289.9968000640869,62.98171919364929,286.57080006408694Q54.33601919364929,283.1558000640869,48.38085919364929,279.0177000640869Q42.224569193649295,274.73970006408695,39.97213919364929,270.3880000640869ZM153.7470191936493,265.8293000640869Q141.0680191936493,268.64780006408694,124.71041919364929,269.2201000640869Q111.82091919364929,269.6712000640869,96.07471919364929,267.2828000640869Q86.89741919364928,265.89080006408693,70.57691919364929,262.31220006408694Q62.7732191936493,260.6012000640869,59.35701919364929,259.9427000640869Q53.76641919364929,258.8655000640869,50.191019193649296,258.5702000640869Q45.98482919364929,258.2229000640869,43.464069193649294,258.8400000640869Q40.66306919364929,259.5256000640869,39.56770219364929,261.4702000640869L39.567683193649295,261.4702000640869Q37.138139193649295,265.7827000640869,39.61689919364929,270.5718000640869Q41.91489919364929,275.0117000640869,48.152599193649294,279.34620006408693Q54.14591919364929,283.5108000640869,62.834819193649295,286.9428000640869Q71.53961919364929,290.3818000640869,81.4272191936493,292.48380006408695Q91.72611919364928,294.6728000640869,101.69041919364929,295.05680006408693Q112.3576191936493,295.46780006408693,121.38341919364929,293.7428000640869Q131.18231919364928,291.8698000640869,138.26471919364928,287.6098000640869Q145.9840191936493,282.96780006408693,150.0690191936493,275.71530006408693Q152.5710191936493,271.2740000640869,154.06501919364928,266.1681000640869Q163.9720191936493,263.94380006408693,171.6350191936493,260.3444000640869Q187.01201919364928,253.12200006408693,192.47601919364928,240.8583000640869Q197.2100191936493,230.2309000640869,194.03101919364929,217.2668000640869Q192.6220191936493,211.52480006408692,189.7410191936493,205.8558000640869Q187.0080191936493,200.48230006408693,183.2290191936493,195.70560006408692Q178.9980191936493,190.3605500640869,174.1360191936493,186.58784006408692Q169.2180191936493,182.77151006408693,164.5350191936493,181.2520520640869Q159.5980191936493,179.6501280640869,155.69001919364928,180.86869506408692Q151.47601919364928,182.1825200640869,148.9650191936493,186.6402900640869Q146.6040191936493,190.8309000640869,147.4980191936493,199.0850000640869Q147.8640191936493,202.4579000640869,148.8310191936493,207.21670006408692Q149.4170191936493,210.0999000640869,150.84401919364927,216.3112000640869Q153.00501919364928,225.71850006408692,153.9150191936493,230.68160006408692Q155.4500191936493,239.0606000640869,155.7820191936493,245.8311000640869Q156.32201919364928,256.8619000640869,153.7470191936493,265.8293000640869ZM154.1910191936493,265.7296000640869Q163.92301919364928,263.5245000640869,171.46501919364928,259.9823000640869Q186.7060191936493,252.82310006408693,192.1100191936493,240.6955000640869Q196.7900191936493,230.1931000640869,193.64301919364928,217.3620000640869Q192.24501919364928,211.6649000640869,189.3840191936493,206.03710006408693Q186.6700191936493,200.6993000640869,182.9150191936493,195.95380006408692Q178.71501919364928,190.6468000640869,173.8910191936493,186.90386006408693Q169.0290191936493,183.13040006408693,164.4120191936493,181.63253006408692Q159.59601919364928,180.06987306408692,155.8090191936493,181.25056406408692Q151.7470191936493,182.5171400640869,149.3140191936493,186.8366500640869Q147.0160191936493,190.91540006408692,147.8960191936493,199.04190006408692Q148.2600191936493,202.39640006408692,149.2230191936493,207.13700006408692Q149.80801919364927,210.01540006408692,151.2340191936493,216.22170006408692Q153.39701919364927,225.6374000640869,154.30801919364927,230.60950006408692Q155.8490191936493,239.01470006408692,156.1820191936493,245.8115000640869Q156.7180191936493,256.7802000640869,154.1910191936493,265.7296000640869Z" fill-rule="evenodd" fill="#68FE7F" fill-opacity="1" style="mix-blend-mode:passthrough"/></g><g><path d="M37.46912334205627,260.9909653717041Q35.586016342056276,256.3629653717041,38.323523342056276,252.6584653717041Q39.51553334205627,251.0452653717041,42.20278334205627,250.6933653717041Q44.711163342056274,250.3649653717041,48.79545334205628,251.1083653717041Q52.29995334205628,251.7462653717041,57.72695334205628,253.3322653717041Q61.058053342056276,254.3058653717041,68.62845334205628,256.7229653717041Q84.48755334205627,261.7866653717041,93.49125334205627,264.0456653717041Q108.93345334205627,267.9204653717041,121.83835334205628,268.7875653717041Q138.05985334205627,269.8778653717041,150.91985334205629,268.48646537170407Q148.94285334205628,273.0564653717041,146.08285334205627,276.9263653717041Q141.32385334205628,283.36736537170407,133.25735334205626,286.9884653717041Q125.83315334205628,290.32136537170413,115.96125334205628,291.1213653717041Q106.85135334205627,291.8603653717041,96.32795334205628,290.4013653717041Q86.49175334205628,289.0373653717041,76.51035334205628,285.9185653717041Q66.92635334205627,282.9238653717041,58.659653342056274,278.7761653717041Q50.41795334205627,274.6410653717041,44.92802334205628,270.0853653717041Q39.25360334205627,265.3765653717041,37.46912334205627,260.9909653717041ZM151.0998533420563,268.06456537170413Q138.19485334205626,269.4858653717041,121.86515334205627,268.3883653717041Q108.99535334205628,267.5235653717041,93.58855334205627,263.65766537170407Q84.59725334205628,261.4014653717041,68.75015334205628,256.3418653717041Q61.17505334205627,253.9233653717041,57.83915334205628,252.94836537170409Q52.39225334205628,251.3565653717041,48.86705334205627,250.7148653717041Q44.721263342056275,249.9601653717041,42.15085334205627,250.2967653717041Q39.294913342056276,250.6706653717041,38.00182334205628,252.4207653717041Q35.13090334205627,256.30576537170407,37.09862034205627,261.1416653717041Q38.92093334205627,265.6203653717041,44.67258334205627,270.3931653717041Q50.19765334205627,274.97806537170413,58.48025334205627,279.13366537170407Q66.77615334205628,283.2959653717041,76.39105334205627,286.3003653717041Q86.40395334205627,289.4293653717041,96.27305334205627,290.79736537170413Q106.84015334205627,292.2623653717041,115.99355334205627,291.5203653717041Q125.93415334205628,290.7143653717041,133.42115334205627,287.3533653717041Q141.58285334205627,283.6892653717041,146.40485334205627,277.1640653717041Q149.35785334205627,273.1684653717041,151.37685334205628,268.4361653717041Q161.46085334205628,267.30506537170413,169.45785334205627,264.6334653717041Q185.50585334205627,259.2725653717041,192.22185334205628,248.0929653717041Q198.04285334205628,238.4024653717041,196.23685334205626,225.6800653717041Q195.43685334205628,220.0454653717041,193.16185334205628,214.3334653717041Q191.00485334205626,208.9163653717041,187.74585334205628,203.9703653717041Q184.09785334205628,198.4341653717041,179.65585334205628,194.3368053717041Q175.16485334205626,190.1931853717041,170.66585334205627,188.26973537170412Q165.92485334205628,186.2425853717041,161.91285334205628,187.0147698117041Q157.58585334205628,187.8475443717041,154.62085334205628,191.8588253717041Q151.83285334205627,195.6319253717041,151.85985334205628,203.6189653717041Q151.87085334205628,206.8835653717041,152.33585334205628,211.5299653717041Q152.61785334205626,214.3515653717041,153.38685334205627,220.4288653717041Q154.55285334205627,229.6388653717041,154.9388533420563,234.4789653717041Q155.59085334205628,242.6451653717041,155.2128533420563,249.1517653717041Q154.59685334205628,259.7506653717041,151.0998533420563,268.06456537170413ZM151.55485334205628,268.0135653717041Q161.46185334205626,266.8830653717041,169.33185334205626,264.2540653717041Q185.23885334205627,258.9399653717041,191.8788533420563,247.8869653717041Q197.6288533420563,238.3181653717041,195.84085334205628,225.7363653717041Q195.04785334205627,220.1489653717041,192.79085334205627,214.4814653717041Q190.64885334205627,209.1023653717041,187.41185334205628,204.1904653717041Q183.79085334205627,198.69496537170411,179.38485334205626,194.6308253717041Q174.9438533420563,190.5339053717041,170.50885334205628,188.6375253717041Q165.87985334205626,186.6585223717041,161.98785334205627,187.4075613717041Q157.81485334205627,188.2108253717041,154.94285334205628,192.0965453717041Q152.23385334205628,195.7631153717041,152.25985334205626,203.6175653717041Q152.27085334205628,206.8629653717041,152.73385334205628,211.4901653717041Q153.01485334205626,214.3067653717041,153.78385334205626,220.3786653717041Q154.9508533420563,229.5977653717041,155.3378533420563,234.4471653717041Q155.9918533420563,242.6409653717041,155.6118533420563,249.1749653717041Q154.99985334205627,259.7122653717041,151.55485334205628,268.0135653717041Z" fill-rule="evenodd" fill="#68FE7F" fill-opacity="1" style="mix-blend-mode:passthrough"/></g><g><path d="M35.96148686269379,251.75486925354005Q34.57475986269379,247.14766925354004,37.680255862693784,243.88476925354004Q39.03481586269379,242.46166925354004,41.74642586269378,242.39536925354003Q44.276855862693786,242.33346925354004,48.261875862693785,243.45516925354005Q51.68127586269379,244.41766925354005,56.912375862693786,246.47976925354004Q60.11607586269379,247.74226925354003,67.39977586269379,250.81776925354004Q82.65027586269379,257.25666925354005,91.3606758626938,260.31906925354Q106.31537586269378,265.57696925354,119.05607586269379,267.70226925354007Q135.07057586269377,270.37436925354007,148.00127586269377,270.33696925354Q145.56127586269378,274.49956925354,142.3192758626938,277.90626925354Q136.91227586269378,283.58686925354004,128.5111758626938,286.23916925354Q120.77837586269379,288.68056925354006,110.87527586269378,288.45356925354Q101.73597586269379,288.24416925354,91.4231758626938,285.79116925354003Q81.78167586269379,283.49776925354,72.18157586269379,279.51236925354004Q62.96297586269378,275.68526925354,55.17467586269379,270.88796925354006Q47.41007586269379,266.10536925354006,42.42677586269379,261.19736925354005Q37.27697586269379,256.12536925354004,35.96148686269379,251.75486925354005ZM148.2332758626938,269.93646925354005Q135.24897586269378,269.99886925354,119.12187586269378,267.3077692535401Q106.41487586269379,265.18786925354004,91.4933758626938,259.94166925354006Q82.79457586269379,256.88316925354,67.55527586269379,250.44926925354002Q60.26697586269378,247.37196925354004,57.05907586269379,246.10756925354005Q51.80917586269379,244.03816925354005,48.370175862693785,243.07016925354003Q44.327265862693785,241.93206925354005,41.736645862693784,241.99546925354002Q38.859345862693786,242.06586925354003,37.390545862693784,243.60896925354004Q34.124725862693786,247.04026925354003,35.578459862693784,251.87016925354004Q36.92342586269379,256.33866925354005,42.146095862693784,261.48236925354Q47.161675862693784,266.42196925354006,54.96487586269379,271.22856925354006Q62.780275862693784,276.04256925354,72.02827586269379,279.88176925354Q81.65797586269379,283.87956925354,91.3306758626938,286.18026925354Q101.68437586269378,288.64306925354003,110.86617586269378,288.85346925354Q120.83547586269378,289.08166925354004,128.6315758626938,286.62056925354005Q137.13127586269377,283.93706925354,142.6082758626938,278.18196925354005Q145.9632758626938,274.65756925354003,148.4662758626938,270.33476925354006Q158.61427586269377,270.26686925354005,166.84727586269378,268.51576925354004Q183.36627586269378,265.00216925354005,191.2142758626938,254.98656925354004Q198.0182758626938,246.30196925354005,197.55127586269379,233.94976925354004Q197.3442758626938,228.48076925354005,195.6792758626938,222.78706925354004Q194.1002758626938,217.39116925354003,191.3752758626938,212.33086925354004Q188.3252758626938,206.66876925354003,184.33527586269378,202.30338925354005Q180.30027586269378,197.88864925354005,176.0282758626938,195.59714925354004Q171.52627586269378,193.18259525354003,167.4582758626938,193.51720625354005Q163.0702758626938,193.87812825354004,159.70327586269377,197.41546925354004Q156.53327586269378,200.74549925354003,155.7242758626938,208.39086925354005Q155.3942758626938,211.51226925354004,155.3702758626938,216.00566925354005Q155.3552758626938,218.72206925354004,155.4862758626938,224.62206925354005Q155.68227586269379,233.55386925354003,155.5602758626938,238.21296925354005Q155.35427586269378,246.08766925354004,154.29927586269378,252.26946925354002Q152.5792758626938,262.33996925354006,148.2332758626938,269.93646925354005ZM148.6952758626938,269.93336925354004Q158.66327586269378,269.84736925354,166.76427586269378,268.12456925354Q183.14027586269378,264.64096925354005,190.8992758626938,254.73986925354004Q197.61427586269377,246.17066925354004,197.15227586269378,233.96486925354003Q196.9472758626938,228.54546925354003,195.29527586269379,222.89936925354004Q193.72827586269378,217.54386925354004,191.0232758626938,212.52046925354003Q187.99627586269378,206.90216925354005,184.0402758626938,202.57324925354004Q180.05127586269379,198.20887925354003,175.8392758626938,195.94964925354003Q171.4412758626938,193.59093205354003,167.49127586269378,193.91586025354005Q163.2542758626938,194.26428525354004,159.9932758626938,197.69124925354004Q156.91727586269377,200.92281925354004,156.12227586269378,208.43296925354005Q155.79427586269378,211.53436925354004,155.77027586269378,216.00776925354003Q155.75627586269377,218.71896925354002,155.8852758626938,224.61326925354004Q156.0822758626938,233.55476925354003,155.96027586269378,238.22346925354003Q155.75327586269378,246.12666925354003,154.69327586269378,252.33676925354004Q152.98427586269378,262.34456925354004,148.6952758626938,269.93336925354004Z" fill-rule="evenodd" fill="#68FE7F" fill-opacity="1" style="mix-blend-mode:passthrough"/></g><g><path d="M35.42906515625,242.7705273010254Q34.53296715625,238.2329273010254,37.95820015625,235.42832730102538Q40.78597015625,233.11332730102538,48.533310156249996,236.0808273010254Q51.83391015625,237.3451273010254,56.821410156249996,239.8430273010254Q59.87851015625,241.3741273010254,66.79871015625,245.04582730102538Q81.29151015625,252.7352273010254,89.63421015624999,256.53932730102537Q103.95531015625,263.0693273010254,116.40421015625,266.38332730102536Q132.04501015625,270.54632730102537,144.90441015624998,271.8107273010254Q142.04741015625,275.5363273010254,138.47341015625,278.46212730102536Q132.50321015625002,283.3511273010254,123.86931015625,285.0433273010254Q115.92171015625,286.6011273010254,106.09621015625,285.3885273010254Q97.02721015624999,284.2693273010254,87.02761015625,280.8873273010254Q77.67951015624999,277.7256273010254,68.54711015625,272.9490273010254Q59.780110156250004,268.3636273010254,52.53461015625,262.9924273010254Q45.31281015625,257.6388273010254,40.86988015625,252.4449273010254Q36.27996015625,247.07912730102538,35.42906515625,242.7705273010254ZM145.18841015625,271.4366273010254Q132.26721015625,270.1914273010254,116.50711015625,265.9967273010254Q104.09071015625,262.6914273010254,89.80011015625,256.1753273010254Q81.46811015624999,252.3761273010254,66.98621015625,244.6924273010254Q60.06191015625,241.0185273010254,57.00051015625,239.4853273010254Q51.99541015625,236.9786273010254,48.67641015625,235.70732730102537Q44.77490015625,234.2129273010254,42.19271015625,234.01322730102538Q39.32615015625,233.79152730102538,37.70479015625,235.1188273010254Q34.09410815625,238.0753273010254,35.03664463625,242.84792730102538Q35.90785315625,247.2595273010254,40.56592015625,252.7049273010254Q45.03825015625,257.9332273010254,52.296410156250005,263.3138273010254Q59.56701015625,268.7034273010254,68.36171015625,273.3034273010254Q77.52181015625,278.0943273010254,86.89951015625,281.2662273010254Q96.93761015625,284.6615273010254,106.04721015625,285.7855273010254Q115.93601015625,287.00602730102537,123.94621015625,285.4359273010254Q132.67901015625,283.7240273010254,138.72741015625002,278.7716273010254Q142.43241015625,275.7382273010254,145.37341015625,271.8559273010254Q155.47441015625,272.8112273010254,163.84541015625,271.9642273010254Q180.63841015625,270.26512730102536,189.49141015625,261.4758273010254Q197.17041015625,253.85292730102537,197.99641015625,241.98832730102538Q198.36241015625,236.7346273010254,197.30041015625,231.1213273010254Q196.29341015625,225.79922730102538,194.11141015625,220.6865273010254Q191.66941015625,214.96352730102538,188.15741015625,210.3881773010254Q184.60541015625,205.7603773010254,180.59641015625,203.1398973010254Q176.37241015625,200.3793703010254,172.29241015625,200.2906743010254Q167.89341015625,200.1950173010254,164.17541015625,203.23868730102538Q160.67341015625,206.1063173010254,159.06941015625,213.3392273010254Q158.41441015625,216.2925273010254,157.92141015625,220.5866273010254Q157.62241015625,223.18792730102538,157.13541015625,228.8379273010254Q156.39841015625,237.39482730102537,155.78941015625,241.8416273010254Q154.76141015625,249.34892730102538,153.06541015624998,255.1547273010254Q150.30341015624998,264.6101273010254,145.18841015625,271.4366273010254ZM145.65441015624998,271.4807273010254Q155.57241015625,272.3993273010254,163.80541015625,271.5662273010254Q180.45641015625,269.8813273010254,189.20941015625,261.1920273010254Q196.78141015625,253.67502730102538,197.59741015625,241.9605273010254Q197.95941015625,236.7584273010254,196.90741015625,231.19572730102539Q195.90841015625,225.9162273010254,193.74341015625,220.8435273010254Q191.32141015625,215.1670273010254,187.84041015625,210.6317273010254Q184.32941015625,206.0579573010254,180.37741015625,203.47471730102538Q176.24941015625,200.7767893010254,172.28441015625,200.6905803010254Q168.03241015625,200.59813030102538,164.42841015625,203.5481673010254Q161.03441015625,206.32805730102538,159.45941015625,213.42582730102538Q158.80941015625,216.3589273010254,158.31841015625,220.63232730102538Q158.02041015625,223.2278273010254,157.53341015625,228.8723273010254Q156.79541015625,237.4392273010254,156.18541015625,241.8958273010254Q155.15441015624998,249.4325273010254,153.44941015625,255.2669273010254Q150.70641015625,264.6577273010254,145.65441015624998,271.4807273010254Z" fill-rule="evenodd" fill="#68FE7F" fill-opacity="1" style="mix-blend-mode:passthrough"/></g><g><path d="M35.83900249068832,234.12681830444336Q35.42294149068832,229.70511830444337,39.11905649068832,227.36971830444335Q42.17525649068833,225.43851830444336,49.572126490688326,229.05601830444337Q52.72242649068832,230.59671830444336,57.42082649068833,233.48641830444336Q60.30082649068832,235.25771830444336,66.79882649068833,239.46411830444336Q80.41032649068833,248.27541830444335,88.30892649068832,252.75111830444337Q101.87092649068832,260.43601830444334,113.90482649068832,264.85561830444334Q129.01632649068833,270.40601830444336,141.66752649068832,272.90791830444334Q138.44252649068832,276.17471830444333,134.59112649068834,278.6084183044434Q128.1415264906883,282.6840183044434,119.37602649068832,283.4345183044434Q111.30842649068832,284.1254183044434,101.66182649068833,281.97801830444337Q92.76052649068832,279.99671830444333,83.16722649068832,275.75661830444335Q74.20112649068832,271.79391830444337,65.61752649068832,266.30771830444337Q57.37782649068832,261.04141830444337,50.733726490688326,255.17701830444335Q44.11166649068832,249.33201830444335,40.236456490688326,243.91911830444337Q36.23440749068833,238.32891830444336,35.83900249068832,234.12681830444336ZM142.00152649068832,272.56591830444336Q129.27922649068833,270.07631830444336,114.04272649068832,264.4802183044434Q102.03972649068832,260.0717183044434,88.50612649068833,252.40311830444335Q80.61762649068832,247.93301830444335,67.01622649068833,239.12831830444335Q60.51422649068832,234.91921830444335,57.63042649068832,233.14571830444336Q52.915426490688326,230.24591830444336,49.747826490688325,228.69671830444335Q46.02512649068832,226.87601830444336,43.479086490688324,226.42581830444337Q40.65455649068832,225.92621830444335,38.905396490688325,227.03151830444335Q35.001693490688325,229.49801830444335,35.440761490688324,234.16421830444335Q35.846285490688324,238.47391830444337,39.911216490688325,244.15191830444337Q43.812876490688325,249.60191830444336,50.46902649068832,255.47691830444336Q57.13642649068832,261.3618183044434,65.40202649068833,266.64471830444336Q74.01162649068831,272.14721830444336,83.00552649068833,276.1224183044434Q92.63472649068832,280.37851830444333,101.57492649068833,282.36851830444334Q111.28162649068832,284.52931830444334,119.41022649068833,283.83311830444336Q128.27252649068834,283.07411830444335,134.80472649068832,278.9465183044434Q138.80652649068833,276.4177183044434,142.13852649068832,273.00001830444336Q152.08452649068832,274.92931830444337,160.4995264906883,274.96061830444336Q177.37752649068833,275.02331830444336,187.09852649068833,267.5092183044434Q195.53352649068833,260.98941830444335,197.59652649068832,249.72291830444337Q198.51052649068833,244.73451830444336,198.04052649068834,239.25731830444334Q197.59552649068831,234.06741830444335,195.95952649068832,228.95531830444335Q194.12952649068833,223.23661830444337,191.11352649068832,218.50621830444337Q188.0655264906883,213.72359830444336,184.3505264906883,210.81350830444336Q180.43952649068834,207.74962930444335,176.3925264906883,207.25503430444337Q172.0295264906883,206.72175530444335,168.01552649068833,209.25807830444336Q164.23052649068833,211.64881830444335,161.87852649068833,218.40731830444335Q160.91852649068832,221.16641830444337,159.97852649068832,225.22401830444335Q159.40852649068833,227.68301830444335,158.33452649068832,233.03621830444337Q156.7065264906883,241.14191830444335,155.6365264906883,245.33501830444337Q153.83052649068833,252.40991830444335,151.53652649068832,257.79011830444335Q147.80152649068833,266.55281830444335,142.00152649068832,272.56591830444336ZM142.46952649068834,272.6566183044433Q152.2305264906883,274.52971830444335,160.50152649068832,274.5606183044434Q177.24152649068833,274.62281830444334,186.85452649068833,267.19271830444336Q195.16852649068832,260.76681830444335,197.20352649068832,249.65091830444337Q198.1065264906883,244.71521830444337,197.6425264906883,239.29151830444337Q197.20152649068834,234.14651830444336,195.57852649068832,229.07721830444336Q193.76352649068832,223.40791830444337,190.77652649068833,218.72121830444337Q187.76452649068833,213.99629830444337,184.10352649068832,211.12839830444335Q180.28052649068832,208.13316830444336,176.34352649068833,207.65207930444336Q172.12152649068832,207.13610230444337,168.22852649068832,209.59623830444335Q164.56252649068833,211.91232830444335,162.25652649068832,218.53881830444337Q161.3025264906883,221.27761830444337,160.36852649068834,225.31431830444336Q159.79952649068832,227.76751830444337,158.72652649068834,233.11501830444337Q157.09652649068832,241.23081830444335,156.02452649068834,245.43401830444336Q154.21052649068832,252.53851830444336,151.90452649068834,257.94691830444333Q148.19852649068832,266.6428183044434,142.46952649068834,272.6566183044433Z" fill-rule="evenodd" fill="#68FE7F" fill-opacity="1" style="mix-blend-mode:passthrough"/></g><g><path d="M37.150076898017886,225.9058044555664Q37.19833889801788,221.6425744555664,41.115475898017884,219.7821744555664L41.11549589801788,219.7821644555664Q44.36016589801788,218.2408644555664,51.34148589801788,222.4453744555664Q54.313585898017884,224.2353044555664,58.68468589801788,227.4711044555664Q61.36378589801788,229.4542044555664,67.38698589801788,234.1302044555664Q80.00108589801789,243.9228044555664,87.38948589801788,248.99710445556642Q100.07348589801788,257.7087044555664,111.57818589801788,263.1439044555664Q126.01868589801788,269.9665044555664,138.3334858980179,273.6302044555664Q134.79028589801788,276.42220445556643,130.71388589801788,278.3581044555664Q123.87158589801788,281.6080044555664,115.07478589801788,281.4447044555664Q106.97788589801789,281.2944044555664,97.60778589801788,278.2713044555664Q88.96248589801789,275.4819044555664,79.86428589801788,270.4629044555664Q71.36208589801788,265.7725044555664,63.39848589801788,259.6634044555664Q55.75468589801788,253.7997044555664,49.76018589801788,247.5240044555664Q43.785765898017885,241.2695044555664,40.498205898017886,235.7048044555664Q37.10417789801788,229.9599044555664,37.150076898017886,225.9058044555664ZM138.71448589801787,273.3260044555664Q126.32018589801788,269.66630445556643,111.74898589801788,262.7823044555664Q100.27398589801788,257.3611044555664,87.61598589801788,248.6674044555664Q80.23748589801788,243.5996044555664,67.63228589801788,233.8142044555664Q61.60548589801788,229.1355044555664,58.92268589801788,227.14960445556642Q54.536185898017884,223.9024544555664,51.54788589801788,222.1027144555664Q48.03588589801788,219.9876444555664,45.55140589801788,219.3013844555664Q42.79698589801788,218.5405844555664,40.943875898017886,219.4208544555664L40.94386589801788,219.4208544555664Q36.80119489801788,221.3883844555664,36.750102898017886,225.90130445556642Q36.702937898017886,230.0671044555664,40.15381589801788,235.9083044555664Q43.464755898017884,241.51250445556641,49.47088589801788,247.8003044555664Q55.486785898017885,254.0983044555664,63.154985898017884,259.9808044555664Q71.14248589801788,266.1085044555664,79.67108589801788,270.8132044555664Q88.80288589801788,275.8509044555664,97.48498589801788,278.6520044555664Q106.91148589801789,281.6934044555664,115.06738589801789,281.8447044555664Q123.95838589801788,282.0098044555664,130.8854858980179,278.7194044555664Q135.1310858980179,276.7032044555664,138.8024858980179,273.7689044555664Q148.4944858980179,276.61420445556644,156.86048589801788,277.4900044555664Q173.6354858980179,279.2462044555664,184.0884858980179,273.03860445556643Q193.1604858980179,267.65090445556643,196.3904858980179,257.0810044555664Q197.8204858980179,252.4001044555664,197.9264858980179,247.1137044555664Q198.02648589801788,242.10330445556642,196.9334858980179,237.0496044555664Q195.71048589801788,231.39530445556642,193.20548589801788,226.5678044555664Q190.6714858980179,221.6862544555664,187.28148589801788,218.5299044555664Q183.71148589801788,215.2070194555664,179.74048589801788,214.32744785556642Q175.45948589801787,213.3793244555664,171.20448589801788,215.4001744555664Q167.1904858980179,217.3061944555664,164.1434858980179,223.5346044555664Q162.89948589801787,226.07760445556642,161.5404858980179,229.8633044555664Q160.71748589801788,232.1565044555664,159.08948589801787,237.1689044555664Q156.62248589801789,244.76080445556642,155.12048589801788,248.65810445556642Q152.58548589801788,255.2414044555664,149.7424858980179,260.1550044555664Q145.1124858980179,268.1590044555664,138.71448589801787,273.3260044555664ZM139.18048589801788,273.4628044555664Q148.68548589801787,276.2319044555664,156.90148589801788,277.0922044555664Q173.54448589801788,278.8348044555664,183.88448589801789,272.6947044555664Q192.82248589801787,267.3861044555664,196.00748589801788,256.9641044555664Q197.4214858980179,252.33640445556642,197.52648589801788,247.1057044555664Q197.62548589801787,242.1420044555664,196.54248589801787,237.13410445556642Q195.33048589801788,231.5321044555664,192.8504858980179,226.7520044555664Q190.34848589801788,221.9319144555664,187.00848589801788,218.8226744555664Q183.51948589801788,215.5740044555664,179.6534858980179,214.7179864555664Q175.50648589801787,213.79955145556642,171.37548589801787,215.7615044555664Q167.48848589801787,217.6075644555664,164.50248589801788,223.7103844555664Q163.2684858980179,226.2336044555664,161.9174858980179,229.9985044555664Q161.09648589801787,232.28570445556642,159.46948589801787,237.2926044555664Q156.9994858980179,244.89440445556642,155.4944858980179,248.80190445556642Q152.9464858980179,255.4145044555664,150.0884858980179,260.3553044555664Q145.4984858980179,268.2903044555664,139.18048589801788,273.4628044555664Z" fill-rule="evenodd" fill="#68FE7F" fill-opacity="1" style="mix-blend-mode:passthrough"/></g><g><path d="M43.76660151123047,212.3456041822754L43.76658151123047,212.34561058227538L43.76660151123047,212.3456041822754Z" fill-rule="evenodd" fill="#68FE7F" fill-opacity="1" style="mix-blend-mode:passthrough"/></g><g><path d="M51.83589687576294,206.6604850222168Q49.30011687576294,205.4347060222168,47.31247687576294,205.8658565222168L47.31247687576294,205.8658623222168Q42.85553687576294,206.8326740222168,41.88286957576294,210.91207402221679Q40.985191875762936,214.6769640222168,43.17378687576294,220.6413040222168Q45.27180687576294,226.3588040222168,49.86827687576294,233.2222040222168Q54.47139687576294,240.0955040222168,60.776496875762945,246.9174040222168Q67.34359687576294,254.0227040222168,74.73019687576294,259.9482040222168Q82.63859687576294,266.29220402221677,90.56349687576294,270.5267040222168Q99.16609687576295,275.1232040222168,107.11509687576294,276.8591040222168Q115.77829687576293,278.7508040222168,123.22479687576293,277.13550402221676Q127.79209687576294,276.1448040222168,131.98499687576293,274.2106040222168Q140.89099687576294,278.68440402221677,148.90099687576293,281.1171040222168Q164.95399687576293,285.9925040222168,176.44499687576294,282.4320040222168Q186.41999687576293,279.3409040222168,191.73899687576295,270.4161040222168Q194.09499687576294,266.4616040222168,195.27699687576293,261.7009040222168Q196.39799687576294,257.1872040222168,196.35799687576295,252.4017040222168Q196.31499687576294,247.0460040222168,194.84599687576295,242.1874040222168Q193.36199687576294,237.2744040222168,190.68599687576295,233.7537040222168Q187.86999687576295,230.0489040222168,184.16299687576293,228.4753040222168Q180.17099687576294,226.7804040222168,175.59999687576294,227.7716040222168Q171.28499687576294,228.7077040222168,167.03299687576293,233.7416040222168Q165.29699687576294,235.7965040222168,163.19499687576294,238.9535040222168Q161.92099687576294,240.86560402221681,159.30499687576292,245.07700402221678Q155.34499687576294,251.4531040222168,153.07999687576296,254.6838040222168Q149.25699687576292,260.1365040222168,145.47399687576294,264.0202040222168Q139.30879687576294,270.3495040222168,131.99129687576294,273.7663040222168Q120.60589687576294,268.0272040222168,107.74759687576294,258.9452040222168Q97.62239687576295,251.7941040222168,87.00879687576294,241.4534040222168Q80.82159687576294,235.4254040222168,70.48179687576294,224.1077040222168Q65.53809687576293,218.6964040222168,63.31849687576294,216.3759040222168Q59.68839687576294,212.5806640222168,57.13129687576294,210.36792402221678Q54.126396875762936,207.7676640222168,51.83589687576294,206.6604850222168ZM132.44599687576294,273.9945040222168Q141.16579687576294,278.3500040222168,149.01699687576294,280.7344040222168Q164.95299687576295,285.5743040222168,176.32599687576294,282.04990402221677Q186.15599687576295,279.0042040222168,191.39499687576293,270.2113040222168Q193.72099687576295,266.3079040222168,194.88899687576293,261.6045040222168Q195.99699687576293,257.1398040222168,195.95799687576294,252.40490402221678Q195.91499687576294,247.1067040222168,194.46399687576294,242.30310402221681Q192.99999687576295,237.4591040222168,190.36699687576294,233.99570402221678Q187.61599687576293,230.3756040222168,184.00699687576295,228.8435040222168Q180.13199687576295,227.1983040222168,175.68499687576295,228.1625040222168Q171.50399687576294,229.0698040222168,167.33899687576294,233.9997040222168Q165.61699687576294,236.0374040222168,163.52699687576293,239.1753040222168Q162.25799687576296,241.0818040222168,159.64499687576296,245.2880040222168Q155.67899687576295,251.6734040222168,153.40699687576296,254.9134040222168Q149.56599687576295,260.3925040222168,145.75999687576294,264.2993040222168Q139.66339687576294,270.5586040222168,132.44599687576294,273.9945040222168ZM131.52719687576294,273.9795040222168Q120.23819687576294,268.2570040222168,107.51679687576294,259.2719040222168Q97.36579687576294,252.1027040222168,86.72969687576294,241.7399040222168Q80.53409687576294,235.7038040222168,70.18649687576294,224.37750402221678Q65.24589687576294,218.9697040222168,63.02949687576294,216.65240402221679Q59.41239687576294,212.8707840222168,56.86949687576294,210.6704040222168Q50.89279687576294,205.49853002221678,47.39727687576294,206.2567710222168Q43.18626687576294,207.1702340222168,42.27196187576294,211.0048440222168Q41.40225987576294,214.65240402221679,43.54930687576294,220.5035040222168Q45.63081687576294,226.1761040222168,50.20063687576294,232.9996040222168Q54.78629687576294,239.8469040222168,61.07019687576294,246.6459040222168Q67.61709687576294,253.72940402221678,74.98049687576294,259.6362040222168Q82.85989687576294,265.9568040222168,90.75199687576294,270.1739040222168Q99.30539687576294,274.7443040222168,107.20039687576293,276.4683040222168Q115.77859687576294,278.3415040222168,123.13999687576293,276.7446040222168Q127.50589687576294,275.7975040222168,131.52719687576294,273.9795040222168Z" fill-rule="evenodd" fill="#68FE7F" fill-opacity="1" style="mix-blend-mode:passthrough"/></g><g><path d="M60.80623083343506,205.3169607495117Q55.26613083343506,199.63031074951172,51.51396083343506,200.0247697495117Q46.98144083343506,200.50118874951173,45.58663183343506,204.30736074951173Q44.29881283343506,207.82155074951172,45.85318483343506,213.7495307495117Q47.34251083343506,219.42933074951173,51.19714083343506,226.45583074951173Q55.05675083343506,233.49133074951172,60.61493083343506,240.6495307495117Q66.40313083343506,248.1040307495117,73.13083083343506,254.51353074951172Q80.33343083343506,261.3757307495117,87.77203083343505,266.2210307495117Q95.84773083343507,271.4817307495117,103.57033083343507,273.93973074951174Q111.98723083343506,276.6189307495117,119.56003083343506,275.8228307495117Q124.20643083343506,275.33443074951174,128.57893083343504,273.90593074951175Q136.96993083343506,279.08033074951175,144.68273083343507,282.2120307495117Q160.13683083343506,288.4869307495117,171.93483083343506,286.2373307495117Q182.17783083343505,284.2843307495117,188.39983083343506,276.2835307495117Q191.15683083343507,272.7383307495117,192.83083083343507,268.3024307495117Q194.41783083343506,264.09783074951173,194.87983083343505,259.51493074951173Q195.39583083343507,254.38633074951173,194.44383083343507,249.59083074951172Q193.47983083343505,244.74093074951173,191.18583083343506,241.10373074951173Q188.77183083343505,237.27673074951173,185.24883083343505,235.3993307495117Q181.45783083343505,233.37823074951172,176.80983083343506,233.86633074951172Q172.42283083343506,234.32773074951172,167.66783083343506,238.7136307495117Q165.72583083343505,240.50443074951173,163.30583083343504,243.3121307495117Q161.83983083343506,245.0123307495117,158.79783083343506,248.77693074951173Q154.19183083343506,254.47673074951172,151.60183083343506,257.3377307495117Q147.23083083343505,262.1674307495117,143.06223083343505,265.5010307495117Q136.26763083343508,270.9357307495117,128.63043083343507,273.4676307495117Q117.90633083343506,266.8349307495117,106.06673083343506,256.85703074951175Q96.74533083343505,249.00073074951172,87.27163083343507,238.04703074951172Q81.74963083343505,231.66203074951173,72.64913083343507,219.79963074951172Q68.29743083343506,214.1273307495117,66.33263083343506,211.68513074951173Q63.11853083343506,207.69042074951173,60.80623083343506,205.3169607495117ZM129.07403083343507,273.7408307495117Q137.28183083343504,278.77513074951173,144.83323083343504,281.8414307495117Q160.17783083343505,288.07133074951173,171.85983083343507,285.84443074951173Q181.95383083343506,283.9197307495117,188.08383083343506,276.03803074951173Q190.80383083343506,272.54073074951174,192.45683083343505,268.1611307495117Q194.02483083343506,264.0058307495117,194.48183083343505,259.47483074951174Q194.99183083343505,254.40583074951172,194.05083083343507,249.66873074951172Q193.10183083343506,244.8916307495117,190.84683083343506,241.3171307495117Q188.48983083343506,237.57993074951173,185.06083083343506,235.7523307495117Q181.37783083343507,233.7888307495117,176.85183083343506,234.2641307495117Q172.59683083343506,234.71153074951172,167.93883083343508,239.00763074951172Q166.01383083343507,240.7829307495117,163.60883083343506,243.5733307495117Q162.14683083343505,245.2685307495117,159.10883083343506,249.02833074951172Q154.49583083343506,254.73663074951173,151.89883083343506,257.60613074951175Q147.50483083343505,262.4597307495117,143.31203083343507,265.8134307495117Q136.60183083343506,271.1805307495117,129.07403083343507,273.7408307495117ZM128.13233083343505,273.6293307495117Q117.51153083343506,267.02533074951174,105.80893083343506,257.1628307495117Q96.46323083343506,249.28613074951173,86.96913083343506,238.30863074951174Q81.43933083343506,231.9149307495117,72.33173083343506,220.0431307495117Q67.98293083343506,214.37443074951173,66.02093083343506,211.93593074951173Q62.81883083343506,207.95591074951173,60.51973083343506,205.59609074951172Q55.11495083343506,200.0484097495117,51.55578083343506,200.42257774951173L51.55577083343506,200.4225747495117Q47.271230833435055,200.8729327495117,45.96220783343506,204.44499074951173Q44.71754683343506,207.8414207495117,46.24010083343506,213.64803074951172Q47.71692083343506,219.28023074951173,51.54784083343506,226.2634307495117Q55.39213083343506,233.2710307495117,60.93083083343506,240.40423074951173Q66.70073083343506,247.83513074951173,73.40683083343507,254.2239307495117Q80.58263083343506,261.0603307495117,87.99033083343505,265.8858307495117Q96.02073083343507,271.1169307495117,103.69163083343506,273.5585307495117Q112.02863083343506,276.2122307495117,119.51823083343506,275.42503074951173Q123.95073083343506,274.9591307495117,128.13233083343505,273.6293307495117Z" fill-rule="evenodd" fill="#68FE7F" fill-opacity="1" style="mix-blend-mode:passthrough"/></g><g><path d="M64.98925510253906,200.85714021728515Q60.074155102539066,194.86266021728517,56.304275102539066,194.86265621728515L56.304275102539066,194.86266021728517Q51.748845102539065,194.86266021728517,49.96295210253906,198.36366021728514Q48.31278510253906,201.59857021728516,49.239653102539066,207.42816021728515Q50.12730510253906,213.01116021728515,53.22692510253906,220.11916021728516Q56.330375102539065,227.23596021728514,61.11015510253906,234.64026021728515Q66.08775510253906,242.35106021728515,72.10885510253907,249.15696021728516Q78.55435510253906,256.44266021728515,85.44645510253906,261.82446021728515Q92.92765510253906,267.66656021728517,100.35105510253906,270.79336021728517Q108.44085510253906,274.20096021728517,116.05375510253906,274.20096021728517Q120.72685510253906,274.20106021728515,125.22585510253906,273.2738602172852Q133.03065510253907,279.0659602172851,140.37405510253905,282.83596021728516Q155.08685510253906,290.3886602172852,167.05185510253907,289.42366021728515Q177.44085510253908,288.58556021728515,184.46585510253905,281.5605602172852Q187.57885510253905,278.44716021728516,189.70785510253907,274.37216021728517Q191.72685510253908,270.50926021728515,192.66485510253906,266.1719602172852Q193.71485510253908,261.3182602172852,193.26885510253905,256.63376021728516Q192.81785510253906,251.89636021728515,190.91485510253906,248.18566021728515Q188.91285510253905,244.28196021728516,185.60585510253907,242.13226021728516Q182.04685510253907,239.81926021728515,177.37585510253905,239.81926021728515Q172.96585510253908,239.81926021728515,167.77985510253905,243.53486021728514Q165.66085510253907,245.05246021728516,162.95985510253905,247.49396021728515Q161.32285510253905,248.97386021728516,157.90485510253905,252.26696021728515Q152.73085510253907,257.25306021728517,149.85485510253906,259.72976021728516Q145.00145510253907,263.90876021728513,140.50835510253904,266.6773602172851Q133.18145510253908,271.1918602172851,125.31935510253906,272.84536021728513Q115.34695510253906,265.4246602172851,104.61475510253906,254.69216021728516Q96.16585510253907,246.24316021728515,87.88885510253905,234.81596021728515Q83.06385510253907,228.15456021728517,75.25355510253907,215.89686021728517Q71.51915510253906,210.03606021728515,69.81985510253907,207.50256021728515Q67.04075510253907,203.35931021728516,64.98925510253906,200.85714021728515ZM125.74795510253907,273.16296021728516Q133.37535510253906,278.79346021728514,140.55675510253906,282.48006021728514Q155.16685510253905,289.98086021728517,167.01985510253905,289.0249602172852Q177.26285510253905,288.19856021728515,184.18285510253907,281.27776021728516Q187.25285510253906,278.20756021728516,189.35385510253906,274.18696021728516Q191.34685510253905,270.3718602172852,192.27385510253907,266.08736021728515Q193.31085510253905,261.2944602172852,192.87085510253905,256.67166021728514Q192.42685510253907,252.01056021728516,190.55885510253907,248.36816021728515Q188.60585510253907,244.55906021728515,185.38785510253905,242.46766021728516Q181.92885510253907,240.21926021728515,177.37585510253905,240.21926021728515Q173.09485510253904,240.21926021728515,168.01285510253905,243.85996021728516Q165.91285510253908,245.36436021728514,163.22785510253908,247.79076021728514Q161.59485510253904,249.26656021728516,158.18285510253907,252.55496021728516Q152.99985510253907,257.54886021728515,150.11585510253906,260.03286021728513Q145.23875510253907,264.23256021728514,140.71815510253907,267.0179602172851Q133.49215510253907,271.47046021728517,125.74795510253907,273.16296021728516ZM124.79455510253906,272.95236021728516Q114.93045510253906,265.5734602172852,104.33185510253907,254.97496021728517Q95.86055510253905,246.50356021728516,87.56485510253907,235.05066021728516Q82.73285510253906,228.37956021728516,74.91615510253907,216.11186021728514Q71.18435510253906,210.25506021728515,69.48765510253907,207.72536021728516Q66.71935510253905,203.59801021728515,64.67995510253907,201.11076021728516Q59.88495510253907,195.26264421728516,56.304275102539066,195.26265621728515L56.304275102539066,195.26266021728514Q51.99384510253906,195.26266021728514,50.31927510253906,198.54542021728517Q48.72826610253906,201.66435021728515,49.634691102539065,207.36536021728514Q50.51434510253906,212.89796021728515,53.593585102539066,219.95926021728516Q56.68404510253906,227.04636021728516,61.446155102539066,234.42336021728516Q66.40745510253906,242.10876021728515,72.40845510253907,248.89186021728517Q78.82965510253906,256.14986021728515,85.69265510253906,261.50926021728515Q93.13195510253905,267.31836021728515,100.50635510253906,270.42476021728515Q108.52175510253906,273.80096021728514,116.05375510253906,273.80096021728514Q120.50345510253906,273.80086021728516,124.79455510253906,272.95236021728516Z" fill-rule="evenodd" fill="#68FE7F" fill-opacity="1" style="mix-blend-mode:passthrough"/></g></g><g><g transform="matrix(0.9659258127212524,-0.258819043636322,0.258819043636322,0.9659258127212524,-11.208804468515154,1.4756676991964923)"><g><path d="M125.209,64.97819900512695C125.209,64.97819900512695,134.841,64.97819900512695,134.841,64.97819900512695C134.841,64.97819900512695,134.841,151.66089900512696,134.841,151.66089900512696C134.841,151.66089900512696,79.4597,151.66089900512696,79.4597,151.66089900512696C78.1281,151.66089900512696,77.0518,152.73959900512693,77.0518,154.06869900512697C77.0518,156.72699900512697,74.8943,158.88439900512697,72.236,158.88439900512697C72.236,158.88439900512697,62.6046,158.88439900512697,62.6046,158.88439900512697C59.9463,158.88439900512697,57.7888,156.72699900512697,57.7888,154.06869900512697C57.7888,152.73959900512693,56.7125,151.66089900512696,55.381,151.66089900512696C55.381,151.66089900512696,0,151.66089900512696,0,151.66089900512696C0,151.66089900512696,0,64.97819900512695,0,64.97819900512695C0,64.97819900512695,9.63148,64.97819900512695,9.63148,64.97819900512695" fill="#68FE7F" fill-opacity="1" style="mix-blend-mode:passthrough"/></g><g><path d="M67.42048631896972,64.9781951171875C79.63078631896973,51.195625117187504,97.16488631896972,43.3074951171875,115.57788631896973,43.3074951171875C115.57788631896973,43.3074951171875,115.57788631896973,125.1744951171875,115.57788631896973,125.1744951171875C97.16488631896972,125.1744951171875,79.63078631896973,133.0625951171875,67.42048631896972,146.8454951171875C55.210186318969726,133.0625951171875,37.67608631896972,125.1744951171875,19.263086318969727,125.1744951171875C19.263086318969727,125.1744951171875,19.263086318969727,43.3074951171875,19.263086318969727,43.3074951171875C37.67608631896972,43.3074951171875,55.210186318969726,51.195625117187504,67.42048631896972,64.9781951171875C67.42048631896972,64.9781951171875,67.42048631896972,64.9781951171875,67.42048631896972,64.9781951171875Z" fill="#68FE7F" fill-opacity="1" style="mix-blend-mode:passthrough"/></g><g><path d="M19.26254918334961,55.684298532653806C16.060079183349607,55.443511932653806,12.85760918334961,55.34719753265381,9.63106918334961,55.34719753265381C9.63106918334961,55.34719753265381,9.63106918334961,64.97859753265381,9.63106918334961,64.97859753265381C9.63106918334961,64.97859753265381,9.63106918334961,137.21419753265383,9.63106918334961,137.21419753265383C29.52006918334961,137.21419753265383,49.19236918334961,141.30749753265383,67.41986918334962,149.25339753265382C85.64746918334961,141.30749753265383,105.3197691833496,137.21419753265383,125.20906918334961,137.21419753265383C125.20906918334961,137.21419753265383,125.20906918334961,64.97859753265381,125.20906918334961,64.97859753265381C125.20906918334961,64.97859753265381,125.20906918334961,55.34719753265381,125.20906918334961,55.34719753265381C121.98206918334961,55.34719753265381,118.78006918334961,55.443511932653806,115.57706918334961,55.684298532653806" fill="#68FE7F" fill-opacity="1" style="mix-blend-mode:passthrough"/></g></g><g transform="matrix(0.9659258127212524,-0.258819043636322,0.258819043636322,0.9659258127212524,-12.39837970814915,5.220218709082474)"><g><path d="M73.79925639648437,146.77333395385742C73.79925639648437,146.77333395385742,66.04295639648439,146.77333395385742,66.04295639648439,146.77333395385742C62.82205639648438,146.77333395385742,60.19795639648437,144.1693339538574,60.165056396484374,140.95613395385743C60.165056396484374,140.95613395385743,15.626556396484375,140.95613395385743,15.626556396484375,140.95613395385743C14.521992396484375,140.95613395385743,13.626556396484375,140.06073395385744,13.626556396484375,138.95613395385743C13.626556396484375,138.95613395385743,13.626556396484375,69.14933395385742,13.626556396484375,69.14933395385742C13.626556396484375,68.04476995385743,14.521992396484375,67.14933395385742,15.626556396484375,67.14933395385742C15.626556396484375,67.14933395385742,23.382916396484376,67.14933395385742,23.382916396484376,67.14933395385742C23.382916396484376,67.14933395385742,23.382916396484376,71.14933395385742,23.382916396484376,71.14933395385742C23.382916396484376,71.14933395385742,17.626556396484375,71.14933395385742,17.626556396484375,71.14933395385742C17.626556396484375,71.14933395385742,17.626556396484375,136.95613395385743,17.626556396484375,136.95613395385743C17.626556396484375,136.95613395385743,60.225656396484375,136.95613395385743,60.225656396484375,136.95613395385743C62.39765639648437,136.95613395385743,64.16475639648438,138.7232339538574,64.16475639648438,140.89523395385743C64.16475639648438,141.93083395385742,65.00725639648437,142.77333395385742,66.04295639648439,142.77333395385742C66.04295639648439,142.77333395385742,73.79925639648437,142.77333395385742,73.79925639648437,142.77333395385742C74.83485639648438,142.77333395385742,75.67745639648437,141.93083395385742,75.67745639648437,140.89523395385743C75.67745639648437,138.7232339538574,77.44455639648437,136.95613395385743,79.61655639648437,136.95613395385743C79.61655639648437,136.95613395385743,122.21555639648437,136.95613395385743,122.21555639648437,136.95613395385743C122.21555639648437,136.95613395385743,122.21555639648437,71.14933395385742,122.21555639648437,71.14933395385742C122.21555639648437,71.14933395385742,116.45955639648437,71.14933395385742,116.45955639648437,71.14933395385742C116.45955639648437,71.14933395385742,116.45955639648437,67.14933395385742,116.45955639648437,67.14933395385742C116.45955639648437,67.14933395385742,124.21555639648437,67.14933395385742,124.21555639648437,67.14933395385742C125.32055639648438,67.14933395385742,126.21555639648437,68.04476995385743,126.21555639648437,69.14933395385742C126.21555639648437,69.14933395385742,126.21555639648437,138.95613395385743,126.21555639648437,138.95613395385743C126.21555639648437,140.06073395385744,125.32055639648438,140.95613395385743,124.21555639648437,140.95613395385743C124.21555639648437,140.95613395385743,79.67715639648438,140.95613395385743,79.67715639648438,140.95613395385743C79.64425639648438,144.1693339538574,77.02015639648437,146.77333395385742,73.79925639648437,146.77333395385742C73.79925639648437,146.77333395385742,73.79925639648437,146.77333395385742,73.79925639648437,146.77333395385742Z" fill="#3A3A3A" fill-opacity="1" style="mix-blend-mode:passthrough"/></g><g><path d="M31.139277458190918,49.6976318359375C45.794577458190915,49.6976318359375,59.80497745819092,55.6864518359375,69.92107745819092,66.2016318359375C80.03727745819091,55.6864518359375,94.04757745819091,49.6976318359375,108.70287745819091,49.6976318359375C109.80747745819092,49.6976318359375,110.70287745819091,50.5930638359375,110.70287745819091,51.6976318359375C110.70287745819091,51.6976318359375,110.70287745819091,117.6262318359375,110.70287745819091,117.6262318359375C110.70287745819091,118.7308318359375,109.80747745819092,119.6262318359375,108.70287745819091,119.6262318359375C94.45417745819091,119.6262318359375,80.86437745819092,125.7416318359375,71.41807745819091,136.40423183593748C71.03857745819091,136.8326318359375,70.49347745819091,137.0779318359375,69.92107745819092,137.0779318359375C69.34867745819092,137.0779318359375,68.80367745819092,136.8326318359375,68.42407745819091,136.40423183593748C58.977777458190914,125.7416318359375,45.38797745819092,119.6262318359375,31.139277458190918,119.6262318359375C30.034709458190918,119.6262318359375,29.139277458190918,118.7308318359375,29.139277458190918,117.6262318359375C29.139277458190918,117.6262318359375,29.139277458190918,51.6976318359375,29.139277458190918,51.6976318359375C29.139277458190918,50.5930638359375,30.034709458190918,49.6976318359375,31.139277458190918,49.6976318359375C31.139277458190918,49.6976318359375,31.139277458190918,49.6976318359375,31.139277458190918,49.6976318359375ZM69.92107745819092,71.1493318359375C69.34867745819092,71.1493318359375,68.80367745819092,70.9040318359375,68.42407745819091,70.47563183593749C59.42057745819092,60.3127318359375,46.65387745819092,54.2809718359375,33.13927745819092,53.7378218359375C33.13927745819092,53.7378218359375,33.13927745819092,115.6635318359375,33.13927745819092,115.6635318359375C47.06397745819092,116.1816318359375,60.26607745819092,122.0943318359375,69.92107745819092,132.13023183593748C79.57617745819093,122.0943318359375,92.77817745819092,116.1816318359375,106.70287745819091,115.6635318359375C106.70287745819091,115.6635318359375,106.70287745819091,53.7378218359375,106.70287745819091,53.7378218359375C93.18827745819092,54.2809718359375,80.42157745819091,60.3127318359375,71.41807745819091,70.47563183593749C71.03857745819091,70.9040318359375,70.49347745819091,71.1493318359375,69.92107745819092,71.1493318359375C69.92107745819092,71.1493318359375,69.92107745819092,71.1493318359375,69.92107745819092,71.1493318359375Z" fill="#3A3A3A" fill-opacity="1" style="mix-blend-mode:passthrough"/></g><g><path d="M69.92112646408081,139.01702158355712C69.6489264640808,139.01702158355712,69.3767264640808,138.96152158355713,69.12182646408081,138.85042158355714C54.61762646408081,132.52762158355713,39.22882646408081,129.32162158355715,23.38292646408081,129.32162158355715C22.27835946408081,129.32162158355715,21.38292646408081,128.42622158355712,21.38292646408081,127.32162158355713C21.38292646408081,127.32162158355713,21.38292646408081,61.39302158355713,21.38292646408081,61.39302158355713C21.38292646408081,60.288454583557126,22.27835946408081,59.39302158355713,23.38292646408081,59.39302158355713C26.22309646408081,59.39302158355713,28.80927646408081,59.48367168355713,31.289226464080812,59.670138583557126C31.289226464080812,59.670138583557126,30.98932646408081,63.65887158355713,30.98932646408081,63.65887158355713C29.20202646408081,63.52449158355713,27.35338646408081,63.44198158355713,25.38292646408081,63.40925158355713C25.38292646408081,63.40925158355713,25.38292646408081,125.33862158355713,25.38292646408081,125.33862158355713C32.82862646408081,125.46492158355713,40.28022646408081,126.29532158355713,47.56152646408081,127.81172158355713C55.21562646408081,129.40582158355713,62.73382646408081,131.76892158355713,69.92112646408081,134.83882158355715C77.10832646408082,131.76892158355713,84.6266264640808,129.40582158355713,92.28062646408081,127.81172158355713C99.56202646408082,126.29532158355713,107.01352646408081,125.46492158355713,114.45922646408081,125.33862158355713C114.45922646408081,125.33862158355713,114.45922646408081,63.40925158355713,114.45922646408081,63.40925158355713C112.48882646408082,63.44198158355713,110.64012646408081,63.52449158355713,108.8528264640808,63.65887158355713C108.8528264640808,63.65887158355713,108.55292646408081,59.670138583557126,108.55292646408081,59.670138583557126C111.03292646408082,59.48367168355713,113.61912646408081,59.39302158355713,116.45922646408081,59.39302158355713C117.5638264640808,59.39302158355713,118.45922646408081,60.288454583557126,118.45922646408081,61.39302158355713C118.45922646408081,61.39302158355713,118.45922646408081,127.32162158355713,118.45922646408081,127.32162158355713C118.45922646408081,128.42622158355712,117.5638264640808,129.32162158355715,116.45922646408081,129.32162158355715C100.61332646408081,129.32162158355715,85.22452646408081,132.52762158355713,70.72032646408081,138.85042158355714C70.46552646408081,138.96152158355713,70.19332646408081,139.01702158355712,69.92112646408081,139.01702158355712C69.92112646408081,139.01702158355712,69.92112646408081,139.01702158355712,69.92112646408081,139.01702158355712Z" fill="#3A3A3A" fill-opacity="1" style="mix-blend-mode:passthrough"/></g><g><path d="M72.33296966552734,134.89729116210935C72.33296966552734,134.89729116210935,68.33296966552734,134.89729116210935,68.33296966552734,134.89729116210935C68.33296966552734,134.89729116210935,68.33296966552734,69.65219116210938,68.33296966552734,69.65219116210938C68.33296966552734,69.65219116210938,72.33296966552734,69.65219116210938,72.33296966552734,69.65219116210938C72.33296966552734,69.65219116210938,72.33296966552734,134.89729116210935,72.33296966552734,134.89729116210935C72.33296966552734,134.89729116210935,72.33296966552734,134.89729116210935,72.33296966552734,134.89729116210935Z" fill="#3A3A3A" fill-opacity="1" style="mix-blend-mode:passthrough"/></g><g><path d="M77.67926516723632,76.22987432556152C77.03976516723633,76.22987432556152,76.41154816723633,75.92397432556152,76.02442116723633,75.35557432556152C75.40265116723633,74.44257432556152,75.63869146723633,73.19844432556152,76.55164116723633,72.57667432556153C79.57145516723632,70.52000432556153,82.81287516723633,68.76884432556152,86.18586516723633,67.37184432556153C89.56366516723632,65.97281432556153,93.09986516723633,64.91805632556152,96.69616516723633,64.23687612556152C97.78146516723632,64.03131732556152,98.82786516723633,64.74445632556153,99.03346516723633,65.82972432556153C99.23896516723633,66.91500432556153,98.52586516723633,67.96143432556153,97.44056516723633,68.16699432556152C90.72286516723634,69.43941432556153,84.45240516723632,72.03537432556152,78.80327516723632,75.88277432556153C78.45874516723633,76.11737432556153,78.06688516723632,76.22987432556152,77.67926516723632,76.22987432556152C77.67926516723632,76.22987432556152,77.67926516723632,76.22987432556152,77.67926516723632,76.22987432556152Z" fill="#3A3A3A" fill-opacity="1" style="mix-blend-mode:passthrough"/></g><g><path d="M62.16296611022949,76.22987527923584C61.775266110229495,76.22987527923584,61.38346611022949,76.11747527923583,61.038966110229495,75.88277527923584C55.389766110229495,72.03537527923584,49.11929611022949,69.43941527923585,42.40161611022949,68.16699527923583C41.31635111022949,67.96143527923584,40.60320111022949,66.91499527923584,40.80877081022949,65.82972527923584C41.01433111022949,64.74445727923585,42.060766110229494,64.03131827923583,43.146036110229495,64.23687687923584C46.74230611022949,64.91805727923584,50.278486110229494,65.97281527923585,53.65636611022949,67.37184527923584C57.02936611022949,68.76885527923584,60.27076611022949,70.52000527923585,63.29056611022949,72.57667527923584C64.2034661102295,73.19844527923584,64.43956611022949,74.44257527923584,63.81776611022949,75.35557527923584C63.430666110229495,75.92387527923584,62.80236611022949,76.22987527923584,62.16296611022949,76.22987527923584C62.16296611022949,76.22987527923584,62.16296611022949,76.22987527923584,62.16296611022949,76.22987527923584Z" fill="#3A3A3A" fill-opacity="1" style="mix-blend-mode:passthrough"/></g><g><path d="M77.67926516723632,85.86709089355469C77.03976516723633,85.86709089355469,76.41154816723633,85.56119089355468,76.02442116723633,84.99279089355468C75.40265116723633,84.07979089355469,75.63869146723633,82.83566089355469,76.55164116723633,82.21389089355469C79.57145516723632,80.1572208935547,82.81287516723633,78.40607089355468,86.18586516723633,77.00906089355469C89.56366516723632,75.6100308935547,93.09986516723633,74.55527289355469,96.69616516723633,73.87409279355468C97.78146516723632,73.66853289355468,98.82786516723633,74.3816728935547,99.03346516723633,75.46694089355469C99.23896516723633,76.55221089355469,98.52586516723633,77.59864089355469,97.44056516723633,77.80421089355468C90.72286516723634,79.0766308935547,84.45239516723633,81.67259089355468,78.80327516723632,85.51999089355469C78.45874516723633,85.75459089355469,78.06687516723633,85.86709089355469,77.67926516723632,85.86709089355469C77.67926516723632,85.86709089355469,77.67926516723632,85.86709089355469,77.67926516723632,85.86709089355469Z" fill="#3A3A3A" fill-opacity="1" style="mix-blend-mode:passthrough"/></g><g><path d="M62.16296611022949,85.86709089355469C61.775266110229495,85.86709089355469,61.38346611022949,85.75469089355468,61.038966110229495,85.51999089355469C55.389766110229495,81.67259089355468,49.11931611022949,79.0766308935547,42.40161611022949,77.80421089355468C41.31635111022949,77.59864089355469,40.60320111022949,76.55221089355469,40.80877081022949,75.46694089355469C41.01434011022949,74.3816728935547,42.060766110229494,73.66853289355468,43.146036110229495,73.87409289355469C46.74230611022949,74.55527289355469,50.278486110229494,75.6100308935547,53.65636611022949,77.00906089355469C57.02936611022949,78.40607089355468,60.27076611022949,80.15723089355468,63.29056611022949,82.21389089355469C64.2034661102295,82.83566089355469,64.43956611022949,84.07979089355469,63.81776611022949,84.99279089355468C63.430666110229495,85.56109089355469,62.80236611022949,85.86709089355469,62.16296611022949,85.86709089355469C62.16296611022949,85.86709089355469,62.16296611022949,85.86709089355469,62.16296611022949,85.86709089355469Z" fill="#3A3A3A" fill-opacity="1" style="mix-blend-mode:passthrough"/></g><g><path d="M77.67926516723632,95.50430555419922C77.03976516723633,95.50430555419922,76.41154816723633,95.19840555419921,76.02442116723633,94.63000555419922C75.40265116723633,93.71700555419922,75.63869146723633,92.47287555419922,76.55164116723633,91.85110555419922C79.57145516723632,89.79443555419923,82.81287516723633,88.04328555419922,86.18586516723633,86.64627555419922C89.56366516723632,85.24724555419922,93.09986516723633,84.19248755419922,96.69616516723633,83.51130745419921C97.78146516723632,83.30574755419921,98.82786516723633,84.01888755419922,99.03346516723633,85.10415555419922C99.23896516723633,86.18942555419922,98.52586516723633,87.23585555419922,97.44056516723633,87.44142555419921C90.72286516723634,88.71384555419922,84.45239516723633,91.30980555419922,78.80327516723632,95.15720555419922C78.45874516723633,95.39180555419922,78.06687516723633,95.50430555419922,77.67926516723632,95.50430555419922C77.67926516723632,95.50430555419922,77.67926516723632,95.50430555419922,77.67926516723632,95.50430555419922Z" fill="#3A3A3A" fill-opacity="1" style="mix-blend-mode:passthrough"/></g><g><path d="M62.16296611022949,95.50430555419922C61.775266110229495,95.50430555419922,61.38346611022949,95.39190555419921,61.038966110229495,95.15720555419922C55.389766110229495,91.30980555419922,49.11929611022949,88.71384555419922,42.40161611022949,87.44142555419921C41.31635111022949,87.23586555419922,40.60320111022949,86.18942555419922,40.80877081022949,85.10415555419922C41.01433111022949,84.01888755419922,42.060766110229494,83.30574855419921,43.146036110229495,83.51130715419922C46.74230611022949,84.19248755419922,50.278486110229494,85.24724555419922,53.65636611022949,86.64627555419922C57.02936611022949,88.04328555419922,60.27076611022949,89.79443555419923,63.29056611022949,91.85110555419922C64.2034661102295,92.47287555419922,64.43956611022949,93.71700555419922,63.81776611022949,94.63000555419922C63.430666110229495,95.19830555419922,62.80236611022949,95.50430555419922,62.16296611022949,95.50430555419922C62.16296611022949,95.50430555419922,62.16296611022949,95.50430555419922,62.16296611022949,95.50430555419922Z" fill="#3A3A3A" fill-opacity="1" style="mix-blend-mode:passthrough"/></g><g><path d="M77.67926516723632,105.14151640014649C77.03976516723633,105.14151640014649,76.41154816723633,104.83561640014648,76.02442116723633,104.26721640014648C75.40265116723633,103.35421640014648,75.63869146723633,102.11008640014649,76.55164116723633,101.48831640014649C79.57145516723632,99.43164640014649,82.81287516723633,97.68049640014648,86.18586516723633,96.28348640014649C89.56366516723632,94.88445640014649,93.09986516723633,93.82969840014648,96.69616516723633,93.14851830014648C97.78146516723632,92.94295840014648,98.82786516723633,93.65609840014649,99.03346516723633,94.74136640014649C99.23896516723633,95.82663640014648,98.52586516723633,96.87306640014648,97.44056516723633,97.07863640014648C90.72286516723634,98.35105640014649,84.45239516723633,100.94701640014648,78.80327516723632,104.79441640014649C78.45874516723633,105.02901640014649,78.06687516723633,105.14151640014649,77.67926516723632,105.14151640014649C77.67926516723632,105.14151640014649,77.67926516723632,105.14151640014649,77.67926516723632,105.14151640014649Z" fill="#3A3A3A" fill-opacity="1" style="mix-blend-mode:passthrough"/></g><g><path d="M62.16296611022949,105.14151258544922C61.775266110229495,105.14151258544922,61.38346611022949,105.02911258544921,61.038966110229495,104.79441258544922C55.389766110229495,100.94701258544922,49.11929611022949,98.35105258544922,42.40161611022949,97.07863258544921C41.31635111022949,96.87306258544922,40.60320111022949,95.82663258544922,40.80877081022949,94.74136258544922C41.014341110229495,93.65609758544922,42.060766110229494,92.94294758544922,43.146036110229495,93.14851708544921C46.74230611022949,93.82970758544921,50.278486110229494,94.88445258544922,53.65636611022949,96.28348258544922C57.02936611022949,97.68049258544922,60.27076611022949,99.43165258544921,63.29056611022949,101.48831258544922C64.2034661102295,102.11008258544922,64.43956611022949,103.35421258544922,63.81776611022949,104.26721258544922C63.430666110229495,104.83551258544922,62.80236611022949,105.14151258544922,62.16296611022949,105.14151258544922C62.16296611022949,105.14151258544922,62.16296611022949,105.14151258544922,62.16296611022949,105.14151258544922Z" fill="#3A3A3A" fill-opacity="1" style="mix-blend-mode:passthrough"/></g><g><path d="M77.67926516723632,114.77873487548828C77.03976516723633,114.77873487548828,76.41154816723633,114.47283487548827,76.02442116723633,113.90443487548828C75.40265116723633,112.99143487548828,75.63869146723633,111.74730487548828,76.55164116723633,111.12553487548828C79.57145516723632,109.06886487548829,82.81287516723633,107.31770487548827,86.18586516723633,105.92069487548828C89.56366516723632,104.52166487548828,93.09986516723633,103.46691687548828,96.69616516723633,102.78573647548828C97.78146516723632,102.58017787548827,98.82786516723633,103.29331587548828,99.03346516723633,104.37858487548829C99.23896516723633,105.46386487548828,98.52586516723633,106.51029487548828,97.44056516723633,106.71585487548828C90.72286516723634,107.98826487548828,84.45240516723632,110.58422487548827,78.80327516723632,114.43163487548829C78.45874516723633,114.66623487548829,78.06688516723632,114.77873487548828,77.67926516723632,114.77873487548828C77.67926516723632,114.77873487548828,77.67926516723632,114.77873487548828,77.67926516723632,114.77873487548828Z" fill="#3A3A3A" fill-opacity="1" style="mix-blend-mode:passthrough"/></g><g><path d="M62.16296611022949,114.77873487548828C61.775266110229495,114.77873487548828,61.38346611022949,114.66633487548827,61.038966110229495,114.43163487548829C55.389766110229495,110.58422487548827,49.11929611022949,107.98827487548829,42.40161611022949,106.71585487548828C41.31635111022949,106.51029487548828,40.60320111022949,105.46386487548828,40.80877081022949,104.37858487548829C41.01433111022949,103.29331687548829,42.06075611022949,102.58017787548827,43.146036110229495,102.78573657548829C46.74230611022949,103.46691687548828,50.27847611022949,104.52166487548828,53.65636611022949,105.92069487548828C57.02936611022949,107.31770487548827,60.27076611022949,109.06886487548829,63.29056611022949,111.12553487548828C64.2034661102295,111.74730487548828,64.43956611022949,112.99143487548828,63.81776611022949,113.90443487548828C63.430666110229495,114.47273487548829,62.80236611022949,114.77873487548828,62.16296611022949,114.77873487548828C62.16296611022949,114.77873487548828,62.16296611022949,114.77873487548828,62.16296611022949,114.77873487548828Z" fill="#3A3A3A" fill-opacity="1" style="mix-blend-mode:passthrough"/></g></g></g></g></svg>