<svg xmlns="http://www.w3.org/2000/svg" xmlns:xlink="http://www.w3.org/1999/xlink" fill="none" version="1.1" width="133.083984375" height="120.0546875" viewBox="0 0 133.083984375 120.0546875"><g><g transform="matrix(0,-1,1,0,-94.1231689453125,145.580322265625)"><g><path d="M39.33538388061523,219.20494560546877Q36.55509888061523,216.15724560546874,37.16048888061523,212.37264560546873Q37.65392688061524,209.28794560546874,43.593363880615236,207.87094560546876Q46.138283880615234,207.26384560546876,50.27903388061523,206.79394560546876Q52.82033388061524,206.50564560546874,58.67093388061524,206.01054560546874Q70.93283388061523,204.97314560546874,77.68563388061523,203.89934560546874Q89.28023388061524,202.05594560546876,98.18493388061523,198.64624560546875Q109.32563388061523,194.38064560546874,117.43193388061523,189.23224560546873Q117.61273388061524,193.43024560546877,116.98413388061523,197.35984560546876Q115.93203388061524,203.93744560546875,111.74843388061524,209.33974560546875Q107.89873388061524,214.31134560546874,101.58433388061523,218.06484560546875Q95.75433388061523,221.53074560546875,88.25923388061523,223.71374560546874Q81.25193388061524,225.75474560546877,73.56773388061524,226.46074560546873Q66.19163388061523,227.13774560546875,59.31143388061523,226.49074560546876Q52.45563388061524,225.84474560546874,47.29613388061524,223.99774560546877Q41.96698388061523,222.08974560546875,39.33538388061523,219.20494560546877ZM117.40973388061524,188.77214560546875Q109.27883388061524,193.97004560546875,98.04193388061523,198.27264560546877Q89.17603388061524,201.66734560546877,77.62283388061523,203.50434560546876Q70.88423388061523,204.57594560546875,58.63713388061524,205.61194560546875Q52.78073388061523,206.10744560546874,50.23393388061523,206.39654560546876Q46.069093880615235,206.86904560546876,43.50054388061523,207.48184560546875Q40.471833880615236,208.20434560546875,38.856563880615234,209.29154560546874Q37.05422388061523,210.50464560546874,36.76551138061524,212.30944560546874Q36.12967088061524,216.28434560546873,39.039863880615236,219.47444560546876Q41.73849388061524,222.43274560546877,47.16133388061523,224.37474560546875Q52.36813388061523,226.23874560546875,59.27393388061523,226.88874560546876Q66.19123388061523,227.53974560546874,73.60433388061523,226.85874560546876Q81.32683388061523,226.14974560546875,88.37113388061523,224.09774560546873Q95.91513388061523,221.90074560546876,101.78873388061524,218.40874560546877Q108.16823388061523,214.61634560546875,112.06463388061523,209.58464560546875Q116.31093388061524,204.10144560546877,117.37913388061523,197.42294560546875Q118.03153388061523,193.34494560546875,117.82103388061523,188.98344560546875Q124.17013388061524,184.89744560546876,128.62373388061525,180.25994560546874Q137.57763388061522,170.93624560546874,138.37563388061523,159.98684560546874Q139.06763388061523,150.50274560546876,133.66583388061525,141.04894560546876Q128.88953388061523,132.68894560546875,120.83543388061524,126.62558560546876Q116.57053388061523,123.41562560546875,112.25023388061524,121.59259560546874Q107.87523388061524,119.74655160546875,104.22653388061524,119.65618960546875Q100.36793388061523,119.56063260546875,97.92473388061524,121.45629560546875Q95.29503388061524,123.49650560546876,94.63703388061523,127.61095560546875Q94.01973388061523,131.47054560546874,96.67123388061523,137.75744560546875Q98.28953388061524,141.59484560546875,103.23273388061523,150.52194560546874Q107.04963388061523,157.41524560546875,108.90063388061523,161.10264560546875Q112.02773388061523,167.33244560546876,113.92033388061523,172.57934560546875Q117.00073388061523,181.11884560546875,117.40973388061524,188.77214560546875ZM117.79653388061523,188.52324560546873Q123.98093388061524,184.51684560546875,128.33523388061525,179.98284560546875Q137.18963388061525,170.76324560546874,137.97663388061522,159.95774560546874Q138.65863388061524,150.59554560546874,133.31853388061523,141.24744560546876Q128.5833338806152,132.95904560546876,120.59493388061523,126.94517560546875Q116.36953388061524,123.76494560546875,112.09473388061524,121.96112560546875Q107.78953388061524,120.14455260546875,104.21663388061523,120.05606760546875Q100.50063388061523,119.96404060546875,98.16993388061523,121.77233560546875Q95.66523388061523,123.71569560546875,95.03203388061524,127.67412560546875Q94.43283388061523,131.42064560546874,97.03973388061524,137.60204560546876Q98.64973388061523,141.41984560546877,103.58263388061523,150.32824560546874Q107.40353388061523,157.22854560546875,109.25813388061523,160.92324560546876Q112.39583388061523,167.17444560546875,114.29663388061523,172.44364560546876Q117.35143388061523,180.91214560546877,117.79653388061523,188.52324560546873Z" fill-rule="evenodd" fill="#68FE7F" fill-opacity="1" style="mix-blend-mode:passthrough"/></g><g><path d="M35.285223681488034,212.40342551345825Q32.84235768148804,209.21422551345825,33.838025681488034,205.66292551345825Q34.65040368148804,202.76612551345823,40.70642368148803,202.00792551345825Q43.301653681488034,201.68302551345823,47.46933368148804,201.64972551345824Q50.020633681488036,201.62932551345824,55.89763368148804,201.74402551345827Q68.20413368148803,201.98402551345825,75.02753368148804,201.63612551345824Q86.74903368148804,201.03852551345824,95.96153368148804,198.67332551345825Q107.48803368148803,195.71362551345825,116.08873368148804,191.60432551345826Q115.82933368148804,195.63142551345825,114.79463368148804,199.32112551345824Q113.06153368148804,205.50252551345824,108.33773368148803,210.24672551345827Q103.98963368148804,214.61372551345823,97.31733368148804,217.56862551345824Q91.15673368148803,220.29702551345827,83.47353368148804,221.63172551345826Q76.29023368148805,222.87932551345824,68.57393368148803,222.78212551345825Q61.16673368148804,222.68872551345825,54.39123368148803,221.37792551345825Q47.63923368148804,220.07152551345825,42.700993681488036,217.78622551345825Q37.600143681488035,215.42542551345826,35.285223681488034,212.40342551345825ZM116.11563368148803,191.14832551345825Q107.48603368148804,195.30132551345827,95.86203368148804,198.28582551345824Q86.68893368148804,200.64132551345824,75.00723368148803,201.23662551345825Q68.19773368148805,201.58382551345824,55.90553368148804,201.34412551345827Q50.02283368148804,201.22932551345826,47.46613368148804,201.24982551345823Q43.27502368148804,201.28322551345826,40.656733681488035,201.61102551345826Q34.337020681488035,202.40202551345826,33.452879681488035,205.55492551345827L33.452876681488036,205.55502551345825Q32.40323768148804,209.29892551345824,34.96768368148804,212.64672551345825Q37.34258368148804,215.74702551345825,42.53299368148804,218.14922551345825Q47.51553368148804,220.45512551345826,54.31523368148804,221.77062551345824Q61.125933681488036,223.08822551345827,68.56893368148803,223.18212551345823Q76.32223368148803,223.27992551345824,83.54193368148805,222.02582551345824Q91.27363368148804,220.68272551345825,97.47933368148804,217.93442551345825Q104.22013368148804,214.94892551345825,108.62113368148803,210.52902551345824Q113.41833368148804,205.71092551345825,115.17973368148803,199.42912551345825Q116.25453368148804,195.59602551345824,116.50153368148804,191.40562551345823Q123.24123368148804,188.13712551345827,128.15453368148803,184.15102551345825Q138.03643368148803,176.13362551345824,139.97543368148803,165.73912551345825Q141.65443368148806,156.73492551345825,137.26943368148804,147.14772551345825Q133.39243368148806,138.67142551345825,126.01523368148804,132.06328551345825Q122.10973368148804,128.56492551345826,118.00333368148803,126.38723551345825Q113.84623368148803,124.18257051345824,110.22803368148804,123.72961611345825Q106.40313368148804,123.25077351345826,103.77643368148804,124.81706251345825Q100.94633368148804,126.50463551345825,99.86043368148803,130.37641551345826Q98.84163368148803,134.00932551345826,100.82293368148804,140.29192551345824Q102.03183368148804,144.12532551345825,106.01493368148803,153.15912551345826Q109.08953368148804,160.13232551345826,110.54573368148803,163.84642551345826Q113.00403368148804,170.11622551345826,114.33793368148804,175.32422551345826Q116.50753368148804,183.79362551345827,116.11563368148803,191.14832551345825ZM116.52603368148803,190.94932551345823Q123.09683368148804,187.73922551345825,127.90253368148804,183.84032551345825Q137.67043368148802,175.91582551345826,139.58143368148802,165.66572551345826Q141.23743368148803,156.78622551345825,136.90543368148803,147.31412551345824Q133.06333368148802,138.91372551345825,125.74843368148804,132.36123551345824Q121.87903368148804,128.89542551345826,117.81593368148803,126.74061551345825Q113.72353368148804,124.57035251345825,110.17833368148804,124.12651751345825Q106.48983368148804,123.66475751345826,103.98133368148804,125.16062551345826Q101.28833368148804,126.76641551345826,100.24563368148803,130.48440551345826Q99.25893368148803,134.00262551345824,101.20433368148804,140.17162551345825Q102.40663368148803,143.98402551345825,106.38093368148803,152.99772551345825Q109.45883368148803,159.97842551345826,110.91813368148804,163.70032551345827Q113.38553368148804,169.99302551345824,114.72543368148804,175.22492551345826Q116.87753368148803,183.62742551345826,116.52603368148803,190.94932551345823Z" fill-rule="evenodd" fill="#68FE7F" fill-opacity="1" style="mix-blend-mode:passthrough"/></g><g><path d="M31.967975027770997,205.494057913208Q29.875583027770997,202.204457913208,31.234423027770998,198.91515791320802L31.234440027770997,198.91515791320802Q32.343985027771,196.229157913208,38.447865027770995,196.112657913208Q41.063105027770995,196.062757913208,45.212005027771,196.449857913208Q47.752105027770995,196.686857913208,53.584505027770994,197.386957913208Q65.799205027771,198.853157913208,72.620505027771,199.20615791320802Q84.340805027771,199.81255791320802,93.748105027771,198.476857913208Q105.52040502777099,196.805257913208,114.503105027771,193.740157913208Q113.824405027771,197.557957913208,112.412205027771,200.976457913208Q110.04310502777099,206.711457913208,104.85040502777099,210.772557913208Q100.068905027771,214.511957913208,93.124105027771,216.667157913208Q86.711205027771,218.657257913208,78.92970502777099,219.161457913208Q71.654705027771,219.632857913208,63.990105027770994,218.764057913208Q56.631005027770996,217.92965791320802,50.03070502777099,215.995457913208Q43.451405027770996,214.067157913208,38.779175027771,211.38545791320803Q33.953535027771,208.615657913208,31.967975027770997,205.494057913208ZM114.580205027771,193.29125791320803Q105.563905027771,196.395057913208,93.69190502777099,198.080757913208Q84.322505027771,199.411257913208,72.641205027771,198.80665791320803Q65.833605027771,198.454457913208,53.63220502777099,196.989757913208Q47.796805027771,196.289357913208,45.249105027770995,196.051557913208Q41.078605027771,195.662357913208,38.440235027770996,195.712757913208Q32.074355027771,195.834257913208,30.864742027770998,198.762457913208L30.864727027770996,198.762457913208Q29.426545027770995,202.243857913208,31.630475027770995,205.708757913208Q33.66891502777099,208.91355791320802,38.58004502777099,211.732357913208Q43.293405027770994,214.437757913208,49.918205027770995,216.37935791320803Q56.55170502777099,218.32345791320802,63.945005027770996,219.16155791320801Q71.645105027771,220.034357913208,78.955505027771,219.560657913208Q86.78450502777099,219.053357913208,93.242705027771,217.049157913208Q100.257405027771,214.872157913208,105.096805027771,211.087657913208Q110.372505027771,206.961757913208,112.78190502777099,201.12915791320802Q114.251205027771,197.572357913208,114.935305027771,193.59135791320801Q121.978305027771,191.143357913208,127.280505027771,187.825857913208Q137.947005027771,181.15155791320802,140.96300502777098,171.40305791320802Q143.57600502777098,162.95695791320802,140.21500502777099,153.343557913208Q137.24500502777101,144.846357913208,130.597005027771,137.78407791320802Q127.078705027771,134.046217913208,123.22250502777099,131.55097791320802Q119.319105027771,129.025273913208,115.76910502777099,128.22867191320802Q112.017705027771,127.386897913208,109.243705027771,128.61984891320802Q106.252105027771,129.949477913208,104.766405027771,133.545587913208Q103.372005027771,136.921207913208,104.686605027771,143.132657913208Q105.48790502777099,146.919557913208,108.505605027771,155.960257913208Q110.83460502777099,162.938057913208,111.894405027771,166.634957913208Q113.68350502777099,172.87645791320801,114.465705027771,177.990257913208Q115.737105027771,186.301657913208,114.580205027771,193.29125791320803ZM115.009805027771,193.141957913208Q121.881105027771,190.732457913208,127.06830502777099,187.486757913208Q137.609005027771,180.891457913208,140.581005027771,171.284757913208Q143.15500502777098,162.964557913208,139.83800502777098,153.475557913208Q136.895005027771,145.058657913208,130.306005027771,138.05824791320802Q126.820605027771,134.35568791320802,123.005205027771,131.886807913208Q119.161905027771,129.39991791320801,115.681505027771,128.618965913208Q112.05930502777099,127.806166913208,109.406205027771,128.98537091320802Q106.560705027771,130.25003791320802,105.136105027771,133.69828791320802Q103.78920502777099,136.959517913208,105.077905027771,143.049857913208Q105.874605027771,146.814357913208,108.885005027771,155.83365791320801Q111.216805027771,162.819457913208,112.27890502777099,166.52475791320802Q114.075005027771,172.790657913208,114.86110502777099,177.929757913208Q116.12270502777099,186.177357913208,115.009805027771,193.141957913208Z" fill-rule="evenodd" fill="#68FE7F" fill-opacity="1" style="mix-blend-mode:passthrough"/></g><g><path d="M29.392762300872803,198.55286541137696Q27.659065300872804,195.20336541137695,29.350802300872804,192.20066541137695Q30.734302300872802,189.74456541137695,36.8191723008728,190.24706541137695Q39.4259123008728,190.46226541137696,43.5113123008728,191.24946541137695Q46.01531230087281,191.73196541137696,51.7397123008728,192.98726541137694Q63.730312300872804,195.61656541137694,70.4813123008728,196.64056541137694Q82.0720123008728,198.39856541137695,91.5683123008728,198.06646541137695Q103.4493123008728,197.65116541137695,112.7021123008728,195.62336541137694Q111.62921230087281,199.19776541137696,109.8714123008728,202.31806541137695Q106.9170123008728,207.56236541137696,101.32831230087281,210.92386541137694Q96.1817123008728,214.01946541137696,89.0485123008728,215.38246541137696Q82.4625123008728,216.64106541137696,74.6694123008728,216.34126541137695Q67.3855123008728,216.06086541137694,59.851912300872804,214.45946541137695Q52.6211123008728,212.92226541137694,46.25761230087281,210.40876541137695Q39.916112300872804,207.90366541137695,35.5491423008728,204.86916541137697Q31.040382300872803,201.73606541137696,29.392762300872803,198.55286541137696ZM112.8305123008728,195.18576541137696Q103.5384123008728,197.24776541137695,91.5543123008728,197.66676541137696Q82.09511230087281,197.99756541137697,70.5412123008728,196.24506541137697Q63.8032123008728,195.22306541137695,51.8254123008728,192.59656541137696Q46.095912300872804,191.34016541137694,43.5870123008728,190.85676541137695Q39.4804123008728,190.06536541137694,36.852092300872805,189.84836541137696Q30.5116223008728,189.32476541137694,29.002306300872803,192.00426541137696Q27.204492300872804,195.19526541137697,29.037523300872802,198.73676541137695Q30.730722300872802,202.00816541137695,35.3208823008728,205.19766541137696Q39.72591230087281,208.25866541137697,46.1106123008728,210.78076541137693Q52.5053123008728,213.30666541137697,59.7688123008728,214.85076541137695Q67.3359123008728,216.45926541137695,74.65401230087281,216.74096541137695Q82.4928123008728,217.04266541137696,89.1236123008728,215.77536541137695Q96.32701230087281,214.39886541137696,101.5345123008728,211.26656541137697Q107.2134123008728,207.85066541137695,110.2199123008728,202.51446541137693Q112.0525123008728,199.26156541137695,113.1491123008728,195.52416541137694Q120.4089123008728,193.89126541137696,126.0283123008728,191.25196541137694Q137.33511230087282,185.94106541137694,141.3541123008728,176.91976541137694Q144.8381123008728,169.10096541137696,142.4991123008728,159.56576541137696Q140.4331123008728,151.13846541137696,134.5591123008728,143.71636541137696Q131.4501123008728,139.78768541137694,127.87491230087281,137.01355541137696Q124.2570123008728,134.20608541137696,120.8101123008728,133.08771741137696Q117.1694123008728,131.90644641137695,114.2841123008728,132.80609041137694Q111.17031230087281,133.77691541137696,109.3166123008728,137.06796541137695Q107.57481230087281,140.15938541137695,108.2331123008728,146.23606541137696Q108.6342123008728,149.93986541137696,110.69041230087281,158.88886541137697Q112.27691230087281,165.79406541137695,112.9444123008728,169.43656541137696Q114.0711123008728,175.58446541137695,114.3143123008728,180.55146541137697Q114.7094123008728,188.62236541137696,112.8305123008728,195.18576541137696ZM113.2747123008728,195.08586541137694Q120.3601123008728,193.47226541137695,125.85821230087281,190.88986541137695Q137.03011230087282,185.64236541137694,140.98911230087282,176.75696541137694Q144.41711230087282,169.06336541137696,142.1111123008728,159.66106541137697Q140.06511230087278,151.31826541137696,134.2451123008728,143.96456541137695Q131.16611230087278,140.07394541137694,127.6297123008728,137.32956541137696Q124.0670123008728,134.56498541137697,120.6867123008728,133.46819141137695Q117.1670123008728,132.32619241137695,114.4031123008728,133.18795941137697Q111.4410123008728,134.11153541137696,109.6651123008728,137.26432541137694Q107.9863123008728,140.24388541137697,108.6308123008728,146.19296541137695Q109.02951230087281,149.87336541137694,111.0803123008728,158.79926541137695Q112.6687123008728,165.71296541137696,113.3379123008728,169.36446541137695Q114.4694123008728,175.53856541137696,114.7138123008728,180.53196541137694Q115.1060123008728,188.54076541137695,113.2747123008728,195.08586541137694Z" fill-rule="evenodd" fill="#68FE7F" fill-opacity="1" style="mix-blend-mode:passthrough"/></g><g><path d="M27.5571966978302,191.6584662689209Q26.1859416978302,188.2884662689209,28.1779676978302,185.5927662689209Q29.8108576978302,183.3828662689209,35.813617697830196,184.4755662689209Q38.383797697830204,184.9433662689209,42.3652976978302,186.1069662689209Q44.805897697830204,186.8201662689209,50.3673976978302,188.5957662689209Q62.0175976978302,192.3153662689209,68.6235976978302,193.9726662689209Q79.9670976978302,196.8185662689209,89.4440976978302,197.4553662689209Q101.3005976978302,198.2522662689209,110.7124976978302,197.2439662689209Q109.2738976978302,200.5452662689209,107.2042976978302,203.3458662689209Q103.7181976978302,208.0633662689209,97.8091976978302,210.71606626892088Q92.3669976978302,213.1589662689209,85.1286976978302,213.74596626892088Q78.4465976978302,214.2875662689209,70.7264976978302,213.2174662689209Q63.5095976978302,212.21676626892088,56.1858976978302,209.9283662689209Q49.1539976978302,207.7310662689209,43.0887976978302,204.6879662689209Q37.043497697830205,201.6548662689209,33.0178576978302,198.3142662689209Q28.8622876978302,194.8658662689209,27.5571966978302,191.6584662689209ZM110.8927976978302,196.82226626892088Q101.4349976978302,197.8603662689209,89.4708976978302,197.0562662689209Q80.0295976978302,196.4219662689209,68.7209976978302,193.5846662689209Q62.1272976978302,191.9302662689209,50.4890976978302,188.2147662689209Q44.9229976978302,186.43776626892088,42.4774976978302,185.7229662689209Q38.4759976978302,184.5535662689209,35.8852476978302,184.0819662689209Q29.6372376978302,182.9446662689209,27.8562676978302,185.3550662689209Q25.7308276978302,188.2312662689209,27.1866936978302,191.8091662689209Q28.5296076978302,195.1095662689209,32.7624176978302,198.6220662689209Q36.8232976978302,201.9918662689209,42.9093976978302,205.0454662689209Q49.003697697830205,208.10316626892092,56.066597697830204,210.3101662689209Q63.4217976978302,212.6084662689209,70.67159769783021,213.6136662689209Q78.4350976978302,214.6899662689209,85.1609976978302,214.1446662689209Q92.4679976978302,213.5524662689209,97.9729976978302,211.08096626892092Q103.9774976978302,208.3852662689209,107.5259976978302,203.5835662689209Q109.6885976978302,200.6571662689209,111.1700976978302,197.1936662689209Q118.56069769783021,196.3620662689209,124.4245976978302,194.4030662689209Q136.2234976978302,190.4613662689209,141.1654976978302,182.2368662689209Q145.4494976978302,175.1063662689209,144.11949769783018,165.7475662689209Q142.9454976978302,157.4781662689209,137.8784976978302,149.7876662689209Q135.19649769783018,145.7178262689209,131.93049769783022,142.7053562689209Q128.6264976978302,139.6571262689209,125.3151976978302,138.2414192689209Q121.8196976978302,136.74678626892089,118.8580976978302,137.3167585689209Q115.6609976978302,137.9320612689209,113.4723976978302,140.8936262689209Q111.4149976978302,143.6777862689209,111.4347976978302,149.5590662689209Q111.4467976978302,153.1437662689209,112.5563976978302,161.9065662689209Q113.4122976978302,168.6668662689209,113.6956976978302,172.2189662689209Q114.1735976978302,178.2106662689209,113.8963976978302,182.9837662689209Q113.4458976978302,190.7373662689209,110.8927976978302,196.82226626892088ZM111.3474976978302,196.7710662689209Q118.5610976978302,195.9401662689209,124.2978976978302,194.0237662689209Q135.9574976978302,190.1287662689209,140.82249769783022,182.0308662689209Q145.0334976978302,175.0220662689209,143.7234976978302,165.8038662689209Q142.5614976978302,157.6231662689209,137.5444976978302,150.0077662689209Q134.8894976978302,145.9787362689209,131.6594976978302,142.9993762689209Q128.40549769783019,139.9978362689209,125.1579976978302,138.6092062689209Q121.7748976978302,137.1627222689209,118.9336976978302,137.7095502689209Q115.8898976978302,138.2953512689209,113.7940976978302,141.1313462689209Q111.8155976978302,143.8089462689209,111.8347976978302,149.5577662689209Q111.8467976978302,153.1179662689209,112.9532976978302,161.8563662689209Q113.8103976978302,168.6258662689209,114.0943976978302,172.1871662689209Q114.5744976978302,178.2063662689209,114.2956976978302,183.0068662689209Q113.8488976978302,190.6989662689209,111.3474976978302,196.7710662689209Z" fill-rule="evenodd" fill="#68FE7F" fill-opacity="1" style="mix-blend-mode:passthrough"/></g><g><path d="M26.45204271767521,184.88249695739745Q25.44288171767521,181.52969695739745,27.70147371767521,179.15669695739746Q29.55777371767521,177.20659695739747,35.41700371767521,178.85579695739744Q37.924763717675205,179.56169695739746,41.76276371767521,181.07459695739746Q44.11426371767521,182.00139695739745,49.46086371767521,184.25889695739747Q60.660463717675206,188.98739695739746,67.0547637176752,191.23539695739746Q78.03816371767522,195.09659695739745,87.39626371767521,196.65809695739745Q99.0998637176752,198.61079695739747,108.56226371767521,198.59319695739745Q106.78976371767521,201.59659695739745,104.4448637176752,204.06019695739747Q96.75586371767521,212.13849695739748,81.40036371767522,211.78699695739746Q74.6970637176752,211.63359695739746,67.13066371767522,209.83379695739745Q60.05816371767521,208.15159695739746,53.01246371767521,205.22689695739746Q46.249263717675205,202.41929695739748,40.534363717675205,198.89909695739746Q34.83909371767521,195.39099695739748,31.184933717675207,191.79219695739746Q27.41388371767521,188.07819695739747,26.45204271767521,184.88249695739745ZM108.79476371767521,198.19269695739746Q99.27866371767522,198.23519695739748,87.4620637176752,196.26359695739745Q78.13816371767521,194.70779695739748,67.1874637176752,190.85799695739746Q60.80476371767521,188.61399695739746,49.61636371767521,183.89039695739746Q44.26516371767521,181.63099695739746,41.909363717675205,180.70239695739747Q38.052763717675205,179.18209695739745,35.52538371767521,178.47079695739745Q29.43420371767521,176.75619695739746,27.411733717675208,178.88089695739745Q24.99284571767521,181.42229695739746,26.06901571767521,184.99779695739747Q27.06034371767521,188.29139695739747,30.90425371767521,192.07719695739746Q34.59070371767521,195.70789695739745,40.32456371767521,199.23969695739746Q46.06656371767521,202.77669695739746,52.85916371767521,205.59629695739747Q59.93436371767521,208.53359695739746,67.03806371767521,210.22299695739747Q74.64576371767521,212.03229695739748,81.39116371767521,212.18689695739747Q88.71856371767521,212.35469695739746,94.4508637176752,210.54519695739748Q100.70376371767522,208.57129695739746,104.7346637176752,204.33599695739747Q107.1914637176752,201.75459695739747,109.02716371767521,198.59119695739747Q116.4650637176752,198.53889695739747,122.5018637176752,197.25489695739748Q134.6478637176752,194.67159695739747,140.4218637176752,187.30319695739746Q145.4308637176752,180.91209695739747,145.0858637176752,171.82419695739748Q144.7818637176752,163.79519695739745,140.5448637176752,155.92949695739748Q138.30286371767522,151.76653695739745,135.3688637176752,148.55723695739746Q132.4008637176752,145.30963695739746,129.2558637176752,143.62287695739747Q125.9376637176752,141.84279795739747,122.9350637176752,142.08974795739746Q119.69326371767521,142.35637675739747,117.2076637176752,144.96797695739747Q114.8681637176752,147.42582695739745,114.27246371767521,153.05659695739746Q113.9097637176752,156.48389695739746,114.0968637176752,164.97949695739746Q114.2411637176752,171.53539695739747,114.1516637176752,174.95469695739746Q114.0004637176752,180.73199695739746,113.2260637176752,185.26669695739747Q111.96816371767521,192.63279695739746,108.79476371767521,198.19269695739746ZM109.25636371767521,198.18949695739747Q116.5146637176752,198.11939695739747,122.41866371767522,196.86359695739748Q134.42286371767523,194.31069695739745,140.1068637176752,187.05649695739746Q145.0248637176752,180.78069695739745,144.6858637176752,171.83939695739747Q144.3858637176752,163.90319695739745,140.1928637176752,156.11919695739746Q137.97386371767521,151.99982695739746,135.0738637176752,148.82709695739746Q132.1518637176752,145.62987695739747,129.0668637176752,143.97536695739745Q125.8527637176752,142.25113563739745,122.96786371767521,142.48840195739746Q119.87786371767521,142.74253395739746,117.49736371767521,145.24374695739746Q115.2517637176752,147.60307695739746,114.67016371767521,153.09869695739746Q114.3100637176752,156.50069695739745,114.49676371767521,164.97069695739745Q114.64126371767522,171.53629695739747,114.55156371767521,174.96519695739747Q114.3994637176752,180.77109695739745,113.6203637176752,185.33399695739746Q112.37306371767521,192.63759695739748,109.25636371767521,198.18949695739747Z" fill-rule="evenodd" fill="#68FE7F" fill-opacity="1" style="mix-blend-mode:passthrough"/></g><g><path d="M26.06239866015625,178.29171194458007Q25.41070166015625,174.9917119445801,27.90069666015625,172.95291194458008Q29.95289666015625,171.27281194458007,35.61169666015625,173.4404119445801Q38.03237666015625,174.36761194458006,41.69157666015625,176.20031194458008Q43.93497666015625,177.3238119445801,49.01537666015625,180.01931194458007Q59.65647666015625,185.66531194458008,65.78287666015625,188.45871194458007Q76.30067666015626,193.2547119445801,85.44447666015625,195.68871194458006Q96.87317666015625,198.73061194458006,106.28117666015625,199.66531194458008Q104.20907666015626,202.3496119445801,101.62697666015625,204.46381194458007Q93.13457666015626,211.4175119445801,77.89707666015624,209.53721194458006Q71.24577666015625,208.71651194458008,63.90837666015625,206.2350119445801Q57.050176660156254,203.9155119445801,50.34847666015625,200.41041194458006Q43.91587666015625,197.04601194458007,38.59987666015625,193.10521194458008Q33.30288666015625,189.17851194458007,30.04501666015625,185.36991194458008Q26.68438966015625,181.44121194458006,26.06239866015625,178.29171194458007ZM106.56517666015625,199.29151194458007Q97.09527666015624,198.37581194458008,85.54737666015626,195.30211194458008Q76.43617666015625,192.8769119445801,65.94877666015626,188.09481194458007Q59.83327666015625,185.30621194458007,49.20287666015625,179.66601194458008Q44.118276660156255,176.96831194458008,41.87077666015625,175.84261194458009Q38.19397666015625,174.00121194458006,35.75477666015625,173.06691194458008Q29.87916666015625,170.8163119445801,27.64728666015625,172.64341194458007L27.64728666015625,172.64341194458007Q24.97184466015625,174.8341119445801,25.66997756015625,178.3692119445801Q26.31228266015625,181.62151194458008,29.74104666015625,185.62991194458007Q33.02835666015625,189.47291194458006,38.36167666015625,193.42651194458008Q43.70287666015625,197.38591194458007,50.16307666015625,200.7648119445801Q56.89247666015625,204.28441194458009,63.78017666015625,206.61391194458008Q71.15627666015625,209.10861194458008,77.84807666015625,209.93421194458008Q93.25567666015625,211.83521194458007,101.88037666015624,204.7733119445801Q104.59387666015625,202.55151194458008,106.75047666015625,199.71071194458008Q114.15377666015625,200.4086119445801,120.29237666015625,199.78741194458007Q132.63957666015625,198.5379119445801,139.15257666015626,192.0722119445801Q144.80457666015624,186.46121194458007,145.41157666015624,177.7314119445801Q145.94857666015625,170.01961194458008,142.55557666015625,162.06821194458007Q140.76057666015623,157.86101194458007,138.17857666015624,154.49617194458008Q135.56557666015624,151.0917319445801,132.61357666015624,149.16272194458008Q129.50057666015624,147.12776294458007,126.48957666015625,147.0623159445801Q123.24017666015625,146.99165894458008,120.49557666015625,149.23863194458008Q117.91037666015625,151.35554194458007,116.72887666015625,156.68355194458007Q116.00957666015626,159.92711194458008,115.30797666015626,168.0688119445801Q114.76677666015625,174.34941194458008,114.32007666015625,177.61281194458007Q113.56607666015626,183.12041194458007,112.32217666015625,187.37891194458007Q110.30197666015626,194.29461194458008,106.56517666015625,199.29151194458007ZM107.03097666015626,199.33531194458007Q114.25227666015626,199.99661194458008,120.25217666015625,199.38941194458008Q132.45957666015624,198.1543119445801,138.87057666015625,191.78841194458008Q144.41557666015626,186.28351194458008,145.01257666015624,177.70361194458008Q145.54357666015625,170.08791194458007,142.18857666015623,162.22521194458008Q140.41257666015625,158.0645119445801,137.86057666015626,154.73971194458008Q135.28957666015626,151.38930194458007,132.39457666015625,149.49754194458006Q129.37757666015625,147.52518194458008,126.48157666015625,147.46222094458008Q123.37907666015624,147.39477794458008,120.74897666015625,149.54810194458008Q118.27097666015625,151.57730194458009,117.11937666015625,156.77015194458008Q116.40587666015625,159.98791194458008,115.70647666015626,168.10321194458007Q115.16437666015625,174.39381194458008,114.71637666015624,177.66701194458008Q113.95837666015625,183.2040119445801,112.70607666015626,187.49111194458007Q110.70467666015625,194.34251194458008,107.03097666015626,199.33531194458007Z" fill-rule="evenodd" fill="#68FE7F" fill-opacity="1" style="mix-blend-mode:passthrough"/></g><g><path d="M26.36413286813736,171.95118094482422Q26.06173766813736,168.73758094482423,28.74764786813736,167.04048094482422Q30.96623786813736,165.6384809448242,36.37001786813736,168.28128094482423Q39.81591786813736,169.96658094482422,49.01151786813736,175.9192809448242Q59.00531786813736,182.38878094482422,64.80581786813735,185.67548094482422Q74.76651786813736,191.31958094482422,83.60491786813736,194.5656809448242Q94.64541786813736,198.6203809448242,103.89831786813735,200.45998094482422Q101.56251786813736,202.81018094482422,98.78161786813736,204.5673809448242Q89.60681786813737,210.3642809448242,74.64661786813735,207.03428094482422Q68.11671786813736,205.58068094482422,61.07871786813736,202.47008094482422Q54.50001786813736,199.56248094482422,48.20171786813736,195.53698094482422Q42.156017868137354,191.67298094482422,37.28131786813736,187.3703809448242Q32.42425786813736,183.08328094482422,29.58281786813736,179.11428094482423Q26.65307286813736,175.0218809448242,26.36413286813736,171.95118094482422ZM104.23231786813736,200.11848094482423Q94.90841786813736,198.2909809448242,83.74281786813737,194.19018094482422Q74.93521786813736,190.95558094482422,65.00301786813736,185.32748094482423Q59.21271786813736,182.04648094482422,49.228817868137355,175.58348094482423Q44.45491786813736,172.49308094482421,42.33721786813736,171.1906809448242Q38.873517868137355,169.0603809448242,36.54571786813736,167.9219809448242Q30.94136786813736,165.18108094482423,28.53397786813736,166.70228094482422Q25.64049286813736,168.5304809448242,25.96589186813736,171.9886809448242Q26.26495086813736,175.16698094482422,29.25757786813736,179.34708094482423Q32.12547786813736,183.35308094482423,37.01661786813736,187.6702809448242Q41.91451786813736,191.99328094482422,47.98631786813736,195.8739809448242Q54.31031786813736,199.9159809448242,60.91701786813736,202.83588094482423Q67.99121786813737,205.96248094482422,74.55961786813737,207.42468094482422Q89.68101786813736,210.7908809448242,98.99531786813736,204.9054809448242Q101.92681786813736,203.05318094482422,104.36921786813735,200.55248094482423Q111.66061786813736,201.9645809448242,117.83091786813736,201.98748094482423Q130.23891786813738,202.03368094482423,137.39091786813736,196.50598094482422Q143.59991786813737,191.7069809448242,145.11791786813734,183.4156809448242Q146.45891786813735,176.09088094482422,143.91491786813737,168.14338094482423Q142.56891786813736,163.93848094482422,140.35091786813734,160.45981094482423Q138.10791786813735,156.9407809448242,135.37391786813737,154.7989309448242Q132.49091786813736,152.54044994482422,129.50491786813734,152.17556694482423Q126.28291786813736,151.78175894482422,123.32001786813736,153.65392094482422Q120.52611786813736,155.4190209448242,118.79291786813737,160.3983209448242Q117.73781786813736,163.42928094482423,116.18901786813736,171.14518094482423Q114.99471786813736,177.09438094482422,114.20901786813737,180.17158094482423Q112.88381786813736,185.36158094482423,111.20191786813736,189.30778094482423Q108.47021786813735,195.71658094482422,104.23231786813736,200.11848094482423ZM104.69951786813736,200.20888094482422Q111.80631786813736,201.56508094482422,117.83241786813736,201.58748094482422Q130.10391786813736,201.63318094482423,137.14691786813736,196.18948094482423Q143.23491786813736,191.48418094482423,144.72491786813737,183.34368094482423Q146.04691786813737,176.11748094482422,143.53391786813737,168.2652809448242Q142.20291786813738,164.10978094482422,140.01391786813736,160.6748309448242Q137.80691786813736,157.21347094482422,135.12691786813735,155.11383094482423Q132.33191786813734,152.92398894482423,129.45691786813734,152.57261294482421Q126.37591786813736,152.19610894482423,123.53361786813736,153.9920809448242Q120.85791786813736,155.6825309448242,119.17071786813736,160.52981094482422Q118.12451786813736,163.5348809448242,116.58121786813736,171.22388094482423Q115.38481786813736,177.18338094482422,114.59661786813736,180.27058094482422Q113.26391786813736,185.4901809448242,111.56981786813736,189.4645809448242Q108.86661786813735,195.80678094482423,104.69951786813736,200.20888094482422Z" fill-rule="evenodd" fill="#68FE7F" fill-opacity="1" style="mix-blend-mode:passthrough"/></g><g><path d="M27.32688165784454,165.92138799438476Q27.361940657844542,162.82472799438477,30.207720657844543,161.47315799438476L30.207730657844543,161.47313799438476Q32.564020657844544,160.35383799438478,37.66495065784454,163.42585799438476Q40.91605065784454,165.38379799438476,49.43955065784454,172.00073799438476Q58.70135065784454,179.19063799438476,64.12695065784455,182.91703799438477Q73.44205065784455,189.31493799438476,81.89235065784455,193.30723799438476Q92.43955065784455,198.29033799438477,101.44375065784455,200.97923799438476Q98.88155065784454,202.98393799438477,95.94085065784455,204.38053799438478Q86.20845065784454,209.00323799438476,71.67515065784454,204.31423799438477Q65.33305065784455,202.26813799438477,58.65805065784454,198.58583799438478Q52.41945065784454,195.14423799438475,46.57635065784454,190.66173799438477Q40.96755065784454,186.35903799438478,36.56986065784454,181.75503799438476Q32.187970657844545,177.16773799438477,29.777530657844544,173.08763799438478Q27.293353657844545,168.88283799438477,27.32688165784454,165.92138799438476ZM101.82545065784454,200.67543799438477Q92.74115065784454,197.99033799438476,82.06325065784455,192.94553799438478Q73.64205065784455,188.96693799438475,64.35335065784454,182.58733799438477Q58.93755065784454,178.86753799438478,49.68485065784454,171.68473799438476Q41.142550657844545,165.05326799438475,37.87125065784454,163.08319799438476Q32.58638065784454,159.90038799438477,30.036100657844543,161.11182799438475L30.036120657844542,161.11183799438476Q26.964792657844544,162.57052799438478,26.926907657844545,165.91685799438477Q26.892114657844544,168.99003799438478,29.433140657844543,173.29113799438477Q31.866960657844544,177.41073799438476,36.28061065784454,182.03133799438476Q40.69965065784454,186.65753799438477,46.332850657844546,190.97903799438478Q52.19985065784454,195.47993799438476,58.46485065784454,198.93603799438478Q65.17375065784455,202.63703799438477,71.55225065784455,204.69493799438476Q86.23665065784454,209.43243799438477,96.11245065784455,204.74183799438475Q99.22245065784455,203.26483799438478,101.91355065784454,201.11823799438477Q109.01805065784454,203.20183799438476,115.15335065784454,203.84413799438477Q127.48645065784454,205.13543799438477,135.17545065784455,200.56903799438476Q141.85345065784455,196.60323799438476,144.23045065784453,188.82353799438476Q146.33145065784453,181.95043799438477,144.63045065784456,174.09073799438477Q143.73145065784456,169.93223799438476,141.88845065784454,166.38228799438477Q140.02445065784454,162.79035799438478,137.52845065784453,160.46685799438475Q134.89745065784456,158.01746299438477,131.96745065784455,157.36863249438477Q128.80645065784455,156.66863999438476,125.66675065784455,158.16006299438476Q122.70325065784455,159.56734799438476,120.45815065784454,164.15661799438476Q119.09235065784455,166.94831799438475,116.74465065784455,174.17313799438477Q114.93415065784454,179.74503799438477,113.83235065784454,182.60523799438477Q111.97215065784454,187.43443799438478,109.88745065784454,191.03813799438478Q106.50095065784454,196.89213799438477,101.82545065784454,200.67543799438477ZM102.29125065784454,200.81193799438478Q109.20945065784454,202.81963799438478,115.19495065784454,203.44633799438475Q127.39545065784455,204.72373799438475,134.97145065784454,200.22503799438476Q141.51645065784453,196.33843799438478,143.84845065784452,188.70663799438478Q145.91845065784455,181.93323799438477,144.23945065784454,174.17533799438476Q143.35145065784454,170.06903799438476,141.53345065784453,166.56651799438475Q139.70145065784453,163.03598799438475,137.25645065784454,160.75963799438478Q134.70545065784455,158.38445799438477,131.88145065784454,157.75917099438476Q128.85445065784455,157.08886699438477,125.83835065784454,158.52138799438475Q123.00115065784455,159.86869799438477,120.81745065784455,164.33239799438476Q119.46395065784455,167.09883799438478,117.12505065784454,174.29683799438476Q115.31125065784454,179.87873799438478,114.20565065784454,182.74903799438476Q112.33415065784455,187.60753799438476,110.23375065784454,191.23843799438475Q106.88705065784454,197.02353799438475,102.29125065784454,200.81193799438478Z" fill-rule="evenodd" fill="#68FE7F" fill-opacity="1" style="mix-blend-mode:passthrough"/></g><g><path d="M39.6942137840271,158.58752413085938Q34.7733837840271,155.01437413085938,32.1141637840271,155.91523566085937Q28.9056147840271,157.00206413085937,28.517395784027098,160.20407413085937Q28.1609927840271,163.1436941308594,30.2401837840271,167.51563413085938Q32.2304937840271,171.7007341308594,36.1376337840271,176.56373413085936Q40.0491137840271,181.43213413085937,45.200113784027096,186.13113413085938Q50.5642137840271,191.02453413085937,56.4340137840271,194.95963413085937Q62.7186137840271,199.17283413085937,68.8475137840271,201.78193413085938Q82.9539137840271,207.7873341308594,93.2631137840271,204.29533413085937Q96.5116137840271,203.19503413085937,99.4133137840271,201.41153413085937Q106.2626137840271,204.11893413085937,112.2976137840271,205.34993413085937Q124.4263137840271,207.82373413085938,132.5484137840271,204.23093413085937Q139.6044137840271,201.10953413085937,142.78241378402709,193.90693413085938Q145.5904137840271,187.54283413085938,144.7214137840271,179.85163413085937Q144.2614137840271,175.78263413085938,142.79941378402708,172.20053413085938Q141.3204137840271,168.5765341308594,139.0804137840271,166.10283413085938Q136.7194137840271,163.49581413085937,133.8734137840271,162.58116413085938Q130.8054137840271,161.59493413085937,127.5287137840271,162.70489413085937Q124.4352137840271,163.75277413085936,121.7221137840271,167.91653413085936Q120.0714137840271,170.45003413085936,116.9813137840271,177.12263413085938Q114.5995137840271,182.26643413085938,113.2037137840271,184.89273413085937Q110.8492137840271,189.32323413085936,108.39951378402709,192.55933413085938Q104.4192137840271,197.81733413085936,99.3729137840271,200.96553413085937Q90.6180137840271,197.48473413085938,80.5236137840271,191.58613413085936Q72.5638137840271,186.93513413085938,63.9924137840271,179.90053413085937Q58.9950137840271,175.79923413085936,50.5432137840271,167.99983413085937Q42.7414137840271,160.80027413085938,39.6942137840271,158.58752413085938ZM99.8346137840271,201.14783413085937Q106.49711378402709,203.75863413085938,112.3775137840271,204.95803413085937Q124.3810137840271,207.40643413085937,132.3864137840271,203.86503413085939Q139.3004137840271,200.80643413085937,142.4164137840271,193.74543413085937Q145.1814137840271,187.48033413085938,144.32441378402712,179.89663413085938Q143.8704137840271,175.88263413085937,142.4294137840271,172.35163413085937Q140.9764137840271,168.79283413085938,138.78341378402712,166.37133413085937Q136.4944137840271,163.84380413085938,133.75141378402708,162.96197413085937Q130.8094137840271,162.01614413085937,127.6570137840271,163.08375413085938Q124.6948137840271,164.08718413085938,122.0572137840271,168.13493413085936Q120.4221137840271,170.6442341308594,117.3443137840271,177.29073413085936Q114.9578137840271,182.44443413085938,113.5569137840271,185.08053413085938Q111.1874137840271,189.53903413085936,108.7184137840271,192.80073413085938Q104.7914137840271,197.98863413085937,99.8346137840271,201.14783413085937ZM98.9475137840271,201.22603413085938Q90.2813137840271,197.75113413085938,80.3218137840271,191.93153413085938Q72.3346137840271,187.26443413085937,63.7386137840271,180.20973413085937Q58.7323137840271,176.10103413085938,50.2719137840271,168.29373413085938Q42.4874137840271,161.11016413085937,39.459113784027096,158.91119413085937Q34.7057737840271,155.4596051308594,32.2425037840271,156.29408613085937L32.2425037840271,156.2940901308594Q29.272403784027098,157.30014413085937,28.9144877840271,160.2522141308594Q28.5720480840271,163.07666413085937,30.6014137840271,167.34383413085936Q32.5716337840271,171.4866341308594,36.4494637840271,176.31313413085937Q40.3415137840271,181.15743413085937,45.4696137840271,185.83563413085938Q50.8117137840271,190.70893413085938,56.6568137840271,194.62733413085937Q62.9101137840271,198.81953413085938,69.0041137840271,201.4139341308594Q82.9700137840271,207.35953413085937,93.1347137840271,203.91653413085936Q96.1967137840271,202.87923413085937,98.9475137840271,201.22603413085938Z" fill-rule="evenodd" fill="#68FE7F" fill-opacity="1" style="mix-blend-mode:passthrough"/></g><g><path d="M41.97774296875,154.47347033996581Q37.458792968750004,150.56311733996583,34.72316296875,151.15651733996583L34.72316296875,151.15652333996582Q31.41841196875,151.87339833996583,30.69657450875,154.90082033996583Q30.03382796875,157.68041033996582,31.64611096875,162.07422033996582Q33.18856296875,166.2777203399658,36.56661296875,171.32172033996582Q39.94821296875,176.3710203399658,44.579942968750004,181.38252033996582Q49.403742968749995,186.60162033996582,54.829942968750004,190.95442033996582Q60.640042968749995,195.6151203399658,66.46214296875,198.7261203399658Q79.86124296874999,205.8855203399658,90.47684296874999,203.58292033996582Q93.82304296875,202.85712033996583,96.89584296875,201.44272033996583Q103.42594296875,204.72102033996583,109.30014296875,206.50502033996582Q121.10134296875,210.08892033996582,129.55264296875,207.4702203399658Q136.89654296875,205.1947203399658,140.81054296874998,198.62522033996584Q144.27154296875,192.81812033996582,144.20954296875,185.37222033996582Q144.17754296875,181.4327203399658,143.09754296875002,177.85852033996582Q142.00454296875,174.24252033996584,140.03454296875,171.6501203399658Q137.95854296875,168.9190203399658,135.22454296875,167.75822033996582Q132.27754296875,166.50732033996582,128.90554296875,167.23862033996582Q125.72034296875,167.92972033996583,122.58664296875,171.6391203399658Q120.67974296875,173.89632033996583,116.90894296875,179.96722033996582Q114.00224296875,184.64692033996582,112.34004296875,187.01762033996582Q109.53574296875,191.01722033996583,106.76144296875,193.86532033996582Q102.25224296875,198.49472033996582,96.90234296875,200.99832033996583Q88.55774296875,196.78932033996583,79.13354296874999,190.13322033996582Q71.70394296875,184.88582033996582,63.91464296875,177.29692033996582Q59.37324296875,172.87252033996583,51.783442968749995,164.56482033996582Q44.77734296875,156.89611033996582,41.97774296875,154.47347033996581ZM97.35664296875,201.22602033996583Q103.70074296875,204.38632033996583,109.41634296875,206.12222033996582Q121.10034296875,209.67042033996583,129.43424296875,207.08812033996583Q136.63054296875,204.8581203399658,140.46754296875,198.42042033996583Q143.87054296875,192.70942033996582,143.80954296875,185.37552033996582Q143.77754296875,181.4935203399658,142.71454296874998,177.97422033996583Q141.64254296875,174.42722033996583,139.71554296875001,171.89222033996583Q137.70454296875,169.24572033996583,135.06754296875,168.12642033996582Q132.23854296874998,166.92522033996582,128.99034296874999,167.62952033996584Q125.93814296875,168.29172033996582,122.89224296875,171.89722033996583Q121.00424296875,174.1322203399658,117.24874296875,180.1783203399658Q114.33624296875,184.86722033996583,112.66754296875,187.24722033996582Q109.84474296875,191.2732203399658,107.04794296875,194.14442033996582Q102.60694296875,198.70382033996583,97.35664296875,201.22602033996583ZM96.43744296875,201.21112033996582Q88.18964296875001,197.0191203399658,78.90284296875001,190.45992033996583Q71.44744296875001,185.19432033996583,63.63544296875,177.5834203399658Q59.08574296875,173.15082033996583,51.48814296875,164.83462033996582Q44.49784296875,157.18322033996583,41.71594296875,154.7759403399658Q37.34824296875,150.99641033996582,34.80796296875,151.5474323399658Q31.74914296875,152.21095933996583,31.08566696875,154.9935903399658Q30.45089596875,157.6558503399658,32.02162296875,161.93642033996582Q33.54758296875,166.09492033996582,36.89896296875,171.09912033996582Q40.26316296875,176.12242033996583,44.87374296875,181.11102033996582Q49.67724296875,186.3083203399658,55.08024296875,190.6424203399658Q60.86134296875,195.27982033996582,66.65064296874999,198.37332033996583Q79.92004296875001,205.4634203399658,90.39204296874999,203.19202033996584Q93.53664296875,202.50992033996582,96.43744296875,201.21112033996582Z" fill-rule="evenodd" fill="#68FE7F" fill-opacity="1" style="mix-blend-mode:passthrough"/></g><g><path d="M44.678954416656495,150.76839126831055Q40.59370441665649,146.57508826831054,37.81341441665649,146.86737526831055L37.81341441665649,146.86738226831054Q34.452904416656494,147.22061226831056,33.41749541665649,150.04602126831054Q32.466305416656496,152.64162126831056,33.611675416656496,157.00973126831056Q34.70672441665649,161.18588126831054,37.53975441665649,166.35018126831054Q40.37539441665649,171.51908126831054,44.458454416656494,176.77748126831054Q48.710454416656496,182.25348126831054,53.65235441665649,186.96168126831054Q58.9435544166565,192.00258126831056,64.4088544166565,195.56278126831054Q76.9848544166565,203.75488126831056,87.78055441665649,202.62018126831055Q91.1850544166565,202.26228126831055,94.38945441665649,201.21808126831056Q100.5423544166565,205.01048126831054,106.19885441665649,207.30718126831056Q117.55935441665649,211.91978126831054,126.23565441665649,210.26528126831056Q133.7760544166565,208.82758126831055,138.3560544166565,202.93818126831053Q142.4060544166565,197.73048126831054,143.1240544166565,190.60028126831054Q143.5040544166565,186.82768126831056,142.8030544166565,183.29878126831056Q142.0940544166565,179.72858126831056,140.4040544166565,177.04998126831055Q138.6240544166565,174.22848126831053,136.0260544166565,172.84358126831054Q133.2280544166565,171.35208126831054,129.7993544166565,171.71218126831056Q126.5612544166565,172.05268126831055,123.0573544166565,175.28458126831055Q120.92495441665649,177.25138126831055,116.5399544166565,182.67818126831054Q113.1598544166565,186.86128126831056,111.25935441665649,188.96078126831054Q108.0526544166565,192.50328126831056,104.9958544166565,194.94808126831055Q100.0256544166565,198.92328126831055,94.4405544166565,200.77978126831056Q86.5807544166565,195.91588126831056,77.90315441665649,188.60288126831054Q71.06235441665649,182.83748126831054,64.1106544166565,174.79948126831056Q60.0570544166565,170.11228126831054,53.37745441665649,161.40558126831056Q47.2102544166565,153.36670126831055,44.678954416656495,150.76839126831055ZM94.8837544166565,201.05258126831055Q100.85385441665649,204.70518126831055,106.3493544166565,206.93658126831053Q117.60045441665649,211.50468126831055,126.16075441665649,209.87238126831056Q133.5530544166565,208.46288126831055,138.0400544166565,202.69268126831054Q142.0190544166565,197.57578126831055,142.7260544166565,190.56018126831054Q143.1000544166565,186.84708126831055,142.4100544166565,183.37668126831056Q141.7160544166565,179.87928126831054,140.0660544166565,177.26338126831055Q138.34205441665648,174.53158126831056,135.8380544166565,173.19658126831055Q133.14785441665651,171.76268126831056,129.84115441665648,172.10998126831055Q126.73495441665649,172.43668126831054,123.32855441665649,175.57858126831056Q121.2179544166565,177.52548126831056,116.8510544166565,182.92958126831056Q113.46385441665649,187.12148126831056,111.55585441665649,189.22928126831056Q108.3276544166565,192.79558126831054,105.2457544166565,195.26048126831054Q100.3597544166565,199.16838126831055,94.8837544166565,201.05258126831055ZM93.94215441665649,200.94088126831053Q86.1859544166565,196.10618126831054,77.64535441665649,188.90878126831055Q70.78055441665649,183.12298126831055,63.80815441665649,175.06108126831055Q59.74685441665649,170.36508126831055,53.060154416656495,161.64908126831054Q46.907354416656496,153.62894126831054,44.39245441665649,151.04752126831056Q40.442564416656495,146.99317956831055,37.855234416656494,147.26518326831055L37.8552244166565,147.26519026831053Q34.74269441665649,147.59235626831054,33.793071416656495,150.18366126831054Q32.885037416656495,152.66149126831056,33.99859541665649,156.90828126831056Q35.0811344166565,161.03678126831053,37.890454416656496,166.15778126831054Q40.7108144166565,171.29888126831054,44.77435441665649,176.53218126831055Q49.00805441665649,181.98458126831054,53.92825441665649,186.67208126831054Q59.192654416656495,191.68758126831054,64.6271544166565,195.22758126831053Q77.0843544166565,203.34218126831055,87.73875441665649,202.22238126831056Q90.9290544166565,201.88698126831054,93.94215441665649,200.94088126831053Z" fill-rule="evenodd" fill="#68FE7F" fill-opacity="1" style="mix-blend-mode:passthrough"/></g><g><path d="M47.75293327636719,147.49764230590822Q44.12866327636719,143.07733230590821,41.33578327636719,143.07733230590821Q37.95886327636719,143.07733230590821,36.632938276367184,145.6765923059082Q35.41360127636719,148.0669223059082,36.09678077636719,152.3638123059082Q36.74951427636719,156.4692323059082,39.02781327636719,161.6938323059082Q41.30798327636719,166.9226323059082,44.819323276367186,172.3620323059082Q48.47603327636719,178.0265323059082,52.89893327636719,183.0258323059082Q57.63413327636719,188.3781323059082,62.69783327636719,192.3323323059082Q74.3477332763672,201.4299323059082,85.20093327636718,201.4298323059082Q88.6251332763672,201.4297323059082,91.92213327636719,200.7527323059082Q97.64543327636719,204.9981323059082,103.03133327636719,207.7633323059082Q113.84593327636719,213.3153323059082,122.64563327636719,212.6053323059082Q130.29253327636718,211.98853230590822,135.46303327636718,206.8172323059082Q140.0367332763672,202.2429323059082,141.4967332763672,195.4933323059082Q142.2697332763672,191.9220323059082,141.94073327636718,188.4746323059082Q141.6087332763672,184.9868323059082,140.2077332763672,182.2532323059082Q138.7317332763672,179.3746323059082,136.29173327636718,177.78883230590822Q133.6656332763672,176.0822323059082,130.22053327636718,176.0822323059082Q126.96623327636719,176.0822323059082,123.14443327636718,178.8199323059082Q120.8169332763672,180.4869323059082,115.8892332763672,185.2355323059082Q112.09103327636718,188.8954323059082,109.98103327636719,190.7123323059082Q106.42123327636719,193.77773230590822,103.12633327636719,195.8079323059082Q97.76623327636719,199.1106323059082,92.01573327636719,200.3244323059082Q84.7065332763672,194.8829323059082,76.84053327636718,187.01663230590822Q70.64023327636718,180.8164323059082,64.56663327636718,172.43103230590822Q61.024733276367186,167.5408323059082,55.292233276367185,158.5442323059082Q49.999233276367185,150.2372323059082,47.75293327636719,147.49764230590822ZM92.44353327636719,200.6412323059082Q97.9898332763672,204.7255323059082,103.21403327636719,207.4074323059082Q113.92713327636719,212.9075323059082,122.61343327636719,212.20663230590822Q130.11363327636718,211.60153230590822,135.18023327636718,206.5344323059082Q139.67073327636717,202.0433323059082,141.10573327636718,195.4087323059082Q141.8657332763672,191.8981323059082,141.5427332763672,188.5125323059082Q141.21873327636717,185.1011323059082,139.85173327636718,182.4358323059082Q138.4237332763672,179.6519323059082,136.0737332763672,178.1242323059082Q133.5472332763672,176.4822323059082,130.22053327636718,176.4822323059082Q127.09453327636719,176.4821323059082,123.37733327636718,179.14503230590822Q121.0737332763672,180.7953323059082,116.16673327636718,185.5235323059082Q112.36043327636719,189.19123230590822,110.24203327636718,191.0154323059082Q106.65813327636718,194.1016323059082,103.33613327636719,196.14843230590822Q98.07673327636718,199.3890323059082,92.44353327636719,200.6412323059082ZM91.49043327636718,200.4307323059082Q84.28983327636719,195.0314323059082,76.55763327636718,187.2995323059082Q70.3349332763672,181.0768323059082,64.24273327636719,172.66563230590822Q60.69383327636719,167.7658323059082,54.954933276367186,158.7591323059082Q49.67483327636719,150.4723223059082,47.44363327636719,147.7512523059082Q43.939373276367185,143.4773323059082,41.33578327636719,143.4773323059082Q38.203853276367184,143.4773323059082,36.98925527636719,145.8583623059082Q35.82908427636719,148.1327023059082,36.49181927636719,152.3010023059082Q37.136543276367185,156.3560323059082,39.39446327636719,161.5339323059082Q41.66165327636719,166.7330323059082,45.15538327636719,172.1451323059082Q48.79553327636719,177.7839323059082,53.198533276367186,182.76073230590822Q57.909133276367186,188.0852323059082,62.944033276367186,192.0170323059082Q74.48533327636719,201.0299323059082,85.20093327636718,201.0298323059082Q88.40163327636719,201.0297323059082,91.49043327636718,200.4307323059082Z" fill-rule="evenodd" fill="#68FE7F" fill-opacity="1" style="mix-blend-mode:passthrough"/></g></g><g><g transform="matrix(0.9659258127212524,-0.258819043636322,0.258819043636322,0.9659258127212524,-8.24770454668298,1.08583608107379)"><g><path d="M91.92221800052269,47.77623294484844C91.92221800052269,47.77623294484844,98.99321800052269,47.77622985839844,98.99321800052269,47.77622985839844C98.99321800052269,47.77622985839844,98.99311800052268,111.41432985839845,98.99311800052268,111.41432985839845C98.99311800052268,111.41432985839845,58.33521800052269,111.41432985839845,58.33521800052269,111.41432985839845C57.35771800052269,111.41432985839845,56.56751800052269,112.20632985839843,56.56751800052269,113.18212985839844C56.56751800052269,115.13362985839844,54.98361800052269,116.71752985839844,53.03201800052268,116.71752985839844C53.03201800052268,116.71752985839844,45.96111800052269,116.71752985839844,45.96111800052269,116.71752985839844C44.00951800052269,116.71752985839844,42.42561800052269,115.13362985839844,42.42561800052269,113.18212985839844C42.42561800052269,112.20632985839843,41.635418000522684,111.41432985839845,40.657918000522685,111.41432985839845C40.657918000522685,111.41432985839845,0.000018000522686634213,111.41432985839845,0.000018000522686634213,111.41432985839845C0.000018000522686634213,111.41432985839845,0.00004577842268663421,47.77627306869844,0.00004577842268663421,47.77627306869844C0.00004577842268663421,47.77627306869844,7.070988000522687,47.77626998229844,7.070988000522687,47.77626998229844" fill="#68FE7F" fill-opacity="1" style="mix-blend-mode:passthrough"/></g><g><path d="M49.49670198642357,47.77618586730957C58.460901986423565,37.65776586730957,71.33350198642356,31.86669176783957,84.85140198642357,31.86668586730957C84.85140198642357,31.86668586730957,84.85140198642357,91.96938586730957,84.85140198642357,91.96938586730957C71.33350198642356,91.96938586730957,58.460901986423565,97.76038586730957,49.49670198642357,107.87888586730958C40.53250198642357,97.76038586730957,27.659901986423563,91.96938586730957,14.142001986423566,91.96938586730957C14.142001986423566,91.96938586730957,14.142028221123566,31.86671673180957,14.142028221123566,31.86671673180957C27.659901986423563,31.86671083130957,40.53250198642357,37.65777586730957,49.49670198642357,47.77618586730957C49.49670198642357,47.77618586730957,49.49670198642357,47.77618586730957,49.49670198642357,47.77618586730957Z" fill="#68FE7F" fill-opacity="1" style="mix-blend-mode:passthrough"/></g><g><path d="M14.141622856021954,40.95314825610352C11.790542856021954,40.776375456103516,9.439452856021955,40.705667259603516,7.070689090721954,40.705668293503514C7.070689090721954,40.705668293503514,7.070686004221955,47.77656125610351,7.070686004221955,47.77656125610351C7.070686004221955,47.77656125610351,7.070662856021954,100.80833125610351,7.070662856021954,100.80833125610351C21.672162856021956,100.80833125610351,36.114562856021955,103.81343125610351,49.49626285602196,109.64693125610351C62.878062856021955,103.81343125610351,77.32046285602195,100.80833125610351,91.92186285602196,100.80823125610351C91.92186285602196,100.80823125610351,91.92196285602195,47.77653125610352,91.92196285602195,47.77653125610352C91.92196285602195,47.77653125610352,91.92196285602195,40.705631256103516,91.92196285602195,40.705631256103516C89.55316285602196,40.70563229006351,87.20206285602195,40.776342556103515,84.85096285602195,40.95311725610352" fill="#68FE7F" fill-opacity="1" style="mix-blend-mode:passthrough"/></g></g><g transform="matrix(0.9659258127212524,-0.258819043636322,0.258819043636322,0.9659258127212524,-9.187164316956682,3.9946225670497597)"><g><path d="M54.28490129699707,107.2206014389038C54.28490129699707,107.2206014389038,48.59060129699707,107.2206014389038,48.59060129699707,107.2206014389038C46.469301296997074,107.2206014389038,44.74350129699707,105.4948014389038,44.74350129699707,103.37350143890382C44.74350129699707,103.1399014389038,44.55340129699707,102.94990143890381,44.319901296997074,102.94990143890381C44.319901296997074,102.94990143890381,11.57750129699707,102.94990143890381,11.57750129699707,102.94990143890381C11.31227629699707,102.94990143890381,11.05792629699707,102.84450143890382,10.87038929699707,102.65700143890382C10.68285129699707,102.46950143890382,10.57748890029707,102.21510143890382,10.577501298091061,101.94990143890381C10.577501298091061,101.94990143890381,10.57751381509707,50.70122143890381,10.57751381509707,50.70122143890381C10.57751381509707,50.14895143890381,11.02522629699707,49.70123887060381,11.57751129699707,49.70123887060381C11.57751129699707,49.70123887060381,17.27184129699707,49.70122635360381,17.27184129699707,49.70122635360381C17.27184129699707,49.70122635360381,17.27184129699707,51.70122143890381,17.27184129699707,51.70122143890381C17.27184129699707,51.70122143890381,12.57751129699707,51.70122143890381,12.57751129699707,51.70122143890381C12.57751129699707,51.70122143890381,12.57749129699707,100.94990143890381,12.57749129699707,100.94990143890381C12.57749129699707,100.94990143890381,44.319901296997074,100.94990143890381,44.319901296997074,100.94990143890381C45.65620129699707,100.94990143890381,46.74350129699707,102.03710143890382,46.74350129699707,103.37350143890382C46.74350129699707,104.3920014389038,47.57210129699707,105.2206014389038,48.59060129699707,105.2206014389038C48.59060129699707,105.2206014389038,54.28490129699707,105.2206014389038,54.28490129699707,105.2206014389038C55.30350129699707,105.2206014389038,56.13210129699707,104.3920014389038,56.13210129699707,103.37350143890382C56.13210129699707,102.03710143890382,57.219301296997074,100.94990143890381,58.55570129699707,100.94990143890381C58.55570129699707,100.94990143890381,90.29810129699707,100.94990143890381,90.29810129699707,100.94990143890381C90.29810129699707,100.94990143890381,90.29810129699707,51.70120143890381,90.29810129699707,51.70120143890381C90.29810129699707,51.70120143890381,85.60380129699708,51.70120143890381,85.60380129699708,51.70120143890381C85.60380129699708,51.70120143890381,85.60380129699708,49.70120143890381,85.60380129699708,49.70120143890381C85.60380129699708,49.70120143890381,91.29810129699707,49.70120143890381,91.29810129699707,49.70120143890381C91.56330129699707,49.70120143890381,91.81770129699707,49.80655143890381,92.00520129699707,49.99408843890381C92.19270129699707,50.181626438903805,92.29810129699707,50.43597643890381,92.29810129699707,50.70120143890381C92.29810129699707,50.70120143890381,92.29810129699707,101.94990143890381,92.29810129699707,101.94990143890381C92.29810129699707,102.50210143890381,91.85040129699708,102.94990143890381,91.29810129699707,102.94990143890381C91.29810129699707,102.94990143890381,58.55570129699707,102.94990143890381,58.55570129699707,102.94990143890381C58.32210129699707,102.94990143890381,58.13210129699707,103.1399014389038,58.13210129699707,103.37350143890382C58.13210129699707,105.4948014389038,56.40630129699707,107.2206014389038,54.28490129699707,107.2206014389038C54.28490129699707,107.2206014389038,54.28490129699707,107.2206014389038,54.28490129699707,107.2206014389038Z" fill="#3A3A3A" fill-opacity="1" style="mix-blend-mode:passthrough"/></g><g><path d="M79.90945123748779,36.8890323638916C80.1746512374878,36.8890323638916,80.4289512374878,36.994390363891604,80.61655123748778,37.181921363891604C80.80405123748778,37.369463363891605,80.90945123748779,37.623811363891605,80.90945123748779,37.8890323638916C80.90945123748779,37.8890323638916,80.90945123748779,86.2905323638916,80.90945123748779,86.2905323638916C80.90945123748779,86.8428323638916,80.46165123748779,87.2905323638916,79.90945123748779,87.2905323638916C69.3147512374878,87.2905323638916,59.21005123748779,91.8376323638916,52.186251237487795,99.7658323638916C51.99645123748779,99.98003236389161,51.723951237487796,100.1027323638916,51.43775123748779,100.1027323638916C51.151551237487794,100.1027323638916,50.87905123748779,99.98003236389161,50.689251237487795,99.7658323638916C43.665451237487794,91.8376323638916,33.56075123748779,87.2905323638916,22.966151237487793,87.2906323638916C22.700930237487793,87.2906323638916,22.446582237487792,87.1852323638916,22.259040237487792,86.9977323638916C22.071509237487792,86.8101323638916,21.966151237487793,86.5558323638916,21.966151237487793,86.2906323638916C21.966151237487793,86.2906323638916,21.966170310987792,37.889062363891604,21.966170310987792,37.889062363891604C21.966170310987792,37.3367713638916,22.41389023748779,36.889062881491604,22.966171237487792,36.889062881491604C33.762051237487796,36.889062881491604,44.074951237487795,41.3682423638916,51.43775123748779,49.217032363891605C58.80065123748779,41.3682323638916,69.1135512374878,36.8890399932816,79.90945123748779,36.8890323638916C79.90945123748779,36.8890323638916,79.90945123748779,36.8890323638916,79.90945123748779,36.8890323638916ZM78.90945123748779,85.3033323638916C78.90945123748779,85.3033323638916,78.90945123748779,38.9025423638916,78.90945123748779,38.9025423638916C68.68085123748779,39.1788223638916,58.98885123748779,43.6858123638916,52.18635123748779,51.364332363891606C51.99655123748779,51.578532363891604,51.72405123748779,51.701232363891606,51.43775123748779,51.701232363891606C51.151551237487794,51.701232363891606,50.87905123748779,51.578532363891604,50.689251237487795,51.364332363891606C43.88675123748779,43.6858223638916,34.19475123748779,39.178842363891604,23.966171237487792,38.9025723638916C23.966171237487792,38.9025723638916,23.966151237487793,85.3034323638916,23.966151237487793,85.3034323638916C34.396851237487795,85.5709323638916,44.302651237487794,90.01253236389161,51.43775123748779,97.6185323638916C58.57295123748779,90.01253236389161,68.4786512374878,85.5709323638916,78.90945123748779,85.3033323638916C78.90945123748779,85.3033323638916,78.90945123748779,85.3033323638916,78.90945123748779,85.3033323638916Z" fill="#3A3A3A" fill-opacity="1" style="mix-blend-mode:passthrough"/></g><g><path d="M51.43772912826538,101.52630412521361C51.30162912826538,101.52630412521361,51.16552912826538,101.49850412521363,51.03812912826538,101.44300412521363C40.33052912826538,96.77520412521363,28.96982912826538,94.40840412521362,17.27182912826538,94.40840412521362C17.00660712826538,94.40840412521362,16.75225112826538,94.30310412521362,16.56471812826538,94.11560412521362C16.37718512826538,93.92800412521362,16.27181804266538,93.67370412521362,16.271829129140166,93.40840412521362C16.271829129140166,93.40840412521362,16.27185136166538,45.006934125213625,16.27185136166538,45.006934125213625C16.27185136166538,44.45464812521362,16.71956212826538,44.00693738461362,17.27184912826538,44.00693738461362C19.34514912826538,44.00693738461362,21.23230912826538,44.07304852521362,23.04113912826538,44.20904812521362C23.04113912826538,44.20904812521362,22.89119912826538,46.20341412521363,22.89119912826538,46.20341412521363C21.42681912826538,46.093314125213624,19.90734912826538,46.03033412521362,18.27183912826538,46.01234412521362C18.27183912826538,46.01234412521362,18.27181912826538,92.41430412521362,18.27181912826538,92.41430412521362C23.86203912826538,92.47920412521361,29.45992912826538,93.08810412521362,34.92702912826538,94.22670412521362C40.581429128265384,95.40430412521363,46.13402912826538,97.15660412521362,51.43772912826538,99.43660412521362C56.741529128265384,97.15660412521362,62.29412912826538,95.40430412521363,67.94852912826538,94.22670412521362C73.41562912826538,93.08810412521362,79.01352912826539,92.47920412521361,84.60372912826539,92.41420412521362C84.60372912826539,92.41420412521362,84.60372912826539,46.01231412521362,84.60372912826539,46.01231412521362C82.96822912826538,46.030304125213625,81.44882912826539,46.09328412521362,79.98442912826539,46.20339412521362C79.98442912826539,46.20339412521362,79.83442912826538,44.209026125213626,79.83442912826538,44.209026125213626C81.64332912826538,44.07301512521362,83.53042912826538,44.00690412521362,85.60372912826539,44.00690412521362C86.15602912826539,44.00690412521362,86.60372912826539,44.45461512521362,86.60372912826539,45.00690412521362C86.60372912826539,45.00690412521362,86.60372912826539,93.40840412521362,86.60372912826539,93.40840412521362C86.60372912826539,93.96070412521362,86.15602912826539,94.40840412521362,85.60372912826539,94.40840412521362C73.90572912826538,94.40840412521362,62.545029128265384,96.77520412521363,51.837429128265384,101.44300412521363C51.70992912826538,101.49850412521363,51.57382912826538,101.52630412521361,51.43772912826538,101.52630412521361C51.43772912826538,101.52630412521361,51.43772912826538,101.52630412521361,51.43772912826538,101.52630412521361Z" fill="#3A3A3A" fill-opacity="1" style="mix-blend-mode:passthrough"/></g><g><path d="M52.74015235900879,98.97008116455078C52.74015235900879,98.97008116455078,50.74015235900879,98.97008116455078,50.74015235900879,98.97008116455078C50.74015235900879,98.97008116455078,50.740172326608786,51.07038116455078,50.740172326608786,51.07038116455078C50.740172326608786,51.07038116455078,52.74017235900879,51.07038116455078,52.74017235900879,51.07038116455078C52.74017235900879,51.07038116455078,52.74015235900879,98.97008116455078,52.74015235900879,98.97008116455078C52.74015235900879,98.97008116455078,52.74015235900879,98.97008116455078,52.74015235900879,98.97008116455078Z" fill="#3A3A3A" fill-opacity="1" style="mix-blend-mode:passthrough"/></g><g><path d="M57.133024765014646,55.431071390991214C56.81327576501465,55.431071390991214,56.499165765014645,55.27809139099121,56.30559976501465,54.99388139099121C55.99471976501465,54.537401390991214,56.11273946501465,53.91534139099121,56.56920976501465,53.60445139099121C60.998464765014646,50.58786139099121,65.91486476501464,48.55248139099121,71.18182476501465,47.55484239099121C71.72442476501465,47.45206229099121,72.24772476501465,47.808632390991214,72.35042476501465,48.35126239099121C72.45322476501465,48.89390139099121,72.09672476501464,49.41712139099121,71.55402476501465,49.51990139099121C66.55862476501466,50.46609139099121,61.89581476501465,52.39650139099121,57.69502476501465,55.25749139099121C57.52276476501465,55.37481139099121,57.326834765014645,55.431071390991214,57.133024765014646,55.431071390991214C57.133024765014646,55.431071390991214,57.133024765014646,55.431071390991214,57.133024765014646,55.431071390991214Z" fill="#3A3A3A" fill-opacity="1" style="mix-blend-mode:passthrough"/></g><g><path d="M45.74258062133789,55.43108046447754C45.54878062133789,55.43108046447754,45.35288062133789,55.374840464477536,45.18058062133789,55.25749046447754C40.979780621337895,52.39651046447754,36.31692062133789,50.46611046447754,31.321554621337892,49.519920464477536C30.77891462133789,49.41713046447754,30.42234472133789,48.89392046447754,30.525134721337892,48.35128446447754C30.62791462133789,47.80865446447754,31.15112462133789,47.452074064477536,31.69376062133789,47.554864164477536C36.96072062133789,48.552490464477536,41.87708062133789,50.58787046447754,46.306380621337894,53.60445046447754C46.76288062133789,53.91534046447754,46.880880621337894,54.53741046447754,46.56998062133789,54.99388046447754C46.37648062133789,55.27807046447754,46.06228062133789,55.43108046447754,45.74258062133789,55.43108046447754C45.74258062133789,55.43108046447754,45.74258062133789,55.43108046447754,45.74258062133789,55.43108046447754Z" fill="#3A3A3A" fill-opacity="1" style="mix-blend-mode:passthrough"/></g><g><path d="M57.13302095031738,62.50623618591309C56.813271950317386,62.50623618591309,56.49916195031738,62.35325618591308,56.30559595031738,62.06904618591309C55.994715950317385,61.61256618591309,56.11273565031738,60.990506185913084,56.56920595031738,60.67961618591308C60.99846095031738,57.66302618591308,65.91486095031738,55.627646185913086,71.18182095031739,54.63000718591309C71.72442095031738,54.52722708591308,72.24772095031739,54.88379718591309,72.35042095031739,55.426427185913084C72.45322095031739,55.969066185913086,72.09672095031738,56.49228618591309,71.55402095031738,56.59506618591308C66.55862095031739,57.541256185913085,61.89581095031738,59.47166618591309,57.695020950317385,62.33265618591309C57.522760950317384,62.44997618591309,57.32683095031738,62.50623618591309,57.13302095031738,62.50623618591309C57.13302095031738,62.50623618591309,57.13302095031738,62.50623618591309,57.13302095031738,62.50623618591309Z" fill="#3A3A3A" fill-opacity="1" style="mix-blend-mode:passthrough"/></g><g><path d="M45.74257871398926,62.50624144470215C45.54877871398926,62.50624144470215,45.352878713989256,62.450001444702146,45.180578713989256,62.33265144470215C40.97977871398926,59.471671444702146,36.316928713989256,57.54127144470215,31.32155271398926,56.595081444702146C30.778912713989257,56.49229144470215,30.422342813989257,55.96908144470215,30.52513281398926,55.426445444702146C30.627912713989257,54.88380544470215,31.151122713989256,54.527235644702145,31.693758713989258,54.63002544470215C36.960728713989255,55.627651444702146,41.877078713989256,57.66303144470215,46.30637871398926,60.67962144470215C46.76287871398926,60.99050144470215,46.88087871398926,61.61257144470215,46.56997871398926,62.06904144470215C46.37647871398926,62.353231444702146,46.06227871398926,62.50624144470215,45.74257871398926,62.50624144470215C45.74257871398926,62.50624144470215,45.74257871398926,62.50624144470215,45.74257871398926,62.50624144470215Z" fill="#3A3A3A" fill-opacity="1" style="mix-blend-mode:passthrough"/></g><g><path d="M57.13302095031738,69.58139716613769C56.813271950317386,69.58139716613769,56.49916195031738,69.42841716613769,56.30559595031738,69.14420716613769C55.994715950317385,68.68772716613769,56.11273565031738,68.0656671661377,56.56920595031738,67.7547771661377C60.99846095031738,64.73818716613769,65.91486095031738,62.702807166137696,71.18182095031739,61.705168166137696C71.72442095031738,61.60238806613769,72.24772095031739,61.9589581661377,72.35042095031739,62.501588166137694C72.45322095031739,63.044227166137695,72.09672095031738,63.5674471661377,71.55402095031738,63.67022716613769C66.55862095031739,64.6164171661377,61.89581095031738,66.54682716613769,57.695020950317385,69.40781716613769C57.522760950317384,69.5251371661377,57.32683095031738,69.58139716613769,57.13302095031738,69.58139716613769C57.13302095031738,69.58139716613769,57.13302095031738,69.58139716613769,57.13302095031738,69.58139716613769Z" fill="#3A3A3A" fill-opacity="1" style="mix-blend-mode:passthrough"/></g><g><path d="M45.742574899291995,69.58140433227538C45.54877489929199,69.58140433227538,45.35287489929199,69.5251643322754,45.18057489929199,69.4078143322754C40.979774899291996,66.5468343322754,36.316914899291994,64.61643433227539,31.321548899291994,63.67024433227539C30.77890889929199,63.56745433227539,30.42233899929199,63.04424433227539,30.525128999291994,62.50160833227539C30.62790889929199,61.95896833227539,31.15111889929199,61.60239853227539,31.693754899291992,61.70518833227539C36.96071489929199,62.70281433227539,41.87707489929199,64.73819433227538,46.306374899291995,67.75478433227539C46.762874899291994,68.06566433227539,46.880874899291996,68.6877343322754,46.56997489929199,69.1442043322754C46.37647489929199,69.42839433227539,46.06227489929199,69.58140433227538,45.742574899291995,69.58140433227538C45.742574899291995,69.58140433227538,45.742574899291995,69.58140433227538,45.742574899291995,69.58140433227538Z" fill="#3A3A3A" fill-opacity="1" style="mix-blend-mode:passthrough"/></g><g><path d="M57.133017135620115,76.65655623901367C56.81326813562012,76.65655623901367,56.499158135620114,76.50357623901367,56.30559213562012,76.21936623901367C55.99471213562012,75.76288623901367,56.11273183562012,75.14082623901368,56.56920213562012,74.82993623901368C60.998457135620114,71.81334623901367,65.91485713562011,69.77796623901367,71.18181713562012,68.78032723901367C71.72441713562012,68.67754713901367,72.24771713562012,69.03411723901367,72.35041713562012,69.57674723901367C72.45321713562012,70.11938623901368,72.09671713562011,70.64260623901367,71.55401713562011,70.74538623901367C66.55861713562012,71.69157623901367,61.89580713562012,73.62198623901367,57.69501713562012,76.48297623901367C57.52275713562012,76.60029623901367,57.326827135620114,76.65655623901367,57.133017135620115,76.65655623901367C57.133017135620115,76.65655623901367,57.133017135620115,76.65655623901367,57.133017135620115,76.65655623901367Z" fill="#3A3A3A" fill-opacity="1" style="mix-blend-mode:passthrough"/></g><g><path d="M45.74257108459473,76.65656340515136C45.548771084594726,76.65656340515136,45.352871084594724,76.60032340515137,45.180571084594725,76.48297340515137C40.97977108459473,73.62199340515137,36.31691108459473,71.69159340515137,31.321545084594728,70.74540340515136C30.778905084594726,70.64261340515137,30.422335184594726,70.11940340515137,30.525125184594728,69.57676740515137C30.627905084594726,69.03412740515137,31.151115084594725,68.67755760515136,31.693751084594727,68.78034740515136C36.96071108459473,69.77797340515137,41.877071084594725,71.81335340515136,46.30637108459473,74.82994340515137C46.76287108459473,75.14082340515137,46.88087108459473,75.76289340515137,46.56997108459473,76.21936340515137C46.376471084594726,76.50355340515137,46.06227108459473,76.65656340515136,45.74257108459473,76.65656340515136C45.74257108459473,76.65656340515136,45.74257108459473,76.65656340515136,45.74257108459473,76.65656340515136Z" fill="#3A3A3A" fill-opacity="1" style="mix-blend-mode:passthrough"/></g><g><path d="M57.13301332092285,83.73172294128418C56.813264320922855,83.73172294128418,56.49915432092285,83.57874294128418,56.30558832092285,83.29453294128417C55.994708320922854,82.83805294128418,56.11272802092285,82.21599294128418,56.56919832092285,81.90510294128418C60.99846332092285,78.88851294128418,65.91485332092284,76.85312294128418,71.18181332092286,75.85549364128418C71.72441332092285,75.75271474128418,72.24771332092286,76.10928294128418,72.35041332092285,76.65192394128418C72.45321332092286,77.19455294128419,72.09671332092285,77.71777294128418,71.55401332092285,77.82055294128418C66.55861332092286,78.76674294128418,61.895813320922855,80.69714294128418,57.695013320922854,83.55814294128417C57.52275332092285,83.67546294128418,57.32682332092285,83.73172294128418,57.13301332092285,83.73172294128418C57.13301332092285,83.73172294128418,57.13301332092285,83.73172294128418,57.13301332092285,83.73172294128418Z" fill="#3A3A3A" fill-opacity="1" style="mix-blend-mode:passthrough"/></g><g><path d="M45.742561547851565,83.7317320147705C45.54876154785156,83.7317320147705,45.35286154785156,83.67549201477051,45.18056154785156,83.55814201477051C40.97976154785157,80.69715201477051,36.31691154785156,78.7667520147705,31.321542547851564,77.8205720147705C30.77891254785156,77.7177820147705,30.422332147851563,77.19457201477051,30.525112147851562,76.65193601477051C30.627902547851562,76.10930601477051,31.15111254785156,75.7527260147705,31.693751547851562,75.85551561477051C36.96071154785156,76.85314201477051,41.87706154785156,78.88851201477051,46.306361547851566,81.9051020147705C46.762861547851564,82.2159920147705,46.880861547851566,82.83806201477051,46.56996154785156,83.29453201477051C46.37646154785156,83.5787220147705,46.06226154785156,83.7317320147705,45.742561547851565,83.7317320147705C45.742561547851565,83.7317320147705,45.742561547851565,83.7317320147705,45.742561547851565,83.7317320147705Z" fill="#3A3A3A" fill-opacity="1" style="mix-blend-mode:passthrough"/></g></g></g></g></svg>