<svg xmlns="http://www.w3.org/2000/svg" xmlns:xlink="http://www.w3.org/1999/xlink" fill="none" version="1.1" width="292.94921875" height="292.94921875" viewBox="0 0 292.94921875 292.94921875"><defs><mask id="master_svg0_0_13223" style="mask-type:alpha" maskUnits="objectBoundingBox"><g><rect x="33.95820617675781" y="12.816543579101562" width="228" height="280" rx="0" fill="#FFFFFF" fill-opacity="1"/></g></mask></defs><g><g mask="url(#master_svg0_0_13223)"><g><g transform="matrix(0,1,-1,0,186.84231567382812,-307.006103515625)"><g><path d="M518.7570064697265,79.59310607910157Q526.8700064697266,60.88710607910156,526.8690064697266,40.40010607910156Q526.8680064697265,19.916006079101564,518.7580064697265,1.207806079101566Q510.9240064697266,-16.859493920898437,496.6380064697266,-30.795093920898438Q482.35500646972656,-44.72849392089844,463.83100646972656,-52.370593920898436Q444.6570064697266,-60.28189392089844,423.65800646972656,-60.281901920898434Q402.65980646972656,-60.28189392089844,383.48360646972657,-52.37045392089844Q364.96030646972656,-44.72859392089843,350.67500646972655,-30.79469392089844Q336.3884064697266,-16.85979392089844,328.55334646972653,1.2083060791015612Q320.4410064697266,19.91550607910156,320.4410064697266,40.40010607910156Q320.4410064697266,60.88410607910156,328.5530164697266,79.59210607910157Q336.38790646972654,97.66210607910156,350.67390646972655,111.59610607910156Q364.95900646972655,125.52910607910155,383.4815064697266,133.17210607910155Q402.6561064697266,141.08310607910155,423.6550064697266,141.08410607910156Q444.6550064697266,141.08310607910155,463.82900646972655,133.17210607910155Q482.3520064697266,125.52810607910158,496.63600646972657,111.59610607910156Q510.92100646972654,97.66210607910156,518.7570064697265,79.59310607910157ZM518.3910064697266,1.3670060791015644Q526.4700064697265,19.99940607910156,526.4690064697265,40.40010607910156Q526.4680064697266,60.80310607910157,518.3900064697266,79.43310607910155Q510.58600646972656,97.43110607910157,496.35700646972657,111.31010607910156Q482.12900646972656,125.18910607910155,463.67600646972653,132.80310607910155Q444.57500646972653,140.68510607910156,423.6550064697266,140.68410607910155Q402.73530646972654,140.68310607910155,383.63400646972656,132.80310607910155Q365.18270646972655,125.18910607910155,350.9532064697266,111.30910607910155Q336.7236064697266,97.42910607910156,328.9199964697266,79.43310607910155Q320.84100646972655,60.80010607910157,320.84100646972655,40.40010607910156Q320.84100646972655,19.998306079101567,328.92032646972655,1.3674060791015634Q336.72410646972656,-16.628493920898435,350.9543064697266,-30.50839392089844Q365.1842064697266,-44.388293920898434,383.6362064697266,-52.00068392089844Q402.73890646972654,-59.881893920898435,423.65800646972656,-59.881901920898436Q444.5770064697266,-59.881958920898434,463.6790064697266,-52.00082392089844Q482.1310064697266,-44.38809392089844,496.3590064697265,-30.508693920898438Q510.58900646972654,-16.628293920898436,518.3910064697266,1.3670060791015644Z" fill-rule="evenodd" fill="#68FE7F" fill-opacity="1" style="mix-blend-mode:passthrough"/></g><g><path d="M508.8363267822266,79.58510607910156Q516.0983267822265,60.883106079101566,516.0993267822266,40.40010607910156Q516.1003267822266,19.917106079101558,508.83732678222657,1.2150060791015633Q501.82132678222655,-16.854293920898435,489.03032678222655,-30.78719392089844Q476.23632678222657,-44.72409392089844,459.64732678222657,-52.36735392089844Q442.4693267822266,-60.28189392089844,423.6593267822266,-60.281901920898434Q404.8490267822266,-60.28189392089844,387.6715267822266,-52.367213920898436Q371.0818267822266,-44.72339392089844,358.2883267822266,-30.786793920898436Q345.49662678222654,-16.852193920898436,338.48153678222656,1.2155060791015657Q331.2193267822266,19.91970607910156,331.21933478222655,40.40010607910156Q331.2193267822266,60.87910607910156,338.48194678222654,79.58510607910156Q345.49742678222657,97.65310607910158,358.2895267822266,111.58810607910155Q371.08492678222655,125.52610607910157,387.6728267822266,133.16910607910157Q404.85162678222656,141.08510607910156,423.6593267822266,141.08410607910156Q442.4663267822266,141.08510607910156,459.64632678222654,133.16910607910157Q476.2333267822265,125.52610607910157,489.0293267822266,111.58810607910155Q501.8203267822266,97.65610607910156,508.8363267822266,79.58510607910156ZM508.4643267822265,1.3598060791015598Q515.7003267822265,19.99210607910156,515.6993267822265,40.40010607910156Q515.6983267822266,60.80710607910156,508.46332678222655,79.44110607910156Q501.47432678222657,97.44010607910155,488.73432678222656,111.31810607910157Q475.9933267822266,125.19710607910156,459.47832678222653,132.80610607910157Q442.37932678222654,140.68510607910156,423.6593267822266,140.68410607910155Q404.9391267822266,140.68510607910156,387.8402267822266,132.80610607910157Q371.32532678222657,125.19710607910156,358.5841267822266,111.31710607910156Q345.8429267822266,97.43810607910157,338.85482678222655,79.44010607910155Q331.61932678222655,60.80610607910157,331.6193347822266,40.40010607910156Q331.61932678222655,19.994106079101556,338.85441678222656,1.360206079101566Q345.8422267822266,-16.637093920898437,358.58302678222657,-30.516293920898438Q371.32242678222656,-44.393693920898436,387.83892678222657,-52.00391392089844Q404.93702678222655,-59.881893920898435,423.6593267822266,-59.881901920898436Q442.3823267822265,-59.881893920898435,459.47932678222656,-52.00406392089844Q475.99632678222656,-44.39439392089844,488.7353267822266,-30.516693920898437Q501.4753267822266,-16.639193920898435,508.4643267822265,1.3598060791015598Z" fill-rule="evenodd" fill="#68FE7F" fill-opacity="1" style="mix-blend-mode:passthrough"/></g><g><path d="M498.9077642822266,79.57710607910155Q505.3197642822266,60.877106079101566,505.3197642822266,40.40010607910156Q505.3197642822266,19.92230607910156,498.9077642822266,1.223006079101566Q492.71276428222654,-16.842793920898437,481.4157642822266,-30.777493920898436Q470.11676428222654,-44.716493920898436,455.45976428222656,-52.36288392089844Q440.28026428222654,-60.28189392089844,423.6577642822266,-60.28188592089844Q407.03446428222657,-60.28189392089844,391.85536428222656,-52.36288392089844Q377.19876428222653,-44.716693920898436,365.8978642822266,-30.777493920898436Q354.60056428222657,-16.842793920898437,348.40548428222655,1.223006079101566Q341.9927642822266,19.923306079101565,341.9927642822266,40.40010607910156Q341.9927642822266,60.87610607910156,348.40562428222654,79.57710607910155Q354.60046428222654,97.64310607910156,365.8982642822266,111.57910607910156Q377.19956428222656,125.51810607910156,391.8557642822266,133.16510607910158Q407.0346642822266,141.08410607910156,423.6577642822266,141.08410607910156Q440.28026428222654,141.08410607910156,455.4587642822266,133.16510607910158Q470.1147642822266,125.51810607910156,481.4157642822266,111.57910607910156Q492.71276428222654,97.64410607910156,498.9077642822266,79.57710607910155ZM498.5287642822266,1.3527060791015657Q504.91976428222654,19.988906079101568,504.91976428222654,40.40010607910156Q504.91976428222654,60.81110607910156,498.5287642822266,79.44810607910156Q492.35676428222655,97.44710607910156,481.1047642822266,111.32710607910155Q469.85676428222655,125.20110607910155,455.2737642822266,132.81010607910156Q440.18186428222657,140.68510607910156,423.6577642822266,140.68410607910155Q407.13256428222655,140.68410607910155,392.0407642822266,132.81010607910156Q377.45816428222656,125.20210607910155,366.2089642822266,111.32710607910155Q354.95596428222655,97.44610607910155,348.78399428222656,79.44810607910156Q342.39276428222655,60.81010607910156,342.39276428222655,40.40010607910156Q342.39282928222656,19.990506079101564,348.78385428222657,1.3527060791015657Q354.95596428222655,-16.64619392089844,366.2085642822266,-30.525593920898437Q377.45756428222654,-44.40039392089844,392.04036428222656,-52.00824392089844Q407.1328642822266,-59.881893920898435,423.6577642822266,-59.88188592089844Q440.18236428222656,-59.881893920898435,455.27476428222656,-52.00824392089844Q469.8577642822266,-44.400093920898435,481.1057642822266,-30.525593920898437Q492.35676428222655,-16.646493920898436,498.5287642822266,1.3527060791015657Z" fill-rule="evenodd" fill="#68FE7F" fill-opacity="1" style="mix-blend-mode:passthrough"/></g><g><path d="M488.98722521972655,79.57010607910155Q494.5512252197266,60.871106079101565,494.5512252197266,40.40010607910156Q494.5502252197266,19.928506079101567,488.98722521972655,1.230406079101563Q483.6132252197266,-16.831893920898438,473.80922521972656,-30.766993920898436Q464.00022521972653,-44.708493920898434,451.27792521972657,-52.35712392089844Q438.09592521972655,-60.28189392089844,423.65822521972655,-60.281901920898434Q409.22042521972656,-60.28189392089844,396.0385252197266,-52.35697392089844Q383.31602521972655,-44.708093920898435,373.50742521972654,-30.766593920898437Q363.70432521972657,-16.832693920898436,358.32903521972656,1.230806079101562Q352.7652252197266,19.928006079101564,352.7652252197266,40.40010607910156Q352.7652252197266,60.871106079101565,358.32903521972656,79.57010607910155Q363.70412521972656,97.63410607910157,373.50742521972654,111.56810607910157Q383.31562521972654,125.50910607910157,396.0385252197266,133.15910607910158Q409.21962521972654,141.08510607910156,423.65822521972655,141.08410607910156Q438.0949252197266,141.08410607910156,451.27792521972657,133.15910607910158Q463.99922521972655,125.51110607910155,473.80922521972656,111.56810607910157Q483.6132252197266,97.63310607910157,488.98722521972655,79.57010607910155ZM488.6042252197266,1.3445060791015635Q494.15022521972656,19.98690607910156,494.1512252197266,40.40010607910156Q494.15022521972656,60.81310607910156,488.6042252197266,79.45610607910157Q483.2472252197266,97.45710607910155,473.48222521972656,111.33810607910155Q463.72122521972653,125.21310607910155,451.0718252197266,132.81610607910156Q437.98402521972656,140.68410607910155,423.65822521972655,140.68410607910155Q409.3306252197266,140.68410607910155,396.2446252197266,132.81610607910156Q383.59412521972655,125.21010607910156,373.8345252197266,111.33810607910155Q364.0688252197266,97.45710607910155,358.71241521972655,79.45610607910157Q353.16522521972655,60.81410607910156,353.16522521972655,40.40010607910156Q353.16522521972655,19.986306079101567,358.71241521972655,1.3449060791015626Q364.0691252197266,-16.656093920898435,373.8345252197266,-30.536393920898437Q383.5944252197266,-44.408893920898436,396.2446252197266,-52.01415392089844Q409.3313252197266,-59.881893920898435,423.65822521972655,-59.881901920898436Q437.98452521972655,-59.881893920898435,451.0718252197266,-52.01430392089844Q463.72222521972657,-44.40919392089844,473.48222521972656,-30.536793920898436Q483.2472252197266,-16.655293920898437,488.6042252197266,1.3445060791015635Z" fill-rule="evenodd" fill="#68FE7F" fill-opacity="1" style="mix-blend-mode:passthrough"/></g><g><path d="M479.0616158447266,79.56210607910157Q483.77561584472653,60.868106079101565,483.77661584472656,40.40010607910156Q483.77561584472653,19.932706079101564,479.0616158447266,1.2385060791015619Q474.50761584472656,-16.82149392089844,466.19861584472653,-30.754293920898437Q457.88381584472654,-44.697793920898434,447.09671584472653,-52.34884392089844Q435.91251584472656,-60.28189392089844,423.65861584472657,-60.281901920898434Q411.4047158447266,-60.28189392089844,400.2204158447266,-52.34869392089844Q389.43331584472656,-44.697393920898435,381.1187158447266,-30.753993920898438Q372.81079584472656,-16.821993920898436,368.2554458447266,1.238906079101561Q363.5406158447266,19.931606079101556,363.54060784472654,40.40010607910156Q363.5406158447266,60.868106079101565,368.25545584472655,79.56110607910156Q372.81066584472654,97.62310607910158,381.1187158447266,111.55510607910156Q389.43381584472655,125.49910607910155,400.2204158447266,133.15110607910157Q411.40521584472657,141.08410607910156,423.65861584472657,141.08410607910156Q435.9122158447266,141.08410607910156,447.09671584472653,133.15110607910157Q457.88331584472655,125.50010607910156,466.19861584472653,111.55510607910156Q474.5066158447266,97.62310607910158,479.0616158447266,79.56210607910157ZM478.67361584472656,1.3363060791015613Q483.37661584472653,19.98270607910156,483.37661584472653,40.40010607910156Q483.37661584472653,60.81710607910156,478.67361584472656,79.46410607910155Q474.1336158447266,97.46810607910157,465.8546158447266,111.35110607910156Q457.58331584472654,125.22210607910156,446.8653158447266,132.82410607910157Q435.7844158447266,140.68510607910156,423.65861584472657,140.68410607910155Q411.53281584472654,140.68410607910155,400.45191584472656,132.82410607910157Q389.73411584472655,125.22210607910156,381.46231584472656,111.35010607910155Q373.1842358447266,97.46810607910157,368.64331584472654,79.46410607910155Q363.94061584472655,60.81810607910157,363.94060784472657,40.40010607910156Q363.94061584472655,19.981606079101567,368.64329584472654,1.3368060791015637Q373.1843658447266,-16.66759392089844,381.4622158447266,-30.549093920898436Q389.73361584472656,-44.419993920898435,400.4518158447266,-52.022433920898436Q411.53231584472655,-59.881893920898435,423.65861584472657,-59.881901920898436Q435.7849158447266,-59.881893920898435,446.8653158447266,-52.02258392089844Q457.58331584472654,-44.420393920898434,465.8546158447266,-30.54949392089844Q474.1336158447266,-16.666793920898435,478.67361584472656,1.3363060791015613Z" fill-rule="evenodd" fill="#68FE7F" fill-opacity="1" style="mix-blend-mode:passthrough"/></g><g><path d="M469.1372299072266,79.55310607910155Q473.0025299072266,60.865106079101565,473.00302990722656,40.40010607910156Q473.0025299072266,19.934806079101563,469.13682990722657,1.2469060791015636Q465.40042990722657,-16.81209392089844,458.58852990722653,-30.73979392089844Q451.76862990722657,-44.683693920898435,442.9187299072266,-52.33698392089844Q433.73172990722657,-60.28189392089844,423.65902990722657,-60.281901920898434Q413.58642990722655,-60.28189392089844,404.39932990722656,-52.33684392089844Q395.5491299072266,-44.68319392089844,388.72952990722655,-30.739393920898436Q381.9165899072266,-16.809193920898437,378.18121990722653,1.2473060791015627Q374.3150299072266,19.93690607910156,374.3150299072266,40.40010607910156Q374.3150299072266,60.86410607910156,378.18079990722657,79.55310607910155Q381.91590990722653,97.61010607910157,388.72832990722657,111.54010607910158Q395.54762990722656,125.48410607910157,404.39802990722654,133.13910607910157Q413.58532990722654,141.08510607910156,423.65902990722657,141.08410607910156Q433.73272990722654,141.08410607910156,442.91992990722656,133.13910607910157Q451.77072990722655,125.48510607910157,458.5896299072266,111.54110607910155Q465.40202990722656,97.61110607910157,469.1372299072266,79.55310607910155ZM468.74512990722656,1.3279060791015596Q472.60252990722654,19.97540607910156,472.6030299072265,40.40010607910156Q472.6035299072266,60.823106079101564,468.74552990722657,79.47210607910156Q465.02072990722655,97.47910607910157,458.2303299072266,111.36510607910157Q451.4470299072266,125.23510607910157,442.6583299072266,132.83610607910157Q433.5838299072266,140.68410607910155,423.65902990722657,140.68410607910155Q413.73432990722654,140.68410607910155,404.65972990722656,132.83610607910157Q395.87102990722656,125.23610607910157,389.08772990722656,111.36510607910157Q382.29738990722655,97.48110607910155,378.57250990722656,79.47210607910156Q374.71502990722655,60.823106079101564,374.71502990722655,40.40010607910156Q374.71502990722655,19.97750607910156,378.5729299072266,1.328406079101562Q382.2980999072266,-16.678993920898435,389.08882990722657,-30.563693920898437Q395.87262990722655,-44.43399392089844,404.6610299072266,-52.03428392089844Q413.73532990722657,-59.881893920898435,423.65902990722657,-59.881901920898436Q433.58272990722656,-59.881893920898435,442.65702990722656,-52.03443392089844Q451.4447299072266,-44.43449392089844,458.22922990722657,-30.563993920898437Q465.01922990722653,-16.68189392089844,468.74512990722656,1.3279060791015596Z" fill-rule="evenodd" fill="#68FE7F" fill-opacity="1" style="mix-blend-mode:passthrough"/></g><g><path d="M459.2096439697266,79.54510607910157Q462.22744396972655,60.85810607910156,462.22744396972655,40.40010607910156Q462.22744396972655,19.937906079101566,459.2096439697266,1.2555060791015649Q456.29304396972657,-16.79859392089844,450.97604396972656,-30.72319392089844Q445.65244396972656,-44.66479392089844,438.74164396972657,-52.319733920898436Q431.55354396972655,-60.28189392089844,423.6584439697266,-60.281901920898434Q415.76364396972656,-60.28189392089844,408.5753439697266,-52.31958392089844Q401.66474396972654,-44.66479392089844,396.34084396972656,-30.722893920898436Q391.02303396972655,-16.796593920898438,388.1073139697266,1.255906079101564Q385.0894439697266,19.94100607910157,385.0894439697266,40.40010607910156Q385.0894439697266,60.859106079101565,388.1073139697266,79.54410607910157Q391.0228239697266,97.59710607910156,396.34084396972656,111.52410607910156Q401.66454396972654,125.46610607910156,408.5753439697266,133.12110607910157Q415.76364396972656,141.08410607910156,423.6584439697266,141.08410607910156Q431.55324396972657,141.08410607910156,438.74164396972657,133.12210607910157Q445.65244396972656,125.46710607910157,450.97604396972656,111.52410607910156Q456.29464396972656,97.59510607910155,459.2096439697266,79.54510607910157ZM458.8147439697266,1.3193060791015654Q461.8274439697266,19.971206079101563,461.8274439697266,40.40010607910156Q461.8274439697266,60.82510607910156,458.8147439697266,79.48110607910155Q455.9066439697266,97.49110607910157,450.6023439697266,111.38210607910156Q445.30534396972655,125.25410607910158,438.4447439697266,132.85310607910156Q431.37554396972655,140.68410607910155,423.6584439697266,140.68410607910155Q415.9415439697266,140.68410607910155,408.8722439697266,132.85310607910156Q402.01144396972654,125.25310607910157,396.71454396972655,111.38110607910156Q391.41115396972657,97.49210607910157,388.50220396972657,79.48110607910155Q385.48944396972655,60.82710607910157,385.48944396972655,40.40010607910156Q385.48944396972655,19.97330607910156,388.50220396972657,1.3197060791015645Q391.41138396972656,-16.69219392089844,396.71454396972655,-30.580193920898438Q402.0117439697266,-44.45219392089844,408.8722439697266,-52.05154392089844Q415.94144396972655,-59.881893920898435,423.6584439697266,-59.881901920898436Q431.3756439697266,-59.881893920898435,438.4447439697266,-52.05168392089844Q445.30554396972656,-44.45229392089844,450.6023439697266,-30.580593920898437Q455.90504396972653,-16.694393920898435,458.8147439697266,1.3193060791015654Z" fill-rule="evenodd" fill="#68FE7F" fill-opacity="1" style="mix-blend-mode:passthrough"/></g><g><path d="M449.2848345947266,79.53610607910156Q451.45443459472654,60.85410607910157,451.4547345947266,40.40010607910156Q451.45443459472654,19.946206079101557,449.2848345947266,1.2643060791015657Q447.1888345947266,-16.782893920898438,443.36513459472656,-30.70489392089844Q439.5375345947266,-44.64209392089844,434.5686345947266,-52.29462392089844Q429.38253459472656,-60.28189392089844,423.6598345947266,-60.281901920898434Q417.93713459472656,-60.28189392089844,412.7509345947266,-52.29447392089844Q407.78203459472655,-44.64159392089844,403.9544645947266,-30.704493920898436Q400.1311745947266,-16.78269392089844,398.03476459472654,1.264806079101561Q395.8648345947266,19.945206079101567,395.8648345947266,40.40010607910156Q395.8648345947266,60.85410607910157,398.03476459472654,79.53610607910156Q400.1311745947266,97.58510607910156,403.9544645947266,111.50610607910156Q407.78223459472656,125.44410607910157,412.7509345947266,133.09610607910156Q417.93733459472656,141.08510607910156,423.6598345947266,141.08410607910156Q429.38243459472653,141.08410607910156,434.5686345947266,133.09610607910156Q439.53763459472657,125.44310607910157,443.36513459472656,111.50610607910156Q447.18853459472655,97.58310607910155,449.2848345947266,79.53610607910156ZM448.88753459472656,1.3105060791015646Q451.05443459472656,19.969106079101564,451.05473459472654,40.40010607910156Q451.05493459472655,60.832106079101564,448.88753459472656,79.49010607910157Q446.79473459472655,97.50710607910156,442.97943459472657,111.40010607910156Q439.16833459472656,125.27710607910157,434.23313459472655,132.87910607910158Q429.16523459472654,140.68410607910155,423.6598345947266,140.68410607910155Q418.1544345947266,140.68410607910155,413.08643459472654,132.87810607910157Q408.15153459472657,125.27710607910157,404.34018459472657,111.40010607910156Q400.5249745947266,97.50810607910157,398.4320845947266,79.48910607910156Q396.26483459472655,60.83110607910156,396.26483459472655,40.40010607910156Q396.26483459472655,19.968606079101562,398.43209459472655,1.3109060791015636Q400.52492459472654,-16.706193920898436,404.34018459472657,-30.598593920898438Q408.15133459472656,-44.47579392089844,413.08643459472654,-52.07665392089844Q418.15433459472655,-59.881893920898435,423.6598345947266,-59.881901920898436Q429.1653345947266,-59.88192692089844,434.23313459472655,-52.07679392089844Q439.1682345947266,-44.47619392089844,442.97943459472657,-30.598893920898437Q446.79453459472654,-16.706393920898435,448.88753459472656,1.3105060791015646Z" fill-rule="evenodd" fill="#68FE7F" fill-opacity="1" style="mix-blend-mode:passthrough"/></g><g><path d="M439.35499553222655,79.52710607910157Q440.67739553222657,60.85110607910157,440.6772955322266,40.40010607910156Q440.67739553222657,19.948306079101556,439.35519553222656,1.273306079101566Q438.07789553222653,-16.76989392089844,435.7486955322266,-30.68489392089844Q433.4171955322266,-44.613093920898436,430.39099553222655,-52.259313920898435Q427.21579553222654,-60.28189392089844,423.65729553222656,-60.281901920898434Q420.09949553222657,-60.28189392089844,416.9243955322266,-52.25916392089844Q413.8981655322266,-44.61259392089843,411.5666655322266,-30.684493920898436Q409.2370955322266,-16.768093920898437,407.9596555322266,1.273706079101565Q406.6372955322266,19.949906079101567,406.6372955322266,40.40010607910156Q406.6372955322266,60.850106079101565,407.9596555322266,79.52710607910157Q409.2371855322266,97.57010607910155,411.5666655322266,111.48610607910157Q413.8982355322266,125.41410607910157,416.9243955322266,133.06110607910156Q420.09939553222654,141.08410607910156,423.65729553222656,141.08410607910156Q427.2151955322266,141.08410607910156,430.3901955322266,133.06110607910156Q433.41629553222657,125.41410607910157,435.74789553222655,111.48610607910157Q438.0772955322266,97.57110607910155,439.35499553222655,79.52710607910157ZM438.95619553222656,1.3015060791015642Q440.2773955322266,19.961906079101567,440.27729553222656,40.40010607910156Q440.27709553222655,60.83710607910156,438.95599553222655,79.49910607910155Q437.67969553222656,97.52410607910156,435.35339553222656,111.42010607910157Q433.0287955322266,125.30710607910157,430.01829553222655,132.91410607910157Q426.94329553222656,140.68410607910155,423.65729553222656,140.68410607910155Q420.37129553222655,140.68410607910155,417.29639553222654,132.91410607910157Q414.28576553222655,125.30710607910157,411.96117553222655,111.42010607910157Q409.63484553222656,97.52210607910158,408.3586555322266,79.49810607910158Q407.03729553222655,60.83710607910156,407.03729553222655,40.40010607910156Q407.03729553222655,19.963906079101562,408.3586555322266,1.3020060791015595Q409.63475553222656,-16.720793920898437,411.96117553222655,-30.618493920898437Q414.2857055322266,-44.504793920898436,417.29639553222654,-52.11196392089844Q420.3713955322266,-59.881893920898435,423.65729553222656,-59.881901920898436Q426.9438955322266,-59.881893920898435,430.0190955322266,-52.112103920898434Q433.0296955322266,-44.50529392089844,435.3541955322266,-30.618893920898437Q437.6802955322266,-16.722493920898437,438.95619553222656,1.3015060791015642Z" fill-rule="evenodd" fill="#68FE7F" fill-opacity="1" style="mix-blend-mode:passthrough"/></g><g><path d="M428.13250959472657,111.46510607910156Q429.90380959472657,82.02610607910157,429.90370959472654,40.40010607910156Q429.90360959472656,-1.2297939208984374,428.1329095947266,-30.66389392089844Q426.35076959472656,-60.28189392089844,423.65772959472656,-60.281901920898434Q420.96511959472656,-60.28189392089844,419.1829595947266,-30.66349392089844Q417.4117095947266,-1.2263939208984382,417.4117095947266,40.40010607910156Q417.4117095947266,82.02810607910158,419.1829395947266,111.46510607910156Q420.96507959472655,141.08510607910156,423.65772959472656,141.08410607910156Q426.35045959472654,141.08410607910156,428.13250959472657,111.46510607910156ZM427.73360959472654,-30.639893920898437Q429.5036095947266,-1.2193939208984403,429.50370959472656,40.40010607910156Q429.5038095947266,82.01410607910157,427.7332095947266,111.44110607910156Q426.8970295947266,125.33910607910155,425.81307959472656,132.95910607910156Q424.71425959472657,140.68410607910155,423.65772959472656,140.68410607910155Q422.6012295947266,140.68410607910155,421.50238959472654,132.95910607910156Q420.41846959472656,125.33910607910155,419.58221959472655,111.44110607910156Q417.81170959472655,82.01410607910157,417.81170959472655,40.40010607910156Q417.81170959472655,-1.2143939208984378,419.58223959472656,-30.63949392089844Q420.4185495947266,-44.53829392089844,421.50240959472654,-52.157393920898436Q422.6012795947266,-59.881893920898435,423.65772959472656,-59.881901920898436Q424.71450959472656,-59.881893920898435,425.81345959472657,-52.15754392089844Q426.89725959472656,-44.53929392089844,427.73360959472654,-30.639893920898437Z" fill-rule="evenodd" fill="#68FE7F" fill-opacity="1" style="mix-blend-mode:passthrough"/></g><g><ellipse cx="423.66046142578125" cy="40.401405334472656" rx="111.20500183105469" ry="89.9540023803711" fill-opacity="0" stroke-opacity="1" stroke="#68FE7F" fill="none" stroke-width="0.4000000059604645" stroke-linecap="ROUND" style="mix-blend-mode:passthrough"/></g><g><ellipse cx="423.6581039428711" cy="40.402679443359375" rx="119.39600372314453" ry="79.42500305175781" fill-opacity="0" stroke-opacity="1" stroke="#68FE7F" fill="none" stroke-width="0.4000000059604645" stroke-linecap="ROUND" style="mix-blend-mode:passthrough"/></g><g><path d="M541.3776470947266,67.34649670410157Q551.4476470947266,54.49189670410156,551.4466470947266,40.40599670410157Q551.4476470947266,26.32059670410156,541.3776470947266,13.464696704101563Q531.6686470947266,1.0676967041015608,513.9726470947265,-8.48870329589844Q496.29164709472656,-18.03750329589844,473.36664709472655,-23.274133295898437Q449.63964709472657,-28.694003295898437,423.65964709472655,-28.69399529589844Q397.67864709472656,-28.694003295898437,373.95224709472654,-23.274703295898437Q351.02894709472656,-18.039103295898435,333.34674709472654,-8.49020329589844Q315.6518470947266,1.065196704101563,305.94152709472655,13.462996704101563Q295.8726470947266,26.318796704101565,295.8726630947266,40.40599670410157Q295.8726470947266,54.49299670410156,305.94152709472655,67.34819670410157Q315.65074709472657,79.74399670410156,333.34674709472654,89.29999670410156Q351.0268470947266,98.84599670410157,373.95224709472654,104.08199670410156Q397.67664709472655,109.50099670410157,423.65964709472655,109.50099670410157Q449.6386470947266,109.50199670410157,473.36664709472655,104.08199670410156Q496.29164709472656,98.84699670410156,513.9726470947265,89.29799670410156Q531.6686470947266,79.74199670410157,541.3776470947266,67.34649670410157ZM541.0626470947266,13.71139670410156Q551.0476470947266,26.45859670410156,551.0466470947265,40.40599670410157Q551.0456470947265,54.35389670410156,541.0626470947266,67.09979670410156Q531.4036470947266,79.42999670410157,513.7826470947266,88.94599670410156Q496.14764709472655,98.46999670410156,473.2776470947266,103.69199670410157Q449.5936470947265,109.10199670410157,423.65964709472655,109.10099670410156Q397.72264709472654,109.10099670410156,374.04124709472654,103.69299670410157Q351.16874709472654,98.46899670410156,333.5367470947266,88.94799670410156Q315.91414709472656,79.43199670410156,306.2564470947266,67.10149670410156Q296.27264709472655,54.354996704101566,296.27266309472657,40.40599670410157Q296.27264709472655,26.456796704101563,306.2564470947266,13.70969670410156Q315.91504709472656,1.3775967041015633,333.5367470947266,-8.138303295898439Q351.17164709472655,-17.661303295898435,374.04124709472654,-22.88474329589844Q397.7236470947266,-28.294003295898438,423.65964709472655,-28.293995295898437Q449.5956470947266,-28.294003295898438,473.2776470947266,-22.88417329589844Q496.14964709472656,-17.65980329589844,513.7826470947266,-8.136803295898439Q531.4036470947266,1.3799967041015613,541.0626470947266,13.71139670410156Z" fill-rule="evenodd" fill="#68FE7F" fill-opacity="1" style="mix-blend-mode:passthrough"/></g><g><path d="M548.9103111572265,63.26224670410156Q559.6383111572266,52.35914670410156,559.6383111572266,40.40324670410156Q559.6373111572266,28.447446704101566,548.9103111572265,17.544546704101563Q538.5783111572266,7.042946704101563,519.7483111572266,-1.0512532958984373Q500.9343111572266,-9.138533295898437,476.5453111572266,-13.572743295898437Q451.29931115722655,-18.162753295898437,423.65831115722654,-18.16274529589844Q396.0163111572266,-18.162753295898437,370.7709111572266,-13.572853295898437Q346.38251115722653,-9.138763295898437,327.5684111572266,-1.051353295898437Q308.74001115722655,7.042146704101562,298.40601115722654,17.545046704101566Q287.6783111572266,28.44794670410156,287.67830315722654,40.405246704101565Q287.6783111572266,52.36254670410156,298.40591115722657,63.26524670410156Q308.7399111572266,73.76794670410156,327.56811115722655,81.86084670410156Q346.38221115722655,89.94724670410156,370.77051115722657,94.38124670410156Q396.01431115722653,98.97124670410156,423.65831115722654,98.97124670410156Q451.3033111572266,98.97124670410156,476.54631115722657,94.38124670410156Q500.93631115722656,89.94524670410156,519.7483111572266,81.85874670410156Q538.5783111572266,73.76434670410156,548.9103111572265,63.26224670410156ZM548.6253111572266,17.825146704101563Q559.2373111572265,28.61124670410156,559.2383111572266,40.40324670410156Q559.2383111572266,52.19554670410156,548.6253111572266,62.98174670410157Q538.3493111572266,73.42784670410157,519.5903111572266,81.49124670410156Q500.82031115722657,89.56024670410156,476.47431115722657,93.98724670410157Q451.26831115722655,98.57124670410157,423.65831115722654,98.57124670410157Q396.05131115722656,98.57124670410157,370.84211115722655,93.98824670410156Q346.49841115722654,89.56224670410157,327.7260111572266,81.49334670410157Q308.97001115722657,73.43154670410156,298.69101115722657,62.984646704101564Q288.07831115722655,52.198746704101566,288.07830315722657,40.405246704101565Q288.07831115722655,28.611746704101563,298.69111115722654,17.825546704101562Q308.97001115722657,7.378946704101562,327.72641115722655,-0.6838532958984374Q346.49811115722656,-8.753243295898438,370.8424111572266,-13.179303295898437Q396.05131115722656,-17.762753295898438,423.65831115722654,-17.762745295898437Q451.26331115722655,-17.762753295898438,476.47431115722657,-13.179193295898438Q500.81831115722656,-8.752983295898437,519.5903111572266,-0.6837532958984376Q538.3493111572266,7.3791467041015615,548.6253111572266,17.825146704101563Z" fill-rule="evenodd" fill="#68FE7F" fill-opacity="1" style="mix-blend-mode:passthrough"/></g><g><path d="M556.4388345947266,59.179713891601565Q567.8298345947265,50.230813891601564,567.8298345947265,40.40161389160156Q567.8298345947265,30.57251389160156,556.4398345947266,21.62371389160156Q545.4858345947266,13.018013891601562,525.5248345947266,6.385313891601562Q505.58183459472656,-0.2410761083984374,479.7268345947266,-3.8750561083984376Q452.96483459472654,-7.636386108398438,423.6598345947266,-7.636382108398437Q394.3568345947266,-7.636386108398438,367.59253459472654,-3.8750661083984377Q341.73673459472656,-0.24136610839843708,321.79473459472655,6.385313891601562Q301.83563459472657,13.017413891601564,290.8802345947266,21.62371389160156Q279.4898345947266,30.571813891601565,279.48981859472656,40.40161389160156Q279.4898345947266,50.23161389160156,290.88033459472655,59.179713891601565Q301.83523459472656,67.78601389160156,321.79513459472656,74.41841389160156Q341.7393345947266,81.04591389160156,367.59293459472656,84.67911389160156Q394.3598345947266,88.44071389160156,423.6598345947266,88.44061389160156Q452.96883459472656,88.44071389160156,479.7268345947266,84.67911389160156Q505.5858345947265,81.04381389160156,525.5248345947266,74.41841389160156Q545.4858345947266,67.78551389160157,556.4388345947266,59.179713891601565ZM556.1918345947265,21.938313891601563Q567.4308345947265,30.767213891601564,567.4298345947266,40.40161389160156Q567.4318345947265,50.03601389160156,556.1918345947265,58.86511389160157Q545.2938345947266,67.42771389160156,525.3988345947266,74.03881389160156Q505.49383459472654,80.65321389160157,479.67083459472656,84.28301389160156Q452.9418345947266,88.04071389160156,423.6598345947266,88.04061389160157Q394.3888345947266,88.04071389160156,367.64863459472656,84.28301389160156Q341.8315345947266,80.65471389160156,321.92123459472657,74.03881389160156Q302.02743459472657,67.42821389160156,291.12743459472654,58.86511389160157Q279.88983459472655,50.03701389160156,279.88981859472653,40.40161389160156Q279.88983459472655,30.766313891601563,291.12733459472656,21.938313891601563Q302.0278345947266,13.375113891601561,321.92083459472656,6.764913891601562Q341.82943459472654,0.1496838916015628,367.64823459472655,-3.4789561083984375Q394.3838345947266,-7.236386108398437,423.6598345947266,-7.236382108398438Q452.93583459472654,-7.236386108398437,479.67183459472653,-3.4789461083984374Q505.4918345947266,0.14994389160156274,525.3988345947266,6.764913891601562Q545.2938345947266,13.375713891601563,556.1918345947265,21.938313891601563Z" fill-rule="evenodd" fill="#68FE7F" fill-opacity="1" style="mix-blend-mode:passthrough"/></g><g><ellipse cx="423.658447265625" cy="40.40288543701172" rx="152.16099548339844" ry="37.308998107910156" fill-opacity="0" stroke-opacity="1" stroke="#68FE7F" fill="none" stroke-width="0.4000000059604645" stroke-linecap="ROUND" style="mix-blend-mode:passthrough"/></g><g><ellipse cx="423.6600036621094" cy="40.401254653930664" rx="160.3520050048828" ry="26.7810001373291" fill-opacity="0" stroke-opacity="1" stroke="#68FE7F" fill="none" stroke-width="0.4000000059604645" stroke-linecap="ROUND" style="mix-blend-mode:passthrough"/></g><g><path d="M358.03975646972657,55.573774829101566Q389.35575646972654,56.850674829101564,423.65275646972657,56.85057482910156Q456.64475646972653,56.850674829101564,476.06375646972657,51.76567482910156Q484.66075646972655,49.51437482910156,489.2137564697266,46.53407482910156Q493.66775646972656,43.618274829101566,493.66775646972656,40.39957482910157Q493.66775646972656,37.18087482910156,489.2137564697266,34.265074829101565Q484.6617564697266,31.28477482910156,476.0657564697266,29.03354482910156Q456.6477564697266,23.948574829101563,423.65275646972657,23.948574829101563Q389.35975646972656,23.948574829101563,358.03975646972657,25.225724829101562Q327.78785646972653,26.459364829101563,304.45555646972656,28.70912482910156Q281.1160564697266,30.959574829101562,268.31015646972656,33.87903482910156Q254.90975646972657,36.93407482910156,254.90975646972657,40.40057482910156Q254.90975646972657,43.86707482910156,268.31025646972654,46.92187482910156Q281.11595646972654,49.84097482910156,304.45555646972656,52.09107482910156Q327.78635646972657,54.34027482910156,358.03975646972657,55.573774829101566ZM475.96275646972657,51.37867482910156Q456.5947564697266,56.450674829101565,423.65275646972657,56.45057482910156Q389.36275646972655,56.450674829101565,358.0557564697266,55.17407482910156Q327.8134564697266,53.94097482910156,304.4939564697266,51.69287482910156Q281.1798564697266,49.44547482910156,268.39915646972656,46.53187482910156Q255.30975646972655,43.54797482910156,255.30975646972655,40.40057482910156Q255.30975646972655,37.25317482910156,268.3990564697266,34.26907482910156Q281.17955646972655,31.355284829101564,304.4939564697266,29.107274829101563Q327.81495646972655,26.858584829101563,358.0557564697266,25.625394829101563Q389.3677564697266,24.348576829101564,423.65275646972657,24.348574829101562Q456.59775646972656,24.348574829101562,475.9637564697266,29.420494829101564Q484.4977564697266,31.65516482910156,488.99475646972655,34.59977482910156Q493.2677564697266,37.39707482910156,493.2677564697266,40.39957482910157Q493.2667564697266,43.402074829101565,488.9937564697266,46.19937482910156Q484.49575646972653,49.14387482910156,475.96275646972657,51.37867482910156Z" fill-rule="evenodd" fill="#68FE7F" fill-opacity="1" style="mix-blend-mode:passthrough"/></g><g><path d="M298.68170959472656,44.64775826660156Q350.45820959472655,46.324648266601564,423.6582095947266,46.32484826660156Q458.23420959472656,46.32484826660156,478.58020959472657,44.53565826660156Q497.06420959472655,42.910028266601564,497.06420959472655,40.401858266601565Q497.06420959472655,37.89367826660156,478.58020959472657,36.268058266601564Q458.23720959472655,34.47884826660156,423.6582095947266,34.47884826660156Q350.44920959472654,34.47884826660156,298.68170959472656,36.15495826660156Q246.72420959472657,37.83717826660156,246.72420959472657,40.40086826660156Q246.72420959472657,42.96479826660156,298.68170959472656,44.64775826660156ZM478.54520959472654,44.13718826660156Q458.22020959472655,45.92494826660156,423.6582095947266,45.924848266601565Q350.46520959472656,45.924648266601565,298.69470959472653,44.24796826660156Q274.24020959472654,43.45586826660156,260.82800959472655,42.428948266601566Q254.03756959472656,41.90902826660156,250.54604959472655,41.35653826660156Q247.12420959472655,40.81507826660156,247.12420959472655,40.40086826660156Q247.12420959472655,39.986658266601566,250.54605959472656,39.44526826660156Q254.03745959472656,38.89288826660156,260.82800959472655,38.37308826660156Q274.23880959472655,37.346568266601565,298.69470959472653,36.554748266601564Q350.4572095947266,34.878848266601565,423.6582095947266,34.878848266601565Q458.21820959472655,34.878848266601565,478.54520959472654,36.666518266601564Q487.5142095947266,37.45527826660156,492.24620959472657,38.495768266601566Q496.6642095947266,39.467268266601565,496.6642095947266,40.401858266601565Q496.6642095947266,41.336448266601565,492.24620959472657,42.30793826660156Q487.5142095947266,43.348448266601565,478.54520959472654,44.13718826660156Z" fill-rule="evenodd" fill="#68FE7F" fill-opacity="1" style="mix-blend-mode:passthrough"/></g></g></g></g><g transform="matrix(0.7071067690849304,-0.7071067690849304,0.7071067690849304,0.7071067690849304,-103.57308378064954,42.90194734131728)"><g><path d="M129.7506866455078,146.47377014210156C150.42368664550781,146.47377014210156,169.85968664550782,154.52435670410156,184.47768664550782,169.14254670410156C199.0956866455078,183.76084670410157,207.1466866455078,203.19664670410157,207.1466866455078,223.86984670410158C207.1466866455078,244.54294670410155,199.0956866455078,263.9787467041016,184.47768664550782,278.5967467041016C169.85968664550782,293.21574670410155,150.42368664550781,301.26574670410156,129.7506866455078,301.26574670410156C115.81068664550781,301.26574670410156,102.43368664550782,297.60574670410153,90.71628664550781,290.73974670410155C90.21588664550781,296.7857467041016,87.61928664550781,302.40974670410156,83.27738664550782,306.7567467041016L43.94818664550781,346.08674670410153C39.082086645507815,350.94574670410157,32.621686645507815,353.61974670410154,25.752386645507812,353.61974670410154C11.552786645507812,353.61974670410154,0.0006967920078125,342.0727467041016,0.0006967920078125,327.87974670410154C-0.0053237544921875,321.0127467041016,2.6681166455078125,314.54474670410156,7.528516645507812,309.67874670410157L9.665746645507813,307.54174670410157C9.692066645507813,307.5147467041015,9.718506645507812,307.4877467041016,9.745076645507812,307.46174670410153C9.771676645507812,307.4347467041016,9.798356645507813,307.40874670410153,9.825126645507812,307.3817467041016L44.56588664550781,272.6417467041016C44.59288664550781,272.6137467041016,44.62008664550781,272.58674670410153,44.647386645507815,272.55874670410157C44.674786645507815,272.5317467041016,44.702186645507815,272.50474670410154,44.72968664550781,272.47774670410155L46.857786645507815,270.34974670410156C51.207286645507814,266.00574670410157,56.830786645507814,263.40774670410156,62.88158664550781,262.90574670410155C56.014886645507815,251.18774670410156,52.35418664550781,237.81024670410156,52.35418664550781,223.86984670410158C52.35418664550781,203.19664670410157,60.40478664550781,183.76084670410157,75.02298664550781,169.14254670410156C89.64118664550782,154.52435670410156,109.0766866455078,146.47377014210156,129.7506866455078,146.47377014210156Z" fill-rule="evenodd" fill="#68FE7F" fill-opacity="1" style="mix-blend-mode:passthrough"/></g><g><g><path d="M25.752385691833496,343.12028908691406C25.751485691833494,343.12028908691406,25.739585691833497,343.12028908691406,25.738785691833495,343.12028908691406C17.337635691833498,343.12028908691406,10.500691644623496,336.28328908691407,10.500691644623496,327.87958908691405C10.497143241833497,323.80978908691407,12.080075691833496,319.98008908691406,14.957825691833495,317.0986890869141C14.957825691833495,317.0986890869141,54.2823856918335,277.77416908691407,54.2823856918335,277.77416908691407C57.161585691833494,274.89861908691404,60.9863856918335,273.31568908691406,65.05358569183349,273.31568908691406C73.4682856918335,273.31568908691406,80.30528569183349,280.15263908691406,80.30528569183349,288.55638908691407C80.3088856918335,292.6260890869141,78.7259856918335,296.4557890869141,75.84808569183349,299.33728908691404C75.84808569183349,299.33728908691404,36.523585691833496,338.66178908691404,36.523585691833496,338.66178908691404C33.64438569183349,341.53728908691403,29.819585691833495,343.12028908691406,25.752385691833496,343.12028908691406C25.752385691833496,343.12028908691406,25.752385691833496,343.12028908691406,25.752385691833496,343.12028908691406ZM65.06458569183349,279.1327290869141C62.538785691833496,279.1327290869141,60.173785691833494,280.1115190869141,58.3943856918335,281.8887390869141C58.3943856918335,281.8887390869141,19.072405691833495,321.21058908691407,19.072405691833495,321.21058908691407C17.294305691833497,322.99098908691406,16.315525691833496,325.35898908691405,16.317735691833498,327.8769890869141C16.317735691833498,333.0757890869141,20.545185691833495,337.3031890869141,25.741385691833496,337.3031890869141C25.741385691833496,337.3031890869141,25.752385691833496,337.3031890869141,25.752385691833496,337.3031890869141C28.267185691833497,337.3031890869141,30.632185691833495,336.32438908691404,32.411585691833494,334.54718908691405C32.411585691833494,334.54718908691405,71.7334856918335,295.2252890869141,71.7334856918335,295.2252890869141C73.51168569183349,293.4448890869141,74.4904856918335,291.07688908691404,74.4881856918335,288.55888908691406C74.4881856918335,283.36018908691403,70.26078569183349,279.1327290869141,65.06458569183349,279.1327290869141C65.06458569183349,279.1327290869141,65.06458569183349,279.1327290869141,65.06458569183349,279.1327290869141Z" fill="#232323" fill-opacity="1" style="mix-blend-mode:passthrough"/></g><g><path d="M73.79016136077881,282.739279699707C73.04581136077881,282.739279699707,72.3014613607788,282.455379699707,71.73354236077881,281.887379699707C70.59764736077881,280.751579699707,70.59764736077881,278.90997969970704,71.73354236077881,277.774179699707C71.73354236077881,277.774179699707,82.43692136077881,267.07080069970704,82.43692136077881,267.07080069970704C83.57272136077881,265.93490569970703,85.41432136077881,265.93490569970703,86.5501213607788,267.07080069970704C87.68602136077881,268.206639699707,87.68602136077881,270.048199699707,86.5501213607788,271.184029699707C86.5501213607788,271.184029699707,75.8467713607788,281.887379699707,75.8467713607788,281.887379699707C75.2788613607788,282.455379699707,74.53451136077881,282.739279699707,73.79016136077881,282.739279699707C73.79016136077881,282.739279699707,73.79016136077881,282.739279699707,73.79016136077881,282.739279699707Z" fill="#232323" fill-opacity="1" style="mix-blend-mode:passthrough"/></g><g><path d="M71.57970408172608,302.4009209472656C70.83530408172608,302.4009209472656,70.09100408172607,302.1169209472656,69.52310408172607,301.5490209472656C69.52310408172607,301.5490209472656,52.07192508172607,284.0978709472656,52.07192508172607,284.0978709472656C50.936030081726074,282.9620409472656,50.936030081726074,281.1204809472656,52.07192508172607,279.98464194726563C53.207764081726076,278.8487469472656,55.04932408172608,278.8487469472656,56.185154081726076,279.98464194726563C56.185154081726076,279.98464194726563,73.63630408172608,297.4358209472656,73.63630408172608,297.4358209472656C74.77220408172607,298.5716209472656,74.77220408172607,300.41322094726564,73.63630408172608,301.5490209472656C73.06840408172607,302.1169209472656,72.32400408172607,302.4009209472656,71.57970408172608,302.4009209472656C71.57970408172608,302.4009209472656,71.57970408172608,302.4009209472656,71.57970408172608,302.4009209472656Z" fill="#232323" fill-opacity="1" style="mix-blend-mode:passthrough"/></g><g><path d="M36.67742613525391,337.30320366210935C35.93302613525391,337.30320366210935,35.1887261352539,337.01920366210936,34.62082613525391,336.45130366210935C34.62082613525391,336.45130366210935,17.169647135253907,319.00015366210937,17.169647135253907,319.00015366210937C16.033752135253906,317.86432366210937,16.033752135253906,316.02276366210936,17.169647135253907,314.8869246621094C18.305486135253908,313.7510296621094,20.147046135253905,313.7510296621094,21.282876135253908,314.8869246621094C21.282876135253908,314.8869246621094,38.734026135253906,332.33810366210935,38.734026135253906,332.33810366210935C39.869926135253905,333.47390366210936,39.869926135253905,335.3155036621094,38.734026135253906,336.45130366210935C38.166126135253904,337.01920366210936,37.421726135253905,337.30320366210935,36.67742613525391,337.30320366210935C36.67742613525391,337.30320366210935,36.67742613525391,337.30320366210935,36.67742613525391,337.30320366210935Z" fill="#232323" fill-opacity="1" style="mix-blend-mode:passthrough"/></g><g><path d="M129.7501135787964,156.97476196289062C147.6187135787964,156.97476196289062,164.41811357879638,163.9331719628906,177.0531135787964,176.56816196289063C189.6881135787964,189.20316196289062,196.6461135787964,206.00226196289063,196.6461135787964,223.87076196289064C196.6461135787964,241.73936196289063,189.6881135787964,258.5387619628906,177.0531135787964,271.17376196289064C164.41811357879638,283.8087619628906,147.6187135787964,290.76676196289066,129.7501135787964,290.76676196289066C111.88161357879639,290.76676196289066,95.08251357879638,283.8087619628906,82.44751357879639,271.17376196289064C69.81252357879639,258.5387619628906,62.85411357879639,241.73936196289063,62.85411357879639,223.87076196289064C62.85411357879639,206.00226196289063,69.81252357879639,189.20316196289062,82.44751357879639,176.56816196289063C95.08251357879638,163.9331719628906,111.88161357879639,156.97476196289062,129.7501135787964,156.97476196289062C129.7501135787964,156.97476196289062,129.7501135787964,156.97476196289062,129.7501135787964,156.97476196289062ZM129.7501135787964,284.94976196289065C163.42911357879638,284.94976196289065,190.82911357879638,257.5497619628906,190.82911357879638,223.87076196289064C190.82911357879638,190.1917619628906,163.42911357879638,162.79181196289062,129.7501135787964,162.79181196289062C96.07111357879639,162.79181196289062,68.67116357879638,190.1917619628906,68.67116357879638,223.87076196289064C68.67116357879638,257.5497619628906,96.07111357879639,284.94976196289065,129.7501135787964,284.94976196289065C129.7501135787964,284.94976196289065,129.7501135787964,284.94976196289065,129.7501135787964,284.94976196289065Z" fill="#232323" fill-opacity="1" style="mix-blend-mode:passthrough"/></g><g><path d="M129.75010400238037,168.6088514328003C160.22170400238036,168.6088514328003,185.01220400238037,193.3992514328003,185.01220400238037,223.8707514328003C185.01220400238037,254.34235143280029,160.22170400238036,279.1328514328003,129.75010400238037,279.1328514328003C99.27860400238038,279.1328514328003,74.48820400238037,254.34235143280029,74.48820400238037,223.8707514328003C74.48820400238037,193.3992514328003,99.27860400238038,168.6088514328003,129.75010400238037,168.6088514328003C129.75010400238037,168.6088514328003,129.75010400238037,168.6088514328003,129.75010400238037,168.6088514328003ZM129.75010400238037,273.3158514328003C157.01420400238038,273.3158514328003,179.19520400238036,251.1348514328003,179.19520400238036,223.8707514328003C179.19520400238036,196.6067514328003,157.01420400238038,174.4259014328003,129.75010400238037,174.4259014328003C102.48610400238037,174.4259014328003,80.30525400238037,196.6067514328003,80.30525400238037,223.8707514328003C80.30525400238037,251.1348514328003,102.48610400238037,273.3158514328003,129.75010400238037,273.3158514328003C129.75010400238037,273.3158514328003,129.75010400238037,273.3158514328003,129.75010400238037,273.3158514328003Z" fill="#232323" fill-opacity="1" style="mix-blend-mode:passthrough"/></g><g><path d="M89.03081824066162,226.77934471740724C87.42450824066162,226.77934471740724,86.12229824066162,225.4771447174072,86.12229824066162,223.87074471740723C86.12229824066162,212.21734471740723,90.66040824066162,201.26144471740722,98.90059824066162,193.02124471740723C107.14079824066162,184.78105471740722,118.09669824066162,180.24294471740723,129.75019824066163,180.24294471740723C131.3564982406616,180.24294471740723,132.65869824066164,181.54514471740723,132.65869824066164,183.15146471740724C132.65869824066164,184.75778471740722,131.3564982406616,186.05999471740722,129.75019824066163,186.05999471740722C119.65049824066162,186.05999471740722,110.15539824066163,189.99301471740722,103.01389824066162,197.13454471740724C95.87236824066161,204.27604471740722,91.93934824066162,213.77114471740722,91.93934824066162,223.87074471740723C91.93934824066162,225.4771447174072,90.63713824066163,226.77934471740724,89.03081824066162,226.77934471740724C89.03081824066162,226.77934471740724,89.03081824066162,226.77934471740724,89.03081824066162,226.77934471740724Z" fill="#232323" fill-opacity="1" style="mix-blend-mode:passthrough"/></g></g></g></g></svg>