<svg xmlns="http://www.w3.org/2000/svg" xmlns:xlink="http://www.w3.org/1999/xlink" fill="none" version="1.1" width="163.74853515625" height="155.310546875" viewBox="0 0 163.74853515625 155.310546875"><defs><mask id="master_svg0_0_13638" style="mask-type:alpha" maskUnits="objectBoundingBox"><g><rect x="7.84814453125" y="0" width="155.9005889892578" height="155.310546875" rx="0" fill="#FFFFFF" fill-opacity="1"/></g></mask></defs><g><g mask="url(#master_svg0_0_13638)"><g transform="matrix(-0.7071067690849304,0.7071067690849304,-0.7071067690849304,-0.7071067690849304,398.018547262893,-98.88241770328545)"><g><path d="M405.42149963378904,128.52203082885742Q410.97349963378906,115.71873082885742,410.97349963378906,101.69823082885742Q410.97349963378906,87.67813082885742,405.42149963378904,74.87463082885742Q400.06049963378905,62.50863082885742,390.28249963378903,52.97163082885742Q380.50549963378904,43.435530828857424,367.82929963378905,38.20553082885742Q354.70589963378904,32.791097828857424,340.3352996337891,32.791122828857425Q325.96469963378905,32.79113082885742,312.8411996337891,38.20553082885742Q300.1644996337891,43.43543082885742,290.38799963378904,52.97163082885742Q280.61069963378907,62.50863082885742,275.24846963378906,74.87463082885742Q269.6964996337891,87.67813082885742,269.6964996337891,101.69823082885742Q269.6964996337891,115.71873082885742,275.2484796337891,128.52203082885742Q280.61119963378906,140.88913082885742,290.38799963378904,150.42513082885742Q300.16529963378906,159.96213082885743,312.8411996337891,165.19213082885742Q325.96499963378903,170.60713082885744,340.3352996337891,170.60613082885743Q354.70589963378904,170.60713082885744,367.82929963378905,165.19213082885742Q380.50449963378907,159.9631308288574,390.28249963378903,150.42513082885742Q400.0594996337891,140.88913082885742,405.42149963378904,128.52203082885742ZM405.0544996337891,75.03373082885741Q410.5734996337891,87.76143082885741,410.5734996337891,101.69823082885742Q410.5734996337891,115.63543082885742,405.0544996337891,128.36293082885743Q399.72349963378906,140.65813082885742,390.00349963378903,150.13913082885742Q380.28149963378905,159.62213082885742,367.6767996337891,164.8221308288574Q354.62619963378904,170.20613082885743,340.3352996337891,170.20613082885743Q326.04469963378904,170.20713082885743,312.99369963378905,164.8221308288574Q300.38929963378905,159.62213082885742,290.66729963378907,150.13913082885742Q280.9468996337891,140.65813082885742,275.6154696337891,128.36293082885743Q270.09649963378905,115.63593082885743,270.09649963378905,101.69823082885742Q270.09649963378905,87.76123082885742,275.61545963378904,75.03373082885741Q280.94619963378904,62.74013082885742,290.66729963378907,53.25803082885742Q300.38839963378905,43.77573082885742,312.99369963378905,38.57530082885742Q326.04439963378906,33.191130828857425,340.3352996337891,33.191122828857424Q354.62669963378903,33.191130828857425,367.6767996337891,38.57530082885742Q380.28149963378905,43.775930828857426,390.00349963378903,53.25803082885742Q399.72349963378906,62.73983082885742,405.0544996337891,75.03373082885741Z" fill-rule="evenodd" fill="#68FE7F" fill-opacity="1" style="mix-blend-mode:passthrough"/></g><g><path d="M398.63690838623046,128.51493082885742Q403.6069083862305,115.71453082885742,403.6069083862305,101.69823082885742Q403.60590838623045,87.68223082885743,398.63690838623046,74.88173082885743Q393.83590838623047,62.51743082885742,385.0809083862305,52.97953082885742Q376.3248083862305,43.440730828857426,364.9694083862305,38.208770828857425Q353.2113083862305,32.791097828857424,340.33530838623045,32.791122828857425Q327.4595083862305,32.79113082885742,315.7013083862305,38.208770828857425Q304.34590838623046,43.440730828857426,295.5897083862305,52.97953082885742Q286.83473838623047,62.51683082885742,282.0338983862305,74.88173082885743Q277.0639083862305,87.68223082885743,277.0639083862305,101.69823082885742Q277.0639083862305,115.71453082885742,282.0338983862305,128.51493082885742Q286.83467838623045,140.88013082885743,295.5897083862305,150.4171308288574Q304.34550838623045,159.95613082885743,315.7013083862305,165.18913082885743Q327.45920838623044,170.60713082885744,340.33530838623045,170.60613082885743Q353.2113083862305,170.60613082885743,364.9694083862305,165.18913082885743Q376.3248083862305,159.95613082885743,385.0809083862305,150.4171308288574Q393.83590838623047,140.88013082885743,398.63690838623046,128.51493082885742ZM398.26390838623047,75.02653082885743Q403.20690838623045,87.75723082885742,403.20690838623045,101.69823082885742Q403.20690838623045,115.63903082885743,398.26390838623047,128.37013082885744Q393.49090838623044,140.66413082885742,384.78590838623046,150.14713082885743Q376.0847083862305,159.6261308288574,364.80200838623045,164.82513082885743Q353.12380838623045,170.20613082885743,340.33530838623045,170.20613082885743Q327.5467083862305,170.20613082885743,315.8687083862305,164.82513082885743Q304.5858083862305,159.6261308288574,295.8843083862305,150.14713082885743Q287.1802783862305,140.66413082885742,282.4067783862305,128.37013082885744Q277.46390838623046,115.63903082885743,277.46390838623046,101.69823082885742Q277.46390838623046,87.75703082885742,282.4067783862305,75.02653082885743Q287.18031838623045,62.73173082885742,295.8843083862305,53.25003082885742Q304.5863083862305,43.77043082885742,315.8687083862305,38.572060828857424Q327.54720838623047,33.191130828857425,340.33530838623045,33.191122828857424Q353.12330838623046,33.191130828857425,364.80200838623045,38.572060828857424Q376.08420838623044,43.77043082885742,384.78590838623046,53.25003082885742Q393.49090838623044,62.732230828857425,398.26390838623047,75.02653082885743Z" fill-rule="evenodd" fill="#68FE7F" fill-opacity="1" style="mix-blend-mode:passthrough"/></g><g><path d="M391.8513400268555,128.50743082885742Q396.2393400268555,115.71093082885743,396.2393400268555,101.69823082885742Q396.2393400268555,87.68593082885742,391.8513400268555,74.88923082885742Q387.6113400268555,62.52573082885742,379.8794400268555,52.98883082885742Q372.14384002685546,43.447530828857424,362.1104400268555,38.213090828857425Q351.71724002685545,32.79113082885742,340.33544002685545,32.791122828857425Q328.95344002685545,32.79113082885742,318.5604400268555,38.21310082885742Q308.5273400268555,43.44743082885742,300.79144002685547,52.98883082885742Q293.0594000268555,62.52563082885742,288.8196900268555,74.88923082885742Q284.4313400268555,87.68643082885743,284.4313400268555,101.69823082885742Q284.4313400268555,115.70993082885742,288.8196900268555,128.50733082885742Q293.0595100268555,140.87113082885742,300.79144002685547,150.40813082885742Q308.5271400268555,159.94913082885742,318.5604400268555,165.18413082885743Q328.9530400268555,170.60713082885744,340.33544002685545,170.60613082885743Q351.71784002685547,170.60613082885743,362.1104400268555,165.18413082885743Q372.14384002685546,159.94913082885742,379.8794400268555,150.40813082885742Q387.6113400268555,140.87113082885742,391.8513400268555,128.50743082885742ZM391.4723400268555,75.01903082885742Q395.83934002685544,87.75263082885742,395.83934002685544,101.69823082885742Q395.83934002685544,115.64373082885743,391.4723400268555,128.37763082885743Q387.2553400268555,140.67413082885741,379.5687400268555,150.15613082885744Q371.88554002685544,159.63313082885742,361.92534002685545,164.83013082885742Q351.61964002685545,170.20613082885743,340.33544002685545,170.20613082885743Q329.0511400268555,170.20713082885743,318.74554002685545,164.83013082885742Q308.7855400268555,159.63313082885742,301.10214002685547,150.15613082885744Q293.41487002685545,140.67413082885741,289.19806002685544,128.37763082885743Q284.83134002685546,115.64323082885743,284.83134002685546,101.69823082885742Q284.83134002685546,87.75283082885741,289.19806002685544,75.01903082885742Q293.41480002685546,62.722430828857426,301.10214002685547,53.24073082885742Q308.7857400268555,43.76373082885742,318.74554002685545,38.567740828857424Q329.05164002685547,33.191130828857425,340.33544002685545,33.191122828857424Q351.61934002685547,33.191130828857425,361.92534002685545,38.56773082885742Q371.88554002685544,43.76383082885742,379.5687400268555,53.24073082885742Q387.25634002685547,62.72263082885742,391.4723400268555,75.01903082885742Z" fill-rule="evenodd" fill="#68FE7F" fill-opacity="1" style="mix-blend-mode:passthrough"/></g><g><path d="M385.06564224853514,128.49953082885742Q388.87224224853514,115.70573082885743,388.8725422485352,101.69823082885742Q388.87224224853514,87.69113082885742,385.06564224853514,74.89713082885743Q381.38734224853516,62.53643082885742,374.6782422485352,52.99973082885742Q367.96394224853515,43.456130828857425,359.2529422485352,38.21901082885742Q350.22434224853515,32.79113082885742,340.33464224853515,32.791122828857425Q330.44494224853514,32.79113082885742,321.41644224853513,38.21901082885742Q312.7056422485351,43.45593082885742,305.99114224853514,52.99973082885742Q299.28216224853514,62.53583082885742,295.60371224853515,74.89713082885743Q291.79674224853517,87.69033082885741,291.7967382485352,101.69823082885742Q291.79674224853517,115.70623082885743,295.6037222485352,128.49953082885742Q299.2821722485352,140.86113082885743,305.99114224853514,150.39713082885743Q312.7056422485351,159.94213082885742,321.41644224853513,165.17813082885743Q330.4450422485352,170.60713082885744,340.33464224853515,170.60613082885743Q350.22464224853513,170.60613082885743,359.2529422485352,165.17813082885743Q367.96364224853517,159.9411308288574,374.6782422485352,150.39713082885743Q381.38734224853516,140.86113082885743,385.06564224853514,128.49953082885742ZM384.68224224853515,75.01123082885742Q388.47274224853516,87.74943082885741,388.47254224853515,101.69823082885742Q388.47224224853517,115.64743082885742,384.68224224853515,128.3854308288574Q381.02274224853517,140.6841308288574,374.35114224853515,150.1671308288574Q367.68524224853513,159.64213082885743,359.04684224853514,164.83513082885742Q350.11344224853514,170.20613082885743,340.33464224853515,170.20613082885743Q330.55584224853516,170.20713082885743,321.6225422485352,164.83513082885742Q312.98414224853514,159.64213082885743,306.31824224853517,150.1671308288574Q299.64692224853513,140.6841308288574,295.98710224853517,128.3854308288574Q292.19674224853514,115.64793082885743,292.19673824853515,101.69823082885742Q292.19672624853513,87.74893082885743,295.98710224853517,75.01123082885742Q299.64694224853514,62.712530828857425,306.31824224853517,53.22993082885742Q312.98414224853514,43.75513082885742,321.6225422485352,38.56182082885742Q330.55614224853514,33.191130828857425,340.33464224853515,33.191122828857424Q350.11364224853514,33.191130828857425,359.04684224853514,38.56182082885742Q367.68524224853513,43.755330828857424,374.35114224853515,53.22993082885742Q381.02274224853517,62.71303082885743,384.68224224853515,75.01123082885742Z" fill-rule="evenodd" fill="#68FE7F" fill-opacity="1" style="mix-blend-mode:passthrough"/></g><g><path d="M378.2799256591797,128.4914308288574Q381.5056256591797,115.70053082885742,381.5057256591797,101.69823082885742Q381.5056256591797,87.69583082885742,378.2799256591797,74.90523082885741Q375.1628256591797,62.54763082885742,369.4772256591797,53.01243082885742Q363.78502565917967,43.466830828857425,356.3981256591797,38.227280828857424Q348.7339256591797,32.79113082885742,340.3350256591797,32.791122828857425Q331.9360256591797,32.79113082885742,324.2720256591797,38.22729082885742Q316.88512565917966,43.466830828857425,311.1929256591797,53.01243082885742Q305.5073256591797,62.54693082885743,302.3902656591797,74.90523082885741Q299.1644256591797,87.69473082885742,299.1644296591797,101.69823082885742Q299.1644256591797,115.70103082885743,302.3902656591797,128.4914308288574Q305.5073156591797,140.8501308288574,311.1929256591797,150.38513082885743Q316.8850256591797,159.93013082885741,324.2719256591797,165.17013082885742Q331.93582565917967,170.60613082885743,340.3350256591797,170.60613082885743Q348.7341256591797,170.60713082885744,356.3981256591797,165.17013082885742Q363.78502565917967,159.93113082885742,369.4772256591797,150.38513082885743Q375.1631256591797,140.84913082885743,378.2799256591797,128.4914308288574ZM377.8920256591797,75.00303082885742Q381.10612565917967,87.74533082885742,381.1057256591797,101.69823082885742Q381.1055256591797,115.65103082885742,377.8920256591797,128.39363082885743Q374.7894256591797,140.69513082885743,369.1336256591797,150.18013082885741Q363.48452565917967,159.65213082885742,356.16662565917966,164.84413082885743Q348.6066256591797,170.20713082885743,340.3350256591797,170.20613082885743Q332.0634256591797,170.20713082885743,324.5034256591797,164.84413082885743Q317.1853256591797,159.65213082885742,311.5364256591797,150.18013082885741Q305.8808356591797,140.69513082885743,302.77811565917966,128.39363082885743Q299.5644256591797,115.65153082885742,299.56442965917967,101.69823082885742Q299.5644416591797,87.74453082885742,302.7781256591797,75.00303082885742Q305.8808956591797,62.701430828857426,311.5364256591797,53.217230828857424Q317.1854256591797,43.744230828857425,324.5034256591797,38.553550828857425Q332.0635256591797,33.191130828857425,340.3350256591797,33.191122828857424Q348.6063256591797,33.191130828857425,356.16662565917966,38.55354082885742Q363.4847256591797,43.744230828857425,369.1336256591797,53.217230828857424Q374.7899256591797,62.70233082885743,377.8920256591797,75.00303082885742Z" fill-rule="evenodd" fill="#68FE7F" fill-opacity="1" style="mix-blend-mode:passthrough"/></g><g><path d="M371.4935344116211,128.4830308288574Q374.1383344116211,115.69793082885742,374.1384344116211,101.69823082885742Q374.13863441162107,87.69943082885743,371.4935344116211,74.91363082885742Q368.9378344116211,62.558830828857424,364.2759344116211,53.02693082885742Q359.6071344116211,43.480930828857424,353.5458344116211,38.23914082885742Q347.2461344116211,32.791114828857424,340.3351344116211,32.791122828857425Q333.4241344116211,32.79113082885742,327.1244344116211,38.23914082885742Q321.06323441162107,43.480930828857424,316.3943744116211,53.02693082885742Q311.7324244116211,62.55893082885742,309.1767044116211,74.91363082885742Q306.5318504116211,87.69923082885742,306.5318384116211,101.69823082885742Q306.5318344116211,115.69743082885742,309.1767044116211,128.4830308288574Q311.7325344116211,140.8381308288574,316.3943644116211,150.37013082885744Q321.06323441162107,159.91613082885743,327.1244344116211,165.15813082885742Q333.4241344116211,170.60713082885744,340.3351344116211,170.60613082885743Q347.2461344116211,170.60613082885743,353.5459344116211,165.15813082885742Q359.60693441162107,159.91613082885743,364.2759344116211,150.37013082885744Q368.9375344116211,140.8381308288574,371.4935344116211,128.4830308288574ZM371.1018344116211,74.99463082885742Q373.7381344116211,87.74013082885742,373.7384344116211,101.69823082885742Q373.7386344116211,115.65733082885743,371.1018344116211,128.40203082885742Q368.5560344116211,140.7081308288574,363.9166344116211,150.19413082885742Q359.2835344116211,159.6671308288574,353.28423441162107,164.85613082885743Q347.0972344116211,170.20713082885743,340.3351344116211,170.20613082885743Q333.5731344116211,170.20613082885743,327.3860344116211,164.85613082885743Q321.3866344116211,159.6671308288574,316.7537344116211,150.19413082885742Q312.1140244116211,140.70713082885743,309.5684144116211,128.40203082885742Q306.9318344116211,115.65673082885742,306.9318384116211,101.69823082885742Q306.9318344116211,87.74013082885742,309.5684144116211,74.99463082885742Q312.1139344116211,62.68933082885742,316.7537344116211,53.202730828857426Q321.3866344116211,43.73003082885742,327.3860344116211,38.54169082885742Q333.5731344116211,33.191130828857425,340.3351344116211,33.191122828857424Q347.0970344116211,33.191130828857425,353.28423441162107,38.54169082885742Q359.2836344116211,43.73003082885742,363.9166344116211,53.202730828857426Q368.5563344116211,62.689030828857426,371.1018344116211,74.99463082885742Z" fill-rule="evenodd" fill="#68FE7F" fill-opacity="1" style="mix-blend-mode:passthrough"/></g><g><path d="M364.70681264648437,128.4744308288574Q366.77111264648437,115.69213082885742,366.7712126464844,101.69823082885742Q366.77111264648437,87.70413082885742,364.70681264648437,74.92223082885742Q362.71201264648437,62.57243082885742,359.07351264648435,53.043430828857424Q355.4289126464844,43.499530828857424,350.69571264648437,38.25639082885742Q345.76161264648437,32.79113082885742,340.33521264648436,32.791122828857425Q334.90881264648436,32.79113082885742,329.9748126464844,38.25639082885742Q325.24151264648435,43.499330828857424,321.5969526464844,53.043430828857424Q317.95839264648436,62.57203082885742,315.96361264648436,74.92223082885742Q313.8992126464844,87.70363082885743,313.8992126464844,101.69823082885742Q313.8992126464844,115.69273082885742,315.96361264648436,128.4744308288574Q317.95832264648436,140.82513082885743,321.5969526464844,150.35313082885742Q325.24151264648435,159.8981308288574,329.9748126464844,165.14113082885743Q334.90881264648436,170.60713082885744,340.33521264648436,170.60613082885743Q345.76161264648437,170.60613082885743,350.69571264648437,165.14113082885743Q355.4289126464844,159.8981308288574,359.07351264648435,150.35313082885742Q362.7122126464844,140.82513082885743,364.70681264648437,128.4744308288574ZM364.31191264648436,74.98603082885742Q366.3713126464844,87.73643082885742,366.37121264648437,101.69823082885742Q366.3711126464844,115.66043082885743,364.31191264648436,128.41063082885742Q362.32371264648435,140.7201308288574,358.69981264648436,150.21113082885742Q355.0819126464844,159.68513082885744,350.3988126464844,164.87313082885743Q345.5838126464844,170.20613082885743,340.33521264648436,170.20613082885743Q335.08661264648435,170.20613082885743,330.2717126464844,164.87313082885743Q325.5885126464844,159.68513082885744,321.9706326464844,150.21113082885742Q318.3466426464844,140.7201308288574,316.35849264648436,128.41063082885742Q314.29921264648436,115.66043082885743,314.29921264648436,101.69823082885742Q314.29921264648436,87.73563082885742,316.3585026464844,74.98603082885742Q318.3467026464844,62.67633082885742,321.9706326464844,53.18613082885742Q325.5885126464844,43.71183082885742,330.2717126464844,38.52444082885742Q335.08661264648435,33.191130828857425,340.33521264648436,33.191122828857424Q345.5838126464844,33.19111482885742,350.3988126464844,38.52444082885742Q355.0820126464844,43.71203082885742,358.69981264648436,53.18613082885742Q362.32371264648435,62.67653082885742,364.31191264648436,74.98603082885742Z" fill-rule="evenodd" fill="#68FE7F" fill-opacity="1" style="mix-blend-mode:passthrough"/></g><g><path d="M357.91986036376954,128.46563082885743Q359.40406036376953,115.68803082885742,359.40406036376953,101.69823082885742Q359.40406036376953,87.70833082885741,357.91986036376954,74.93103082885742Q356.4858603637695,62.586230828857424,353.8703603637695,53.061830828857424Q351.25066036376955,43.52253082885742,347.84766036376953,38.281500828857425Q344.28266036376954,32.79113082885742,340.3352603637695,32.791122828857425Q336.3878603637695,32.79113082885742,332.82296036376954,38.281500828857425Q329.41995036376954,43.52263082885742,326.80022036376954,53.061830828857424Q324.1846603637695,62.58593082885742,322.75069036376954,74.93103082885742Q321.26656036376954,87.70833082885741,321.26656036376954,101.69823082885742Q321.26656036376954,115.68853082885742,322.75069036376954,128.46553082885742Q324.18463036376954,140.81013082885744,326.80022036376954,150.33513082885742Q329.41993036376954,159.87513082885744,332.82296036376954,165.11613082885742Q336.38796036376954,170.60613082885743,340.3352603637695,170.60613082885743Q344.28266036376954,170.60613082885743,347.84766036376953,165.11613082885742Q351.25076036376953,159.87513082885744,353.8703603637695,150.33513082885742Q356.4860603637695,140.81013082885744,357.91986036376954,128.46563082885743ZM357.5225603637695,74.97723082885742Q359.00406036376955,87.73173082885742,359.00406036376955,101.69823082885742Q359.00406036376955,115.66453082885742,357.5225603637695,128.4194308288574Q356.0922603637695,140.73413082885742,353.48466036376954,150.22913082885742Q350.8814603637695,159.70913082885744,347.5121603637695,164.89813082885743Q344.06546036376955,170.20613082885743,340.3352603637695,170.20613082885743Q336.6051603637695,170.20613082885743,333.1584603637695,164.89813082885743Q329.7892203637695,159.70913082885744,327.18594036376953,150.22913082885742Q324.57843036376954,140.73413082885742,323.14802036376955,128.4194308288574Q321.6665603637695,115.66513082885743,321.6665603637695,101.69823082885742Q321.6665603637695,87.73153082885742,323.14802036376955,74.97723082885742Q324.57847036376955,62.662430828857424,327.18594036376953,53.16783082885742Q329.7892203637695,43.68843082885742,333.1584603637695,38.499330828857424Q336.60506036376955,33.191130828857425,340.3352603637695,33.191122828857424Q344.0655603637695,33.19111482885742,347.5121603637695,38.499330828857424Q350.8812603637695,43.688330828857424,353.48466036376954,53.16783082885742Q356.0920603637695,62.66253082885742,357.5225603637695,74.97723082885742Z" fill-rule="evenodd" fill="#68FE7F" fill-opacity="1" style="mix-blend-mode:passthrough"/></g><g><path d="M351.1327048095703,128.45663082885744Q352.0370048095703,115.68333082885742,352.0370048095703,101.69823082885742Q352.0370048095703,87.71303082885743,351.1327048095703,74.94003082885743Q350.2589048095703,62.60133082885742,348.66550480957034,53.08183082885742Q347.0702048095703,43.55183082885742,344.9983048095703,38.31682082885742Q342.8114048095703,32.79113082885742,340.3357048095703,32.791122828857425Q337.8599248095703,32.79113082885742,335.6730148095703,38.31682082885742Q333.6011948095703,43.55163082885742,332.00585480957034,53.08183082885742Q330.4123948095703,62.60053082885742,329.5386888095703,74.94003082885743Q328.6343048095703,87.71273082885742,328.6343048095703,101.69823082885742Q328.6343048095703,115.68383082885742,329.5386888095703,128.45663082885744Q330.4123648095703,140.79613082885743,332.00585480957034,150.31513082885743Q333.6011548095703,159.8451308288574,335.6730148095703,165.08013082885742Q337.85987480957033,170.60613082885743,340.3357048095703,170.60613082885743Q342.8115048095703,170.60613082885743,344.9983048095703,165.08013082885742Q347.0702048095703,159.8451308288574,348.66550480957034,150.31513082885743Q350.25900480957034,140.79513082885742,351.1327048095703,128.45663082885744ZM350.7337048095703,74.96823082885743Q351.6370048095703,87.72703082885742,351.6370048095703,101.69823082885742Q351.6370048095703,115.66923082885742,350.7336048095703,128.42843082885742Q349.8613048095703,140.74813082885743,348.2710048095703,150.2491308288574Q346.6826048095703,159.7371308288574,344.6264048095703,164.93313082885743Q342.53960480957033,170.20613082885743,340.3357048095703,170.20613082885743Q338.1317648095703,170.20613082885743,336.0449548095703,164.93313082885743Q333.9886648095703,159.7371308288574,332.4003648095703,150.2491308288574Q330.81002480957034,140.7491308288574,329.9376848095703,128.42833082885744Q329.0343048095703,115.66973082885742,329.0343048095703,101.69823082885742Q329.0343048095703,87.72683082885743,329.9376948095703,74.96823082885743Q330.8100548095703,62.647930828857426,332.4003648095703,53.14783082885742Q333.9887348095703,43.65953082885742,336.0449548095703,38.46402082885742Q338.1318048095703,33.191130828857425,340.3357048095703,33.191122828857424Q342.5395048095703,33.191130828857425,344.6264048095703,38.464010828857425Q346.68270480957034,43.65963082885742,348.2710048095703,53.14783082885742Q349.8613048095703,62.648730828857424,350.7337048095703,74.96823082885743Z" fill-rule="evenodd" fill="#68FE7F" fill-opacity="1" style="mix-blend-mode:passthrough"/></g><g><path d="M343.4578498876953,150.29413082885742Q344.6690098876953,130.16493082885742,344.6689798876953,101.69823082885742Q344.6690698876953,73.23103082885743,343.4578498876953,53.10283082885742Q342.2357698876953,32.79116282885742,340.3348598876953,32.79113882885742Q338.43399988769534,32.79113082885742,337.2118898876953,53.10283082885742Q336.0007598876953,73.23193082885743,336.0007598876953,101.69823082885742Q336.0007598876953,130.16493082885742,337.2118898876953,150.29413082885742Q338.4340098876953,170.60713082885744,340.3348498876953,170.60613082885743Q342.2357198876953,170.60613082885743,343.4578498876953,150.29413082885742ZM343.0585698876953,53.12683082885742Q344.2690098876953,73.24423082885743,344.2689798876953,101.69823082885742Q344.2690098876953,130.15283082885742,343.0585698876953,150.27013082885742Q342.4868798876953,159.77213082885743,341.7461298876953,164.97913082885742Q341.0024498876953,170.20613082885743,340.3348498876953,170.20613082885743Q339.66726988769534,170.20613082885743,338.9235898876953,164.97913082885742Q338.18284988769534,159.77213082885743,337.6111598876953,150.27013082885742Q336.4007598876953,130.15283082885742,336.4007598876953,101.69823082885742Q336.4007598876953,73.24403082885742,337.6111598876953,53.12683082885742Q338.18282988769533,43.62553082885742,338.9235898876953,38.41858082885742Q339.6672598876953,33.191130828857425,340.3348598876953,33.19113882885742Q341.0024598876953,33.19114682885742,341.7461298876953,38.41859082885742Q342.4868598876953,43.62553082885742,343.0585698876953,53.12683082885742Z" fill-rule="evenodd" fill="#68FE7F" fill-opacity="1" style="mix-blend-mode:passthrough"/></g><g><ellipse cx="340.3365592956543" cy="101.69850301742554" rx="76.0394515991211" ry="61.507957458496094" fill-opacity="0" stroke-opacity="1" stroke="#68FE7F" fill="none" stroke-width="0.4000000059604645" stroke-linecap="ROUND" style="mix-blend-mode:passthrough"/></g><g><ellipse cx="340.3348617553711" cy="101.69970417022705" rx="81.64018249511719" ry="54.3088264465332" fill-opacity="0" stroke-opacity="1" stroke="#68FE7F" fill="none" stroke-width="0.4000000059604645" stroke-linecap="ROUND" style="mix-blend-mode:passthrough"/></g><g><path d="M420.87730313110353,120.15962631225585Q427.77630313110353,111.35242631225586,427.77630313110353,101.69932631225586Q427.77630313110353,92.04612631225586,420.87730313110353,83.23882631225587Q414.2293031311035,74.75222631225586,402.1193031311035,68.21182631225585Q390.02130313110354,61.67875631225586,374.33830313110354,58.09677631225586Q358.1083031311035,54.38962631225586,340.3352031311035,54.38962631225586Q322.5631031311035,54.38962631225586,306.33240313110355,58.09677631225586Q290.6498031311035,61.67868631225586,278.55140313110354,68.21182631225585Q266.4403031311035,74.75182631225586,259.79262313110354,83.23882631225587Q252.89430313110353,92.04592631225586,252.89430313110353,101.69932631225586Q252.89430313110353,111.35262631225586,259.79262313110354,120.15962631225585Q266.4401031311035,128.64642631225587,278.55140313110354,135.18622631225585Q290.6496031311035,141.71882631225586,306.33240313110355,145.30092631225585Q322.5631031311035,149.00782631225587,340.3352031311035,149.00792631225585Q358.10730313110355,149.00782631225587,374.33830313110354,145.30092631225585Q390.02130313110354,141.71882631225586,402.1193031311035,135.18622631225585Q414.2303031311035,128.64592631225585,420.87730313110353,120.15962631225585ZM420.5633031311035,83.48552631225586Q427.37630313110355,92.18392631225586,427.37630313110355,101.69932631225586Q427.3753031311035,111.21432631225585,420.5633031311035,119.91292631225586Q413.9673031311035,128.33342631225585,401.92930313110355,134.83432631225585Q389.8793031311035,141.34122631225586,374.2493031311035,144.91092631225587Q358.06230313110353,148.60782631225584,340.3352031311035,148.60782631225584Q322.6084031311035,148.60782631225584,306.4215031311035,144.91092631225587Q290.7918031311035,141.34122631225586,278.74140313110354,134.83432631225585Q266.70360313110353,128.33392631225587,260.1075231311035,119.91292631225586Q253.2943031311035,111.21462631225586,253.2943031311035,101.69932631225586Q253.2943031311035,92.18392631225586,260.1075231311035,83.48552631225586Q266.7037031311035,75.06412631225587,278.74140313110354,68.56372631225585Q290.7920031311035,62.05652631225586,306.4215031311035,58.48673631225586Q322.6089031311035,54.78962631225586,340.3352031311035,54.78962631225586Q358.0613031311035,54.78962631225586,374.2493031311035,58.48673631225586Q389.8783031311035,62.05661631225586,401.92930313110355,68.56372631225585Q413.9673031311035,75.06452631225586,420.5633031311035,83.48552631225586Z" fill-rule="evenodd" fill="#68FE7F" fill-opacity="1" style="mix-blend-mode:passthrough"/></g><g><path d="M426.0245746917725,117.3748943786621Q433.37757469177245,109.90109437866211,433.3785746917724,101.69999437866211Q433.37757469177245,93.49829437866211,426.0245746917725,86.0242943786621Q418.95057469177243,78.83429437866211,406.06457469177246,73.29489437866211Q393.1935746917725,67.7621143786621,376.50957469177246,64.72887437866211Q359.2415746917725,61.58939437866211,340.33547469177245,61.58939437866211Q321.42847469177246,61.58939437866211,304.1609746917725,64.72887437866211Q287.47697469177245,67.76226437866211,274.60657469177244,73.29489437866211Q261.72067469177244,78.83409437866212,254.64604469177246,86.0242943786621Q247.29257469177247,93.49799437866211,247.29257469177247,101.69999437866211Q247.29257469177247,109.90149437866211,254.64605469177246,117.3748943786621Q261.72107469177246,124.56519437866211,274.60657469177244,130.1039943786621Q287.4788746917725,135.6367943786621,304.1609746917725,138.6698943786621Q321.4290746917725,141.8091943786621,340.33547469177245,141.80929437866212Q359.2415746917725,141.8091943786621,376.50957469177246,138.6698943786621Q393.19257469177245,135.6367943786621,406.06457469177246,130.1039943786621Q418.95057469177243,124.5648943786621,426.0245746917725,117.3748943786621ZM425.7395746917725,86.30489437866211Q432.9775746917725,93.6620943786621,432.97857469177245,101.69999437866211Q432.9775746917725,109.73729437866211,425.7395746917725,117.09429437866211Q418.72057469177247,124.2284943786621,405.90657469177245,129.73649437866212Q393.07657469177246,135.2513943786621,376.4385746917725,138.2762943786621Q359.2055746917724,141.4091943786621,340.33547469177245,141.4092943786621Q321.46497469177245,141.4091943786621,304.23257469177247,138.2762943786621Q287.5939746917725,135.2513943786621,274.76457469177245,129.73649437866212Q261.95067469177246,124.2284943786621,254.93117469177247,117.09429437866211Q247.69257469177245,109.73759437866211,247.69257469177245,101.69999437866211Q247.69257469177245,93.66179437866211,254.93117469177247,86.30489437866211Q261.95087469177247,79.17049437866211,274.76457469177245,73.66239437866211Q287.59357469177246,68.14769437866211,304.23257469177247,65.1224243786621Q321.46447469177247,61.98939437866211,340.33547469177245,61.98939437866211Q359.20657469177246,61.98939437866211,376.4385746917725,65.12241437866211Q393.07657469177246,68.1475943786621,405.90657469177245,73.66239437866211Q418.71957469177244,79.17079437866211,425.7395746917725,86.30489437866211Z" fill-rule="evenodd" fill="#68FE7F" fill-opacity="1" style="mix-blend-mode:passthrough"/></g><g><path d="M431.1660650482178,114.58845291137695Q438.98006504821774,108.45095291137696,438.97906504821776,101.69865291137695Q438.97906504821776,94.94655291137695,431.1660650482178,88.80905291137695Q423.66706504821775,82.91755291137696,410.00806504821776,78.37923291137696Q396.3670650482178,73.84646291137696,378.68206504821774,71.36092291137695Q360.37806504821776,68.78845291137695,340.33556504821775,68.78844891137695Q320.2930650482178,68.78845291137695,301.9893650482178,71.36092291137695Q284.3045650482178,73.84630291137695,270.6626650482178,78.37923291137696Q257.00446504821775,82.91745291137696,249.50478504821777,88.80905291137695Q241.69206504821778,94.94655291137695,241.69206504821778,101.69865291137695Q241.69206504821778,108.45085291137696,249.50478504821777,114.58845291137695Q257.0049650482178,120.48055291137695,270.6626650482178,125.01865291137696Q284.3057650482178,129.55195291137696,301.9893650482178,132.03735291137696Q320.2941650482178,134.61035291137694,340.33556504821775,134.61005291137695Q360.37806504821776,134.61035291137694,378.68206504821774,132.03735291137696Q396.36606504821776,129.55145291137694,410.00806504821776,125.01865291137696Q423.6660650482178,120.48035291137695,431.1660650482178,114.58845291137695ZM430.91906504821776,89.12365291137695Q438.5790650482178,95.14095291137696,438.5790650482178,101.69865291137695Q438.5780650482178,108.25645291137695,430.91906504821776,114.27395291137695Q423.4730650482178,120.12285291137695,409.8820650482178,124.63905291137695Q396.2740650482178,129.16035291137695,378.6260650482178,131.64125291137697Q360.35006504821774,134.20985291137697,340.33556504821775,134.21005291137695Q320.3222650482178,134.20985291137697,302.0450650482178,131.64125291137697Q284.3972650482178,129.16085291137696,270.78886504821776,124.63905291137695Q257.1972650482178,120.12295291137696,249.75189504821776,114.27395291137695Q242.09206504821776,108.25645291137695,242.09206504821776,101.69865291137695Q242.09206504821776,95.14095291137696,249.7518850482178,89.12365291137695Q257.1967650482178,83.27515291137695,270.78886504821776,78.75883291137696Q284.39626504821774,74.23734291137696,302.0450650482178,71.75703291137695Q320.32126504821775,69.18845291137696,340.33556504821775,69.18844891137695Q360.35006504821774,69.18845291137696,378.6260650482178,71.75702291137695Q396.2750650482178,74.23754291137695,409.8820650482178,78.75882291137695Q423.47406504821777,83.27515291137695,430.91906504821776,89.12365291137695Z" fill-rule="evenodd" fill="#68FE7F" fill-opacity="1" style="mix-blend-mode:passthrough"/></g><g><ellipse cx="340.33526039123535" cy="101.69998359680176" rx="104.0442886352539" ry="25.5111141204834" fill-opacity="0" stroke-opacity="1" stroke="#68FE7F" fill="none" stroke-width="0.4000000059604645" stroke-linecap="ROUND" style="mix-blend-mode:passthrough"/></g><g><ellipse cx="340.33622550964355" cy="101.69850540161133" rx="109.64501190185547" ry="18.311973571777344" fill-opacity="0" stroke-opacity="1" stroke="#68FE7F" fill="none" stroke-width="0.4000000059604645" stroke-linecap="ROUND" style="mix-blend-mode:passthrough"/></g><g><path d="M295.46787651901246,112.1367712890625Q316.8817765190124,113.0100712890625,340.33507651901243,113.0100712890625Q362.90407651901245,113.0100712890625,376.18807651901244,109.5309712890625Q382.0760765190124,107.98907128906251,385.19707651901246,105.9454712890625Q388.27107651901247,103.9329712890625,388.27107651901247,101.6978712890625Q388.27107651901247,99.4626912890625,385.19707651901246,97.4502212890625Q382.07507651901244,95.4066412890625,376.18807651901244,93.8646812890625Q362.9030765190124,90.3855712890625,340.33507651901243,90.3855692890625Q316.88387651901246,90.3855712890625,295.46787651901246,91.2589512890625Q274.7807765190124,92.1025912890625,258.82457651901245,93.6411312890625Q242.86147651901246,95.1803612890625,234.10119651901246,97.1775212890625Q224.88907651901246,99.2777312890625,224.88906851901245,101.6983712890625Q224.88907651901246,104.1186712890625,234.10120651901246,106.2186712890625Q242.86187651901244,108.2156712890625,258.82457651901245,109.7546712890625Q274.77997651901245,111.2929712890625,295.46787651901246,112.1367712890625ZM376.08607651901247,109.1440712890625Q362.8520765190125,112.6100712890625,340.33507651901243,112.6100712890625Q316.89007651901244,112.6102712890625,295.48417651901246,111.7370712890625Q274.8072765190125,110.8937712890625,258.8629765190125,109.3565712890625Q242.92577651901246,107.8199712890625,234.19010651901246,105.8286712890625Q225.28907651901244,103.7995712890625,225.28906851901246,101.6983712890625Q225.28907651901244,99.5968012890625,234.19010651901246,97.5675212890625Q242.92527651901244,95.5760712890625,258.8629765190125,94.0392912890625Q274.8083765190124,92.5018112890625,295.48417651901246,91.6586212890625Q316.8921765190124,90.7855712890625,340.33507651901243,90.7855692890625Q362.8520765190125,90.7855712890625,376.08607651901247,94.2516312890625Q381.91107651901245,95.7770612890625,384.97807651901246,97.7848712890625Q387.8710765190125,99.6789212890625,387.8710765190125,101.6978712890625Q387.8710765190125,103.7167712890625,384.97807651901246,105.6107712890625Q381.91107651901245,107.6186712890625,376.08607651901247,109.1440712890625Z" fill-rule="evenodd" fill="#68FE7F" fill-opacity="1" style="mix-blend-mode:passthrough"/></g><g><path d="M254.87699487304687,104.66602981567382Q290.2735948730469,105.81231981567383,340.3344948730469,105.81228981567384Q363.98149487304687,105.81231981567383,377.8944948730469,104.58866981567382Q390.5914948730469,103.47208981567383,390.5914948730469,101.69915981567382Q390.5914948730469,99.92623981567382,377.8944948730469,98.80964981567382Q363.98149487304687,97.58603281567383,340.3344948730469,97.58602981567383Q290.27639487304685,97.58602881567383,254.87699487304687,98.73213081567383Q219.28882587304687,99.88435981567383,219.28848787304688,101.69859981567383Q219.2884948730469,103.51354981567383,254.87699487304687,104.66602981567382ZM377.85949487304686,104.19020981567382Q363.96249487304686,105.41226981567382,340.3344948730469,105.41228981567383Q290.27979487304685,105.41226981567382,254.88989487304687,104.26623981567383Q238.16839487304688,103.72473981567383,229.00042487304688,103.02271981567382Q224.35966487304688,102.66735981567383,221.97491487304688,102.28990981567382Q220.77357487304687,102.09975981567382,220.17317987304688,101.90826981567383Q219.68849487304686,101.75367981567383,219.68848787304688,101.69859981567383Q219.68848787304688,101.64363981567382,220.17316287304686,101.48912981567383Q220.77357487304687,101.29771981567383,221.97490487304688,101.10764981567382Q224.35974487304688,100.73031981567382,229.00042487304688,100.37509981567383Q238.16899487304687,99.67328981567383,254.88989487304687,99.13191981567383Q290.2821948730469,97.98603081567383,340.3344948730469,97.98602981567383Q363.9634948730469,97.98602681567382,377.85949487304686,99.20810981567382Q383.9874948730469,99.74703981567383,387.21949487304687,100.45763981567383Q390.19149487304685,101.11094981567383,390.19149487304685,101.69915981567382Q390.19149487304685,102.28737981567383,387.21949487304687,102.94067981567383Q383.9874948730469,103.65127981567383,377.85949487304686,104.19020981567382Z" fill-rule="evenodd" fill="#68FE7F" fill-opacity="1" style="mix-blend-mode:passthrough"/></g></g></g><g transform="matrix(1,-2.119580955195488e-9,2.119580955195488e-9,1,-2.8968296355430523e-8,0)"><g><path d="M88.7199,13.6669921875C102.856,13.6669921875,116.145,19.1717821875,126.141,29.1672921875C136.137,39.162992187499995,141.641,52.4526921875,141.641,66.58849218750001C141.641,80.7243921875,136.137,94.0140921875,126.141,104.0096921875C116.145,114.0049921875,102.856,119.5099921875,88.7199,119.5099921875C79.188,119.5099921875,70.0409,117.0069921875,62.0291,112.3120921875C61.6868,116.4459921875,59.9113,120.2909921875,56.9426,123.2639921875L55.4268,124.7799921875L31.5616,148.6449921875L30.0502,150.1559921875C26.7229,153.4789921875,22.3055,155.3079921875,17.6084,155.3079921875C7.89908,155.3079921875,0.00000693896,147.4119921875,0.00000693896,137.70699218750002C-0.00411007,133.0109921875,1.82392,128.5889921875,5.14735,125.2619921875L6.63966,123.7689921875L6.66311,123.7459921875L6.6866,123.7219921875L30.5017,99.9072921875L30.5284,99.8805921875L30.5551,99.8538921875L32.0397,98.3692921875C35.0138,95.3988921875,38.8589,93.6227921875,42.9962,93.2791921875C38.3012,85.2673921875,35.7983,76.1202921875,35.7983,66.58849218750001C35.7983,52.4526921875,41.3031,39.162992187499995,51.2987,29.1673921875C61.2943,19.1717821875,74.5841,13.6669921875,88.7199,13.6669921875Z" fill-rule="evenodd" fill="#68FE7F" fill-opacity="1" style="mix-blend-mode:passthrough"/></g><g><g><path d="M17.610936671447753,148.130677684021C17.610336671447754,148.130677684021,17.602236671447756,148.130677684021,17.601636671447753,148.130677684021C11.857166671447754,148.130677684021,7.182231148507754,143.455777684021,7.182240726267754,137.709477684021C7.179819061447754,134.926677684021,8.262196671447754,132.307977684021,10.229936671447753,130.337777684021C10.229936671447753,130.337777684021,37.119136671447755,103.448597684021,37.119136671447755,103.448597684021C39.087836671447754,101.482357684021,41.70313667144775,100.399982452411,44.48423667144775,100.39997768403559C50.23803667144775,100.39996814729099,54.91293667144775,105.074897684021,54.91293667144775,110.821177684021C54.91543667144775,113.603977684021,53.83303667144775,116.22257768402099,51.865236671447754,118.192877684021C51.865236671447754,118.192877684021,24.976036671447755,145.082077684021,24.976036671447755,145.082077684021C23.007336671447753,147.048277684021,20.392036671447755,148.130677684021,17.610936671447753,148.130677684021C17.610936671447753,148.130677684021,17.610936671447753,148.130677684021,17.610936671447753,148.130677684021ZM44.491736671447754,104.37752768402099C42.764636671447754,104.377537684021,41.14753667144775,105.04680768402099,39.93083667144776,106.26202768402099C39.93083667144776,106.26202768402099,13.043376671447753,133.149377684021,13.043376671447753,133.149377684021C11.827556671447754,134.366777684021,11.158286671447755,135.985977684021,11.159796671447754,137.70777768402098C11.159786671447755,141.262477684021,14.050396671447754,144.153077684021,17.603436671447753,144.153077684021C17.603436671447753,144.153077684021,17.610936671447753,144.153077684021,17.610936671447753,144.153077684021C19.330536671447753,144.153077684021,20.947636671447754,143.483877684021,22.164336671447757,142.268677684021C22.164336671447757,142.268677684021,49.05183667144775,115.381277684021,49.05183667144775,115.381277684021C50.267636671447754,114.163777684021,50.936936671447754,112.544677684021,50.93533667144776,110.822877684021C50.935436671447754,107.268127684021,48.04473667144775,104.37752768402099,44.491736671447754,104.37752768402099C44.491736671447754,104.37752768402099,44.491736671447754,104.37752768402099,44.491736671447754,104.37752768402099Z" fill="#232323" fill-opacity="1" style="mix-blend-mode:passthrough"/></g><g><path d="M50.458094084777834,106.84363180999756C49.94912408477783,106.84363180999756,49.440155084777835,106.64943180999757,49.051827084777834,106.26113180999756C48.275130084777835,105.48443180999756,48.275130084777835,104.22521180999756,49.051827084777834,103.44855180999755C49.051827084777834,103.44855180999755,56.370524084777834,96.12985480999755,56.370524084777834,96.12985480999755C57.147184084777834,95.35315780999755,58.40640408477783,95.35315780999755,59.18310408477783,96.12985480999755C59.95970408477783,96.90651180999755,59.95970408477783,98.16572180999756,59.18310408477783,98.94238180999756C59.18310408477783,98.94238180999756,51.86435408477783,106.26113180999756,51.86435408477783,106.26113180999756C51.47602408477783,106.64943180999757,50.96706408477783,106.84363180999756,50.458094084777834,106.84363180999756C50.458094084777834,106.84363180999756,50.458094084777834,106.84363180999756,50.458094084777834,106.84363180999756Z" fill="#232323" fill-opacity="1" style="mix-blend-mode:passthrough"/></g><g><path d="M48.94656651153564,120.2877396347046C48.437666511535646,120.2877396347046,47.928666511535646,120.09353963470458,47.540366511535645,119.70523963470458C47.540366511535645,119.70523963470458,35.607687511535644,107.77258963470459,35.607687511535644,107.77258963470459C34.83099151153564,106.99593963470458,34.830993511535645,105.73671963470458,35.60769151153564,104.9600646347046C36.38434651153565,104.18336663470458,37.643566511535646,104.18336463470459,38.42021651153564,104.96006063470459C38.42021651153564,104.96006063470459,50.352866511535645,116.89273963470458,50.352866511535645,116.89273963470458C51.12956651153564,117.66933963470458,51.12956651153564,118.92853963470459,50.352866511535645,119.70523963470458C49.964566511535644,120.09353963470458,49.45556651153564,120.2877396347046,48.94656651153564,120.2877396347046C48.94656651153564,120.2877396347046,48.94656651153564,120.2877396347046,48.94656651153564,120.2877396347046Z" fill="#232323" fill-opacity="1" style="mix-blend-mode:passthrough"/></g><g><path d="M25.08119981422424,144.15311133880616C24.572299814224245,144.15311133880616,24.063299814224244,143.95891133880616,23.674999814224243,143.57061133880615C23.674999814224243,143.57061133880615,11.742320814224243,131.63796133880615,11.742320814224243,131.63796133880615C10.965624814224244,130.86131133880616,10.965626814224244,129.60209133880616,11.742324814224244,128.82543633880616C12.518979814224243,128.04873833880615,13.778199814224243,128.04873633880615,14.554849814224243,128.82543233880617C14.554849814224243,128.82543233880617,26.487499814224243,140.75811133880615,26.487499814224243,140.75811133880615C27.26419981422424,141.53471133880615,27.26419981422424,142.79391133880614,26.487499814224243,143.57061133880615C26.099199814224242,143.95891133880616,25.590199814224242,144.15311133880616,25.08119981422424,144.15311133880616C25.08119981422424,144.15311133880616,25.08119981422424,144.15311133880616,25.08119981422424,144.15311133880616Z" fill="#232323" fill-opacity="1" style="mix-blend-mode:passthrough"/></g><g><path d="M88.7223590774536,20.848814964359743C100.94035907745362,20.848794609394435,112.42715907745361,25.606764964294435,121.06665907745361,34.24621496429443C129.7061590774536,42.885714964294436,134.46415907745362,54.37251496429443,134.46415907745362,66.59061496429443C134.4640590774536,78.80871496429444,129.70605907745363,90.29551496429444,121.06655907745362,98.93501496429444C112.42705907745362,107.57451496429444,100.94025907745362,112.33251496429443,88.72215907745361,112.33261496429444C76.5040590774536,112.33261496429444,65.01725907745362,107.57461496429444,56.37775907745361,98.93511496429443C47.738309077453614,90.29561496429443,42.98033872255361,78.80881496429444,42.980359077518926,66.59081496429442C42.98037943255361,54.37271496429443,47.73838907745361,42.88591496429443,56.377859077453614,34.246314964294434C65.01745907745361,25.60684496429443,76.50425907745361,20.848835319394432,88.7223590774536,20.848814964359743C88.7223590774536,20.848814964359743,88.7223590774536,20.848814964359743,88.7223590774536,20.848814964359743ZM88.72215907745361,108.35501496429444C111.75105907745362,108.35501496429444,130.48655907745362,89.61951496429444,130.48655907745362,66.59061496429443C130.48655907745362,43.56171496429444,111.75125907745361,24.826334964294432,88.72225907745361,24.826364964294434C65.69335907745361,24.826404964294433,46.95794907745361,43.561814964294435,46.957909077453614,66.59071496429443C46.95787907745361,89.61971496429443,65.69325907745362,108.35501496429444,88.72215907745361,108.35501496429444C88.72215907745361,108.35501496429444,88.72215907745361,108.35501496429444,88.72215907745361,108.35501496429444Z" fill="#232323" fill-opacity="1" style="mix-blend-mode:passthrough"/></g><g><path d="M88.72226772003174,28.80392217641451C109.55796772003174,28.803887426861085,126.50906772003174,45.754922176361084,126.50896772003173,66.59062217636108C126.50896772003173,87.42632217636108,109.55786772003174,104.37742217636108,88.72216772003173,104.37742217636108C67.88646772003173,104.37752217636108,50.935432970531735,87.42642217636109,50.935467720085164,66.59072217636108C50.93550243983174,45.75502217636108,67.88656772003174,28.803956896161083,88.72226772003174,28.80392217641451C88.72226772003174,28.80392217641451,88.72226772003174,28.80392217641451,88.72226772003174,28.80392217641451ZM88.72216772003173,100.39992217636109C107.36466772003175,100.39992217636109,122.53146772003174,85.23312217636109,122.53146772003174,66.59062217636108C122.53146772003174,47.94812217636108,107.36476772003174,32.78144217636108,88.72226772003174,32.781472176361085C70.07976772003174,32.78151217636108,54.91305772003174,47.948222176361085,54.91301772003174,66.59072217636108C54.91298772003174,85.23322217636108,70.07966772003174,100.39992217636109,88.72216772003173,100.39992217636109C88.72216772003173,100.39992217636109,88.72216772003173,100.39992217636109,88.72216772003173,100.39992217636109Z" fill="#232323" fill-opacity="1" style="mix-blend-mode:passthrough"/></g><g><path d="M60.87935636260986,68.57953224945068C59.78099036260986,68.57953224945068,58.890574455259866,67.68913224945068,58.890576362612926,66.59073224945068C58.89058971400986,58.62243224945068,61.99365636260986,51.13103224945068,67.62810636260986,45.49656224945068C73.26257636260986,39.862102249450686,80.75397636260986,36.75904560085068,88.72227636260986,36.75903224945303C89.82067636260986,36.75903058052069,90.71107636260986,37.649443249450684,90.71107636260986,38.747802249450686C90.71107636260986,39.84617224945068,89.82067636260986,40.736582249450684,88.72227636260986,40.73659224945068C81.81637636260986,40.736602249450684,75.32387636260987,43.42591224945068,70.44067636260986,48.309132249450684C65.55745636260987,53.192332249450686,62.86814636260986,59.68483224945068,62.86813636260986,66.59073224945068C62.868126362609864,67.68913224945068,61.97771636260986,68.57953224945068,60.87935636260986,68.57953224945068C60.87935636260986,68.57953224945068,60.87935636260986,68.57953224945068,60.87935636260986,68.57953224945068Z" fill="#232323" fill-opacity="1" style="mix-blend-mode:passthrough"/></g></g></g></g></svg>