<svg viewBox="44.528058593749996 12.88972265625 206.8211142578125 273.02776171875" version="1.1" fill="none" xmlns:xlink="http://www.w3.org/1999/xlink" xmlns="http://www.w3.org/2000/svg" style="max-height: 500px" width="206.8211142578125" height="273.02776171875"><defs><mask maskUnits="objectBoundingBox" style="mask-type:alpha" id="master_svg0_0_13302"><g><rect fill-opacity="1" fill="#FFFFFF" rx="0" height="280" width="228" y="12.815780639648438" x="33.95751953125"/></g></mask></defs><g><g mask="url(#master_svg0_0_13302)"><g transform="matrix(0,1,-1,0,186.43821716308594,-307.47608947753906)"><g><path style="mix-blend-mode:passthrough" fill-opacity="1" fill="#68FE7F" fill-rule="evenodd" d="M518.7931240234375,79.15506384277344Q526.9061240234375,60.45006384277343,526.9051240234376,39.96306384277344Q526.9061240234375,19.47686384277344,518.7931240234375,0.77116384277344Q510.9561240234375,-17.29753615722656,496.6731240234375,-31.231836157226564Q482.3881240234375,-45.16503615722657,463.8651240234375,-52.80752615722656Q444.69012402343753,-60.718936157226565,423.6911240234375,-60.718928157226564Q402.6938240234375,-60.718936157226565,383.5175240234375,-52.80752615722656Q364.9953240234375,-45.165836157226565,350.7098240234375,-31.231836157226564Q336.4237240234375,-17.297036157226565,328.5890640234375,0.77116384277344Q320.4771240234375,19.478463842773436,320.4771240234375,39.96306384277344Q320.4771240234375,60.448063842773436,328.5890740234375,79.15506384277344Q336.4238240234375,97.22506384277344,350.7098240234375,111.15906384277343Q364.9946240234375,125.09206384277343,383.5175240234375,132.73506384277343Q402.6922240234375,140.64606384277343,423.6911240234375,140.64706384277343Q444.6911240234375,140.64606384277343,463.8651240234375,132.73506384277343Q482.39012402343747,125.09406384277344,496.6731240234375,111.15906384277343Q510.9581240234375,97.22506384277344,518.7931240234375,79.15506384277344ZM518.4261240234375,0.9302638427734351Q526.5061240234375,19.559163842773444,526.5051240234375,39.96306384277344Q526.5061240234375,60.36506384277344,518.4261240234375,78.99606384277342Q510.6231240234375,96.99406384277344,496.3931240234375,110.87306384277343Q482.1651240234375,124.75206384277342,463.7131240234375,132.36506384277342Q444.6121240234375,140.24606384277342,423.6911240234375,140.24706384277343Q402.7714240234375,140.24806384277343,383.6700240234375,132.36506384277342Q365.21822402343753,124.75206384277342,350.9891240234375,110.87306384277343Q336.7595240234375,96.99406384277344,328.9560540234375,78.99606384277342Q320.8771240234375,60.36406384277343,320.8771240234375,39.96306384277344Q320.8771240234375,19.56176384277343,328.9560540234375,0.9302638427734351Q336.7594240234375,-17.06553615722656,350.9891240234375,-30.945436157226563Q365.2193240234375,-44.825536157226566,383.6700240234375,-52.43775615722656Q402.7729240234375,-60.31893615722656,423.6911240234375,-60.318928157226566Q444.6101240234375,-60.31893615722656,463.7131240234375,-52.43775615722656Q482.1651240234375,-44.824636157226564,496.3931240234375,-30.945436157226563Q510.62112402343746,-17.066336157226566,518.4261240234375,0.9302638427734351Z"/></g><g><path style="mix-blend-mode:passthrough" fill-opacity="1" fill="#68FE7F" fill-rule="evenodd" d="M508.86866015625003,79.14806384277344Q516.13066015625,60.44106384277343,516.1316601562501,39.96306384277344Q516.13066015625,19.480063842773433,508.86866015625003,0.7783638427734374Q501.85266015625,-17.29133615722656,489.06266015625,-31.22393615722656Q476.26766015625003,-45.161136157226565,459.67966015625,-52.804286157226564Q442.50166015625,-60.718936157226565,423.69146015625,-60.718928157226564Q404.88136015625,-60.718936157226565,387.70376015625,-52.804286157226564Q371.11416015625,-45.16053615722656,358.32056015625,-31.22393615722656Q345.52876015625,-17.289036157226562,338.51384015625,0.7783638427734374Q331.25166015625,19.482663842773434,331.25166815625,39.96306384277344Q331.25166015625,60.44406384277343,338.51383015625,79.14806384277344Q345.52906015625,97.21706384277343,358.32056015625,111.15106384277342Q371.11576015625,125.08906384277344,387.70376015625,132.73206384277344Q404.88236015625,140.64606384277343,423.69146015625,140.64706384277343Q442.50066015625,140.64806384277344,459.67966015625,132.73206384277344Q476.26666015625,125.08906384277344,489.06266015625,111.15106384277342Q501.85366015625,97.21706384277343,508.86866015625003,79.14806384277344ZM508.49566015625,0.923163842773441Q515.73066015625,19.555063842773436,515.73066015625,39.96306384277344Q515.73066015625,60.36606384277344,508.49566015625,79.00306384277343Q501.50866015625,97.00206384277342,488.76766015625003,110.88106384277344Q476.02566015625,124.75906384277343,459.51166015625,132.36906384277344Q442.41266015625,140.24806384277343,423.69146015625,140.24706384277343Q404.96986015625,140.24806384277343,387.87116015624997,132.36906384277344Q371.35606015625,124.76006384277343,358.61526015625,110.88106384277344Q345.87466015625,97.00206384277342,338.88671015625,79.00306384277343Q331.65166015625,60.36906384277344,331.65166815625,39.96306384277344Q331.65166015625,19.557663842773437,338.88672015625,0.923163842773441Q345.87436015625,-17.073836157226566,358.61526015625,-30.953436157226562Q371.35426015625,-44.830836157226564,387.87116015624997,-52.440996157226564Q404.96886015625,-60.31893615722656,423.69146015625,-60.318928157226566Q442.41466015624997,-60.31893615722656,459.51166015625,-52.440996157226564Q476.02766015625,-44.83143615722656,488.76766015625003,-30.953436157226562Q501.50666015625,-17.07623615722656,508.49566015625,0.923163842773441Z"/></g><g><path style="mix-blend-mode:passthrough" fill-opacity="1" fill="#68FE7F" fill-rule="evenodd" d="M498.94431835937496,79.14106384277343Q505.357318359375,60.439063842773436,505.357318359375,39.96306384277344Q505.357318359375,19.48626384277344,498.94431835937496,0.7858638427734377Q492.748318359375,-17.281436157226565,481.451318359375,-31.21463615722656Q470.149318359375,-45.15413615722656,455.49431835937503,-52.79995615722656Q440.314818359375,-60.718871157226566,423.691618359375,-60.718928157226564Q407.068518359375,-60.718936157226565,391.889318359375,-52.79995615722656Q377.233118359375,-45.15373615722656,365.931718359375,-31.21463615722656Q354.634418359375,-17.280136157226565,348.439138359375,0.7858638427734377Q342.026318359375,19.486763842773442,342.026318359375,39.96306384277344Q342.026318359375,60.43806384277343,348.439128359375,79.14106384277343Q354.633918359375,97.20706384277344,365.931718359375,111.14206384277344Q377.232818359375,125.08106384277343,391.889318359375,132.72806384277345Q407.068018359375,140.64706384277343,423.691618359375,140.64706384277343Q440.31541835937503,140.64706384277343,455.49431835937503,132.72806384277345Q470.149318359375,125.08106384277343,481.451318359375,111.14206384277344Q492.749318359375,97.20906384277345,498.94431835937496,79.14106384277343ZM498.565318359375,0.9156638427734407Q504.957318359375,19.552963842773437,504.957318359375,39.96306384277344Q504.956318359375,60.37306384277343,498.565318359375,79.01106384277344Q492.39331835937503,97.01106384277344,481.14131835937496,110.89006384277343Q469.891318359375,124.76506384277343,455.30931835937497,132.37306384277343Q440.216918359375,140.24706384277343,423.691618359375,140.24706384277343Q407.166118359375,140.24706384277343,392.074318359375,132.37306384277343Q377.491318359375,124.76506384277343,366.242418359375,110.89006384277343Q354.989318359375,97.01006384277343,348.817508359375,79.01106384277344Q342.426318359375,60.37206384277344,342.426318359375,39.96306384277344Q342.426318359375,19.552963842773437,348.817508359375,0.9156638427734407Q354.989718359375,-17.083236157226565,366.242418359375,-30.962636157226562Q377.491418359375,-44.837536157226566,392.074318359375,-52.445316157226564Q407.16641835937503,-60.31893615722656,423.691618359375,-60.318928157226566Q440.216918359375,-60.31893615722656,455.30931835937497,-52.445316157226564Q469.891318359375,-44.837936157226565,481.14131835937496,-30.962636157226562Q492.39331835937503,-17.084536157226566,498.565318359375,0.9156638427734407Z"/></g><g><path style="mix-blend-mode:passthrough" fill-opacity="1" fill="#68FE7F" fill-rule="evenodd" d="M489.01892480468746,79.13306384277342Q494.58292480468754,60.43406384277344,494.58292480468754,39.96306384277344Q494.5819248046875,19.49146384277344,489.01892480468746,0.7936638427734408Q483.6449248046875,-17.269436157226565,473.8409248046875,-31.20373615722656Q464.0319248046875,-45.14553615722656,451.3101248046875,-52.79404615722656Q438.1281248046875,-60.718936157226565,423.6904248046875,-60.718928157226564Q409.2526248046875,-60.718936157226565,396.0708248046875,-52.79404615722656Q383.3482248046875,-45.14513615722656,373.5398248046875,-31.20373615722656Q363.7370248046875,-17.26973615722656,358.3616548046875,0.7936638427734408Q352.7979248046875,19.490463842773437,352.7979248046875,39.96306384277344Q352.7979248046875,60.43506384277343,358.3616548046875,79.13306384277342Q363.7366248046875,97.19706384277345,373.5398248046875,111.13106384277344Q383.3479248046875,125.07306384277345,396.0708248046875,132.72206384277345Q409.2516248046875,140.64706384277343,423.6904248046875,140.64706384277343Q438.1297248046875,140.64706384277343,451.3101248046875,132.72206384277345Q464.03292480468747,125.07206384277345,473.8409248046875,111.13106384277344Q483.6449248046875,97.19606384277344,489.01892480468746,79.13306384277342ZM488.63592480468753,0.9077638427734342Q494.18192480468747,19.549863842773433,494.1829248046875,39.96306384277344Q494.18192480468747,60.37606384277343,488.63592480468753,79.01906384277345Q483.27992480468754,97.02006384277342,473.5139248046875,110.90106384277342Q463.7549248046875,124.77306384277344,451.10402480468747,132.37906384277343Q438.0182248046875,140.24706384277343,423.6904248046875,140.24706384277343Q409.3627248046875,140.24806384277343,396.2769248046875,132.37906384277343Q383.6263248046875,124.77306384277344,373.8670248046875,110.90106384277342Q364.1014248046875,97.02006384277342,358.7450448046875,79.01906384277345Q353.1979248046875,60.37706384277344,353.1979248046875,39.96306384277344Q353.1979248046875,19.54876384277344,358.7450348046875,0.9077638427734342Q364.1017248046875,-17.09313615722656,373.8670248046875,-30.97353615722656Q383.6265248046875,-44.84593615722656,396.2769248046875,-52.45123615722656Q409.3635248046875,-60.31893615722656,423.6904248046875,-60.318928157226566Q438.0172248046875,-60.31893615722656,451.10402480468747,-52.451226157226564Q463.7539248046875,-44.84623615722656,473.5139248046875,-30.97353615722656Q483.27992480468754,-17.09293615722656,488.63592480468753,0.9077638427734342Z"/></g><g><path style="mix-blend-mode:passthrough" fill-opacity="1" fill="#68FE7F" fill-rule="evenodd" d="M479.09394921875,79.12506384277344Q483.80794921874997,60.430063842773436,483.80894921875,39.96306384277344Q483.80894921875,19.49566384277344,479.09394921875,0.8018638427734359Q474.53994921875,-17.258036157226563,466.23094921874997,-31.191036157226563Q457.91674921875,-45.13403615722656,447.12914921875,-52.78576615722656Q435.94534921875,-60.718936157226565,423.69094921875,-60.718928157226564Q411.43754921875,-60.718936157226565,400.25284921875,-52.78576615722656Q389.46564921875,-45.13443615722656,381.15114921875,-31.191036157226563Q372.84325921875,-17.258736157226565,368.28781921875,0.8018638427734359Q363.57294921875,19.495163842773437,363.57294521875,39.96306384277344Q363.57294921875,60.430063842773436,368.28781921875,79.12506384277344Q372.84303921875,97.18606384277345,381.15114921875,111.11806384277344Q389.46604921875,125.06206384277343,400.25284921875,132.71306384277344Q411.43754921875,140.64706384277343,423.69094921875,140.64706384277343Q435.94454921875,140.64706384277343,447.12914921875,132.71306384277344Q457.91614921875,125.06206384277343,466.23094921874997,111.11806384277344Q474.53994921875,97.18506384277345,479.09394921875,79.12506384277344ZM478.70694921874997,0.8996638427734354Q483.40894921874997,19.54666384277344,483.40894921874997,39.96306384277344Q483.40894921874997,60.38006384277344,478.70694921874997,79.02706384277343Q474.16594921875003,97.03106384277345,465.88794921875,110.91306384277343Q457.61564921875,124.78506384277344,446.89774921875,132.38706384277344Q435.81694921875,140.24706384277343,423.69094921875,140.24706384277343Q411.56534921875,140.24706384277343,400.48434921875,132.38706384277344Q389.76634921875,124.78406384277343,381.49464921875,110.91306384277343Q373.21659921875,97.03106384277345,368.67566921875,79.02706384277343Q363.97294921875,60.38106384277344,363.97294521875,39.96306384277344Q363.97294921875,19.544563842773442,368.67566921875,0.8996638427734354Q373.21669921875,-17.104336157226562,381.49464921875,-30.986236157226564Q389.76614921875,-44.85703615722656,400.48434921875,-52.45950615722656Q411.56484921875,-60.31893615722656,423.69094921875,-60.318928157226566Q435.81774921875,-60.31893615722656,446.89774921875,-52.45950615722656Q457.61674921875,-44.856736157226564,465.88794921875,-30.986236157226564Q474.16594921875003,-17.103336157226565,478.70694921874997,0.8996638427734354Z"/></g><g><path style="mix-blend-mode:passthrough" fill-opacity="1" fill="#68FE7F" fill-rule="evenodd" d="M469.1687853515625,79.11606384277343Q473.0349853515625,60.42606384277343,473.0348853515625,39.96306384277344Q473.0349853515625,19.50186384277343,469.1687853515625,0.8102638427734377Q465.4344853515625,-17.24443615722656,458.6206853515625,-31.17653615722656Q451.80168535156247,-45.11993615722656,442.95088535156253,-52.773916157226566Q433.7635853515625,-60.71890315722656,423.6910853515625,-60.718928157226564Q413.6182853515625,-60.718936157226565,404.4313853515625,-52.773916157226566Q395.5813853515625,-45.120236157226564,388.7616853515625,-31.17653615722656Q381.9489153515625,-17.24683615722656,378.2135953515625,0.8102638427734377Q374.3475183515625,19.49926384277343,374.3474893515625,39.96306384277344Q374.3474853515625,60.427063842773435,378.2135953515625,79.11606384277343Q381.9488853515625,97.17306384277344,388.7616853515625,111.10406384277343Q395.5809853515625,125.04806384277344,404.4313853515625,132.70206384277344Q413.6185853515625,140.64706384277343,423.6910853515625,140.64706384277343Q433.7635853515625,140.64706384277343,442.95088535156253,132.70206384277344Q451.80168535156247,125.04806384277344,458.6206853515625,111.10406384277343Q465.4339853515625,97.17206384277344,469.1687853515625,79.11606384277343ZM468.7770853515625,0.8912638427734407Q472.6339853515625,19.54146384277344,472.6348853515625,39.96306384277344Q472.6339853515625,60.38406384277344,468.7770853515625,79.03506384277344Q465.0526853515625,97.04006384277343,458.2612853515625,110.92806384277344Q451.4779853515625,124.79906384277345,442.6892853515625,132.39906384277344Q433.6146853515625,140.24706384277343,423.6910853515625,140.24706384277343Q413.7675853515625,140.24706384277343,404.6930853515625,132.39906384277344Q395.90448535156247,124.79906384277345,389.1209853515625,110.92806384277344Q382.3303653515625,97.04206384277344,378.6053053515625,79.03506384277344Q374.7474853515625,60.38606384277344,374.7474893515625,39.96306384277344Q374.7474853515625,19.540463842773434,378.6053053515625,0.8912638427734407Q382.3305553515625,-17.116336157226563,389.1209853515625,-31.000736157226562Q395.9047853515625,-44.87113615722656,404.6930853515625,-52.47136615722656Q413.7672853515625,-60.31893615722656,423.6910853515625,-60.318928157226566Q433.6149853515625,-60.31893615722656,442.6892853515625,-52.47136615722656Q451.4776853515625,-44.87073615722656,458.2612853515625,-31.000736157226562Q465.0526853515625,-17.114236157226564,468.7770853515625,0.8912638427734407Z"/></g><g><path style="mix-blend-mode:passthrough" fill-opacity="1" fill="#68FE7F" fill-rule="evenodd" d="M459.242521484375,79.10806384277345Q462.260521484375,60.42506384277344,462.260421484375,39.96306384277344Q462.260521484375,19.50186384277343,459.242521484375,0.8188638427734389Q456.32622148437497,-17.23503615722656,451.008921484375,-31.15993615722656Q445.685021484375,-45.10173615722656,438.774421484375,-52.756656157226566Q431.586121484375,-60.71890315722656,423.691221484375,-60.718928157226564Q415.796521484375,-60.718936157226565,408.608121484375,-52.75666615722656Q401.697521484375,-45.102036157226564,396.373621484375,-31.15993615722656Q391.055741484375,-17.23373615722656,388.139961484375,0.8188638427734389Q385.122021484375,19.503963842773445,385.122021484375,39.96306384277344Q385.122021484375,60.42206384277344,388.139961484375,79.10806384277345Q391.055501484375,97.15906384277343,396.373621484375,111.08706384277343Q401.697121484375,125.03006384277344,408.608121484375,132.68406384277344Q415.796521484375,140.64706384277343,423.691221484375,140.64706384277343Q431.586121484375,140.64706384277343,438.774421484375,132.68406384277344Q445.685321484375,125.02906384277344,451.008921484375,111.08706384277343Q456.32622148437497,97.16106384277344,459.242521484375,79.10806384277345ZM458.847621484375,0.8826638427734395Q461.860521484375,19.534163842773438,461.860421484375,39.96306384277344Q461.860521484375,60.39206384277344,458.847621484375,79.04406384277343Q455.937621484375,97.05606384277343,450.635321484375,110.94406384277343Q445.338421484375,124.81606384277345,438.477521484375,132.41606384277344Q431.408321484375,140.24706384277343,423.691221484375,140.24706384277343Q415.974221484375,140.24706384277343,408.90502148437497,132.41606384277344Q402.044121484375,124.81606384277345,396.747321484375,110.94406384277343Q391.443831484375,97.05606384277343,388.534841484375,79.04406384277343Q385.522021484375,60.39006384277344,385.522021484375,39.96306384277344Q385.522021484375,19.535763842773434,388.534841484375,0.8826638427734395Q391.444031484375,-17.12933615722656,396.747321484375,-31.017336157226563Q402.044521484375,-44.88943615722656,408.90502148437497,-52.48861615722656Q415.974221484375,-60.31893615722656,423.691221484375,-60.318928157226566Q431.408221484375,-60.31893615722656,438.477521484375,-52.48861615722656Q445.338121484375,-44.88923615722656,450.635321484375,-31.017336157226563Q455.938121484375,-17.130936157226564,458.847621484375,0.8826638427734395Z"/></g><g><path style="mix-blend-mode:passthrough" fill-opacity="1" fill="#68FE7F" fill-rule="evenodd" d="M449.3163576171875,79.09906384277343Q451.4861576171875,60.417063842773445,451.4862576171875,39.96306384277344Q451.4861576171875,19.509163842773432,449.3163576171875,0.8276638427734397Q447.2199576171875,-17.218936157226565,443.3968576171875,-31.14163615722656Q439.5694576171875,-45.07843615722656,434.6003576171875,-52.731556157226564Q429.41415761718747,-60.718936157226565,423.6914576171875,-60.718928157226564Q417.9686576171875,-60.718936157226565,412.7824576171875,-52.731556157226564Q407.8135576171875,-45.07863615722656,403.9860376171875,-31.14163615722656Q400.1627676171875,-17.21983615722656,398.0664276171875,0.8276638427734397Q395.8965576171875,19.508663842773444,395.8965576171875,39.96306384277344Q395.8965576171875,60.41906384277344,398.0664276171875,79.09906384277343Q400.1628176171875,97.14806384277344,403.9860376171875,111.06906384277343Q407.8138576171875,125.00706384277345,412.7824576171875,132.65906384277343Q417.9688576171875,140.64806384277344,423.6914576171875,140.64706384277343Q429.41415761718747,140.64706384277343,434.6003576171875,132.65906384277343Q439.5693576171875,125.00606384277344,443.3968576171875,111.06906384277343Q447.2202576171875,97.14806384277344,449.3163576171875,79.09906384277343ZM448.9190576171875,0.8738638427734386Q451.0861576171875,19.53206384277344,451.08625761718747,39.96306384277344Q451.0861576171875,60.39506384277344,448.9190576171875,79.05306384277344Q446.8262576171875,97.07106384277344,443.0111576171875,110.96306384277344Q439.1999576171875,124.84006384277345,434.2648576171875,132.44106384277345Q429.1969576171875,140.24706384277343,423.6914576171875,140.24706384277343Q418.1859576171875,140.24806384277343,413.11795761718747,132.44106384277345Q408.1830576171875,124.84006384277345,404.3717576171875,110.96306384277344Q400.5566476171875,97.07106384277344,398.4637576171875,79.05306384277344Q396.2965576171875,60.39506384277344,396.2965576171875,39.96306384277344Q396.2965416171875,19.531563842773437,398.4637576171875,0.8738638427734386Q400.5565176171875,-17.14343615722656,404.3717576171875,-31.035636157226563Q408.1828576171875,-44.912836157226565,413.11795761718747,-52.513726157226564Q418.1858576171875,-60.31893615722656,423.6914576171875,-60.318928157226566Q429.1969576171875,-60.318903157226565,434.2648576171875,-52.513726157226564Q439.2004576171875,-44.912636157226565,443.0111576171875,-31.035636157226563Q446.8262576171875,-17.14233615722656,448.9190576171875,0.8738638427734386Z"/></g><g><path style="mix-blend-mode:passthrough" fill-opacity="1" fill="#68FE7F" fill-rule="evenodd" d="M439.38988203125,79.09006384277345Q440.71218203125,60.41306384277344,440.71228203124997,39.96306384277344Q440.71248203125,19.513363842773444,439.38988203125,0.8366638427734401Q438.11248203125,-17.204336157226564,435.78278203125,-31.12163615722656Q433.45128203125,-45.04913615722656,430.42488203125,-52.696236157226565Q427.24988203125,-60.718936157226565,423.69198203125,-60.718928157226564Q420.13408203125,-60.718936157226565,416.95898203125,-52.696236157226565Q413.93265203125,-45.04953615722656,411.60110203125,-31.12163615722656Q409.27145203125,-17.205236157226565,407.99398203125,0.8366638427734401Q406.67158203125,19.51286384277344,406.67158203125,39.96306384277344Q406.67158203125,60.414063842773444,407.99398203125,79.09006384277345Q409.27156203125,97.13206384277345,411.60110203125,111.04906384277345Q413.93271203125,124.97706384277345,416.95898203125,132.62406384277344Q420.13408203125,140.64706384277343,423.69198203125,140.64706384277343Q427.24998203125,140.64706384277343,430.42488203125,132.62406384277344Q433.45118203125,124.97706384277345,435.78278203125,111.04906384277345Q438.11238203125,97.13206384277345,439.38988203125,79.09006384277345ZM438.99088203125,0.8648638427734383Q440.31248203125,19.52796384277343,440.31238203125,39.96306384277344Q440.31248203125,60.400063842773434,438.99088203125,79.06206384277343Q437.71478203125,97.08506384277345,435.38828203125,110.98306384277345Q433.06368203125,124.86906384277344,430.05298203125,132.47706384277345Q426.97798203125,140.24706384277343,423.69198203125,140.24706384277343Q420.40588203125,140.24706384277343,417.33088203125,132.47706384277345Q414.32021203125,124.86906384277344,411.99561203125,110.98306384277345Q409.66920203125,97.08506384277345,408.39298203125,79.06206384277343Q407.07158203125,60.400063842773434,407.07158203125,39.96306384277344Q407.07158203125,19.527463842773443,408.39298203125,0.8648638427734383Q409.66914203125,-17.15803615722656,411.99561203125,-31.055636157226562Q414.32018203125,-44.941736157226565,417.33088203125,-52.54903615722656Q420.40598203125,-60.31893615722656,423.69198203125,-60.318928157226566Q426.97798203125,-60.31893615722656,430.05298203125,-52.54903615722656Q433.06378203125,-44.94133615722656,435.38828203125,-31.055636157226562Q437.71508203125,-17.156436157226565,438.99088203125,0.8648638427734383Z"/></g><g><path style="mix-blend-mode:passthrough" fill-opacity="1" fill="#68FE7F" fill-rule="evenodd" d="M428.165675390625,111.02806384277343Q429.936675390625,81.59106384277345,429.936775390625,39.96306384277344Q429.936975390625,-1.6647361572265638,428.165675390625,-31.100636157226564Q426.383705390625,-60.718936157226565,423.690735390625,-60.718928157226564Q420.997905390625,-60.718936157226565,419.215835390625,-31.100636157226564Q417.444775390625,-1.6653361572265624,417.444775390625,39.96306384277344Q417.444775390625,81.59106384277345,419.215835390625,111.02806384277343Q420.997885390625,140.64806384277344,423.690735390625,140.64706384277343Q426.383615390625,140.64706384277343,428.165675390625,111.02806384277343ZM427.766375390625,-31.076636157226563Q429.536675390625,-1.652236157226561,429.536775390625,39.96306384277344Q429.536675390625,81.57906384277345,427.766375390625,111.00406384277343Q426.930155390625,124.90306384277343,425.846265390625,132.52206384277343Q424.747395390625,140.24706384277343,423.690735390625,140.24706384277343Q422.634095390625,140.24706384277343,421.535245390625,132.52206384277343Q420.451315390625,124.90306384277343,419.615115390625,111.00406384277343Q417.844775390625,81.57906384277345,417.844775390625,39.96306384277344Q417.844775390625,-1.653336157226562,419.615115390625,-31.076636157226563Q420.451385390625,-44.97563615722656,421.535245390625,-52.594476157226566Q422.634135390625,-60.31893615722656,423.690735390625,-60.318928157226566Q424.747345390625,-60.31893615722656,425.846265390625,-52.59446615722656Q426.930195390625,-44.97543615722656,427.766375390625,-31.076636157226563Z"/></g><g><ellipse style="mix-blend-mode:passthrough" stroke-linecap="ROUND" stroke-width="0.4000000059604645" fill="none" stroke="#68FE7F" stroke-opacity="1" fill-opacity="0" ry="89.95356750488281" rx="111.205078125" cy="39.96356201171875" cx="423.6932373046875"/></g><g><ellipse style="mix-blend-mode:passthrough" stroke-linecap="ROUND" stroke-width="0.4000000059604645" fill="none" stroke="#68FE7F" stroke-opacity="1" fill-opacity="0" ry="79.425048828125" rx="119.39595031738281" cy="39.96531677246094" cx="423.6907501220703"/></g><g><path style="mix-blend-mode:passthrough" fill-opacity="1" fill="#68FE7F" fill-rule="evenodd" d="M541.4094921875001,66.90532204589844Q551.4774921875,54.05052204589843,551.4774921875,39.96472204589844Q551.4774921875,25.87862204589844,541.4094921875001,13.023822045898434Q531.7004921875,0.6276220458984376,514.0044921875,-8.928377954101563Q496.3214921875,-18.47707795410156,473.3984921875,-23.71249795410156Q449.6714921875,-29.131777954101562,423.6914921875,-29.131785954101563Q397.71149218749997,-29.131777954101562,373.9839921875,-23.71249795410156Q351.0607921875,-18.47687795410156,333.3785921875,-8.928377954101563Q315.6833921875,0.6271220458984388,305.9733621875,13.023822045898434Q295.9044921875,25.878922045898435,295.9045001875,39.96472204589844Q295.9044921875,54.051022045898435,305.9733621875,66.90532204589844Q315.6835921875,79.30222204589843,333.3785921875,88.85722204589844Q351.0604921875,98.40622204589843,373.9839921875,103.64022204589844Q397.7104921875,109.06022204589843,423.6914921875,109.05922204589845Q449.6714921875,109.06022204589843,473.3984921875,103.64022204589844Q496.3214921875,98.40422204589844,514.0044921875,88.85722204589844Q531.7004921875,79.30122204589844,541.4094921875001,66.90532204589844ZM541.0944921875,13.270522045898439Q551.0774921875,26.017222045898436,551.0774921875,39.96472204589844Q551.0774921875,53.91252204589844,541.0944921875,66.65872204589844Q531.4354921875,78.98922204589844,513.8134921875001,88.50522204589844Q496.1794921875,98.02722204589844,473.30949218750004,103.25022204589843Q449.62549218749996,108.66022204589845,423.6914921875,108.65922204589845Q397.7564921875,108.66022204589845,374.0729921875,103.25022204589843Q351.2026921875,98.02722204589844,333.56859218750003,88.50522204589844Q315.9470921875,78.98922204589844,306.2882921875,66.65872204589844Q296.3044921875,53.913022045898444,296.3045001875,39.96472204589844Q296.3044921875,26.01692204589844,306.2882921875,13.270522045898439Q315.9466921875,0.9394220458984393,333.56859218750003,-8.576377954101563Q351.2023921875,-18.09907795410156,374.0729921875,-23.322537954101563Q397.7564921875,-28.731777954101563,423.6914921875,-28.73178595410156Q449.62549218749996,-28.731842954101563,473.30949218750004,-23.322537954101563Q496.1794921875,-18.099177954101563,513.8134921875001,-8.576377954101563Q531.4374921875,0.9398220458984383,541.0944921875,13.270522045898439Z"/></g><g><path style="mix-blend-mode:passthrough" fill-opacity="1" fill="#68FE7F" fill-rule="evenodd" d="M548.943109375,62.82487150878906Q559.672109375,51.92217150878906,559.671109375,39.965671508789065Q559.670109375,28.00857150878906,548.943109375,17.105471508789066Q538.610109375,6.603171508789064,519.781109375,-1.490928491210937Q500.96810937500004,-9.578108491210937,476.57910937500003,-14.012418491210937Q451.335109375,-18.602328491210937,423.692109375,-18.602324491210936Q396.05010937500003,-18.602328491210937,370.804309375,-14.012428491210937Q346.41630937499997,-9.578398491210937,327.602009375,-1.490928491210937Q308.773809375,6.602571508789062,298.439709375,17.105471508789066Q287.712109375,28.00837150878906,287.712109375,39.965671508789065Q287.712109375,51.92217150878906,298.439709375,62.82487150878906Q308.772709375,73.32637150878907,327.602009375,81.42077150878906Q346.415009375,89.50767150878906,370.804309375,93.94167150878906Q396.051109375,98.53167150878906,423.692109375,98.53167150878906Q451.333109375,98.53167150878906,476.57910937500003,93.94167150878906Q500.96810937500004,89.50767150878906,519.781109375,81.42077150878906Q538.610109375,73.32577150878906,548.943109375,62.82487150878906ZM548.658109375,17.385971508789062Q559.270109375,28.172371508789062,559.2711093749999,39.965671508789065Q559.270109375,51.75807150878906,548.658109375,62.54437150878907Q538.381109375,72.98937150878906,519.623109375,81.05327150878907Q500.852109375,89.12267150878907,476.507109375,93.54867150878906Q451.297109375,98.13067150878906,423.692109375,98.13167150878907Q396.086109375,98.13167150878907,370.875809375,93.54867150878906Q346.531109375,89.12267150878907,327.759909375,81.05327150878907Q309.00280937499997,72.99037150878907,298.724909375,62.54437150878907Q288.112109375,51.75837150878907,288.112109375,39.965671508789065Q288.112109375,28.172171508789063,298.724909375,17.385971508789062Q309.003509375,6.939171508789062,327.759909375,-1.1234284912109374Q346.531909375,-9.192818491210938,370.875809375,-13.618878491210937Q396.085109375,-18.202328491210938,423.692109375,-18.202324491210938Q451.297109375,-18.202328491210938,476.507109375,-13.618868491210938Q500.852109375,-9.192688491210937,519.623109375,-1.1234284912109374Q538.381109375,6.9395715087890615,548.658109375,17.385971508789062Z"/></g><g><path style="mix-blend-mode:passthrough" fill-opacity="1" fill="#68FE7F" fill-rule="evenodd" d="M556.4715576171875,58.741983374023434Q567.8635576171876,49.79328337402344,567.8615576171875,39.963783374023436Q567.8625576171876,30.134983374023435,556.4715576171875,21.185883374023437Q545.5175576171875,12.580283374023438,525.5565576171875,5.947583374023438Q505.6135576171875,-0.6787366259765628,479.75855761718753,-4.312656625976563Q452.9965576171875,-8.073916625976562,423.6915576171875,-8.073920625976562Q394.38855761718753,-8.073916625976562,367.6246576171875,-4.312656625976563Q341.7705576171875,-0.6790266259765625,321.8267576171875,5.947583374023438Q301.8673576171875,12.579683374023439,290.9120576171875,21.185883374023437Q279.5215576171875,30.133983374023437,279.5215576171875,39.963783374023436Q279.5215576171875,49.79378337402344,290.9120576171875,58.741983374023434Q301.8671576171875,67.34848337402343,321.8267576171875,73.98088337402343Q341.7663576171875,80.60678337402344,367.6246576171875,84.24168337402344Q394.3845576171875,88.00318337402344,423.6915576171875,88.00318337402344Q453.0005576171875,88.00318337402344,479.75855761718753,84.24168337402344Q505.6195576171875,80.60628337402343,525.5565576171875,73.98088337402343Q545.5175576171875,67.34748337402344,556.4715576171875,58.741983374023434ZM556.2245576171874,21.50048337402344Q567.4625576171875,30.32948337402344,567.4615576171875,39.963783374023436Q567.4635576171875,49.59848337402344,556.2245576171874,58.42748337402344Q545.3255576171875,66.99018337402343,525.4305576171876,73.60128337402344Q505.52755761718754,80.21568337402344,479.70355761718747,83.84558337402343Q452.9715576171875,87.60318337402343,423.6915576171875,87.60318337402343Q394.41255761718753,87.60318337402343,367.6803576171875,83.84558337402343Q341.8580576171875,80.21568337402344,321.9528576171875,73.60128337402344Q302.0594576171875,66.99068337402343,291.1591576171875,58.42748337402344Q279.9215576171875,49.599283374023436,279.9215576171875,39.963783374023436Q279.9215576171875,30.32838337402344,291.1591576171875,21.50048337402344Q302.0595576171875,12.937283374023437,321.9528576171875,6.327183374023438Q341.8621576171875,-0.28794662597656284,367.6803576171875,-3.9165466259765624Q394.4155576171875,-7.673916625976562,423.6915576171875,-7.673920625976563Q452.9675576171875,-7.6739496259765625,479.70355761718747,-3.9165566259765625Q505.5215576171875,-0.2878466259765622,525.4305576171876,6.327183374023438Q545.3255576171875,12.93788337402344,556.2245576171874,21.50048337402344Z"/></g><g><ellipse style="mix-blend-mode:passthrough" stroke-linecap="ROUND" stroke-width="0.4000000059604645" fill="none" stroke="#68FE7F" stroke-opacity="1" fill-opacity="0" ry="37.30924987792969" rx="152.1611785888672" cy="39.965728759765625" cx="423.6913299560547"/></g><g><ellipse style="mix-blend-mode:passthrough" stroke-linecap="ROUND" stroke-width="0.4000000059604645" fill="none" stroke="#68FE7F" stroke-opacity="1" fill-opacity="0" ry="26.780719757080078" rx="160.35205078125" cy="39.963565826416016" cx="423.6927490234375"/></g><g><path style="mix-blend-mode:passthrough" fill-opacity="1" fill="#68FE7F" fill-rule="evenodd" d="M358.07776611328126,55.13672741699219Q389.39376611328123,56.413827416992184,423.69076611328126,56.41392741699219Q456.6827661132812,56.413827416992184,476.1007661132812,51.32882741699218Q484.69776611328126,49.077627416992186,489.2497661132812,46.09722741699218Q493.7037661132813,43.181427416992186,493.7037661132813,39.96252741699219Q493.7037661132813,36.743727416992186,489.2497661132812,33.82792741699219Q484.6967661132812,30.84755741699219,476.1007661132812,28.596297416992186Q456.6827661132812,23.511227416992188,423.69076611328126,23.511227416992188Q389.39776611328125,23.511229416992187,358.07776611328126,24.788447416992188Q327.82696611328123,26.022147416992187,304.4936661132813,28.271967416992187Q281.15406611328126,30.52245741699219,268.3482661132812,33.44195741699219Q254.94776611328126,36.49702741699219,254.94775011328124,39.96342741699219Q254.94776611328126,43.42912741699219,268.3482661132812,46.48392741699219Q281.15416611328124,49.40312741699219,304.4936661132813,51.65342741699219Q327.8258661132812,53.902927416992185,358.07776611328126,55.13672741699219ZM475.9997661132812,50.941927416992186Q456.63276611328126,56.013827416992186,423.69076611328126,56.01392741699219Q389.40176611328127,56.013827416992186,358.09476611328125,54.73702741699219Q327.85246611328125,53.50362741699219,304.53206611328125,51.255227416992184Q281.2180661132812,49.007627416992186,268.43716611328125,46.09392741699219Q255.34776611328124,43.11002741699219,255.34775011328125,39.96342741699219Q255.34770111328126,36.81612741699219,268.43716611328125,33.83192741699219Q281.2180661132812,30.91812741699219,304.53206611328125,28.670127416992187Q327.85406611328125,26.421347416992187,358.09476611328125,25.18811741699219Q389.4057661132813,23.911227416992187,423.69076611328126,23.911227416992187Q456.63076611328125,23.911227416992187,475.9997661132812,28.98324741699219Q484.53276611328124,31.21794741699219,489.0307661132813,34.16262741699219Q493.30376611328126,36.95992741699219,493.30376611328126,39.96252741699219Q493.30376611328126,42.96522741699219,489.0307661132813,45.762527416992185Q484.53176611328126,48.70722741699218,475.9997661132812,50.941927416992186Z"/></g><g><path style="mix-blend-mode:passthrough" fill-opacity="1" fill="#68FE7F" fill-rule="evenodd" d="M298.7146533203125,44.21102395996094Q350.4761533203125,45.88728395996094,423.69115332031254,45.887383959960935Q458.2671533203125,45.887383959960935,478.6131533203125,44.09820395996094Q497.0971533203125,42.472673959960936,497.0971533203125,39.964523959960935Q497.0971533203125,37.45640395996094,478.6131533203125,35.83084395996094Q458.2671533203125,34.041683959960935,423.69115332031254,34.041683959960935Q350.4821533203125,34.041683959960935,298.7146533203125,35.71776395996094Q246.7571533203125,37.40001395996094,246.7571693203125,39.963673959960936Q246.7571533203125,42.52831395996094,298.7146533203125,44.21102395996094ZM478.5781533203125,43.69974395996094Q458.24915332031253,45.48738395996094,423.69115332031254,45.48738395996094Q350.4821533203125,45.48748395996094,298.7275533203125,43.81122395996094Q274.2703533203125,43.01915395996094,260.8609533203125,41.992393959960935Q254.0704233203125,41.47243395996094,250.5790033203125,40.91980395996094Q247.1571533203125,40.378183959960936,247.1571693203125,39.963673959960936Q247.1571693203125,39.54946395996094,250.5790133203125,39.00807395996094Q254.0704333203125,38.45567395996094,260.8609533203125,37.93588395996094Q274.2717533203125,36.90937395996094,298.7275533203125,36.11755395996094Q350.4901533203125,34.44168395996094,423.69115332031254,34.44168395996094Q458.2511533203125,34.44168395996094,478.5781533203125,36.22930395996094Q487.5461533203125,37.018043959960934,492.2781533203125,38.05850395996094Q496.6971533203125,39.02997395996094,496.6971533203125,39.964523959960935Q496.6971533203125,40.89907395996094,492.2781533203125,41.87054395996094Q487.5461533203125,42.911023959960936,478.5781533203125,43.69974395996094Z"/></g></g></g><g transform="matrix(0.7071067690849304,-0.7071067690849304,0.7071067690849304,0.7071067690849304,-103.57278857319125,42.90125622661344)"><g><path style="mix-blend-mode:passthrough" fill-opacity="1" fill="#68FE7F" fill-rule="evenodd" d="M129.75,146.4740447998047C150.423,146.4740447998047,169.859,154.52462479980468,184.477,169.1428447998047C199.095,183.7610447998047,207.146,203.1969447998047,207.146,223.8700447998047C207.146,244.54324479980468,199.095,263.9790447998047,184.477,278.5970447998047C169.859,293.2150447998047,150.423,301.2660447998047,129.75,301.2660447998047C115.81,301.2660447998047,102.433,297.6060447998047,90.7155,290.74004479980465C90.2149,296.7850447998047,87.6183,302.4090447998047,83.2767,306.7560447998047L81.0536,308.9790447998047L46.1813,343.8520447998047L46.1573,343.8760447998047L46.1334,343.9000447998047L43.9475,346.08604479980465C39.0814,350.9450447998047,32.621,353.61904479980467,25.7517,353.61904479980467C11.5521,353.61904479980467,0.0000101465,342.0720447998047,0.0000101465,327.87904479980466C-0.0060104,321.0120447998047,2.66743,314.5440447998047,7.52783,309.6780447998047L9.74411,307.4620447998047L44.6465,272.55904479980467L46.8571,270.3490447998047C51.2065,266.0050447998047,56.8298,263.4070447998047,62.8803,262.90504479980467C56.014,251.1880447998047,52.3535,237.81014479980468,52.3535,223.8700447998047C52.3535,203.1969447998047,60.4041,183.7610447998047,75.0223,169.1428447998047C89.6405,154.52462479980468,109.076,146.4740447998047,129.75,146.4740447998047Z"/></g><g><g><path style="mix-blend-mode:passthrough" fill-opacity="1" fill="#232323" d="M25.751699046325683,343.1195871826172C25.75079904632568,343.1195871826172,25.738899046325685,343.1195871826172,25.738099046325683,343.1195871826172C17.336949046325685,343.1195871826172,10.500004999115683,336.2825871826172,10.500004999115683,327.8788871826172C10.496456596325684,323.8090871826172,12.079389046325684,319.9793871826172,14.957139046325683,317.0979871826172C14.957139046325683,317.0979871826172,54.281699046325684,277.7734671826172,54.281699046325684,277.7734671826172C57.16089904632568,274.89791718261716,60.985699046325685,273.3149871826172,65.05289904632568,273.3149871826172C73.46759904632569,273.3149871826172,80.30459904632568,280.1519371826172,80.30459904632568,288.5556871826172C80.30819904632568,292.6253871826172,78.72529904632569,296.4550871826172,75.84739904632568,299.33658718261717C75.84739904632568,299.33658718261717,36.52289904632568,338.66108718261717,36.52289904632568,338.66108718261717C33.64369904632568,341.53658718261715,29.818899046325683,343.1195871826172,25.751699046325683,343.1195871826172C25.751699046325683,343.1195871826172,25.751699046325683,343.1195871826172,25.751699046325683,343.1195871826172ZM65.06389904632567,279.1320271826172C62.538099046325684,279.1320271826172,60.17309904632568,280.1108171826172,58.393699046325686,281.8880371826172C58.393699046325686,281.8880371826172,19.071719046325683,321.2098871826172,19.071719046325683,321.2098871826172C17.293619046325684,322.9902871826172,16.314839046325684,325.3582871826172,16.317049046325685,327.8762871826172C16.317049046325685,333.0750871826172,20.544499046325683,337.3024871826172,25.740699046325684,337.3024871826172C25.740699046325684,337.3024871826172,25.751699046325683,337.3024871826172,25.751699046325683,337.3024871826172C28.266499046325684,337.3024871826172,30.631499046325683,336.32368718261716,32.41089904632568,334.54648718261717C32.41089904632568,334.54648718261717,71.73279904632568,295.2245871826172,71.73279904632568,295.2245871826172C73.51099904632568,293.4441871826172,74.48979904632569,291.07618718261716,74.48749904632568,288.5581871826172C74.48749904632568,283.35948718261716,70.26009904632568,279.1320271826172,65.06389904632567,279.1320271826172C65.06389904632567,279.1320271826172,65.06389904632567,279.1320271826172,65.06389904632567,279.1320271826172Z"/></g><g><path style="mix-blend-mode:passthrough" fill-opacity="1" fill="#232323" d="M73.789474715271,282.73857779541015C73.045124715271,282.73857779541015,72.30077471527099,282.45467779541013,71.732855715271,281.88667779541015C70.596960715271,280.75087779541013,70.596960715271,278.90927779541016,71.732855715271,277.77347779541014C71.732855715271,277.77347779541014,82.436234715271,267.07009879541016,82.436234715271,267.07009879541016C83.572034715271,265.93420379541016,85.413634715271,265.93420379541016,86.54943471527099,267.07009879541016C87.685334715271,268.20593779541014,87.685334715271,270.04749779541015,86.54943471527099,271.18332779541015C86.54943471527099,271.18332779541015,75.84608471527099,281.88667779541015,75.84608471527099,281.88667779541015C75.27817471527099,282.45467779541013,74.533824715271,282.73857779541015,73.789474715271,282.73857779541015C73.789474715271,282.73857779541015,73.789474715271,282.73857779541015,73.789474715271,282.73857779541015Z"/></g><g><path style="mix-blend-mode:passthrough" fill-opacity="1" fill="#232323" d="M71.57901743621827,302.40021904296873C70.83461743621827,302.40021904296873,70.09031743621826,302.11621904296874,69.52241743621826,301.5483190429687C69.52241743621826,301.5483190429687,52.07123843621826,284.09716904296874,52.07123843621826,284.09716904296874C50.93534343621826,282.96133904296875,50.93534343621826,281.11977904296873,52.07123843621826,279.98394004296875C53.20707743621826,278.84804504296875,55.048637436218264,278.84804504296875,56.18446743621826,279.98394004296875C56.18446743621826,279.98394004296875,73.63561743621827,297.4351190429687,73.63561743621827,297.4351190429687C74.77151743621826,298.57091904296874,74.77151743621826,300.41251904296877,73.63561743621827,301.5483190429687C73.06771743621826,302.11621904296874,72.32331743621826,302.40021904296873,71.57901743621827,302.40021904296873C71.57901743621827,302.40021904296873,71.57901743621827,302.40021904296873,71.57901743621827,302.40021904296873Z"/></g><g><path style="mix-blend-mode:passthrough" fill-opacity="1" fill="#232323" d="M36.6767394897461,337.3025017578125C35.9323394897461,337.3025017578125,35.18803948974609,337.0185017578125,34.620139489746094,336.4506017578125C34.620139489746094,336.4506017578125,17.168960489746095,318.9994517578125,17.168960489746095,318.9994517578125C16.033065489746093,317.8636217578125,16.033065489746093,316.0220617578125,17.168960489746095,314.8862227578125C18.304799489746095,313.7503277578125,20.146359489746093,313.7503277578125,21.282189489746095,314.8862227578125C21.282189489746095,314.8862227578125,38.73333948974609,332.3374017578125,38.73333948974609,332.3374017578125C39.86923948974609,333.4732017578125,39.86923948974609,335.3148017578125,38.73333948974609,336.4506017578125C38.16543948974609,337.0185017578125,37.42103948974609,337.3025017578125,36.6767394897461,337.3025017578125C36.6767394897461,337.3025017578125,36.6767394897461,337.3025017578125,36.6767394897461,337.3025017578125Z"/></g><g><path style="mix-blend-mode:passthrough" fill-opacity="1" fill="#232323" d="M129.7494269332886,156.97406005859375C147.61802693328858,156.97406005859375,164.41742693328857,163.93247005859374,177.0524269332886,176.56746005859375C189.68742693328858,189.20246005859374,196.64542693328858,206.00156005859375,196.64542693328858,223.87006005859377C196.64542693328858,241.73866005859375,189.68742693328858,258.5380600585937,177.0524269332886,271.17306005859376C164.41742693328857,283.80806005859375,147.61802693328858,290.7660600585938,129.7494269332886,290.7660600585938C111.88092693328858,290.7660600585938,95.08182693328857,283.80806005859375,82.44682693328858,271.17306005859376C69.81183693328857,258.5380600585937,62.853426933288574,241.73866005859375,62.853426933288574,223.87006005859377C62.853426933288574,206.00156005859375,69.81183693328857,189.20246005859374,82.44682693328858,176.56746005859375C95.08182693328857,163.93247005859374,111.88092693328858,156.97406005859375,129.7494269332886,156.97406005859375C129.7494269332886,156.97406005859375,129.7494269332886,156.97406005859375,129.7494269332886,156.97406005859375ZM129.7494269332886,284.9490600585938C163.42842693328856,284.9490600585938,190.82842693328857,257.54906005859374,190.82842693328857,223.87006005859377C190.82842693328857,190.19106005859373,163.42842693328856,162.79111005859374,129.7494269332886,162.79111005859374C96.07042693328857,162.79111005859374,68.67047693328857,190.19106005859373,68.67047693328857,223.87006005859377C68.67047693328857,257.54906005859374,96.07042693328857,284.9490600585938,129.7494269332886,284.9490600585938C129.7494269332886,284.9490600585938,129.7494269332886,284.9490600585938,129.7494269332886,284.9490600585938Z"/></g><g><path style="mix-blend-mode:passthrough" fill-opacity="1" fill="#232323" d="M129.74941735687256,168.60814952850342C160.22101735687255,168.60814952850342,185.01151735687256,193.39854952850342,185.01151735687256,223.87004952850342C185.01151735687256,254.3416495285034,160.22101735687255,279.1321495285034,129.74941735687256,279.1321495285034C99.27791735687256,279.1321495285034,74.48751735687256,254.3416495285034,74.48751735687256,223.87004952850342C74.48751735687256,193.39854952850342,99.27791735687256,168.60814952850342,129.74941735687256,168.60814952850342C129.74941735687256,168.60814952850342,129.74941735687256,168.60814952850342,129.74941735687256,168.60814952850342ZM129.74941735687256,273.3151495285034C157.01351735687257,273.3151495285034,179.19451735687255,251.13414952850343,179.19451735687255,223.87004952850342C179.19451735687255,196.60604952850343,157.01351735687257,174.4251995285034,129.74941735687256,174.4251995285034C102.48541735687256,174.4251995285034,80.30456735687255,196.60604952850343,80.30456735687255,223.87004952850342C80.30456735687255,251.13414952850343,102.48541735687256,273.3151495285034,129.74941735687256,273.3151495285034C129.74941735687256,273.3151495285034,129.74941735687256,273.3151495285034,129.74941735687256,273.3151495285034Z"/></g><g><path style="mix-blend-mode:passthrough" fill-opacity="1" fill="#232323" d="M89.0301315951538,226.77864281311037C87.42382159515381,226.77864281311037,86.12161159515381,225.47644281311034,86.12161159515381,223.87004281311036C86.12161159515381,212.21664281311035,90.65972159515381,201.26074281311034,98.89991159515381,193.02054281311035C107.14011159515381,184.78035281311034,118.09601159515381,180.24224281311035,129.74951159515382,180.24224281311035C131.3558115951538,180.24224281311035,132.65801159515382,181.54444281311035,132.65801159515382,183.15076281311036C132.65801159515382,184.75708281311034,131.3558115951538,186.05929281311035,129.74951159515382,186.05929281311035C119.6498115951538,186.05929281311035,110.15471159515381,189.99231281311035,103.0132115951538,197.13384281311036C95.8716815951538,204.27534281311034,91.9386615951538,213.77044281311035,91.9386615951538,223.87004281311036C91.9386615951538,225.47644281311034,90.63645159515382,226.77864281311037,89.0301315951538,226.77864281311037C89.0301315951538,226.77864281311037,89.0301315951538,226.77864281311037,89.0301315951538,226.77864281311037Z"/></g></g></g></g></svg>