<svg xmlns="http://www.w3.org/2000/svg" xmlns:xlink="http://www.w3.org/1999/xlink" fill="none" version="1.1" width="131" height="131" viewBox="0 0 131 131"><g><g><g><path d="M39.54302890625,104.82321396484375C39.71472890625,104.99491396484375,39.91752890625,105.13231396484375,40.140728906250004,105.22801396484374C40.140728906250004,105.22801396484374,53.50692890625,110.95641396484375,53.50692890625,110.95641396484375C53.74442890625,111.05921396484375,54.00052890625,111.11181396484375,54.25932890625,111.11111396484375C54.25932890625,111.11111396484375,61.89712890625,111.11111396484375,61.89712890625,111.11111396484375C62.23202890625,111.11281396484375,62.56142890625,111.02591396484375,62.85182890625,110.85901396484374C62.85182890625,110.85901396484374,75.12972890625,103.84371396484374,75.12972890625,103.84371396484374C75.12972890625,103.84371396484374,81.75552890625,108.81971396484374,81.75552890625,108.81971396484374C82.08612890625,109.06761396484376,82.48812890625,109.20161396484374,82.90122890625,109.20161396484374C82.90122890625,109.20161396484374,91.65802890625,109.20161396484374,91.65802890625,109.20161396484374C91.65802890625,109.20161396484374,96.82692890625,114.37051396484375,96.82692890625,114.37051396484375C96.82692890625,114.37051396484375,99.52692890625,111.67051396484375,99.52692890625,111.67051396484375C99.52692890625,111.67051396484375,93.79852890625,105.94211396484374,93.79852890625,105.94211396484374C93.44052890625,105.58401396484375,92.95492890625,105.38281396484375,92.44852890625,105.38271396484376C92.44852890625,105.38271396484376,83.53712890625,105.38271396484376,83.53712890625,105.38271396484376C83.53712890625,105.38271396484376,83.37672890625,105.26241396484374,83.37672890625,105.26241396484374C85.56722890625,101.88791396484375,86.72882890625,97.94901396484374,86.72012890625,93.92591396484374C86.72012890625,82.32567396484374,77.31632890625,72.92181396484375,65.71602890625,72.92181396484375C54.11582890625,72.92181396484375,44.71192890625,82.32566396484376,44.71192890625,93.92591396484374C44.71192890625,97.52281396484375,45.64562890625,101.06121396484374,47.42192890625,104.19241396484375C47.42192890625,104.19241396484375,41.98332890625,101.86351396484375,41.98332890625,101.86351396484375C41.98332890625,101.86351396484375,34.60512890625,94.48541396484376,34.60512890625,94.48541396484376C34.24712890625,94.12721396484375,33.76152890625,93.92601396484375,33.25512890625,93.92591396484374C33.25512890625,93.92591396484374,8.43212890625,93.92591396484374,8.43212890625,93.92591396484374C8.43212890625,93.92591396484374,8.43212890625,97.74481396484376,8.43212890625,97.74481396484376C8.43212890625,97.74481396484376,32.46462890625,97.74481396484376,32.46462890625,97.74481396484376C32.46462890625,97.74481396484376,39.54302890625,104.82321396484375,39.54302890625,104.82321396484375C39.54302890625,104.82321396484375,39.54302890625,104.82321396484375,39.54302890625,104.82321396484375ZM65.71602890625,103.47321396484375C60.44322890625,103.47321396484375,56.16872890625,99.19871396484375,56.16872890625,93.92591396484374C56.16872890625,88.65311396484375,60.44322890625,84.37861396484375,65.71602890625,84.37861396484375C70.98892890625001,84.37861396484375,75.26342890625,88.65311396484375,75.26342890625,93.92591396484374C75.27232890625,96.92451396484375,73.85892890625,99.74981396484375,71.45402890625,101.54081396484375C71.45402890625,101.54081396484375,70.67302890625001,101.98761396484375,70.67302890625001,101.98761396484375C70.67302890625001,101.98761396484375,69.27912890625001,102.78391396484375,69.27912890625001,102.78391396484375C68.14672890624999,103.24021396484375,66.93702890624999,103.47431396484374,65.71602890625,103.47321396484375C65.71602890625,103.47321396484375,65.71602890625,103.47321396484375,65.71602890625,103.47321396484375ZM65.71602890625,76.74072396484375C75.20282890625,76.75124396484375,82.89072890625,84.43911396484376,82.90122890625,93.92591396484374C82.90592890625,97.12161396484375,82.00632890625,100.25351396484375,80.30622890625,102.95961396484375C80.30622890625,102.95961396484375,77.22632890625,100.64911396484375,77.22632890625,100.64911396484375C80.10842890625,95.70611396484375,79.51922890625,89.47581396484375,75.76142890625,85.16081396484375C72.00372890624999,80.84568396484374,65.91352890625001,79.40586396484375,60.62132890625,81.58137396484375C55.32912890625,83.75691396484375,52.01232890625,89.06361396484375,52.37582890625,94.77401396484375C52.73922890625,100.48441396484375,56.70212890625,105.32781396484376,62.22742890625,106.81481396484375C62.22742890625,106.81481396484375,61.38922890625,107.29211396484375,61.38922890625,107.29211396484375C61.38922890625,107.29211396484375,54.98682890625,107.29211396484375,54.98682890625,107.29211396484375C50.90152890625,104.06051396484375,48.52242890625,99.13491396484375,48.53092890625,93.92591396484374C48.54142890625,84.43911396484376,56.22932890625,76.75124396484375,65.71602890625,76.74072396484375C65.71602890625,76.74072396484375,65.71602890625,76.74072396484375,65.71602890625,76.74072396484375Z" fill="#68FE7F" fill-opacity="1" style="mix-blend-mode:passthrough"/></g><g><path d="M96.82693760852814,125.68421396484375C96.82693760852814,125.68421396484375,88.34433760852814,117.20161396484374,88.34433760852814,117.20161396484374C88.34433760852814,117.20161396484374,82.90123760852813,117.20161396484374,82.90123760852813,117.20161396484374C80.77113760852814,117.20161396484374,78.65953760852814,116.49771396484374,76.95543760852814,115.21961396484375C76.95543760852814,115.21961396484375,74.53153760852814,113.39931396484374,74.53153760852814,113.39931396484374C74.53153760852814,113.39931396484374,64.94113760852814,118.86191396484375,64.94113760852814,118.86191396484375C64.94113760852814,118.86191396484375,61.933337608528134,119.10891396484375,61.933337608528134,119.10891396484375C61.933337608528134,119.10891396484375,61.907237608528135,119.11111396484375,61.907237608528135,119.11111396484375C61.907237608528135,119.11111396484375,52.602637608528134,119.11111396484375,52.602637608528134,119.11111396484375C52.602637608528134,119.11111396484375,50.329937608528134,118.29851396484375,50.329937608528134,118.29851396484375C50.329937608528134,118.29851396484375,35.57263760852814,111.97401396484375,35.57263760852814,111.97401396484375C35.57263760852814,111.97401396484375,33.885237608528136,110.47911396484375,33.885237608528136,110.47911396484375C33.885237608528136,110.47911396484375,29.15093760852814,105.74481396484376,29.15093760852814,105.74481396484376C29.15093760852814,105.74481396484376,0.4321376085281372,105.74481396484376,0.4321376085281372,105.74481396484376C0.4321376085281372,105.74481396484376,0.4321376085281372,85.92591396484374,0.4321376085281372,85.92591396484374C0.4321376085281372,85.92591396484374,33.25513760852814,85.92591396484374,33.25513760852814,85.92591396484374C34.77503760852814,85.92621396484375,36.24213760852814,86.26601396484375,37.57003760852814,86.90921396484376C40.71583760852814,74.29537396484375,52.142037608528135,64.92181396484376,65.71603760852814,64.92181396484376C81.70903760852813,64.92181396484376,94.72013760852813,77.93301396484375,94.72013760852813,93.92591396484374C94.72283760852814,95.15731396484375,94.64673760852814,96.38161396484375,94.49353760852814,97.59291396484375C96.36103760852814,97.98281396484376,98.07643760852814,98.90591396484375,99.45623760852814,100.28611396484375C99.45623760852814,100.28611396484375,110.84113760852814,111.67061396484375,110.84113760852814,111.67061396484375C110.84113760852814,111.67061396484375,96.82693760852814,125.68421396484375,96.82693760852814,125.68421396484375C96.82693760852814,125.68421396484375,96.82693760852814,125.68421396484375,96.82693760852814,125.68421396484375Z" fill="#68FE7F" fill-opacity="1" style="mix-blend-mode:passthrough"/></g><g><path d="M121.09051799926758,13.728393814697267C121.09051799926758,13.728393814697267,70.06581799926758,13.728393814697267,70.06581799926758,13.728393814697267C70.44771799926758,12.699193814697265,70.85441799926758,11.677633814697266,71.28981799926757,10.661793814697266C71.54271799926758,10.071873814697266,71.48221799926758,9.394353814697265,71.12901799926757,8.858484814697265C70.77571799926758,8.322609814697266,70.17681799926757,8.000075160197266,69.53501799926758,8.000004111492265C69.53501799926758,8.000004111492265,58.07821799926758,8.000004111492265,58.07821799926758,8.000004111492265C57.22551799926758,7.999531088697266,56.47580799926758,8.564516814697265,56.24129799926758,9.384363814697267C55.83076799926758,10.820283814697266,55.51188799926758,12.271473814697266,55.233107999267574,13.728393814697267C55.233107999267574,13.728393814697267,48.53088799926758,13.728393814697267,48.53088799926758,13.728393814697267C47.47631799926758,13.728393814697267,46.62141799926758,14.583293814697265,46.62141799926758,15.637863814697265C46.62141799926758,15.637863814697265,46.62141799926758,23.275703814697266,46.62141799926758,23.275703814697266C46.62141799926758,24.330303814697267,47.47631799926758,25.185203814697264,48.53088799926758,25.185203814697264C48.53088799926758,25.185203814697264,54.394847999267576,25.185203814697264,54.394847999267576,25.185203814697264C54.56034799926758,29.239203814697266,55.22017799926758,33.25780381469727,56.35968799926758,37.15180381469727C56.35968799926758,37.15180381469727,61.985017999267576,56.27510381469727,61.985017999267576,56.27510381469727C62.26531799926758,57.16880381469726,63.15261799926758,57.72720381469727,64.07961799926758,57.59340381469727C65.00671799926758,57.45960381469727,65.69981799926758,56.673103814697264,65.71601799926758,55.73660381469727C65.71601799926758,55.73660381469727,65.71601799926758,37.81820381469727,65.71601799926758,37.81820381469727C65.72021799926758,33.57990381469726,66.11521799926757,29.350903814697265,66.89611799926757,25.185203814697264C66.89611799926757,25.185203814697264,121.09051799926758,25.185203814697264,121.09051799926758,25.185203814697264C122.14511799926758,25.185203814697264,123.00001799926758,24.330303814697267,123.00001799926758,23.275703814697266C123.00001799926758,23.275703814697266,123.00001799926758,15.637863814697265,123.00001799926758,15.637863814697265C123.00001799926758,14.583293814697265,122.14511799926758,13.728393814697267,121.09051799926758,13.728393814697267C121.09051799926758,13.728393814697267,121.09051799926758,13.728393814697267,121.09051799926758,13.728393814697267ZM50.44034799926758,17.547323814697265C50.44034799926758,17.547323814697265,54.65835799926758,17.547323814697265,54.65835799926758,17.547323814697265C54.515147999267576,18.817103814697266,54.42539799926758,20.090703814697264,54.38147799926758,21.366303814697268C54.38147799926758,21.366303814697268,50.44034799926758,21.366303814697268,50.44034799926758,21.366303814697268C50.44034799926758,21.366303814697268,50.44034799926758,17.547323814697265,50.44034799926758,17.547323814697265C50.44034799926758,17.547323814697265,50.44034799926758,17.547323814697265,50.44034799926758,17.547323814697265ZM61.89711799926758,37.81820381469727C61.89711799926758,37.81820381469727,61.89711799926758,42.479203814697264,61.89711799926758,42.479203814697264C61.89711799926758,42.479203814697264,60.01251799926758,36.069103814697264,60.01251799926758,36.069103814697264C57.68761799926758,28.173603814697266,57.525417999267574,19.798603814697266,59.54281799926758,11.818913814697265C59.54281799926758,11.818913814697265,66.70131799926757,11.818933814697266,66.70131799926757,11.818933814697266C63.51521799926758,20.116303814697268,61.88651799926758,28.930103814697265,61.89711799926758,37.81820381469727C61.89711799926758,37.81820381469727,61.89711799926758,37.81820381469727,61.89711799926758,37.81820381469727ZM119.18111799926758,21.366303814697268C119.18111799926758,21.366303814697268,67.71721799926758,21.366303814697268,67.71721799926758,21.366303814697268C68.03221799926757,20.085003814697266,68.37591799926759,18.811403814697265,68.76741799926758,17.547323814697265C68.76741799926758,17.547323814697265,119.18111799926758,17.547323814697265,119.18111799926758,17.547323814697265C119.18111799926758,17.547323814697265,119.18111799926758,21.366303814697268,119.18111799926758,21.366303814697268C119.18111799926758,21.366303814697268,119.18111799926758,21.366303814697268,119.18111799926758,21.366303814697268Z" fill="#68FE7F" fill-opacity="1" style="mix-blend-mode:passthrough"/></g><g><path d="M58.07702181396485,0C58.07702181396485,0,58.077121813964844,0,58.077121813964844,0C58.07742181396485,0,58.07742181396485,0,58.07772181396484,0C58.07772181396484,0,69.53502181396485,0,69.53502181396485,0C72.61432181396484,0.000354767,75.48192181396485,1.41449,77.35212181396484,3.81896C77.35212181396484,3.81896,78.34292181396484,3.81897,78.34292181396484,3.81897C78.34292181396484,3.81897,77.98912181396484,4.74009,77.98912181396484,4.74009C78.18592181396485,5.06151,78.36292181396485,5.3914,78.52012181396483,5.7284C78.52012181396483,5.7284,121.09052181396484,5.7284,121.09052181396484,5.7284C126.55462181396484,5.7284,131.00002181396485,10.1738,131.00002181396485,15.6379C131.00002181396485,15.6379,131.00002181396485,23.2757,131.00002181396485,23.2757C131.00002181396485,28.7398,126.55462181396484,33.1852,121.09052181396484,33.1852C121.09052181396484,33.1852,73.89822181396485,33.1852,73.89822181396485,33.1852C73.77852181396484,34.7306,73.71752181396485,36.2801,73.71602181396484,37.826C73.71602181396484,37.826,73.71602181396484,55.7366,73.71602181396484,55.7366C73.63022181396485,60.7608,70.05862181396485,64.8135,65.22232181396484,65.5114C65.22232181396484,65.5114,64.65392181396484,65.5934,64.65392181396484,65.5934C64.65392181396484,65.5934,63.805521813964845,65.6131,63.805521813964845,65.6131C59.453821813964844,65.6131,55.654621813964845,62.8228,54.35172181396484,58.6697C54.35172181396484,58.6697,48.684821813964845,39.4094,48.684821813964845,39.4094C48.077171813964846,37.3328,47.586771813964845,35.2252,47.21548181396484,33.0982C42.370931813964845,32.4529,38.621421813964844,28.2939,38.621421813964844,23.2757C38.621421813964844,23.2757,38.621421813964844,15.6379,38.621421813964844,15.6379C38.621421813964844,10.1738,43.066781813964845,5.7284,48.53087181396484,5.7284C48.53087181396484,5.7284,49.09442181396484,5.7284,49.09442181396484,5.7284C50.70122181396484,2.29127,54.202121813964844,0,58.07702181396485,0C58.07702181396485,0,58.07702181396485,0,58.07702181396485,0Z" fill="#68FE7F" fill-opacity="1" style="mix-blend-mode:passthrough"/></g><g><path d="M115.32412890625,87.81557932128906C115.14212890625,86.92647932128907,114.36012890625,86.28787932128907,113.45312890625,86.28807932128906C113.45312890625,86.28807932128906,105.81482890625,86.28807932128906,105.81482890625,86.28807932128906C105.81482890625,86.28807932128906,105.81482890625,76.74067932128906,105.81482890625,76.74067932128906C105.81882890625,76.01357932128906,105.40932890625,75.34727932128907,104.75892890625,75.02217932128906C104.75892890625,75.02217932128906,94.00862890625,69.64897932128906,94.00862890625,69.64897932128906C94.00862890625,69.64897932128906,92.34922890625,64.67099932128906,92.34922890625,64.67099932128906C92.08632890625,63.895339321289065,91.35812890625,63.37372932128906,90.53912890625,63.374479321289066C90.53912890625,63.374479321289066,81.19992890625,63.374479321289066,81.19992890625,63.374479321289066C81.19992890625,63.374479321289066,64.22092890625001,59.60137472128906,64.22092890625001,59.60137472128906C63.45132890625,59.43010632128906,62.65562890625,59.749465321289065,62.21792890625,60.40526132128906C62.21792890625,60.40526132128906,58.96612890625,65.28393932128907,58.96612890625,65.28393932128907C58.96612890625,65.28393932128907,50.44032890625,65.28393932128907,50.44032890625,65.28393932128907C49.71662890625,65.28360932128906,49.05492890625,65.69247932128906,48.73132890625,66.33987932128906C48.73132890625,66.33987932128906,45.56552890625,72.67357932128907,45.56552890625,72.67357932128907C45.56552890625,72.67357932128907,37.45602890625,71.05047932128906,37.45602890625,71.05047932128906C36.83202890625,70.92517932128906,36.18662890625,71.12087932128907,35.73742890625,71.57177932128906C35.73742890625,71.57177932128906,30.55522890625,76.74067932128906,30.55522890625,76.74067932128906C30.55522890625,76.74067932128906,26.14622890625,76.74067932128906,26.14622890625,76.74067932128906C26.14622890625,76.74067932128906,17.05335890625,71.28537932128906,17.05335890625,71.28537932128906C16.756418906249998,71.10687932128906,16.41647890625,71.01247932128906,16.06998890625,71.01237932128906C16.06998890625,71.01237932128906,8.43212890625,71.01237932128906,8.43212890625,71.01237932128906C8.43212890625,71.01237932128906,8.43212890625,74.83127932128906,8.43212890625,74.83127932128906C8.43212890625,74.83127932128906,15.54106890625,74.83127932128906,15.54106890625,74.83127932128906C15.54106890625,74.83127932128906,24.63392890625,80.28657932128905,24.63392890625,80.28657932128905C24.93092890625,80.46517932128907,25.27082890625,80.55957932128906,25.61732890625,80.55967932128907C25.61732890625,80.55967932128907,30.77282890625,80.55967932128907,30.77282890625,80.55967932128907C30.77282890625,80.55967932128907,35.16462890625,83.49067932128906,35.16462890625,83.49067932128906C35.16462890625,83.49067932128906,35.16462890625,90.10697932128906,35.16462890625,90.10697932128906C35.16462890625,90.10697932128906,38.98352890625,90.10697932128906,38.98352890625,90.10697932128906C38.98352890625,90.10697932128906,38.98352890625,82.46907932128906,38.98352890625,82.46907932128906C38.98352890625,81.83057932128906,38.66462890625,81.23447932128906,38.133628906249996,80.88027932128907C38.133628906249996,80.88027932128907,34.34352890625,78.35417932128907,34.34352890625,78.35417932128907C34.34352890625,78.35417932128907,37.70232890625,74.99357932128906,37.70232890625,74.99357932128906C37.70232890625,74.99357932128906,46.24712890625,76.70257932128906,46.24712890625,76.70257932128906C47.09162890625,76.87197932128906,47.94502890625,76.45507932128906,48.33042890625,75.68477932128906C48.33042890625,75.68477932128906,51.62042890625,69.10286932128906,51.62042890625,69.10286932128906C51.62042890625,69.10286932128906,59.98762890625,69.10286932128906,59.98762890625,69.10286932128906C60.62622890625,69.10286932128906,61.22232890625,68.78393932128907,61.57652890625,68.25291932128906C61.57652890625,68.25291932128906,64.66972890625,63.61315932128906,64.66972890625,63.61315932128906C64.66972890625,63.61315932128906,80.57742890625,67.14757932128906,80.57742890625,67.14757932128906C80.71342890625,67.17812932128906,80.85242890625,67.19348932128906,80.99172890625,67.19340932128907C80.99172890625,67.19340932128907,89.16232890625,67.19340932128907,89.16232890625,67.19340932128907C89.16232890625,67.19340932128907,90.63842890625,71.61577932128907,90.63842890625,71.61577932128907C90.79752890625,72.09617932128906,91.14092890625,72.49387932128906,91.59312890625,72.72127932128906C91.59312890625,72.72127932128906,101.99592890625,77.92077932128906,101.99592890625,77.92077932128906C101.99592890625,77.92077932128906,101.99592890625,86.28807932128906,101.99592890625,86.28807932128906C101.99592890625,86.28807932128906,92.44852890625,86.28807932128906,92.44852890625,86.28807932128906C92.44852890625,86.28807932128906,92.44852890625,90.10697932128906,92.44852890625,90.10697932128906C92.44852890625,90.10697932128906,111.88912890625,90.10697932128906,111.88912890625,90.10697932128906C111.88912890625,90.10697932128906,113.49112890625,98.12677932128906,113.49112890625,98.12677932128906C113.67212890625,99.01587932128906,114.45512890625,99.65447932128906,115.36212890625,99.65427932128907C115.36212890625,99.65427932128907,123.00012890625,99.65427932128907,123.00012890625,99.65427932128907C123.00012890625,99.65427932128907,123.00012890625,95.83537932128905,123.00012890625,95.83537932128905C123.00012890625,95.83537932128905,116.92612890625,95.83537932128905,116.92612890625,95.83537932128905C116.92612890625,95.83537932128905,115.32412890625,87.81557932128906,115.32412890625,87.81557932128906C115.32412890625,87.81557932128906,115.32412890625,87.81557932128906,115.32412890625,87.81557932128906Z" fill="#68FE7F" fill-opacity="1" style="mix-blend-mode:passthrough"/></g><g><path d="M115.36012854862213,107.6542755065918C110.67312854862213,107.6543755065918,106.59012854862213,104.3206755065918,105.65212854862213,99.7268755065918C105.65212854862213,99.7268755065918,105.32912854862214,98.1069755065918,105.32912854862214,98.1069755065918C105.32912854862214,98.1069755065918,84.44852854862214,98.1069755065918,84.44852854862214,98.1069755065918C84.44852854862214,98.1069755065918,84.44852854862214,78.2880755065918,84.44852854862214,78.2880755065918C84.44852854862214,78.2880755065918,85.71552854862213,78.2880755065918,85.71552854862213,78.2880755065918C84.77162854862213,77.4169755065918,84.00842854862213,76.3702755065918,83.46392854862214,75.19337550659179C83.46392854862214,75.19337550659179,80.10442854862214,75.19337550659179,80.10442854862214,75.19337550659179C80.10442854862214,75.19337550659179,78.82432854862213,74.9531755065918,78.82432854862213,74.9531755065918C78.82432854862213,74.9531755065918,68.28552854862212,72.6115755065918,68.28552854862212,72.6115755065918C68.28552854862212,72.6115755065918,68.23292854862213,72.6904755065918,68.23292854862213,72.6904755065918C66.38972854862213,75.4539755065918,63.30772854862213,77.1028755065918,59.98762854862213,77.1028755065918C59.98762854862213,77.1028755065918,56.565328548622134,77.1028755065918,56.565328548622134,77.1028755065918C56.565328548622134,77.1028755065918,55.48622854862213,79.2616755065918,55.48622854862213,79.2616755065918C53.84892854862213,82.5339755065918,50.61422854862213,84.6047755065918,46.98352854862213,84.73357550659179C46.98352854862213,84.73357550659179,46.98352854862213,98.1069755065918,46.98352854862213,98.1069755065918C46.98352854862213,98.1069755065918,27.164628548622133,98.1069755065918,27.164628548622133,98.1069755065918C27.164628548622133,98.1069755065918,27.164628548622133,88.55967550659179,27.164628548622133,88.55967550659179C27.164628548622133,88.55967550659179,25.61732854862213,88.55967550659179,25.61732854862213,88.55967550659179C23.81682854862213,88.5590755065918,22.052128548622132,88.06907550659179,20.51142854862213,87.1425755065918C20.51142854862213,87.1425755065918,13.325328548622132,82.8312755065918,13.325328548622132,82.8312755065918C13.325328548622132,82.8312755065918,0.43212854862213135,82.8312755065918,0.43212854862213135,82.8312755065918C0.43212854862213135,82.8312755065918,0.43212854862213135,63.012375506591795,0.43212854862213135,63.012375506591795C0.43212854862213135,63.012375506591795,16.070028548622133,63.012375506591795,16.070028548622133,63.012375506591795C17.870628548622133,63.0128755065918,19.63542854862213,63.502975506591795,21.17622854862213,64.42967550659179C21.17622854862213,64.42967550659179,27.666128548622133,68.3232755065918,27.666128548622133,68.3232755065918C27.666128548622133,68.3232755065918,30.08792854862213,65.9076755065918,30.08792854862213,65.9076755065918C31.91372854862213,64.0748755065918,34.46962854862213,63.013275506591796,37.08212854862213,63.013275506591796C37.08212854862213,63.013275506591796,37.877828548622134,63.013275506591796,37.877828548622134,63.013275506591796C37.877828548622134,63.013275506591796,39.031728548622134,63.2072755065918,39.031728548622134,63.2072755065918C39.031728548622134,63.2072755065918,41.14232854862213,63.629675506591795,41.14232854862213,63.629675506591795C41.14232854862213,63.629675506591795,41.57552854862213,62.7630755065918,41.57552854862213,62.7630755065918C43.26412854862213,59.3837655065918,46.66072854862213,57.2839455065918,50.43942854862213,57.2839455065918C50.43942854862213,57.2839455065918,54.684128548622134,57.2839455065918,54.684128548622134,57.2839455065918C54.684128548622134,57.2839455065918,55.56112854862213,55.9682655065918,55.56112854862213,55.9682655065918C57.40612854862213,53.203745506591794,60.48732854862213,51.5556755065918,63.805928548622134,51.5556755065918C63.805928548622134,51.5556755065918,64.68542854862213,51.5556755065918,64.68542854862213,51.5556755065918C64.68542854862213,51.5556755065918,65.95882854862214,51.7924255065918,65.95882854862214,51.7924255065918C65.95882854862214,51.7924255065918,82.07812854862213,55.3744755065918,82.07812854862213,55.3744755065918C82.07812854862213,55.3744755065918,90.53912854862213,55.3744755065918,90.53912854862213,55.3744755065918C94.78952854862213,55.3744755065918,98.56172854862213,58.0784255065918,99.92592854862212,62.1028755065918C99.92592854862212,62.1028755065918,100.55012854862213,63.9747755065918,100.55012854862213,63.9747755065918C100.55012854862213,63.9747755065918,108.33512854862214,67.86627550659179,108.33512854862214,67.86627550659179C111.73612854862213,69.5652755065918,113.83512854862214,72.98267550659179,113.81512854862213,76.7844755065918C113.81512854862213,76.7844755065918,113.81512854862213,78.2946755065918,113.81512854862213,78.2946755065918C118.34912854862213,78.4601755065918,122.24912854862212,81.7397755065918,123.16212854862214,86.2156755065918C123.16212854862214,86.2156755065918,123.48612854862213,87.83537550659179,123.48612854862213,87.83537550659179C123.48612854862213,87.83537550659179,131.00012854862214,87.83537550659179,131.00012854862214,87.83537550659179C131.00012854862214,87.83537550659179,131.00012854862214,107.6542755065918,131.00012854862214,107.6542755065918C131.00012854862214,107.6542755065918,115.36212854862214,107.6542755065918,115.36212854862214,107.6542755065918C115.36112854862213,107.6542755065918,115.36112854862213,107.6542755065918,115.36012854862213,107.6542755065918C115.36012854862213,107.6542755065918,115.36012854862213,107.6542755065918,115.36012854862213,107.6542755065918Z" fill="#68FE7F" fill-opacity="1" style="mix-blend-mode:passthrough"/></g><g><path d="M29.436229859924318,65.28392059631348C41.036529859924315,65.28392059631348,50.44032985992432,55.880120596313475,50.44032985992432,44.27982059631348C50.44032985992432,32.67958059631348,41.036529859924315,23.275720596313477,29.436229859924318,23.275720596313477C17.835989859924318,23.275720596313477,8.432129859924316,32.67958059631348,8.432129859924316,44.27982059631348C8.445812959924316,55.87442059631348,17.841669859924316,65.27022059631348,29.436229859924318,65.28392059631348C29.436229859924318,65.28392059631348,29.436229859924318,65.28392059631348,29.436229859924318,65.28392059631348ZM29.436229859924318,27.09465059631348C38.92732985992431,27.09465059631348,46.62142985992432,34.788720596313475,46.62142985992432,44.27982059631348C46.62142985992432,53.77092059631347,38.92732985992431,61.46502059631348,29.436229859924318,61.46502059631348C19.945129859924315,61.46502059631348,12.251059859924316,53.77092059631347,12.251059859924316,44.27982059631348C12.261579859924316,34.79312059631348,19.94952985992432,27.105170596313478,29.436229859924318,27.09465059631348C29.436229859924318,27.09465059631348,29.436229859924318,27.09465059631348,29.436229859924318,27.09465059631348Z" fill="#68FE7F" fill-opacity="1" style="mix-blend-mode:passthrough"/></g><g><path d="M29.436231201028825,73.28392250366211C29.436231201028825,73.28392250366211,29.426831201028826,73.28392250366211,29.426831201028826,73.28392250366211C13.457931201028824,73.26512250366211,0.45097100102882387,60.25812250366211,0.43213120102882385,44.28922250366211C0.43213120102882385,28.28692250366211,13.443331201028824,15.27572250366211,29.436231201028825,15.27572250366211C45.429131201028824,15.27572250366211,58.440331201028826,28.28692250366211,58.440331201028826,44.27982250366211C58.440331201028826,60.27272250366211,45.429131201028824,73.28392250366211,29.436231201028825,73.28392250366211C29.436231201028825,73.28392250366211,29.436231201028825,73.28392250366211,29.436231201028825,73.28392250366211ZM29.443231201028823,35.09462250366211C24.380131201028824,35.101222503662115,20.256631201028824,39.22532250366211,20.251031201028823,44.288722503662115C20.251031201028823,49.34452250366211,24.371531201028823,53.46502250366211,29.436231201028825,53.46502250366211C34.50093120102883,53.46502250366211,38.62143120102883,49.34452250366211,38.62143120102883,44.27982250366211C38.62143120102883,39.21762250366211,34.504531201028826,35.09872250366211,29.443231201028823,35.09462250366211C29.443231201028823,35.09462250366211,29.443231201028823,35.09462250366211,29.443231201028823,35.09462250366211Z" fill="#68FE7F" fill-opacity="1" style="mix-blend-mode:passthrough"/></g><g><path d="M29.43628634338379,57.6460799407959C36.818186343383786,57.6460799407959,42.80248634338379,51.661779940795896,42.80248634338379,44.2798799407959C42.80248634338379,36.8978599407959,36.818186343383786,30.913578033445898,29.43618634338379,30.913579940796357C22.05425634338379,30.913579940796357,16.06998443603379,36.8978599407959,16.069986343384244,44.2798799407959C16.07840728338379,51.6582799407959,22.05775634338379,57.6376799407959,29.43628634338379,57.6460799407959C29.43628634338379,57.6460799407959,29.43628634338379,57.6460799407959,29.43628634338379,57.6460799407959ZM29.43628634338379,34.7325099407959C34.70908634338379,34.7325099407959,38.98358634338379,39.0069999407959,38.98358634338379,44.2798799407959C38.98358634338379,49.5526799407959,34.70908634338379,53.8271799407959,29.43628634338379,53.8271799407959C24.163396343383788,53.8271799407959,19.88891634338379,49.5526799407959,19.88891634338379,44.2798799407959C19.89522634338379,39.0096099407959,24.166016343383788,34.738829940795895,29.43628634338379,34.7325099407959C29.43628634338379,34.7325099407959,29.43628634338379,34.7325099407959,29.43628634338379,34.7325099407959Z" fill="#68FE7F" fill-opacity="1" style="mix-blend-mode:passthrough"/></g><g><path d="M29.42708825073242,65.6460856628418C17.66417825073242,65.6326856628418,8.083423450732422,56.0518856628418,8.069988250732422,44.288985662841796C8.069988250732422,32.498445662841796,17.65484825073242,22.913585662885993,29.43618825073242,22.913585662885993C35.14338825073242,22.9135742188418,40.50888825073242,25.136055662841798,44.54448825073242,29.1716056628418C48.57998825073242,33.207185662841795,50.802488250732424,38.5726856628418,50.802488250732424,44.279785662841796C50.802488250732424,56.061185662841794,41.21758825073242,65.6460856628418,29.43618825073242,65.6460856628418C29.43618825073242,65.6460856628418,29.42708825073242,65.6460856628418,29.42708825073242,65.6460856628418C29.42708825073242,65.6460856628418,29.42708825073242,65.6460856628418,29.42708825073242,65.6460856628418ZM29.43618825073242,45.8271856628418C30.289388250732422,45.8271856628418,28.583088250732423,45.8271856628418,29.43618825073242,45.8271856628418C29.43618825073242,45.8271856628418,29.43618825073242,45.8271856628418,29.43618825073242,45.8271856628418Z" fill="#68FE7F" fill-opacity="1" style="mix-blend-mode:passthrough"/></g><g><rect x="8" y="119" width="4" height="4" rx="0" fill="#68FE7F" fill-opacity="1" style="mix-blend-mode:passthrough"/></g><g><path d="M0,111C0,111,20,111,20,111C20,111,20,131,20,131C20,131,0,131,0,131C0,131,0,111,0,111C0,111,0,111,0,111Z" fill="#68FE7F" fill-opacity="1" style="mix-blend-mode:passthrough"/></g><g><rect x="16" y="115" width="4" height="4" rx="0" fill="#68FE7F" fill-opacity="1" style="mix-blend-mode:passthrough"/></g><g><path d="M7.999999523162842,107C7.999999523162842,107,27.999999523162842,107,27.999999523162842,107C27.999999523162842,107,27.999999523162842,127,27.999999523162842,127C27.999999523162842,127,7.999999523162842,127,7.999999523162842,127C7.999999523162842,127,7.999999523162842,107,7.999999523162842,107C7.999999523162842,107,7.999999523162842,107,7.999999523162842,107Z" fill="#68FE7F" fill-opacity="1" style="mix-blend-mode:passthrough"/></g><g><rect x="29" y="103" width="4" height="4" rx="0" fill="#68FE7F" fill-opacity="1" style="mix-blend-mode:passthrough"/></g><g><path d="M21,95C21,95,41,95,41,95C41,95,41,115,41,115C41,115,21,115,21,115C21,115,21,95,21,95C21,95,21,95,21,95Z" fill="#68FE7F" fill-opacity="1" style="mix-blend-mode:passthrough"/></g><g><rect x="102" y="119" width="4" height="4" rx="0" fill="#68FE7F" fill-opacity="1" style="mix-blend-mode:passthrough"/></g><g><path d="M94,111C94,111,114,111,114,111C114,111,114,131,114,131C114,131,94,131,94,131C94,131,94,111,94,111C94,111,94,111,94,111Z" fill="#68FE7F" fill-opacity="1" style="mix-blend-mode:passthrough"/></g><g><rect x="110" y="113" width="3" height="4" rx="0" fill="#68FE7F" fill-opacity="1" style="mix-blend-mode:passthrough"/></g><g><path d="M102,105C102,105,121,105,121,105C121,105,121,125,121,125C121,125,102,125,102,125C102,125,102,105,102,105C102,105,102,105,102,105Z" fill="#68FE7F" fill-opacity="1" style="mix-blend-mode:passthrough"/></g><g><rect x="119" y="107" width="4" height="4" rx="0" fill="#68FE7F" fill-opacity="1" style="mix-blend-mode:passthrough"/></g><g><path d="M111,99C111,99,131,99,131,99C131,99,131,119,131,119C131,119,111,119,111,119C111,119,111,99,111,99C111,99,111,99,111,99Z" fill="#68FE7F" fill-opacity="1" style="mix-blend-mode:passthrough"/></g><g><path d="M111.08111775634765,67.13609654541015C111.23222775634765,67.17399654541016,111.38741775634766,67.19319654541016,111.54320775634766,67.19339654541015C111.92026775634766,67.19269654541016,112.28878775634766,67.08109654541016,112.60298775634766,66.87259654541016C112.60298775634766,66.87259654541016,118.33138775634765,63.053696545410155,118.33138775634765,63.053696545410155C118.80708775634766,62.73619654541015,119.11548775634765,62.222196545410156,119.17178775634765,61.65302654541016C119.22798775634766,61.08383654541016,119.02608775634766,60.51941654541015,118.62158775634765,60.11502654541016C118.62158775634765,60.11502654541016,110.98373775634765,52.47716654541016,110.98373775634765,52.47716654541016C110.47262775634766,51.96571084541016,109.71645775634765,51.78683154541016,109.03035775634766,52.015073045410155C109.03035775634766,52.015073045410155,103.30196775634765,53.924536545410156,103.30196775634765,53.924536545410156C102.52186575634765,54.18436654541016,101.99568944834766,54.91438654541015,101.99588781241465,55.73661654541016C101.99588781241465,55.73661654541016,101.99588781241465,63.37449654541015,101.99588781241465,63.37449654541015C101.99611669434766,64.25089654541016,102.59291875634766,65.01459654541016,103.44325775634766,65.22669654541016C103.44325775634766,65.22669654541016,111.08111775634765,67.13609654541015,111.08111775634765,67.13609654541015C111.08111775634765,67.13609654541015,111.08111775634765,67.13609654541015,111.08111775634765,67.13609654541015ZM105.81480775634766,57.11334654541015C105.81480775634766,57.11334654541015,109.11627775634766,56.011586545410154,109.11627775634766,56.011586545410154C109.11627775634766,56.011586545410154,114.27178775634766,61.16713654541016,114.27178775634766,61.16713654541016C114.27178775634766,61.16713654541016,111.18231775634766,63.22359654541016,111.18231775634766,63.22359654541016C111.18231775634766,63.22359654541016,105.81480775634766,61.883186545410155,105.81480775634766,61.883186545410155C105.81480775634766,61.883186545410155,105.81480775634766,57.11334654541015,105.81480775634766,57.11334654541015C105.81480775634766,57.11334654541015,105.81480775634766,57.11334654541015,105.81480775634766,57.11334654541015Z" fill="#68FE7F" fill-opacity="1" style="mix-blend-mode:passthrough"/></g><g><path d="M111.54619538574218,75.19339654541015C111.54619538574218,75.19339654541015,110.55169538574219,75.19229654541016,110.55169538574219,75.19229654541016C110.55169538574219,75.19229654541016,109.13669538574219,74.89619654541016,109.13669538574219,74.89619654541016C109.13669538574219,74.89619654541016,101.50296538574219,72.98779654541016,101.50296538574219,72.98779654541016C97.08586538574218,71.88609654541015,93.99705153574219,67.93339654541015,93.99589568644518,63.376496545410156C93.99589568644518,63.376496545410156,93.99589568644518,55.73659654541016,93.99589568644518,55.73659654541016C93.99485045574218,51.46432654541016,96.71876538574219,47.68510654541016,100.77399538574218,46.33446654541016C100.77399538574218,46.33446654541016,107.73209538574218,44.015073745410156,107.73209538574218,44.015073745410156C107.73209538574218,44.015073745410156,109.63289538574219,43.917396545410156,109.63289538574219,43.917396545410156C112.2811953857422,43.917396545410156,114.77059538574218,44.94901654541015,116.6424953857422,46.82221654541016C116.6424953857422,46.82221654541016,124.27849538574219,54.45819654541016,124.27849538574219,54.45819654541016C126.38519538574218,56.564596545410154,127.42579538574219,59.47369654541016,127.1330953857422,62.43909654541015C126.84009538574219,65.40489654541015,125.25049538574218,68.05419654541015,122.7717953857422,69.70819654541016C122.7717953857422,69.70819654541016,117.0405953857422,73.52899654541015,117.0405953857422,73.52899654541015C115.4010953857422,74.61729654541016,113.50999538574219,75.18969654541016,111.55829538574218,75.19339654541015C111.55829538574218,75.19339654541015,111.54619538574218,75.19339654541015,111.54619538574218,75.19339654541015C111.54619538574218,75.19339654541015,111.54619538574218,75.19339654541015,111.54619538574218,75.19339654541015Z" fill="#68FE7F" fill-opacity="1" style="mix-blend-mode:passthrough"/></g><g><rect x="70" y="39.000003814697266" width="3" height="9" rx="0" fill="#68FE7F" fill-opacity="1" style="mix-blend-mode:passthrough"/></g><g><path d="M62,31.000003814697266C62,31.000003814697266,81,31.000003814697266,81,31.000003814697266C81,31.000003814697266,81,56.000003814697266,81,56.000003814697266C81,56.000003814697266,62,56.000003814697266,62,56.000003814697266C62,56.000003814697266,62,31.000003814697266,62,31.000003814697266C62,31.000003814697266,62,31.000003814697266,62,31.000003814697266Z" fill="#68FE7F" fill-opacity="1" style="mix-blend-mode:passthrough"/></g><g><rect x="81" y="56.000003814697266" width="10" height="4" rx="0" fill="#68FE7F" fill-opacity="1" style="mix-blend-mode:passthrough"/></g><g><path d="M73,48.000003814697266C73,48.000003814697266,99,48.000003814697266,99,48.000003814697266C99,48.000003814697266,99,68.00000381469727,99,68.00000381469727C99,68.00000381469727,73,68.00000381469727,73,68.00000381469727C73,68.00000381469727,73,48.000003814697266,73,48.000003814697266C73,48.000003814697266,73,48.000003814697266,73,48.000003814697266Z" fill="#68FE7F" fill-opacity="1" style="mix-blend-mode:passthrough"/></g><g transform="matrix(0.7071099877357483,-0.7071099877357483,0.7071099877357483,0.7071099877357483,-11.638970984369962,69.21669287434793)"><rect x="77.7325439453125" y="48.657291412353516" width="10.801840782165527" height="3.8189289569854736" rx="0" fill="#68FE7F" fill-opacity="1" style="mix-blend-mode:passthrough"/></g><g transform="matrix(0.7071099877357483,-0.7071099877357483,0.7071099877357483,0.7071099877357483,-14.95265795272985,61.21662099261016)"><path d="M66.41878509521484,48.657291412353516C66.41878509521484,48.657291412353516,93.22058509521484,48.657291412353516,93.22058509521484,48.657291412353516C93.22058509521484,48.657291412353516,93.22058509521484,68.47619141235351,93.22058509521484,68.47619141235351C93.22058509521484,68.47619141235351,66.41878509521484,68.47619141235351,66.41878509521484,68.47619141235351C66.41878509521484,68.47619141235351,66.41878509521484,48.657291412353516,66.41878509521484,48.657291412353516C66.41878509521484,48.657291412353516,66.41878509521484,48.657291412353516,66.41878509521484,48.657291412353516Z" fill="#68FE7F" fill-opacity="1" style="mix-blend-mode:passthrough"/></g><g><rect x="8" y="18.000003814697266" width="4" height="3" rx="0" fill="#68FE7F" fill-opacity="1" style="mix-blend-mode:passthrough"/></g><g><path d="M0,10.000003814697266C0,10.000003814697266,20,10.000003814697266,20,10.000003814697266C20,10.000003814697266,20,29.000003814697266,20,29.000003814697266C20,29.000003814697266,0,29.000003814697266,0,29.000003814697266C0,29.000003814697266,0,10.000003814697266,0,10.000003814697266C0,10.000003814697266,0,10.000003814697266,0,10.000003814697266Z" fill="#68FE7F" fill-opacity="1" style="mix-blend-mode:passthrough"/></g><g><rect x="8" y="8.000003814697266" width="4" height="4" rx="0" fill="#68FE7F" fill-opacity="1" style="mix-blend-mode:passthrough"/></g><g><path d="M0,0.0000036954879760742188C0,0.0000036954879760742188,20,0.0000036954879760742188,20,0.0000036954879760742188C20,0.0000036954879760742188,20,20.000003695487976,20,20.000003695487976C20,20.000003695487976,0,20.000003695487976,0,20.000003695487976C0,20.000003695487976,0,0.0000036954879760742188,0,0.0000036954879760742188C0,0.0000036954879760742188,0,0.0000036954879760742188,0,0.0000036954879760742188Z" fill="#68FE7F" fill-opacity="1" style="mix-blend-mode:passthrough"/></g><g><rect x="18" y="12.000003814697266" width="4" height="4" rx="0" fill="#68FE7F" fill-opacity="1" style="mix-blend-mode:passthrough"/></g><g><path d="M10,4.000003814697266C10,4.000003814697266,30,4.000003814697266,30,4.000003814697266C30,4.000003814697266,30,24.000003814697266,30,24.000003814697266C30,24.000003814697266,10,24.000003814697266,10,24.000003814697266C10,24.000003814697266,10,4.000003814697266,10,4.000003814697266C10,4.000003814697266,10,4.000003814697266,10,4.000003814697266Z" fill="#68FE7F" fill-opacity="1" style="mix-blend-mode:passthrough"/></g></g><g><g><path d="M39.54302842941284,104.82321015014648C39.714728429412844,104.99491015014648,39.91752842941284,105.13231015014648,40.140728429412846,105.22801015014647C40.140728429412846,105.22801015014647,53.506928429412845,110.95641015014648,53.506928429412845,110.95641015014648C53.74442842941284,111.05921015014648,54.00052842941284,111.11181015014648,54.25932842941284,111.11111015014649C54.25932842941284,111.11111015014649,61.897128429412845,111.11111015014649,61.897128429412845,111.11111015014649C62.23202842941284,111.11281015014649,62.56142842941284,111.02591015014649,62.85182842941284,110.85901015014647C62.85182842941284,110.85901015014647,75.12972842941284,103.84371015014648,75.12972842941284,103.84371015014648C75.12972842941284,103.84371015014648,81.75552842941285,108.81971015014648,81.75552842941285,108.81971015014648C82.08612842941284,109.06761015014649,82.48812842941284,109.20161015014648,82.90122842941284,109.20161015014648C82.90122842941284,109.20161015014648,91.65802842941284,109.20161015014648,91.65802842941284,109.20161015014648C91.65802842941284,109.20161015014648,96.82692842941285,114.37051015014649,96.82692842941285,114.37051015014649C96.82692842941285,114.37051015014649,99.52692842941285,111.67051015014648,99.52692842941285,111.67051015014648C99.52692842941285,111.67051015014648,93.79852842941284,105.94211015014648,93.79852842941284,105.94211015014648C93.44052842941284,105.58401015014648,92.95492842941285,105.38281015014648,92.44852842941285,105.3827101501465C92.44852842941285,105.3827101501465,83.53712842941285,105.3827101501465,83.53712842941285,105.3827101501465C83.53712842941285,105.3827101501465,83.37672842941284,105.26241015014648,83.37672842941284,105.26241015014648C85.56722842941284,101.88791015014648,86.72882842941284,97.94901015014648,86.72012842941284,93.92591015014648C86.72012842941284,82.32567015014648,77.31632842941285,72.92181015014648,65.71602842941284,72.92181015014648C54.11582842941284,72.92181015014648,44.71192842941284,82.32566015014649,44.71192842941284,93.92591015014648C44.71192842941284,97.52281015014648,45.645628429412845,101.06121015014648,47.421928429412844,104.19241015014649C47.421928429412844,104.19241015014649,41.98332842941284,101.86351015014648,41.98332842941284,101.86351015014648C41.98332842941284,101.86351015014648,34.605128429412844,94.48541015014649,34.605128429412844,94.48541015014649C34.24712842941284,94.12721015014648,33.76152842941284,93.92601015014648,33.25512842941284,93.92591015014648C33.25512842941284,93.92591015014648,8.432128429412842,93.92591015014648,8.432128429412842,93.92591015014648C8.432128429412842,93.92591015014648,8.432128429412842,97.74481015014649,8.432128429412842,97.74481015014649C8.432128429412842,97.74481015014649,32.46462842941284,97.74481015014649,32.46462842941284,97.74481015014649C32.46462842941284,97.74481015014649,39.54302842941284,104.82321015014648,39.54302842941284,104.82321015014648C39.54302842941284,104.82321015014648,39.54302842941284,104.82321015014648,39.54302842941284,104.82321015014648ZM65.71602842941284,103.47321015014649C60.44322842941284,103.47321015014649,56.168728429412845,99.19871015014648,56.168728429412845,93.92591015014648C56.168728429412845,88.65311015014649,60.44322842941284,84.37861015014649,65.71602842941284,84.37861015014649C70.98892842941285,84.37861015014649,75.26342842941284,88.65311015014649,75.26342842941284,93.92591015014648C75.27232842941284,96.92451015014649,73.85892842941284,99.74981015014649,71.45402842941284,101.54081015014648C71.45402842941284,101.54081015014648,70.67302842941285,101.98761015014648,70.67302842941285,101.98761015014648C70.67302842941285,101.98761015014648,69.27912842941285,102.78391015014648,69.27912842941285,102.78391015014648C68.14672842941283,103.24021015014648,66.93702842941283,103.47431015014648,65.71602842941284,103.47321015014649C65.71602842941284,103.47321015014649,65.71602842941284,103.47321015014649,65.71602842941284,103.47321015014649ZM65.71602842941284,76.74072015014649C75.20282842941285,76.75124015014649,82.89072842941285,84.43911015014649,82.90122842941284,93.92591015014648C82.90592842941284,97.12161015014648,82.00632842941285,100.25351015014648,80.30622842941284,102.95961015014649C80.30622842941284,102.95961015014649,77.22632842941285,100.64911015014648,77.22632842941285,100.64911015014648C80.10842842941284,95.70611015014649,79.51922842941285,89.47581015014649,75.76142842941285,85.16081015014649C72.00372842941283,80.84568015014648,65.91352842941285,79.40586015014648,60.62132842941284,81.58137015014648C55.32912842941284,83.75691015014648,52.01232842941284,89.06361015014649,52.37582842941284,94.77401015014648C52.73922842941284,100.48441015014649,56.702128429412845,105.32781015014649,62.22742842941284,106.81481015014649C62.22742842941284,106.81481015014649,61.38922842941284,107.29211015014648,61.38922842941284,107.29211015014648C61.38922842941284,107.29211015014648,54.98682842941284,107.29211015014648,54.98682842941284,107.29211015014648C50.90152842941284,104.06051015014648,48.52242842941284,99.13491015014648,48.53092842941284,93.92591015014648C48.54142842941284,84.43911015014649,56.22932842941284,76.75124015014649,65.71602842941284,76.74072015014649C65.71602842941284,76.74072015014649,65.71602842941284,76.74072015014649,65.71602842941284,76.74072015014649Z" fill="#000000" fill-opacity="1" style="mix-blend-mode:passthrough"/></g><g><path d="M121.09052181396484,13.728393814697267C121.09052181396484,13.728393814697267,70.06582181396485,13.728393814697267,70.06582181396485,13.728393814697267C70.44772181396485,12.699193814697265,70.85442181396485,11.677633814697266,71.28982181396483,10.661793814697266C71.54272181396485,10.071873814697266,71.48222181396484,9.394353814697265,71.12902181396484,8.858484814697265C70.77572181396485,8.322609814697266,70.17682181396484,8.000075160197266,69.53502181396485,8.000004111492265C69.53502181396485,8.000004111492265,58.078221813964845,8.000004111492265,58.078221813964845,8.000004111492265C57.225521813964846,7.999531088697266,56.475811813964846,8.564516814697265,56.241301813964846,9.384363814697267C55.830771813964844,10.820283814697266,55.511891813964844,12.271473814697266,55.23311181396484,13.728393814697267C55.23311181396484,13.728393814697267,48.53089181396484,13.728393814697267,48.53089181396484,13.728393814697267C47.476321813964844,13.728393814697267,46.621421813964844,14.583293814697265,46.621421813964844,15.637863814697265C46.621421813964844,15.637863814697265,46.621421813964844,23.275703814697266,46.621421813964844,23.275703814697266C46.621421813964844,24.330303814697267,47.476321813964844,25.185203814697264,48.53089181396484,25.185203814697264C48.53089181396484,25.185203814697264,54.39485181396484,25.185203814697264,54.39485181396484,25.185203814697264C54.56035181396484,29.239203814697266,55.22018181396484,33.25780381469727,56.359691813964844,37.15180381469727C56.359691813964844,37.15180381469727,61.98502181396484,56.27510381469727,61.98502181396484,56.27510381469727C62.265321813964846,57.16880381469726,63.15262181396484,57.72720381469727,64.07962181396485,57.59340381469727C65.00672181396484,57.45960381469727,65.69982181396485,56.673103814697264,65.71602181396484,55.73660381469727C65.71602181396484,55.73660381469727,65.71602181396484,37.81820381469727,65.71602181396484,37.81820381469727C65.72022181396484,33.57990381469726,66.11522181396484,29.350903814697265,66.89612181396484,25.185203814697264C66.89612181396484,25.185203814697264,121.09052181396484,25.185203814697264,121.09052181396484,25.185203814697264C122.14512181396485,25.185203814697264,123.00002181396485,24.330303814697267,123.00002181396485,23.275703814697266C123.00002181396485,23.275703814697266,123.00002181396485,15.637863814697265,123.00002181396485,15.637863814697265C123.00002181396485,14.583293814697265,122.14512181396485,13.728393814697267,121.09052181396484,13.728393814697267C121.09052181396484,13.728393814697267,121.09052181396484,13.728393814697267,121.09052181396484,13.728393814697267ZM50.440351813964845,17.547323814697265C50.440351813964845,17.547323814697265,54.658361813964845,17.547323814697265,54.658361813964845,17.547323814697265C54.51515181396484,18.817103814697266,54.42540181396485,20.090703814697264,54.38148181396485,21.366303814697268C54.38148181396485,21.366303814697268,50.440351813964845,21.366303814697268,50.440351813964845,21.366303814697268C50.440351813964845,21.366303814697268,50.440351813964845,17.547323814697265,50.440351813964845,17.547323814697265C50.440351813964845,17.547323814697265,50.440351813964845,17.547323814697265,50.440351813964845,17.547323814697265ZM61.897121813964844,37.81820381469727C61.897121813964844,37.81820381469727,61.897121813964844,42.479203814697264,61.897121813964844,42.479203814697264C61.897121813964844,42.479203814697264,60.012521813964845,36.069103814697264,60.012521813964845,36.069103814697264C57.687621813964846,28.173603814697266,57.52542181396484,19.798603814697266,59.54282181396484,11.818913814697265C59.54282181396484,11.818913814697265,66.70132181396484,11.818933814697266,66.70132181396484,11.818933814697266C63.51522181396484,20.116303814697268,61.88652181396485,28.930103814697265,61.897121813964844,37.81820381469727C61.897121813964844,37.81820381469727,61.897121813964844,37.81820381469727,61.897121813964844,37.81820381469727ZM119.18112181396485,21.366303814697268C119.18112181396485,21.366303814697268,67.71722181396484,21.366303814697268,67.71722181396484,21.366303814697268C68.03222181396484,20.085003814697266,68.37592181396485,18.811403814697265,68.76742181396484,17.547323814697265C68.76742181396484,17.547323814697265,119.18112181396485,17.547323814697265,119.18112181396485,17.547323814697265C119.18112181396485,17.547323814697265,119.18112181396485,21.366303814697268,119.18112181396485,21.366303814697268C119.18112181396485,21.366303814697268,119.18112181396485,21.366303814697268,119.18112181396485,21.366303814697268Z" fill="#000000" fill-opacity="1" style="mix-blend-mode:passthrough"/></g><g><path d="M115.32412842941284,87.81557932128906C115.14212842941284,86.92647932128907,114.36012842941284,86.28787932128907,113.45312842941284,86.28807932128906C113.45312842941284,86.28807932128906,105.81482842941284,86.28807932128906,105.81482842941284,86.28807932128906C105.81482842941284,86.28807932128906,105.81482842941284,76.74067932128906,105.81482842941284,76.74067932128906C105.81882842941285,76.01357932128906,105.40932842941284,75.34727932128907,104.75892842941285,75.02217932128906C104.75892842941285,75.02217932128906,94.00862842941284,69.64897932128906,94.00862842941284,69.64897932128906C94.00862842941284,69.64897932128906,92.34922842941285,64.67099932128906,92.34922842941285,64.67099932128906C92.08632842941284,63.895339321289065,91.35812842941284,63.37372932128906,90.53912842941284,63.374479321289066C90.53912842941284,63.374479321289066,81.19992842941284,63.374479321289066,81.19992842941284,63.374479321289066C81.19992842941284,63.374479321289066,64.22092842941285,59.60137472128906,64.22092842941285,59.60137472128906C63.45132842941284,59.43010632128906,62.65562842941284,59.749465321289065,62.217928429412844,60.40526132128906C62.217928429412844,60.40526132128906,58.96612842941284,65.28393932128907,58.96612842941284,65.28393932128907C58.96612842941284,65.28393932128907,50.440328429412844,65.28393932128907,50.440328429412844,65.28393932128907C49.71662842941284,65.28360932128906,49.05492842941284,65.69247932128906,48.73132842941284,66.33987932128906C48.73132842941284,66.33987932128906,45.56552842941284,72.67357932128907,45.56552842941284,72.67357932128907C45.56552842941284,72.67357932128907,37.45602842941284,71.05047932128906,37.45602842941284,71.05047932128906C36.832028429412844,70.92517932128906,36.18662842941284,71.12087932128907,35.737428429412844,71.57177932128906C35.737428429412844,71.57177932128906,30.555228429412843,76.74067932128906,30.555228429412843,76.74067932128906C30.555228429412843,76.74067932128906,26.14622842941284,76.74067932128906,26.14622842941284,76.74067932128906C26.14622842941284,76.74067932128906,17.053358429412842,71.28537932128906,17.053358429412842,71.28537932128906C16.75641842941284,71.10687932128906,16.41647842941284,71.01247932128906,16.06998842941284,71.01237932128906C16.06998842941284,71.01237932128906,8.432128429412842,71.01237932128906,8.432128429412842,71.01237932128906C8.432128429412842,71.01237932128906,8.432128429412842,74.83127932128906,8.432128429412842,74.83127932128906C8.432128429412842,74.83127932128906,15.541068429412842,74.83127932128906,15.541068429412842,74.83127932128906C15.541068429412842,74.83127932128906,24.63392842941284,80.28657932128905,24.63392842941284,80.28657932128905C24.93092842941284,80.46517932128907,25.27082842941284,80.55957932128906,25.61732842941284,80.55967932128907C25.61732842941284,80.55967932128907,30.77282842941284,80.55967932128907,30.77282842941284,80.55967932128907C30.77282842941284,80.55967932128907,35.16462842941284,83.49067932128906,35.16462842941284,83.49067932128906C35.16462842941284,83.49067932128906,35.16462842941284,90.10697932128906,35.16462842941284,90.10697932128906C35.16462842941284,90.10697932128906,38.98352842941284,90.10697932128906,38.98352842941284,90.10697932128906C38.98352842941284,90.10697932128906,38.98352842941284,82.46907932128906,38.98352842941284,82.46907932128906C38.98352842941284,81.83057932128906,38.66462842941284,81.23447932128906,38.13362842941284,80.88027932128907C38.13362842941284,80.88027932128907,34.34352842941284,78.35417932128907,34.34352842941284,78.35417932128907C34.34352842941284,78.35417932128907,37.702328429412844,74.99357932128906,37.702328429412844,74.99357932128906C37.702328429412844,74.99357932128906,46.24712842941284,76.70257932128906,46.24712842941284,76.70257932128906C47.09162842941284,76.87197932128906,47.945028429412844,76.45507932128906,48.33042842941284,75.68477932128906C48.33042842941284,75.68477932128906,51.62042842941284,69.10286932128906,51.62042842941284,69.10286932128906C51.62042842941284,69.10286932128906,59.987628429412844,69.10286932128906,59.987628429412844,69.10286932128906C60.62622842941284,69.10286932128906,61.22232842941284,68.78393932128907,61.57652842941284,68.25291932128906C61.57652842941284,68.25291932128906,64.66972842941284,63.61315932128906,64.66972842941284,63.61315932128906C64.66972842941284,63.61315932128906,80.57742842941285,67.14757932128906,80.57742842941285,67.14757932128906C80.71342842941284,67.17812932128906,80.85242842941284,67.19348932128906,80.99172842941285,67.19340932128907C80.99172842941285,67.19340932128907,89.16232842941284,67.19340932128907,89.16232842941284,67.19340932128907C89.16232842941284,67.19340932128907,90.63842842941284,71.61577932128907,90.63842842941284,71.61577932128907C90.79752842941284,72.09617932128906,91.14092842941284,72.49387932128906,91.59312842941284,72.72127932128906C91.59312842941284,72.72127932128906,101.99592842941284,77.92077932128906,101.99592842941284,77.92077932128906C101.99592842941284,77.92077932128906,101.99592842941284,86.28807932128906,101.99592842941284,86.28807932128906C101.99592842941284,86.28807932128906,92.44852842941285,86.28807932128906,92.44852842941285,86.28807932128906C92.44852842941285,86.28807932128906,92.44852842941285,90.10697932128906,92.44852842941285,90.10697932128906C92.44852842941285,90.10697932128906,111.88912842941284,90.10697932128906,111.88912842941284,90.10697932128906C111.88912842941284,90.10697932128906,113.49112842941284,98.12677932128906,113.49112842941284,98.12677932128906C113.67212842941284,99.01587932128906,114.45512842941284,99.65447932128906,115.36212842941285,99.65427932128907C115.36212842941285,99.65427932128907,123.00012842941284,99.65427932128907,123.00012842941284,99.65427932128907C123.00012842941284,99.65427932128907,123.00012842941284,95.83537932128905,123.00012842941284,95.83537932128905C123.00012842941284,95.83537932128905,116.92612842941284,95.83537932128905,116.92612842941284,95.83537932128905C116.92612842941284,95.83537932128905,115.32412842941284,87.81557932128906,115.32412842941284,87.81557932128906C115.32412842941284,87.81557932128906,115.32412842941284,87.81557932128906,115.32412842941284,87.81557932128906Z" fill="#000000" fill-opacity="1" style="mix-blend-mode:passthrough"/></g><g><path d="M29.436230336761476,65.28392059631348C41.03653033676147,65.28392059631348,50.44033033676148,55.880120596313475,50.44033033676148,44.27982059631348C50.44033033676148,32.67958059631348,41.03653033676147,23.275720596313477,29.436230336761476,23.275720596313477C17.835990336761476,23.275720596313477,8.432130336761475,32.67958059631348,8.432130336761475,44.27982059631348C8.445813436761474,55.87442059631348,17.841670336761474,65.27022059631348,29.436230336761476,65.28392059631348C29.436230336761476,65.28392059631348,29.436230336761476,65.28392059631348,29.436230336761476,65.28392059631348ZM29.436230336761476,27.09465059631348C38.92733033676147,27.09465059631348,46.62143033676148,34.788720596313475,46.62143033676148,44.27982059631348C46.62143033676148,53.77092059631347,38.92733033676147,61.46502059631348,29.436230336761476,61.46502059631348C19.945130336761473,61.46502059631348,12.251060336761475,53.77092059631347,12.251060336761475,44.27982059631348C12.261580336761474,34.79312059631348,19.949530336761477,27.105170596313478,29.436230336761476,27.09465059631348C29.436230336761476,27.09465059631348,29.436230336761476,27.09465059631348,29.436230336761476,27.09465059631348Z" fill="#000000" fill-opacity="1" style="mix-blend-mode:passthrough"/></g><g><path d="M29.43628634338379,57.6460799407959C36.818186343383786,57.6460799407959,42.80248634338379,51.661779940795896,42.80248634338379,44.2798799407959C42.80248634338379,36.8978599407959,36.818186343383786,30.913578033445898,29.43618634338379,30.913579940796357C22.05425634338379,30.913579940796357,16.06998443603379,36.8978599407959,16.069986343384244,44.2798799407959C16.07840728338379,51.6582799407959,22.05775634338379,57.6376799407959,29.43628634338379,57.6460799407959C29.43628634338379,57.6460799407959,29.43628634338379,57.6460799407959,29.43628634338379,57.6460799407959ZM29.43628634338379,34.7325099407959C34.70908634338379,34.7325099407959,38.98358634338379,39.0069999407959,38.98358634338379,44.2798799407959C38.98358634338379,49.5526799407959,34.70908634338379,53.8271799407959,29.43628634338379,53.8271799407959C24.163396343383788,53.8271799407959,19.88891634338379,49.5526799407959,19.88891634338379,44.2798799407959C19.89522634338379,39.0096099407959,24.166016343383788,34.738829940795895,29.43628634338379,34.7325099407959C29.43628634338379,34.7325099407959,29.43628634338379,34.7325099407959,29.43628634338379,34.7325099407959Z" fill="#000000" fill-opacity="1" style="mix-blend-mode:passthrough"/></g><g><rect x="8" y="119.00000381469727" width="4" height="4" rx="0" fill="#000000" fill-opacity="1" style="mix-blend-mode:passthrough"/></g><g><rect x="15.999999523162842" y="115.00000381469727" width="4" height="4" rx="0" fill="#000000" fill-opacity="1" style="mix-blend-mode:passthrough"/></g><g><rect x="29" y="103.00000381469727" width="4" height="4" rx="0" fill="#000000" fill-opacity="1" style="mix-blend-mode:passthrough"/></g><g><rect x="102" y="119.00000381469727" width="4" height="4" rx="0" fill="#000000" fill-opacity="1" style="mix-blend-mode:passthrough"/></g><g><rect x="110" y="113.00000381469727" width="3" height="4" rx="0" fill="#000000" fill-opacity="1" style="mix-blend-mode:passthrough"/></g><g><rect x="119" y="107.00000381469727" width="4" height="4" rx="0" fill="#000000" fill-opacity="1" style="mix-blend-mode:passthrough"/></g><g><path d="M111.08111775634765,67.13609654541015C111.23222775634765,67.17399654541016,111.38741775634766,67.19319654541016,111.54320775634766,67.19339654541015C111.92026775634766,67.19269654541016,112.28878775634766,67.08109654541016,112.60298775634766,66.87259654541016C112.60298775634766,66.87259654541016,118.33138775634765,63.053696545410155,118.33138775634765,63.053696545410155C118.80708775634766,62.73619654541015,119.11548775634765,62.222196545410156,119.17178775634765,61.65302654541016C119.22798775634766,61.08383654541016,119.02608775634766,60.51941654541015,118.62158775634765,60.11502654541016C118.62158775634765,60.11502654541016,110.98373775634765,52.47716654541016,110.98373775634765,52.47716654541016C110.47262775634766,51.96571084541016,109.71645775634765,51.78683154541016,109.03035775634766,52.015073045410155C109.03035775634766,52.015073045410155,103.30196775634765,53.924536545410156,103.30196775634765,53.924536545410156C102.52186575634765,54.18436654541016,101.99568944834766,54.91438654541015,101.99588781241465,55.73661654541016C101.99588781241465,55.73661654541016,101.99588781241465,63.37449654541015,101.99588781241465,63.37449654541015C101.99611669434766,64.25089654541016,102.59291875634766,65.01459654541016,103.44325775634766,65.22669654541016C103.44325775634766,65.22669654541016,111.08111775634765,67.13609654541015,111.08111775634765,67.13609654541015C111.08111775634765,67.13609654541015,111.08111775634765,67.13609654541015,111.08111775634765,67.13609654541015ZM105.81480775634766,57.11334654541015C105.81480775634766,57.11334654541015,109.11627775634766,56.011586545410154,109.11627775634766,56.011586545410154C109.11627775634766,56.011586545410154,114.27178775634766,61.16713654541016,114.27178775634766,61.16713654541016C114.27178775634766,61.16713654541016,111.18231775634766,63.22359654541016,111.18231775634766,63.22359654541016C111.18231775634766,63.22359654541016,105.81480775634766,61.883186545410155,105.81480775634766,61.883186545410155C105.81480775634766,61.883186545410155,105.81480775634766,57.11334654541015,105.81480775634766,57.11334654541015C105.81480775634766,57.11334654541015,105.81480775634766,57.11334654541015,105.81480775634766,57.11334654541015Z" fill="#000000" fill-opacity="1" style="mix-blend-mode:passthrough"/></g><g><rect x="70" y="39.000003814697266" width="3" height="9" rx="0" fill="#000000" fill-opacity="1" style="mix-blend-mode:passthrough"/></g><g><rect x="81" y="56.000003814697266" width="10" height="4" rx="0" fill="#000000" fill-opacity="1" style="mix-blend-mode:passthrough"/></g><g transform="matrix(0.7071099877357483,-0.7071099877357483,0.7071099877357483,0.7071099877357483,-11.638970984369962,69.21669287434793)"><rect x="77.7325439453125" y="48.657291412353516" width="10.801840782165527" height="3.8189289569854736" rx="0" fill="#000000" fill-opacity="1" style="mix-blend-mode:passthrough"/></g><g><rect x="8" y="18.000003814697266" width="4" height="3" rx="0" fill="#000000" fill-opacity="1" style="mix-blend-mode:passthrough"/></g><g><rect x="8" y="8.000003933906555" width="4" height="4" rx="0" fill="#000000" fill-opacity="1" style="mix-blend-mode:passthrough"/></g><g><rect x="18" y="12.000003814697266" width="4" height="4" rx="0" fill="#000000" fill-opacity="1" style="mix-blend-mode:passthrough"/></g></g></g></svg>